%TF.GenerationSoftware,KiCad,Pcbnew,(6.99.0-1533-gf0f33ef1d3)*%
%TF.CreationDate,2022-04-06T09:30:28+02:00*%
%TF.ProjectId,freeDSP-aurora-extension-i2C-mod-display,66726565-4453-4502-9d61-75726f72612d,v1.2*%
%TF.SameCoordinates,Original*%
%TF.FileFunction,Copper,L1,Top*%
%TF.FilePolarity,Positive*%
%FSLAX46Y46*%
G04 Gerber Fmt 4.6, Leading zero omitted, Abs format (unit mm)*
G04 Created by KiCad (PCBNEW (6.99.0-1533-gf0f33ef1d3)) date 2022-04-06 09:30:28*
%MOMM*%
%LPD*%
G01*
G04 APERTURE LIST*
G04 Aperture macros list*
%AMRoundRect*
0 Rectangle with rounded corners*
0 $1 Rounding radius*
0 $2 $3 $4 $5 $6 $7 $8 $9 X,Y pos of 4 corners*
0 Add a 4 corners polygon primitive as box body*
4,1,4,$2,$3,$4,$5,$6,$7,$8,$9,$2,$3,0*
0 Add four circle primitives for the rounded corners*
1,1,$1+$1,$2,$3*
1,1,$1+$1,$4,$5*
1,1,$1+$1,$6,$7*
1,1,$1+$1,$8,$9*
0 Add four rect primitives between the rounded corners*
20,1,$1+$1,$2,$3,$4,$5,0*
20,1,$1+$1,$4,$5,$6,$7,0*
20,1,$1+$1,$6,$7,$8,$9,0*
20,1,$1+$1,$8,$9,$2,$3,0*%
G04 Aperture macros list end*
%TA.AperFunction,ComponentPad*%
%ADD10R,1.700000X1.700000*%
%TD*%
%TA.AperFunction,ComponentPad*%
%ADD11O,1.700000X1.700000*%
%TD*%
%TA.AperFunction,SMDPad,CuDef*%
%ADD12RoundRect,0.250000X0.262500X0.450000X-0.262500X0.450000X-0.262500X-0.450000X0.262500X-0.450000X0*%
%TD*%
%TA.AperFunction,ComponentPad*%
%ADD13R,1.800000X1.600000*%
%TD*%
%TA.AperFunction,ComponentPad*%
%ADD14C,1.900000*%
%TD*%
%TA.AperFunction,ComponentPad*%
%ADD15C,1.600000*%
%TD*%
%TA.AperFunction,ComponentPad*%
%ADD16O,1.600000X1.600000*%
%TD*%
%TA.AperFunction,SMDPad,CuDef*%
%ADD17RoundRect,0.250000X1.250000X0.550000X-1.250000X0.550000X-1.250000X-0.550000X1.250000X-0.550000X0*%
%TD*%
%TA.AperFunction,Conductor*%
%ADD18C,0.250000*%
%TD*%
%TA.AperFunction,Conductor*%
%ADD19C,0.200000*%
%TD*%
G04 APERTURE END LIST*
D10*
%TO.P,J1,1*%
%TO.N,GND*%
X165988999Y-106641999D03*
D11*
%TO.P,J1,2*%
%TO.N,N/C*%
X165988999Y-104101999D03*
%TO.P,J1,3*%
X165988999Y-101561999D03*
%TO.P,J1,4*%
X165988999Y-99021999D03*
%TD*%
D12*
%TO.P,R1,1*%
%TO.N,N/C*%
X154074500Y-98044000D03*
%TO.P,R1,2*%
X152249500Y-98044000D03*
%TD*%
D13*
%TO.P,C1,1*%
%TO.N,N/C*%
X143266613Y-93928999D03*
X142595676Y-92328999D03*
D14*
%TO.P,C1,2*%
X140095677Y-92329000D03*
X139424740Y-90729000D03*
%TD*%
D15*
%TO.P,R1,1*%
%TO.N,N/C*%
X158242000Y-93980000D03*
D16*
%TO.P,R1,2*%
X148081999Y-93979999D03*
%TD*%
D17*
%TO.P,c1,1*%
%TO.N,N/C*%
X143551000Y-102489000D03*
%TO.P,c1,2*%
X139151000Y-102489000D03*
%TD*%
D10*
%TO.P,J2,1*%
%TO.N,GND*%
X169838999Y-106641999D03*
D11*
%TO.P,J2,2*%
%TO.N,N/C*%
X169838999Y-104101999D03*
%TO.P,J2,3*%
X169838999Y-101561999D03*
%TO.P,J2,4*%
X169838999Y-99021999D03*
%TO.P,J2,5*%
X169838999Y-96481999D03*
%TO.P,J2,6*%
X169838999Y-93941999D03*
%TO.P,J2,7*%
X169838999Y-91401999D03*
%TD*%
D18*
%TO.N,*%
X154074500Y-98044000D02*
X156337000Y-98044000D01*
D19*
X171450000Y-95553000D02*
X169839000Y-93942000D01*
X171450000Y-102362000D02*
X171450000Y-95553000D01*
D18*
X152249500Y-98044000D02*
X150114000Y-98044000D01*
D19*
X142595677Y-93258063D02*
X143266614Y-93929000D01*
D18*
X156337000Y-98044000D02*
X158242000Y-96139000D01*
X150114000Y-98044000D02*
X148082000Y-96012000D01*
D19*
X169755500Y-104056500D02*
X171450000Y-102362000D01*
X143551000Y-102489000D02*
X143266614Y-102204614D01*
X143266614Y-102204614D02*
X143266614Y-93929000D01*
X142595677Y-92329000D02*
X142595677Y-93258063D01*
D18*
X158242000Y-96139000D02*
X158242000Y-93980000D01*
X148082000Y-96012000D02*
X148082000Y-93980000D01*
D19*
%TO.N,GND*%
X140095677Y-101544323D02*
X140095677Y-92329000D01*
X139424740Y-91658063D02*
X140095677Y-92329000D01*
X139151000Y-102489000D02*
X140095677Y-101544323D01*
X139424740Y-90729000D02*
X139424740Y-91658063D01*
%TD*%
%TA.AperFunction,Conductor*%
%TO.N,GND*%
G36*
X173788621Y-75585502D02*
G01*
X173835114Y-75639158D01*
X173846500Y-75691500D01*
X173846500Y-121539500D01*
X173826498Y-121607621D01*
X173772842Y-121654114D01*
X173720500Y-121665500D01*
X98932500Y-121665500D01*
X98864379Y-121645498D01*
X98817886Y-121591842D01*
X98806500Y-121539500D01*
X98806500Y-118186225D01*
X100330500Y-118186225D01*
X100369777Y-118471989D01*
X100447600Y-118749744D01*
X100562519Y-119014314D01*
X100712394Y-119260772D01*
X100894432Y-119484526D01*
X101105242Y-119681409D01*
X101340897Y-119847753D01*
X101597008Y-119980459D01*
X101868804Y-120077055D01*
X101873006Y-120077928D01*
X101873009Y-120077929D01*
X102147010Y-120134867D01*
X102147014Y-120134868D01*
X102151222Y-120135742D01*
X102155516Y-120136036D01*
X102155518Y-120136036D01*
X102364832Y-120150354D01*
X102364841Y-120150354D01*
X102366971Y-120150500D01*
X102511029Y-120150500D01*
X102513159Y-120150354D01*
X102513168Y-120150354D01*
X102722482Y-120136036D01*
X102722484Y-120136036D01*
X102726778Y-120135742D01*
X102730986Y-120134868D01*
X102730990Y-120134867D01*
X103004991Y-120077929D01*
X103004994Y-120077928D01*
X103009196Y-120077055D01*
X103280992Y-119980459D01*
X103537103Y-119847753D01*
X103772758Y-119681409D01*
X103983568Y-119484526D01*
X104165606Y-119260772D01*
X104315481Y-119014314D01*
X104430400Y-118749744D01*
X104508223Y-118471989D01*
X104547500Y-118186225D01*
X168120500Y-118186225D01*
X168159777Y-118471989D01*
X168237600Y-118749744D01*
X168352519Y-119014314D01*
X168502394Y-119260772D01*
X168684432Y-119484526D01*
X168895242Y-119681409D01*
X169130897Y-119847753D01*
X169387008Y-119980459D01*
X169658804Y-120077055D01*
X169663006Y-120077928D01*
X169663009Y-120077929D01*
X169937010Y-120134867D01*
X169937014Y-120134868D01*
X169941222Y-120135742D01*
X169945516Y-120136036D01*
X169945518Y-120136036D01*
X170154832Y-120150354D01*
X170154841Y-120150354D01*
X170156971Y-120150500D01*
X170301029Y-120150500D01*
X170303159Y-120150354D01*
X170303168Y-120150354D01*
X170512482Y-120136036D01*
X170512484Y-120136036D01*
X170516778Y-120135742D01*
X170520986Y-120134868D01*
X170520990Y-120134867D01*
X170794991Y-120077929D01*
X170794994Y-120077928D01*
X170799196Y-120077055D01*
X171070992Y-119980459D01*
X171327103Y-119847753D01*
X171562758Y-119681409D01*
X171773568Y-119484526D01*
X171955606Y-119260772D01*
X172105481Y-119014314D01*
X172220400Y-118749744D01*
X172298223Y-118471989D01*
X172337500Y-118186225D01*
X172337500Y-117897775D01*
X172298223Y-117612011D01*
X172220400Y-117334256D01*
X172105481Y-117069686D01*
X171955606Y-116823228D01*
X171773568Y-116599474D01*
X171562758Y-116402591D01*
X171327103Y-116236247D01*
X171070992Y-116103541D01*
X170799196Y-116006945D01*
X170794994Y-116006072D01*
X170794991Y-116006071D01*
X170520990Y-115949133D01*
X170520986Y-115949132D01*
X170516778Y-115948258D01*
X170512484Y-115947964D01*
X170512482Y-115947964D01*
X170303168Y-115933646D01*
X170303159Y-115933646D01*
X170301029Y-115933500D01*
X170156971Y-115933500D01*
X170154841Y-115933646D01*
X170154832Y-115933646D01*
X169945518Y-115947964D01*
X169945516Y-115947964D01*
X169941222Y-115948258D01*
X169937014Y-115949132D01*
X169937010Y-115949133D01*
X169663009Y-116006071D01*
X169663006Y-116006072D01*
X169658804Y-116006945D01*
X169387008Y-116103541D01*
X169130897Y-116236247D01*
X168895242Y-116402591D01*
X168684432Y-116599474D01*
X168502394Y-116823228D01*
X168352519Y-117069686D01*
X168237600Y-117334256D01*
X168159777Y-117612011D01*
X168120500Y-117897775D01*
X168120500Y-118186225D01*
X104547500Y-118186225D01*
X104547500Y-117897775D01*
X104508223Y-117612011D01*
X104430400Y-117334256D01*
X104315481Y-117069686D01*
X104165606Y-116823228D01*
X103983568Y-116599474D01*
X103772758Y-116402591D01*
X103537103Y-116236247D01*
X103280992Y-116103541D01*
X103009196Y-116006945D01*
X103004994Y-116006072D01*
X103004991Y-116006071D01*
X102730990Y-115949133D01*
X102730986Y-115949132D01*
X102726778Y-115948258D01*
X102722484Y-115947964D01*
X102722482Y-115947964D01*
X102513168Y-115933646D01*
X102513159Y-115933646D01*
X102511029Y-115933500D01*
X102366971Y-115933500D01*
X102364841Y-115933646D01*
X102364832Y-115933646D01*
X102155518Y-115947964D01*
X102155516Y-115947964D01*
X102151222Y-115948258D01*
X102147014Y-115949132D01*
X102147010Y-115949133D01*
X101873009Y-116006071D01*
X101873006Y-116006072D01*
X101868804Y-116006945D01*
X101597008Y-116103541D01*
X101340897Y-116236247D01*
X101105242Y-116402591D01*
X100894432Y-116599474D01*
X100712394Y-116823228D01*
X100562519Y-117069686D01*
X100447600Y-117334256D01*
X100369777Y-117612011D01*
X100330500Y-117897775D01*
X100330500Y-118186225D01*
X98806500Y-118186225D01*
X98806500Y-107537223D01*
X164631000Y-107537223D01*
X164631360Y-107543938D01*
X164636662Y-107593257D01*
X164640259Y-107608478D01*
X164685405Y-107729520D01*
X164693954Y-107745176D01*
X164770698Y-107847693D01*
X164783307Y-107860302D01*
X164885824Y-107937046D01*
X164901480Y-107945595D01*
X165022522Y-107990741D01*
X165037743Y-107994338D01*
X165087062Y-107999640D01*
X165093777Y-108000000D01*
X165716885Y-108000000D01*
X165732124Y-107995525D01*
X165733329Y-107994135D01*
X165735000Y-107986452D01*
X165735000Y-107981885D01*
X166243000Y-107981885D01*
X166247475Y-107997124D01*
X166248865Y-107998329D01*
X166256548Y-108000000D01*
X166884223Y-108000000D01*
X166890938Y-107999640D01*
X166940257Y-107994338D01*
X166955478Y-107990741D01*
X167076520Y-107945595D01*
X167092176Y-107937046D01*
X167194693Y-107860302D01*
X167207302Y-107847693D01*
X167284046Y-107745176D01*
X167292595Y-107729520D01*
X167337741Y-107608478D01*
X167341338Y-107593257D01*
X167346640Y-107543938D01*
X167347000Y-107537223D01*
X168481000Y-107537223D01*
X168481360Y-107543938D01*
X168486662Y-107593257D01*
X168490259Y-107608478D01*
X168535405Y-107729520D01*
X168543954Y-107745176D01*
X168620698Y-107847693D01*
X168633307Y-107860302D01*
X168735824Y-107937046D01*
X168751480Y-107945595D01*
X168872522Y-107990741D01*
X168887743Y-107994338D01*
X168937062Y-107999640D01*
X168943777Y-108000000D01*
X169566885Y-108000000D01*
X169582124Y-107995525D01*
X169583329Y-107994135D01*
X169585000Y-107986452D01*
X169585000Y-107981885D01*
X170093000Y-107981885D01*
X170097475Y-107997124D01*
X170098865Y-107998329D01*
X170106548Y-108000000D01*
X170734223Y-108000000D01*
X170740938Y-107999640D01*
X170790257Y-107994338D01*
X170805478Y-107990741D01*
X170926520Y-107945595D01*
X170942176Y-107937046D01*
X171044693Y-107860302D01*
X171057302Y-107847693D01*
X171134046Y-107745176D01*
X171142595Y-107729520D01*
X171187741Y-107608478D01*
X171191338Y-107593257D01*
X171196640Y-107543938D01*
X171197000Y-107537223D01*
X171197000Y-106914115D01*
X171192525Y-106898876D01*
X171191135Y-106897671D01*
X171183452Y-106896000D01*
X170111115Y-106896000D01*
X170095876Y-106900475D01*
X170094671Y-106901865D01*
X170093000Y-106909548D01*
X170093000Y-107981885D01*
X169585000Y-107981885D01*
X169585000Y-106914115D01*
X169580525Y-106898876D01*
X169579135Y-106897671D01*
X169571452Y-106896000D01*
X168499115Y-106896000D01*
X168483876Y-106900475D01*
X168482671Y-106901865D01*
X168481000Y-106909548D01*
X168481000Y-107537223D01*
X167347000Y-107537223D01*
X167347000Y-106914115D01*
X167342525Y-106898876D01*
X167341135Y-106897671D01*
X167333452Y-106896000D01*
X166261115Y-106896000D01*
X166245876Y-106900475D01*
X166244671Y-106901865D01*
X166243000Y-106909548D01*
X166243000Y-107981885D01*
X165735000Y-107981885D01*
X165735000Y-106914115D01*
X165730525Y-106898876D01*
X165729135Y-106897671D01*
X165721452Y-106896000D01*
X164649115Y-106896000D01*
X164633876Y-106900475D01*
X164632671Y-106901865D01*
X164631000Y-106909548D01*
X164631000Y-107537223D01*
X98806500Y-107537223D01*
X98806500Y-104102000D01*
X164625844Y-104102000D01*
X164644436Y-104326368D01*
X164699704Y-104544616D01*
X164790140Y-104750791D01*
X164913278Y-104939268D01*
X164916803Y-104943097D01*
X164916806Y-104943101D01*
X165056841Y-105095217D01*
X165088262Y-105158882D01*
X165080275Y-105229428D01*
X165035417Y-105284457D01*
X165008173Y-105298611D01*
X164901478Y-105338406D01*
X164885824Y-105346954D01*
X164783307Y-105423698D01*
X164770698Y-105436307D01*
X164693954Y-105538824D01*
X164685405Y-105554480D01*
X164640259Y-105675522D01*
X164636662Y-105690743D01*
X164631360Y-105740062D01*
X164631000Y-105746777D01*
X164631000Y-106369885D01*
X164635475Y-106385124D01*
X164636865Y-106386329D01*
X164644548Y-106388000D01*
X167328885Y-106388000D01*
X167344124Y-106383525D01*
X167345329Y-106382135D01*
X167347000Y-106374452D01*
X167347000Y-105746777D01*
X167346640Y-105740062D01*
X167341338Y-105690743D01*
X167337741Y-105675522D01*
X167292595Y-105554480D01*
X167284046Y-105538824D01*
X167207302Y-105436307D01*
X167194693Y-105423698D01*
X167092176Y-105346954D01*
X167076522Y-105338406D01*
X166969827Y-105298611D01*
X166912992Y-105256064D01*
X166888181Y-105189544D01*
X166903273Y-105120169D01*
X166921159Y-105095217D01*
X167061194Y-104943101D01*
X167061197Y-104943097D01*
X167064722Y-104939268D01*
X167187860Y-104750791D01*
X167278296Y-104544616D01*
X167333564Y-104326368D01*
X167352156Y-104102000D01*
X168475844Y-104102000D01*
X168494436Y-104326368D01*
X168549704Y-104544616D01*
X168640140Y-104750791D01*
X168763278Y-104939268D01*
X168766803Y-104943097D01*
X168766806Y-104943101D01*
X168906841Y-105095217D01*
X168938262Y-105158882D01*
X168930275Y-105229428D01*
X168885417Y-105284457D01*
X168858173Y-105298611D01*
X168751478Y-105338406D01*
X168735824Y-105346954D01*
X168633307Y-105423698D01*
X168620698Y-105436307D01*
X168543954Y-105538824D01*
X168535405Y-105554480D01*
X168490259Y-105675522D01*
X168486662Y-105690743D01*
X168481360Y-105740062D01*
X168481000Y-105746777D01*
X168481000Y-106369885D01*
X168485475Y-106385124D01*
X168486865Y-106386329D01*
X168494548Y-106388000D01*
X171178885Y-106388000D01*
X171194124Y-106383525D01*
X171195329Y-106382135D01*
X171197000Y-106374452D01*
X171197000Y-105746777D01*
X171196640Y-105740062D01*
X171191338Y-105690743D01*
X171187741Y-105675522D01*
X171142595Y-105554480D01*
X171134046Y-105538824D01*
X171057302Y-105436307D01*
X171044693Y-105423698D01*
X170942176Y-105346954D01*
X170926522Y-105338406D01*
X170819827Y-105298611D01*
X170762992Y-105256064D01*
X170738181Y-105189544D01*
X170753273Y-105120169D01*
X170771159Y-105095217D01*
X170911194Y-104943101D01*
X170911197Y-104943097D01*
X170914722Y-104939268D01*
X171037860Y-104750791D01*
X171128296Y-104544616D01*
X171183564Y-104326368D01*
X171202156Y-104102000D01*
X171183564Y-103877632D01*
X171163272Y-103797499D01*
X171129578Y-103664446D01*
X171129578Y-103664445D01*
X171128296Y-103659384D01*
X171126200Y-103654606D01*
X171124509Y-103649679D01*
X171126583Y-103648967D01*
X171118731Y-103587748D01*
X171154066Y-103518483D01*
X171846234Y-102826315D01*
X171858625Y-102815448D01*
X171877437Y-102801013D01*
X171883987Y-102795987D01*
X171908474Y-102764075D01*
X171908478Y-102764071D01*
X171981524Y-102668876D01*
X172042838Y-102520851D01*
X172055943Y-102421304D01*
X172058500Y-102401885D01*
X172058500Y-102401880D01*
X172063750Y-102362000D01*
X172059578Y-102330307D01*
X172058500Y-102313864D01*
X172058500Y-95601136D01*
X172059578Y-95584690D01*
X172062672Y-95561188D01*
X172063750Y-95553000D01*
X172058500Y-95513120D01*
X172058500Y-95513115D01*
X172042838Y-95394150D01*
X172040640Y-95388843D01*
X172022071Y-95344012D01*
X171998509Y-95287129D01*
X171981524Y-95246124D01*
X171974631Y-95237140D01*
X171908483Y-95150936D01*
X171908477Y-95150928D01*
X171908474Y-95150925D01*
X171883987Y-95119013D01*
X171877432Y-95113983D01*
X171858621Y-95099548D01*
X171846230Y-95088681D01*
X171181722Y-94424173D01*
X171147696Y-94361861D01*
X171148673Y-94304146D01*
X171182284Y-94171423D01*
X171182284Y-94171422D01*
X171183564Y-94166368D01*
X171202156Y-93942000D01*
X171186057Y-93747716D01*
X171183995Y-93722828D01*
X171183994Y-93722823D01*
X171183564Y-93717632D01*
X171181925Y-93711158D01*
X171129578Y-93504446D01*
X171129578Y-93504445D01*
X171128296Y-93499384D01*
X171085289Y-93401337D01*
X171039954Y-93297982D01*
X171039952Y-93297978D01*
X171037860Y-93293209D01*
X170997701Y-93231740D01*
X170917573Y-93109096D01*
X170914722Y-93104732D01*
X170911197Y-93100903D01*
X170911194Y-93100899D01*
X170765772Y-92942931D01*
X170762240Y-92939094D01*
X170638108Y-92842477D01*
X170588689Y-92804012D01*
X170588687Y-92804010D01*
X170584576Y-92800811D01*
X170551320Y-92782814D01*
X170500929Y-92732801D01*
X170485577Y-92663484D01*
X170510137Y-92596871D01*
X170551320Y-92561186D01*
X170579995Y-92545668D01*
X170584576Y-92543189D01*
X170762240Y-92404906D01*
X170836894Y-92323811D01*
X170911194Y-92243101D01*
X170911197Y-92243097D01*
X170914722Y-92239268D01*
X171010082Y-92093309D01*
X171035008Y-92055157D01*
X171035010Y-92055153D01*
X171037860Y-92050791D01*
X171067337Y-91983591D01*
X171126200Y-91849394D01*
X171128296Y-91844616D01*
X171183564Y-91626368D01*
X171195384Y-91483731D01*
X171201726Y-91407189D01*
X171202156Y-91402000D01*
X171192978Y-91291237D01*
X171183995Y-91182828D01*
X171183994Y-91182823D01*
X171183564Y-91177632D01*
X171128296Y-90959384D01*
X171037860Y-90753209D01*
X171022044Y-90729000D01*
X170917573Y-90569096D01*
X170914722Y-90564732D01*
X170911197Y-90560903D01*
X170911194Y-90560899D01*
X170765772Y-90402931D01*
X170762240Y-90399094D01*
X170584576Y-90260811D01*
X170386574Y-90153658D01*
X170173635Y-90080556D01*
X170168501Y-90079699D01*
X170168496Y-90079698D01*
X169956706Y-90044357D01*
X169956704Y-90044357D01*
X169951569Y-90043500D01*
X169726431Y-90043500D01*
X169721296Y-90044357D01*
X169721294Y-90044357D01*
X169509504Y-90079698D01*
X169509499Y-90079699D01*
X169504365Y-90080556D01*
X169291426Y-90153658D01*
X169093424Y-90260811D01*
X168915760Y-90399094D01*
X168912228Y-90402931D01*
X168766806Y-90560899D01*
X168766803Y-90560903D01*
X168763278Y-90564732D01*
X168760427Y-90569096D01*
X168655957Y-90729000D01*
X168640140Y-90753209D01*
X168549704Y-90959384D01*
X168494436Y-91177632D01*
X168494006Y-91182823D01*
X168494005Y-91182828D01*
X168485022Y-91291237D01*
X168475844Y-91402000D01*
X168476274Y-91407189D01*
X168482617Y-91483731D01*
X168494436Y-91626368D01*
X168549704Y-91844616D01*
X168551800Y-91849394D01*
X168610664Y-91983591D01*
X168640140Y-92050791D01*
X168642990Y-92055153D01*
X168642992Y-92055157D01*
X168667918Y-92093309D01*
X168763278Y-92239268D01*
X168766803Y-92243097D01*
X168766806Y-92243101D01*
X168841106Y-92323811D01*
X168915760Y-92404906D01*
X169093424Y-92543189D01*
X169098005Y-92545668D01*
X169126680Y-92561186D01*
X169177071Y-92611199D01*
X169192423Y-92680516D01*
X169167863Y-92747129D01*
X169126681Y-92782813D01*
X169093424Y-92800811D01*
X169089313Y-92804010D01*
X169089311Y-92804012D01*
X169039892Y-92842477D01*
X168915760Y-92939094D01*
X168912228Y-92942931D01*
X168766806Y-93100899D01*
X168766803Y-93100903D01*
X168763278Y-93104732D01*
X168760427Y-93109096D01*
X168680300Y-93231740D01*
X168640140Y-93293209D01*
X168638048Y-93297978D01*
X168638046Y-93297982D01*
X168592711Y-93401337D01*
X168549704Y-93499384D01*
X168548422Y-93504445D01*
X168548422Y-93504446D01*
X168496075Y-93711158D01*
X168494436Y-93717632D01*
X168494006Y-93722823D01*
X168494005Y-93722828D01*
X168491943Y-93747716D01*
X168475844Y-93942000D01*
X168476274Y-93947189D01*
X168479447Y-93985475D01*
X168494436Y-94166368D01*
X168549704Y-94384616D01*
X168640140Y-94590791D01*
X168642990Y-94595153D01*
X168642992Y-94595157D01*
X168670166Y-94636749D01*
X168763278Y-94779268D01*
X168766803Y-94783097D01*
X168766806Y-94783101D01*
X168810318Y-94830367D01*
X168915760Y-94944906D01*
X168919879Y-94948112D01*
X168963805Y-94982301D01*
X169093424Y-95083189D01*
X169120163Y-95097659D01*
X169126680Y-95101186D01*
X169177071Y-95151199D01*
X169192423Y-95220516D01*
X169167863Y-95287129D01*
X169126681Y-95322813D01*
X169093424Y-95340811D01*
X169089313Y-95344010D01*
X169089311Y-95344012D01*
X169034695Y-95386522D01*
X168915760Y-95479094D01*
X168912228Y-95482931D01*
X168766806Y-95640899D01*
X168766803Y-95640903D01*
X168763278Y-95644732D01*
X168760427Y-95649096D01*
X168694768Y-95749595D01*
X168640140Y-95833209D01*
X168638048Y-95837978D01*
X168638046Y-95837982D01*
X168588074Y-95951909D01*
X168549704Y-96039384D01*
X168548422Y-96044445D01*
X168548422Y-96044446D01*
X168514332Y-96179065D01*
X168494436Y-96257632D01*
X168494006Y-96262823D01*
X168494005Y-96262828D01*
X168481146Y-96418011D01*
X168475844Y-96482000D01*
X168477024Y-96496237D01*
X168488639Y-96636407D01*
X168494436Y-96706368D01*
X168495717Y-96711426D01*
X168495717Y-96711427D01*
X168543364Y-96899578D01*
X168549704Y-96924616D01*
X168551800Y-96929394D01*
X168631540Y-97111184D01*
X168640140Y-97130791D01*
X168763278Y-97319268D01*
X168766803Y-97323097D01*
X168766806Y-97323101D01*
X168847264Y-97410500D01*
X168915760Y-97484906D01*
X168919879Y-97488112D01*
X169087400Y-97618500D01*
X169093424Y-97623189D01*
X169098005Y-97625668D01*
X169126680Y-97641186D01*
X169177071Y-97691199D01*
X169192423Y-97760516D01*
X169167863Y-97827129D01*
X169126681Y-97862813D01*
X169093424Y-97880811D01*
X168915760Y-98019094D01*
X168912228Y-98022931D01*
X168766806Y-98180899D01*
X168766803Y-98180903D01*
X168763278Y-98184732D01*
X168640140Y-98373209D01*
X168638048Y-98377978D01*
X168638046Y-98377982D01*
X168609747Y-98442498D01*
X168549704Y-98579384D01*
X168548422Y-98584445D01*
X168548422Y-98584446D01*
X168524842Y-98677562D01*
X168494436Y-98797632D01*
X168494006Y-98802823D01*
X168494005Y-98802828D01*
X168492335Y-98822981D01*
X168475844Y-99022000D01*
X168476274Y-99027189D01*
X168493886Y-99239725D01*
X168494436Y-99246368D01*
X168495717Y-99251426D01*
X168495717Y-99251427D01*
X168495989Y-99252499D01*
X168549704Y-99464616D01*
X168640140Y-99670791D01*
X168763278Y-99859268D01*
X168766803Y-99863097D01*
X168766806Y-99863101D01*
X168836500Y-99938808D01*
X168915760Y-100024906D01*
X168919879Y-100028112D01*
X169087400Y-100158500D01*
X169093424Y-100163189D01*
X169098005Y-100165668D01*
X169126680Y-100181186D01*
X169177071Y-100231199D01*
X169192423Y-100300516D01*
X169167863Y-100367129D01*
X169126681Y-100402813D01*
X169093424Y-100420811D01*
X168915760Y-100559094D01*
X168912228Y-100562931D01*
X168766806Y-100720899D01*
X168766803Y-100720903D01*
X168763278Y-100724732D01*
X168640140Y-100913209D01*
X168549704Y-101119384D01*
X168548422Y-101124445D01*
X168548422Y-101124446D01*
X168517416Y-101246885D01*
X168494436Y-101337632D01*
X168475844Y-101562000D01*
X168476274Y-101567189D01*
X168493747Y-101778050D01*
X168494436Y-101786368D01*
X168495717Y-101791426D01*
X168495717Y-101791427D01*
X168521100Y-101891660D01*
X168549704Y-102004616D01*
X168640140Y-102210791D01*
X168642990Y-102215153D01*
X168642992Y-102215157D01*
X168732448Y-102352079D01*
X168763278Y-102399268D01*
X168766803Y-102403097D01*
X168766806Y-102403101D01*
X168867666Y-102512663D01*
X168915760Y-102564906D01*
X169093424Y-102703189D01*
X169098005Y-102705668D01*
X169126680Y-102721186D01*
X169177071Y-102771199D01*
X169192423Y-102840516D01*
X169167863Y-102907129D01*
X169126681Y-102942813D01*
X169093424Y-102960811D01*
X168915760Y-103099094D01*
X168912228Y-103102931D01*
X168766806Y-103260899D01*
X168766803Y-103260903D01*
X168763278Y-103264732D01*
X168640140Y-103453209D01*
X168638048Y-103457978D01*
X168638046Y-103457982D01*
X168614066Y-103512652D01*
X168549704Y-103659384D01*
X168548422Y-103664445D01*
X168548422Y-103664446D01*
X168514728Y-103797499D01*
X168494436Y-103877632D01*
X168475844Y-104102000D01*
X167352156Y-104102000D01*
X167333564Y-103877632D01*
X167313272Y-103797499D01*
X167279578Y-103664446D01*
X167279578Y-103664445D01*
X167278296Y-103659384D01*
X167213934Y-103512652D01*
X167189954Y-103457982D01*
X167189952Y-103457978D01*
X167187860Y-103453209D01*
X167064722Y-103264732D01*
X167061197Y-103260903D01*
X167061194Y-103260899D01*
X166915772Y-103102931D01*
X166912240Y-103099094D01*
X166734576Y-102960811D01*
X166701320Y-102942814D01*
X166650929Y-102892801D01*
X166635577Y-102823484D01*
X166660137Y-102756871D01*
X166701320Y-102721186D01*
X166729995Y-102705668D01*
X166734576Y-102703189D01*
X166912240Y-102564906D01*
X166960334Y-102512663D01*
X167061194Y-102403101D01*
X167061197Y-102403097D01*
X167064722Y-102399268D01*
X167095552Y-102352079D01*
X167185008Y-102215157D01*
X167185010Y-102215153D01*
X167187860Y-102210791D01*
X167278296Y-102004616D01*
X167306901Y-101891660D01*
X167332283Y-101791427D01*
X167332283Y-101791426D01*
X167333564Y-101786368D01*
X167334254Y-101778050D01*
X167351726Y-101567189D01*
X167352156Y-101562000D01*
X167333564Y-101337632D01*
X167310584Y-101246885D01*
X167279578Y-101124446D01*
X167279578Y-101124445D01*
X167278296Y-101119384D01*
X167187860Y-100913209D01*
X167064722Y-100724732D01*
X167061197Y-100720903D01*
X167061194Y-100720899D01*
X166915772Y-100562931D01*
X166912240Y-100559094D01*
X166734576Y-100420811D01*
X166701320Y-100402814D01*
X166650929Y-100352801D01*
X166635577Y-100283484D01*
X166660137Y-100216871D01*
X166701320Y-100181186D01*
X166729995Y-100165668D01*
X166734576Y-100163189D01*
X166740601Y-100158500D01*
X166908121Y-100028112D01*
X166912240Y-100024906D01*
X166991500Y-99938808D01*
X167061194Y-99863101D01*
X167061197Y-99863097D01*
X167064722Y-99859268D01*
X167187860Y-99670791D01*
X167278296Y-99464616D01*
X167332012Y-99252499D01*
X167332283Y-99251427D01*
X167332283Y-99251426D01*
X167333564Y-99246368D01*
X167334115Y-99239725D01*
X167351726Y-99027189D01*
X167352156Y-99022000D01*
X167335665Y-98822981D01*
X167333995Y-98802828D01*
X167333994Y-98802823D01*
X167333564Y-98797632D01*
X167303158Y-98677562D01*
X167279578Y-98584446D01*
X167279578Y-98584445D01*
X167278296Y-98579384D01*
X167218253Y-98442498D01*
X167189954Y-98377982D01*
X167189952Y-98377978D01*
X167187860Y-98373209D01*
X167064722Y-98184732D01*
X167061197Y-98180903D01*
X167061194Y-98180899D01*
X166915772Y-98022931D01*
X166912240Y-98019094D01*
X166734576Y-97880811D01*
X166536574Y-97773658D01*
X166323635Y-97700556D01*
X166318501Y-97699699D01*
X166318496Y-97699698D01*
X166106706Y-97664357D01*
X166106704Y-97664357D01*
X166101569Y-97663500D01*
X165876431Y-97663500D01*
X165871296Y-97664357D01*
X165871294Y-97664357D01*
X165659504Y-97699698D01*
X165659499Y-97699699D01*
X165654365Y-97700556D01*
X165441426Y-97773658D01*
X165243424Y-97880811D01*
X165065760Y-98019094D01*
X165062228Y-98022931D01*
X164916806Y-98180899D01*
X164916803Y-98180903D01*
X164913278Y-98184732D01*
X164790140Y-98373209D01*
X164788048Y-98377978D01*
X164788046Y-98377982D01*
X164759747Y-98442498D01*
X164699704Y-98579384D01*
X164698422Y-98584445D01*
X164698422Y-98584446D01*
X164674842Y-98677562D01*
X164644436Y-98797632D01*
X164644006Y-98802823D01*
X164644005Y-98802828D01*
X164642335Y-98822981D01*
X164625844Y-99022000D01*
X164626274Y-99027189D01*
X164643886Y-99239725D01*
X164644436Y-99246368D01*
X164645717Y-99251426D01*
X164645717Y-99251427D01*
X164645989Y-99252499D01*
X164699704Y-99464616D01*
X164790140Y-99670791D01*
X164913278Y-99859268D01*
X164916803Y-99863097D01*
X164916806Y-99863101D01*
X164986500Y-99938808D01*
X165065760Y-100024906D01*
X165069879Y-100028112D01*
X165237400Y-100158500D01*
X165243424Y-100163189D01*
X165248005Y-100165668D01*
X165276680Y-100181186D01*
X165327071Y-100231199D01*
X165342423Y-100300516D01*
X165317863Y-100367129D01*
X165276681Y-100402813D01*
X165243424Y-100420811D01*
X165065760Y-100559094D01*
X165062228Y-100562931D01*
X164916806Y-100720899D01*
X164916803Y-100720903D01*
X164913278Y-100724732D01*
X164790140Y-100913209D01*
X164699704Y-101119384D01*
X164698422Y-101124445D01*
X164698422Y-101124446D01*
X164667416Y-101246885D01*
X164644436Y-101337632D01*
X164625844Y-101562000D01*
X164626274Y-101567189D01*
X164643747Y-101778050D01*
X164644436Y-101786368D01*
X164645717Y-101791426D01*
X164645717Y-101791427D01*
X164671100Y-101891660D01*
X164699704Y-102004616D01*
X164790140Y-102210791D01*
X164792990Y-102215153D01*
X164792992Y-102215157D01*
X164882448Y-102352079D01*
X164913278Y-102399268D01*
X164916803Y-102403097D01*
X164916806Y-102403101D01*
X165017666Y-102512663D01*
X165065760Y-102564906D01*
X165243424Y-102703189D01*
X165248005Y-102705668D01*
X165276680Y-102721186D01*
X165327071Y-102771199D01*
X165342423Y-102840516D01*
X165317863Y-102907129D01*
X165276681Y-102942813D01*
X165243424Y-102960811D01*
X165065760Y-103099094D01*
X165062228Y-103102931D01*
X164916806Y-103260899D01*
X164916803Y-103260903D01*
X164913278Y-103264732D01*
X164790140Y-103453209D01*
X164788048Y-103457978D01*
X164788046Y-103457982D01*
X164764066Y-103512652D01*
X164699704Y-103659384D01*
X164698422Y-103664445D01*
X164698422Y-103664446D01*
X164664728Y-103797499D01*
X164644436Y-103877632D01*
X164625844Y-104102000D01*
X98806500Y-104102000D01*
X98806500Y-101888455D01*
X137142500Y-101888455D01*
X137142501Y-103089544D01*
X137142826Y-103092721D01*
X137142826Y-103092730D01*
X137147805Y-103141467D01*
X137153113Y-103193426D01*
X137208885Y-103361738D01*
X137301970Y-103512652D01*
X137427348Y-103638030D01*
X137433595Y-103641883D01*
X137433596Y-103641884D01*
X137446234Y-103649679D01*
X137578262Y-103731115D01*
X137641807Y-103752171D01*
X137740048Y-103784725D01*
X137740052Y-103784726D01*
X137746574Y-103786887D01*
X137753408Y-103787585D01*
X137753412Y-103787586D01*
X137847271Y-103797175D01*
X137847277Y-103797175D01*
X137850455Y-103797500D01*
X139150797Y-103797500D01*
X140451544Y-103797499D01*
X140454721Y-103797174D01*
X140454730Y-103797174D01*
X140503467Y-103792195D01*
X140555426Y-103786887D01*
X140723738Y-103731115D01*
X140855766Y-103649679D01*
X140868404Y-103641884D01*
X140868405Y-103641883D01*
X140874652Y-103638030D01*
X141000030Y-103512652D01*
X141093115Y-103361738D01*
X141148887Y-103193426D01*
X141158133Y-103102931D01*
X141159175Y-103092729D01*
X141159175Y-103092723D01*
X141159500Y-103089545D01*
X141159499Y-101888456D01*
X141148887Y-101784574D01*
X141093115Y-101616262D01*
X141000030Y-101465348D01*
X140874652Y-101339970D01*
X140723738Y-101246885D01*
X140660193Y-101225829D01*
X140561952Y-101193275D01*
X140561948Y-101193274D01*
X140555426Y-101191113D01*
X140548592Y-101190415D01*
X140548588Y-101190414D01*
X140454729Y-101180825D01*
X140454723Y-101180825D01*
X140451545Y-101180500D01*
X139151203Y-101180500D01*
X137850456Y-101180501D01*
X137847279Y-101180826D01*
X137847270Y-101180826D01*
X137798533Y-101185805D01*
X137746574Y-101191113D01*
X137578262Y-101246885D01*
X137427348Y-101339970D01*
X137301970Y-101465348D01*
X137208885Y-101616262D01*
X137153113Y-101784574D01*
X137152415Y-101791408D01*
X137152414Y-101791412D01*
X137142825Y-101885270D01*
X137142500Y-101888455D01*
X98806500Y-101888455D01*
X98806500Y-90729000D01*
X137961241Y-90729000D01*
X137981201Y-90969884D01*
X137982482Y-90974942D01*
X137982482Y-90974943D01*
X138035126Y-91182828D01*
X138040537Y-91204197D01*
X138042629Y-91208967D01*
X138042630Y-91208969D01*
X138060220Y-91249069D01*
X138137631Y-91425549D01*
X138269834Y-91627900D01*
X138433539Y-91805731D01*
X138437648Y-91808929D01*
X138437650Y-91808931D01*
X138610919Y-91943792D01*
X138652390Y-92001418D01*
X138655673Y-92074152D01*
X138653419Y-92083056D01*
X138652138Y-92088116D01*
X138632178Y-92329000D01*
X138632608Y-92334189D01*
X138650229Y-92546842D01*
X138652138Y-92569884D01*
X138653419Y-92574942D01*
X138653419Y-92574943D01*
X138709989Y-92798332D01*
X138711474Y-92804197D01*
X138808568Y-93025549D01*
X138940771Y-93227900D01*
X139104476Y-93405731D01*
X139108585Y-93408929D01*
X139108587Y-93408931D01*
X139231305Y-93504446D01*
X139295219Y-93554192D01*
X139299798Y-93556670D01*
X139299801Y-93556672D01*
X139503211Y-93666752D01*
X139503214Y-93666753D01*
X139507796Y-93669233D01*
X139736409Y-93747716D01*
X139741543Y-93748573D01*
X139741548Y-93748574D01*
X139969685Y-93786643D01*
X139969688Y-93786643D01*
X139974822Y-93787500D01*
X140216532Y-93787500D01*
X140221666Y-93786643D01*
X140221669Y-93786643D01*
X140449806Y-93748574D01*
X140449811Y-93748573D01*
X140454945Y-93747716D01*
X140683558Y-93669233D01*
X140688140Y-93666753D01*
X140688143Y-93666752D01*
X140891553Y-93556672D01*
X140891556Y-93556670D01*
X140896135Y-93554192D01*
X140960049Y-93504446D01*
X141082767Y-93408931D01*
X141082769Y-93408929D01*
X141086878Y-93405731D01*
X141090406Y-93401898D01*
X141091016Y-93401337D01*
X141154681Y-93369917D01*
X141225227Y-93377904D01*
X141277220Y-93418529D01*
X141332416Y-93492261D01*
X141339627Y-93497659D01*
X141418459Y-93556672D01*
X141449473Y-93579889D01*
X141586476Y-93630989D01*
X141623382Y-93634957D01*
X141643689Y-93637140D01*
X141643692Y-93637140D01*
X141647039Y-93637500D01*
X141732114Y-93637500D01*
X141800235Y-93657502D01*
X141846728Y-93711158D01*
X141858114Y-93763500D01*
X141858114Y-94777638D01*
X141864625Y-94838201D01*
X141915725Y-94975204D01*
X142003353Y-95092261D01*
X142010564Y-95097659D01*
X142082085Y-95151199D01*
X142120410Y-95179889D01*
X142257413Y-95230989D01*
X142294319Y-95234957D01*
X142314626Y-95237140D01*
X142314629Y-95237140D01*
X142317976Y-95237500D01*
X142532114Y-95237500D01*
X142600235Y-95257502D01*
X142646728Y-95311158D01*
X142658114Y-95363500D01*
X142658114Y-101054501D01*
X142638112Y-101122622D01*
X142584456Y-101169115D01*
X142532114Y-101180501D01*
X142250456Y-101180501D01*
X142247279Y-101180826D01*
X142247270Y-101180826D01*
X142198533Y-101185805D01*
X142146574Y-101191113D01*
X141978262Y-101246885D01*
X141827348Y-101339970D01*
X141701970Y-101465348D01*
X141608885Y-101616262D01*
X141553113Y-101784574D01*
X141552415Y-101791408D01*
X141552414Y-101791412D01*
X141542825Y-101885270D01*
X141542500Y-101888455D01*
X141542501Y-103089544D01*
X141542826Y-103092721D01*
X141542826Y-103092730D01*
X141547805Y-103141467D01*
X141553113Y-103193426D01*
X141608885Y-103361738D01*
X141701970Y-103512652D01*
X141827348Y-103638030D01*
X141833595Y-103641883D01*
X141833596Y-103641884D01*
X141846234Y-103649679D01*
X141978262Y-103731115D01*
X142041807Y-103752171D01*
X142140048Y-103784725D01*
X142140052Y-103784726D01*
X142146574Y-103786887D01*
X142153408Y-103787585D01*
X142153412Y-103787586D01*
X142247271Y-103797175D01*
X142247277Y-103797175D01*
X142250455Y-103797500D01*
X143550797Y-103797500D01*
X144851544Y-103797499D01*
X144854721Y-103797174D01*
X144854730Y-103797174D01*
X144903467Y-103792195D01*
X144955426Y-103786887D01*
X145123738Y-103731115D01*
X145255766Y-103649679D01*
X145268404Y-103641884D01*
X145268405Y-103641883D01*
X145274652Y-103638030D01*
X145400030Y-103512652D01*
X145493115Y-103361738D01*
X145548887Y-103193426D01*
X145558133Y-103102931D01*
X145559175Y-103092729D01*
X145559175Y-103092723D01*
X145559500Y-103089545D01*
X145559499Y-101888456D01*
X145548887Y-101784574D01*
X145493115Y-101616262D01*
X145400030Y-101465348D01*
X145274652Y-101339970D01*
X145123738Y-101246885D01*
X145060193Y-101225829D01*
X144961952Y-101193275D01*
X144961948Y-101193274D01*
X144955426Y-101191113D01*
X144948592Y-101190415D01*
X144948588Y-101190414D01*
X144854729Y-101180825D01*
X144854723Y-101180825D01*
X144851545Y-101180500D01*
X144001114Y-101180500D01*
X143932993Y-101160498D01*
X143886500Y-101106842D01*
X143875114Y-101054500D01*
X143875114Y-95363500D01*
X143895116Y-95295379D01*
X143948772Y-95248886D01*
X144001114Y-95237500D01*
X144215252Y-95237500D01*
X144218599Y-95237140D01*
X144218602Y-95237140D01*
X144238909Y-95234957D01*
X144275815Y-95230989D01*
X144412818Y-95179889D01*
X144451144Y-95151199D01*
X144522664Y-95097659D01*
X144529875Y-95092261D01*
X144617503Y-94975204D01*
X144668603Y-94838201D01*
X144675114Y-94777638D01*
X144675114Y-93980000D01*
X146768502Y-93980000D01*
X146788457Y-94208087D01*
X146847716Y-94429243D01*
X146850039Y-94434224D01*
X146850039Y-94434225D01*
X146942151Y-94631762D01*
X146942154Y-94631767D01*
X146944477Y-94636749D01*
X146947634Y-94641257D01*
X147045475Y-94780988D01*
X147075802Y-94824300D01*
X147237700Y-94986198D01*
X147242208Y-94989355D01*
X147242211Y-94989357D01*
X147394771Y-95096181D01*
X147439099Y-95151638D01*
X147448500Y-95199394D01*
X147448500Y-95933233D01*
X147447973Y-95944416D01*
X147446298Y-95951909D01*
X147446547Y-95959835D01*
X147446547Y-95959836D01*
X147448438Y-96019986D01*
X147448500Y-96023945D01*
X147448500Y-96051856D01*
X147448997Y-96055790D01*
X147448997Y-96055791D01*
X147449005Y-96055856D01*
X147449938Y-96067693D01*
X147451327Y-96111889D01*
X147456978Y-96131339D01*
X147460987Y-96150700D01*
X147463526Y-96170797D01*
X147466445Y-96178168D01*
X147466445Y-96178170D01*
X147479804Y-96211912D01*
X147483649Y-96223142D01*
X147495982Y-96265593D01*
X147500015Y-96272412D01*
X147500017Y-96272417D01*
X147506293Y-96283028D01*
X147514988Y-96300776D01*
X147522448Y-96319617D01*
X147527110Y-96326033D01*
X147527110Y-96326034D01*
X147548436Y-96355387D01*
X147554952Y-96365307D01*
X147564234Y-96381001D01*
X147577458Y-96403362D01*
X147591779Y-96417683D01*
X147604619Y-96432716D01*
X147616528Y-96449107D01*
X147622634Y-96454158D01*
X147650605Y-96477298D01*
X147659384Y-96485288D01*
X149610348Y-98436253D01*
X149617888Y-98444539D01*
X149622000Y-98451018D01*
X149627777Y-98456443D01*
X149671651Y-98497643D01*
X149674493Y-98500398D01*
X149694230Y-98520135D01*
X149697427Y-98522615D01*
X149706447Y-98530318D01*
X149738679Y-98560586D01*
X149745625Y-98564405D01*
X149745628Y-98564407D01*
X149756434Y-98570348D01*
X149772953Y-98581199D01*
X149788959Y-98593614D01*
X149796228Y-98596759D01*
X149796232Y-98596762D01*
X149829537Y-98611174D01*
X149840187Y-98616391D01*
X149878940Y-98637695D01*
X149886615Y-98639666D01*
X149886616Y-98639666D01*
X149898562Y-98642733D01*
X149917267Y-98649137D01*
X149935855Y-98657181D01*
X149943678Y-98658420D01*
X149943688Y-98658423D01*
X149979524Y-98664099D01*
X149991144Y-98666505D01*
X150022959Y-98674673D01*
X150033970Y-98677500D01*
X150054224Y-98677500D01*
X150073934Y-98679051D01*
X150093943Y-98682220D01*
X150101835Y-98681474D01*
X150120580Y-98679702D01*
X150137962Y-98678059D01*
X150149819Y-98677500D01*
X151157761Y-98677500D01*
X151225882Y-98697502D01*
X151272375Y-98751158D01*
X151277366Y-98763867D01*
X151294885Y-98816738D01*
X151387970Y-98967652D01*
X151513348Y-99093030D01*
X151664262Y-99186115D01*
X151727807Y-99207171D01*
X151826048Y-99239725D01*
X151826052Y-99239726D01*
X151832574Y-99241887D01*
X151839408Y-99242585D01*
X151839412Y-99242586D01*
X151933271Y-99252175D01*
X151933277Y-99252175D01*
X151936455Y-99252500D01*
X152249451Y-99252500D01*
X152562544Y-99252499D01*
X152565721Y-99252174D01*
X152565730Y-99252174D01*
X152614467Y-99247195D01*
X152666426Y-99241887D01*
X152834738Y-99186115D01*
X152985652Y-99093030D01*
X153072905Y-99005777D01*
X153135217Y-98971751D01*
X153206032Y-98976816D01*
X153251095Y-99005777D01*
X153338348Y-99093030D01*
X153489262Y-99186115D01*
X153552807Y-99207171D01*
X153651048Y-99239725D01*
X153651052Y-99239726D01*
X153657574Y-99241887D01*
X153664408Y-99242585D01*
X153664412Y-99242586D01*
X153758271Y-99252175D01*
X153758277Y-99252175D01*
X153761455Y-99252500D01*
X154074451Y-99252500D01*
X154387544Y-99252499D01*
X154390721Y-99252174D01*
X154390730Y-99252174D01*
X154439467Y-99247195D01*
X154491426Y-99241887D01*
X154659738Y-99186115D01*
X154810652Y-99093030D01*
X154936030Y-98967652D01*
X155029115Y-98816738D01*
X155046634Y-98763868D01*
X155087048Y-98705496D01*
X155152604Y-98678240D01*
X155166239Y-98677500D01*
X156258233Y-98677500D01*
X156269416Y-98678027D01*
X156276909Y-98679702D01*
X156284835Y-98679453D01*
X156284836Y-98679453D01*
X156344986Y-98677562D01*
X156348945Y-98677500D01*
X156376856Y-98677500D01*
X156380791Y-98677003D01*
X156380856Y-98676995D01*
X156392693Y-98676062D01*
X156424951Y-98675048D01*
X156428970Y-98674922D01*
X156436889Y-98674673D01*
X156456343Y-98669021D01*
X156475700Y-98665013D01*
X156487930Y-98663468D01*
X156487931Y-98663468D01*
X156495797Y-98662474D01*
X156503168Y-98659555D01*
X156503170Y-98659555D01*
X156536912Y-98646196D01*
X156548142Y-98642351D01*
X156582983Y-98632229D01*
X156582984Y-98632229D01*
X156590593Y-98630018D01*
X156597412Y-98625985D01*
X156597417Y-98625983D01*
X156608028Y-98619707D01*
X156625776Y-98611012D01*
X156644617Y-98603552D01*
X156680387Y-98577564D01*
X156690307Y-98571048D01*
X156721535Y-98552580D01*
X156721538Y-98552578D01*
X156728362Y-98548542D01*
X156742683Y-98534221D01*
X156757717Y-98521380D01*
X156767694Y-98514131D01*
X156774107Y-98509472D01*
X156802298Y-98475395D01*
X156810288Y-98466616D01*
X158634253Y-96642652D01*
X158642539Y-96635112D01*
X158649018Y-96631000D01*
X158695644Y-96581348D01*
X158698398Y-96578507D01*
X158718135Y-96558770D01*
X158720615Y-96555573D01*
X158728320Y-96546551D01*
X158753159Y-96520100D01*
X158758586Y-96514321D01*
X158762405Y-96507375D01*
X158762407Y-96507372D01*
X158768348Y-96496566D01*
X158779199Y-96480047D01*
X158786758Y-96470301D01*
X158791614Y-96464041D01*
X158794759Y-96456772D01*
X158794762Y-96456768D01*
X158809174Y-96423463D01*
X158814391Y-96412813D01*
X158835695Y-96374060D01*
X158837943Y-96365307D01*
X158840733Y-96354438D01*
X158847137Y-96335734D01*
X158852033Y-96324420D01*
X158852033Y-96324419D01*
X158855181Y-96317145D01*
X158856420Y-96309322D01*
X158856423Y-96309312D01*
X158862099Y-96273476D01*
X158864505Y-96261856D01*
X158873528Y-96226711D01*
X158873528Y-96226710D01*
X158875500Y-96219030D01*
X158875500Y-96198776D01*
X158877051Y-96179065D01*
X158878980Y-96166886D01*
X158880220Y-96159057D01*
X158876059Y-96115038D01*
X158875500Y-96103181D01*
X158875500Y-95199394D01*
X158895502Y-95131273D01*
X158929229Y-95096181D01*
X159081789Y-94989357D01*
X159081792Y-94989355D01*
X159086300Y-94986198D01*
X159248198Y-94824300D01*
X159278526Y-94780988D01*
X159376366Y-94641257D01*
X159379523Y-94636749D01*
X159381846Y-94631767D01*
X159381849Y-94631762D01*
X159473961Y-94434225D01*
X159473961Y-94434224D01*
X159476284Y-94429243D01*
X159535543Y-94208087D01*
X159555498Y-93980000D01*
X159535543Y-93751913D01*
X159527750Y-93722828D01*
X159477707Y-93536067D01*
X159477706Y-93536065D01*
X159476284Y-93530757D01*
X159401284Y-93369917D01*
X159381849Y-93328238D01*
X159381846Y-93328233D01*
X159379523Y-93323251D01*
X159248198Y-93135700D01*
X159086300Y-92973802D01*
X159081792Y-92970645D01*
X159081789Y-92970643D01*
X158956330Y-92882796D01*
X158898749Y-92842477D01*
X158893767Y-92840154D01*
X158893762Y-92840151D01*
X158696225Y-92748039D01*
X158696224Y-92748039D01*
X158691243Y-92745716D01*
X158685935Y-92744294D01*
X158685933Y-92744293D01*
X158475402Y-92687881D01*
X158475400Y-92687881D01*
X158470087Y-92686457D01*
X158242000Y-92666502D01*
X158013913Y-92686457D01*
X158008600Y-92687881D01*
X158008598Y-92687881D01*
X157798067Y-92744293D01*
X157798065Y-92744294D01*
X157792757Y-92745716D01*
X157787776Y-92748039D01*
X157787775Y-92748039D01*
X157590238Y-92840151D01*
X157590233Y-92840154D01*
X157585251Y-92842477D01*
X157527670Y-92882796D01*
X157402211Y-92970643D01*
X157402208Y-92970645D01*
X157397700Y-92973802D01*
X157235802Y-93135700D01*
X157104477Y-93323251D01*
X157102154Y-93328233D01*
X157102151Y-93328238D01*
X157082716Y-93369917D01*
X157007716Y-93530757D01*
X157006294Y-93536065D01*
X157006293Y-93536067D01*
X156956250Y-93722828D01*
X156948457Y-93751913D01*
X156928502Y-93980000D01*
X156948457Y-94208087D01*
X157007716Y-94429243D01*
X157010039Y-94434224D01*
X157010039Y-94434225D01*
X157102151Y-94631762D01*
X157102154Y-94631767D01*
X157104477Y-94636749D01*
X157107634Y-94641257D01*
X157205475Y-94780988D01*
X157235802Y-94824300D01*
X157397700Y-94986198D01*
X157402208Y-94989355D01*
X157402211Y-94989357D01*
X157554771Y-95096181D01*
X157599099Y-95151638D01*
X157608500Y-95199394D01*
X157608500Y-95824406D01*
X157588498Y-95892527D01*
X157571595Y-95913501D01*
X156111500Y-97373595D01*
X156049188Y-97407621D01*
X156022405Y-97410500D01*
X155166239Y-97410500D01*
X155098118Y-97390498D01*
X155051625Y-97336842D01*
X155046634Y-97324132D01*
X155031422Y-97278225D01*
X155029115Y-97271262D01*
X154936030Y-97120348D01*
X154810652Y-96994970D01*
X154659738Y-96901885D01*
X154596193Y-96880829D01*
X154497952Y-96848275D01*
X154497948Y-96848274D01*
X154491426Y-96846113D01*
X154484592Y-96845415D01*
X154484588Y-96845414D01*
X154390729Y-96835825D01*
X154390723Y-96835825D01*
X154387545Y-96835500D01*
X154074549Y-96835500D01*
X153761456Y-96835501D01*
X153758279Y-96835826D01*
X153758270Y-96835826D01*
X153709533Y-96840805D01*
X153657574Y-96846113D01*
X153489262Y-96901885D01*
X153338348Y-96994970D01*
X153251095Y-97082223D01*
X153188783Y-97116249D01*
X153117968Y-97111184D01*
X153072905Y-97082223D01*
X152985652Y-96994970D01*
X152834738Y-96901885D01*
X152771193Y-96880829D01*
X152672952Y-96848275D01*
X152672948Y-96848274D01*
X152666426Y-96846113D01*
X152659592Y-96845415D01*
X152659588Y-96845414D01*
X152565729Y-96835825D01*
X152565723Y-96835825D01*
X152562545Y-96835500D01*
X152249549Y-96835500D01*
X151936456Y-96835501D01*
X151933279Y-96835826D01*
X151933270Y-96835826D01*
X151884533Y-96840805D01*
X151832574Y-96846113D01*
X151664262Y-96901885D01*
X151513348Y-96994970D01*
X151387970Y-97120348D01*
X151294885Y-97271262D01*
X151292578Y-97278225D01*
X151277366Y-97324132D01*
X151236952Y-97382504D01*
X151171396Y-97409760D01*
X151157761Y-97410500D01*
X150428594Y-97410500D01*
X150360473Y-97390498D01*
X150339499Y-97373595D01*
X148752405Y-95786500D01*
X148718379Y-95724188D01*
X148715500Y-95697405D01*
X148715500Y-95199394D01*
X148735502Y-95131273D01*
X148769229Y-95096181D01*
X148921789Y-94989357D01*
X148921792Y-94989355D01*
X148926300Y-94986198D01*
X149088198Y-94824300D01*
X149118526Y-94780988D01*
X149216366Y-94641257D01*
X149219523Y-94636749D01*
X149221846Y-94631767D01*
X149221849Y-94631762D01*
X149313961Y-94434225D01*
X149313961Y-94434224D01*
X149316284Y-94429243D01*
X149375543Y-94208087D01*
X149395498Y-93980000D01*
X149375543Y-93751913D01*
X149367750Y-93722828D01*
X149317707Y-93536067D01*
X149317706Y-93536065D01*
X149316284Y-93530757D01*
X149241284Y-93369917D01*
X149221849Y-93328238D01*
X149221846Y-93328233D01*
X149219523Y-93323251D01*
X149088198Y-93135700D01*
X148926300Y-92973802D01*
X148921792Y-92970645D01*
X148921789Y-92970643D01*
X148796330Y-92882796D01*
X148738749Y-92842477D01*
X148733767Y-92840154D01*
X148733762Y-92840151D01*
X148536225Y-92748039D01*
X148536224Y-92748039D01*
X148531243Y-92745716D01*
X148525935Y-92744294D01*
X148525933Y-92744293D01*
X148315402Y-92687881D01*
X148315400Y-92687881D01*
X148310087Y-92686457D01*
X148082000Y-92666502D01*
X147853913Y-92686457D01*
X147848600Y-92687881D01*
X147848598Y-92687881D01*
X147638067Y-92744293D01*
X147638065Y-92744294D01*
X147632757Y-92745716D01*
X147627776Y-92748039D01*
X147627775Y-92748039D01*
X147430238Y-92840151D01*
X147430233Y-92840154D01*
X147425251Y-92842477D01*
X147367670Y-92882796D01*
X147242211Y-92970643D01*
X147242208Y-92970645D01*
X147237700Y-92973802D01*
X147075802Y-93135700D01*
X146944477Y-93323251D01*
X146942154Y-93328233D01*
X146942151Y-93328238D01*
X146922716Y-93369917D01*
X146847716Y-93530757D01*
X146846294Y-93536065D01*
X146846293Y-93536067D01*
X146796250Y-93722828D01*
X146788457Y-93751913D01*
X146768502Y-93980000D01*
X144675114Y-93980000D01*
X144675114Y-93080362D01*
X144668603Y-93019799D01*
X144617503Y-92882796D01*
X144587321Y-92842477D01*
X144535273Y-92772950D01*
X144529875Y-92765739D01*
X144485875Y-92732801D01*
X144420032Y-92683511D01*
X144420030Y-92683510D01*
X144412818Y-92678111D01*
X144275815Y-92627011D01*
X144238909Y-92623043D01*
X144218602Y-92620860D01*
X144218599Y-92620860D01*
X144215252Y-92620500D01*
X144130177Y-92620500D01*
X144062056Y-92600498D01*
X144015563Y-92546842D01*
X144004177Y-92494500D01*
X144004177Y-91480362D01*
X143997666Y-91419799D01*
X143946566Y-91282796D01*
X143858938Y-91165739D01*
X143741881Y-91078111D01*
X143604878Y-91027011D01*
X143567972Y-91023043D01*
X143547665Y-91020860D01*
X143547662Y-91020860D01*
X143544315Y-91020500D01*
X141647039Y-91020500D01*
X141643692Y-91020860D01*
X141643689Y-91020860D01*
X141623382Y-91023043D01*
X141586476Y-91027011D01*
X141449473Y-91078111D01*
X141332416Y-91165739D01*
X141277221Y-91239471D01*
X141220385Y-91282017D01*
X141149569Y-91287081D01*
X141091016Y-91256663D01*
X141090406Y-91256102D01*
X141086878Y-91252269D01*
X141082767Y-91249069D01*
X140909498Y-91114208D01*
X140868027Y-91056582D01*
X140864744Y-90983848D01*
X140866998Y-90974944D01*
X140866999Y-90974940D01*
X140868279Y-90969884D01*
X140888239Y-90729000D01*
X140868279Y-90488116D01*
X140844924Y-90395888D01*
X140810223Y-90258856D01*
X140810221Y-90258851D01*
X140808943Y-90253803D01*
X140711849Y-90032451D01*
X140579646Y-89830100D01*
X140415941Y-89652269D01*
X140225198Y-89503808D01*
X140220619Y-89501330D01*
X140220616Y-89501328D01*
X140017206Y-89391248D01*
X140017203Y-89391247D01*
X140012621Y-89388767D01*
X139784008Y-89310284D01*
X139778874Y-89309427D01*
X139778869Y-89309426D01*
X139550732Y-89271357D01*
X139550729Y-89271357D01*
X139545595Y-89270500D01*
X139303885Y-89270500D01*
X139298751Y-89271357D01*
X139298748Y-89271357D01*
X139070611Y-89309426D01*
X139070606Y-89309427D01*
X139065472Y-89310284D01*
X138836859Y-89388767D01*
X138832277Y-89391247D01*
X138832274Y-89391248D01*
X138628864Y-89501328D01*
X138628861Y-89501330D01*
X138624282Y-89503808D01*
X138433539Y-89652269D01*
X138269834Y-89830100D01*
X138137631Y-90032451D01*
X138040537Y-90253803D01*
X138039259Y-90258851D01*
X138039257Y-90258856D01*
X138004556Y-90395888D01*
X137981201Y-90488116D01*
X137961241Y-90729000D01*
X98806500Y-90729000D01*
X98806500Y-79389645D01*
X100280500Y-79389645D01*
X100320708Y-79682186D01*
X100400377Y-79966527D01*
X100518021Y-80237371D01*
X100520254Y-80241043D01*
X100655905Y-80464110D01*
X100671450Y-80489673D01*
X100857804Y-80718734D01*
X100860943Y-80721666D01*
X100860948Y-80721671D01*
X101070466Y-80917347D01*
X101073613Y-80920286D01*
X101314857Y-81090574D01*
X101577042Y-81226427D01*
X101855283Y-81325314D01*
X101859491Y-81326188D01*
X101859493Y-81326189D01*
X102140190Y-81384519D01*
X102140193Y-81384519D01*
X102144397Y-81385393D01*
X102148683Y-81385686D01*
X102148689Y-81385687D01*
X102363117Y-81400354D01*
X102363130Y-81400354D01*
X102365258Y-81400500D01*
X102512742Y-81400500D01*
X102514870Y-81400354D01*
X102514883Y-81400354D01*
X102729311Y-81385687D01*
X102729317Y-81385686D01*
X102733603Y-81385393D01*
X102737807Y-81384519D01*
X102737810Y-81384519D01*
X103018507Y-81326189D01*
X103018509Y-81326188D01*
X103022717Y-81325314D01*
X103300958Y-81226427D01*
X103563143Y-81090574D01*
X103804387Y-80920286D01*
X103807534Y-80917347D01*
X104017052Y-80721671D01*
X104017057Y-80721666D01*
X104020196Y-80718734D01*
X104206550Y-80489673D01*
X104222096Y-80464110D01*
X104357746Y-80241043D01*
X104359979Y-80237371D01*
X104477623Y-79966527D01*
X104557292Y-79682186D01*
X104597500Y-79389645D01*
X104597500Y-79386225D01*
X168190500Y-79386225D01*
X168229777Y-79671989D01*
X168307600Y-79949744D01*
X168422519Y-80214314D01*
X168572394Y-80460772D01*
X168754432Y-80684526D01*
X168965242Y-80881409D01*
X169200897Y-81047753D01*
X169457008Y-81180459D01*
X169728804Y-81277055D01*
X169733006Y-81277928D01*
X169733009Y-81277929D01*
X170007010Y-81334867D01*
X170007014Y-81334868D01*
X170011222Y-81335742D01*
X170015516Y-81336036D01*
X170015518Y-81336036D01*
X170224832Y-81350354D01*
X170224841Y-81350354D01*
X170226971Y-81350500D01*
X170371029Y-81350500D01*
X170373159Y-81350354D01*
X170373168Y-81350354D01*
X170582482Y-81336036D01*
X170582484Y-81336036D01*
X170586778Y-81335742D01*
X170590986Y-81334868D01*
X170590990Y-81334867D01*
X170864991Y-81277929D01*
X170864994Y-81277928D01*
X170869196Y-81277055D01*
X171140992Y-81180459D01*
X171397103Y-81047753D01*
X171632758Y-80881409D01*
X171843568Y-80684526D01*
X172025606Y-80460772D01*
X172175481Y-80214314D01*
X172290400Y-79949744D01*
X172368223Y-79671989D01*
X172407500Y-79386225D01*
X172407500Y-79097775D01*
X172368223Y-78812011D01*
X172290400Y-78534256D01*
X172175481Y-78269686D01*
X172025606Y-78023228D01*
X171843568Y-77799474D01*
X171632758Y-77602591D01*
X171397103Y-77436247D01*
X171140992Y-77303541D01*
X170869196Y-77206945D01*
X170864994Y-77206072D01*
X170864991Y-77206071D01*
X170590990Y-77149133D01*
X170590986Y-77149132D01*
X170586778Y-77148258D01*
X170582484Y-77147964D01*
X170582482Y-77147964D01*
X170373168Y-77133646D01*
X170373159Y-77133646D01*
X170371029Y-77133500D01*
X170226971Y-77133500D01*
X170224841Y-77133646D01*
X170224832Y-77133646D01*
X170015518Y-77147964D01*
X170015516Y-77147964D01*
X170011222Y-77148258D01*
X170007014Y-77149132D01*
X170007010Y-77149133D01*
X169733009Y-77206071D01*
X169733006Y-77206072D01*
X169728804Y-77206945D01*
X169457008Y-77303541D01*
X169200897Y-77436247D01*
X168965242Y-77602591D01*
X168754432Y-77799474D01*
X168572394Y-78023228D01*
X168422519Y-78269686D01*
X168307600Y-78534256D01*
X168229777Y-78812011D01*
X168190500Y-79097775D01*
X168190500Y-79386225D01*
X104597500Y-79386225D01*
X104597500Y-79094355D01*
X104557292Y-78801814D01*
X104477623Y-78517473D01*
X104359979Y-78246629D01*
X104226358Y-78026899D01*
X104208784Y-77998000D01*
X104208781Y-77997996D01*
X104206550Y-77994327D01*
X104020196Y-77765266D01*
X104017057Y-77762334D01*
X104017052Y-77762329D01*
X103807534Y-77566653D01*
X103807533Y-77566652D01*
X103804387Y-77563714D01*
X103563143Y-77393426D01*
X103300958Y-77257573D01*
X103022717Y-77158686D01*
X103018509Y-77157812D01*
X103018507Y-77157811D01*
X102737810Y-77099481D01*
X102737807Y-77099481D01*
X102733603Y-77098607D01*
X102729317Y-77098314D01*
X102729311Y-77098313D01*
X102514883Y-77083646D01*
X102514870Y-77083646D01*
X102512742Y-77083500D01*
X102365258Y-77083500D01*
X102363130Y-77083646D01*
X102363117Y-77083646D01*
X102148689Y-77098313D01*
X102148683Y-77098314D01*
X102144397Y-77098607D01*
X102140193Y-77099481D01*
X102140190Y-77099481D01*
X101859493Y-77157811D01*
X101859491Y-77157812D01*
X101855283Y-77158686D01*
X101577042Y-77257573D01*
X101314857Y-77393426D01*
X101073613Y-77563714D01*
X101070467Y-77566652D01*
X101070466Y-77566653D01*
X100860948Y-77762329D01*
X100860943Y-77762334D01*
X100857804Y-77765266D01*
X100671450Y-77994327D01*
X100669219Y-77997996D01*
X100669216Y-77998000D01*
X100651642Y-78026899D01*
X100518021Y-78246629D01*
X100400377Y-78517473D01*
X100320708Y-78801814D01*
X100280500Y-79094355D01*
X100280500Y-79389645D01*
X98806500Y-79389645D01*
X98806500Y-75691500D01*
X98826502Y-75623379D01*
X98880158Y-75576886D01*
X98932500Y-75565500D01*
X173720500Y-75565500D01*
X173788621Y-75585502D01*
G37*
%TD.AperFunction*%
%TD*%
M02*
