%TF.GenerationSoftware,KiCad,Pcbnew,(6.99.0-1006-g2560c8f31b)*%
%TF.CreationDate,2022-03-06T12:20:51+01:00*%
%TF.ProjectId,freeDSP-aurora-extension-i2C-mod-display,66726565-4453-4502-9d61-75726f72612d,v1.1*%
%TF.SameCoordinates,Original*%
%TF.FileFunction,Copper,L2,Bot*%
%TF.FilePolarity,Positive*%
%FSLAX46Y46*%
G04 Gerber Fmt 4.6, Leading zero omitted, Abs format (unit mm)*
G04 Created by KiCad (PCBNEW (6.99.0-1006-g2560c8f31b)) date 2022-03-06 12:20:51*
%MOMM*%
%LPD*%
G01*
G04 APERTURE LIST*
%ADD10C,0.100000*%
%TA.AperFunction,NonConductor*%
%ADD11C,0.100000*%
%TD*%
%TA.AperFunction,ComponentPad*%
%ADD12R,1.700000X1.700000*%
%TD*%
%TA.AperFunction,ComponentPad*%
%ADD13O,1.700000X1.700000*%
%TD*%
%TA.AperFunction,ComponentPad*%
%ADD14R,1.800000X1.600000*%
%TD*%
%TA.AperFunction,ComponentPad*%
%ADD15C,1.900000*%
%TD*%
%TA.AperFunction,ComponentPad*%
%ADD16C,1.600000*%
%TD*%
%TA.AperFunction,ComponentPad*%
%ADD17O,1.600000X1.600000*%
%TD*%
%TA.AperFunction,Conductor*%
%ADD18C,0.200000*%
%TD*%
%TA.AperFunction,Conductor*%
%ADD19C,0.250000*%
%TD*%
G04 APERTURE END LIST*
D10*
D11*
X141610952Y-120657005D02*
X141706190Y-120704624D01*
X141706190Y-120704624D02*
X141896666Y-120704624D01*
X141896666Y-120704624D02*
X141991904Y-120657005D01*
X141991904Y-120657005D02*
X142039523Y-120609386D01*
X142039523Y-120609386D02*
X142087142Y-120514148D01*
X142087142Y-120514148D02*
X142087142Y-120228434D01*
X142087142Y-120228434D02*
X142039523Y-120133196D01*
X142039523Y-120133196D02*
X141991904Y-120085577D01*
X141991904Y-120085577D02*
X141896666Y-120037958D01*
X141896666Y-120037958D02*
X141706190Y-120037958D01*
X141706190Y-120037958D02*
X141610952Y-120085577D01*
X141277618Y-120037958D02*
X141087142Y-120704624D01*
X141087142Y-120704624D02*
X140896666Y-120228434D01*
X140896666Y-120228434D02*
X140706190Y-120704624D01*
X140706190Y-120704624D02*
X140515714Y-120037958D01*
X139582380Y-119799863D02*
X139534761Y-119752244D01*
X139534761Y-119752244D02*
X139439523Y-119704624D01*
X139439523Y-119704624D02*
X139201428Y-119704624D01*
X139201428Y-119704624D02*
X139106190Y-119752244D01*
X139106190Y-119752244D02*
X139058571Y-119799863D01*
X139058571Y-119799863D02*
X139010952Y-119895101D01*
X139010952Y-119895101D02*
X139010952Y-119990339D01*
X139010952Y-119990339D02*
X139058571Y-120133196D01*
X139058571Y-120133196D02*
X139629999Y-120704624D01*
X139629999Y-120704624D02*
X139010952Y-120704624D01*
X138391904Y-119704624D02*
X138296666Y-119704624D01*
X138296666Y-119704624D02*
X138201428Y-119752244D01*
X138201428Y-119752244D02*
X138153809Y-119799863D01*
X138153809Y-119799863D02*
X138106190Y-119895101D01*
X138106190Y-119895101D02*
X138058571Y-120085577D01*
X138058571Y-120085577D02*
X138058571Y-120323672D01*
X138058571Y-120323672D02*
X138106190Y-120514148D01*
X138106190Y-120514148D02*
X138153809Y-120609386D01*
X138153809Y-120609386D02*
X138201428Y-120657005D01*
X138201428Y-120657005D02*
X138296666Y-120704624D01*
X138296666Y-120704624D02*
X138391904Y-120704624D01*
X138391904Y-120704624D02*
X138487142Y-120657005D01*
X138487142Y-120657005D02*
X138534761Y-120609386D01*
X138534761Y-120609386D02*
X138582380Y-120514148D01*
X138582380Y-120514148D02*
X138629999Y-120323672D01*
X138629999Y-120323672D02*
X138629999Y-120085577D01*
X138629999Y-120085577D02*
X138582380Y-119895101D01*
X138582380Y-119895101D02*
X138534761Y-119799863D01*
X138534761Y-119799863D02*
X138487142Y-119752244D01*
X138487142Y-119752244D02*
X138391904Y-119704624D01*
X137677618Y-119799863D02*
X137629999Y-119752244D01*
X137629999Y-119752244D02*
X137534761Y-119704624D01*
X137534761Y-119704624D02*
X137296666Y-119704624D01*
X137296666Y-119704624D02*
X137201428Y-119752244D01*
X137201428Y-119752244D02*
X137153809Y-119799863D01*
X137153809Y-119799863D02*
X137106190Y-119895101D01*
X137106190Y-119895101D02*
X137106190Y-119990339D01*
X137106190Y-119990339D02*
X137153809Y-120133196D01*
X137153809Y-120133196D02*
X137725237Y-120704624D01*
X137725237Y-120704624D02*
X137106190Y-120704624D01*
X136725237Y-119799863D02*
X136677618Y-119752244D01*
X136677618Y-119752244D02*
X136582380Y-119704624D01*
X136582380Y-119704624D02*
X136344285Y-119704624D01*
X136344285Y-119704624D02*
X136249047Y-119752244D01*
X136249047Y-119752244D02*
X136201428Y-119799863D01*
X136201428Y-119799863D02*
X136153809Y-119895101D01*
X136153809Y-119895101D02*
X136153809Y-119990339D01*
X136153809Y-119990339D02*
X136201428Y-120133196D01*
X136201428Y-120133196D02*
X136772856Y-120704624D01*
X136772856Y-120704624D02*
X136153809Y-120704624D01*
X135125237Y-120323672D02*
X134363333Y-120323672D01*
X133382380Y-120037958D02*
X133144285Y-120704624D01*
X133144285Y-120704624D02*
X132906190Y-120037958D01*
X132001428Y-120704624D02*
X132572856Y-120704624D01*
X132287142Y-120704624D02*
X132287142Y-119704624D01*
X132287142Y-119704624D02*
X132382380Y-119847482D01*
X132382380Y-119847482D02*
X132477618Y-119942720D01*
X132477618Y-119942720D02*
X132572856Y-119990339D01*
X131572856Y-120609386D02*
X131525237Y-120657005D01*
X131525237Y-120657005D02*
X131572856Y-120704624D01*
X131572856Y-120704624D02*
X131620475Y-120657005D01*
X131620475Y-120657005D02*
X131572856Y-120609386D01*
X131572856Y-120609386D02*
X131572856Y-120704624D01*
X130572857Y-120704624D02*
X131144285Y-120704624D01*
X130858571Y-120704624D02*
X130858571Y-119704624D01*
X130858571Y-119704624D02*
X130953809Y-119847482D01*
X130953809Y-119847482D02*
X131049047Y-119942720D01*
X131049047Y-119942720D02*
X131144285Y-119990339D01*
D12*
%TO.P,J1,1*%
%TO.N,GND*%
X165988999Y-106641999D03*
D13*
%TO.P,J1,2*%
%TO.N,N/C*%
X165988999Y-104101999D03*
%TO.P,J1,3*%
X165988999Y-101561999D03*
%TO.P,J1,4*%
X165988999Y-99021999D03*
%TD*%
D14*
%TO.P,C1,1*%
%TO.N,N/C*%
X143266613Y-93928999D03*
X142595676Y-92328999D03*
D15*
%TO.P,C1,2*%
X140095677Y-92329000D03*
X139424740Y-90729000D03*
%TD*%
D16*
%TO.P,R1,1*%
%TO.N,N/C*%
X158242000Y-93980000D03*
D17*
%TO.P,R1,2*%
X148081999Y-93979999D03*
%TD*%
D12*
%TO.P,J2,1*%
%TO.N,GND*%
X169838999Y-106641999D03*
D13*
%TO.P,J2,2*%
%TO.N,N/C*%
X169838999Y-104101999D03*
%TO.P,J2,3*%
X169838999Y-101561999D03*
%TO.P,J2,4*%
X169838999Y-99021999D03*
%TO.P,J2,5*%
X169838999Y-96481999D03*
%TO.P,J2,6*%
X169838999Y-93941999D03*
%TO.P,J2,7*%
X169838999Y-91401999D03*
%TD*%
D18*
%TO.N,*%
X150584000Y-96482000D02*
X148082000Y-93980000D01*
X165989000Y-99022000D02*
X169839000Y-99022000D01*
D19*
X169801000Y-93980000D02*
X169839000Y-93942000D01*
D18*
X165989000Y-101562000D02*
X169839000Y-101562000D01*
X165989000Y-104102000D02*
X169839000Y-104102000D01*
D19*
X143266614Y-93929000D02*
X148031000Y-93929000D01*
X158242000Y-93980000D02*
X169801000Y-93980000D01*
D18*
X169839000Y-96482000D02*
X150584000Y-96482000D01*
D19*
X148031000Y-93929000D02*
X148082000Y-93980000D01*
D18*
%TO.N,GND*%
X171450000Y-105031000D02*
X169839000Y-106642000D01*
X165989000Y-106642000D02*
X169839000Y-106642000D01*
X169839000Y-91402000D02*
X171450000Y-93013000D01*
D19*
X139424740Y-90729000D02*
X169166000Y-90729000D01*
X169166000Y-90729000D02*
X169839000Y-91402000D01*
D18*
X171450000Y-93013000D02*
X171450000Y-105031000D01*
%TD*%
%TA.AperFunction,Conductor*%
%TO.N,GND*%
G36*
X173788621Y-75585502D02*
G01*
X173835114Y-75639158D01*
X173846500Y-75691500D01*
X173846500Y-121539500D01*
X173826498Y-121607621D01*
X173772842Y-121654114D01*
X173720500Y-121665500D01*
X98932500Y-121665500D01*
X98864379Y-121645498D01*
X98817886Y-121591842D01*
X98806500Y-121539500D01*
X98806500Y-121335744D01*
X129898881Y-121335744D01*
X142761119Y-121335744D01*
X142761119Y-119168744D01*
X129898881Y-119168744D01*
X129898881Y-121335744D01*
X98806500Y-121335744D01*
X98806500Y-118186225D01*
X100330500Y-118186225D01*
X100369777Y-118471989D01*
X100447600Y-118749744D01*
X100562519Y-119014314D01*
X100712394Y-119260772D01*
X100894432Y-119484526D01*
X101105242Y-119681409D01*
X101340897Y-119847753D01*
X101597008Y-119980459D01*
X101868804Y-120077055D01*
X101873006Y-120077928D01*
X101873009Y-120077929D01*
X102147010Y-120134867D01*
X102147014Y-120134868D01*
X102151222Y-120135742D01*
X102155516Y-120136036D01*
X102155518Y-120136036D01*
X102364832Y-120150354D01*
X102364841Y-120150354D01*
X102366971Y-120150500D01*
X102511029Y-120150500D01*
X102513159Y-120150354D01*
X102513168Y-120150354D01*
X102722482Y-120136036D01*
X102722484Y-120136036D01*
X102726778Y-120135742D01*
X102730986Y-120134868D01*
X102730990Y-120134867D01*
X103004991Y-120077929D01*
X103004994Y-120077928D01*
X103009196Y-120077055D01*
X103280992Y-119980459D01*
X103537103Y-119847753D01*
X103772758Y-119681409D01*
X103983568Y-119484526D01*
X104165606Y-119260772D01*
X104315481Y-119014314D01*
X104430400Y-118749744D01*
X104508223Y-118471989D01*
X104547500Y-118186225D01*
X168120500Y-118186225D01*
X168159777Y-118471989D01*
X168237600Y-118749744D01*
X168352519Y-119014314D01*
X168502394Y-119260772D01*
X168684432Y-119484526D01*
X168895242Y-119681409D01*
X169130897Y-119847753D01*
X169387008Y-119980459D01*
X169658804Y-120077055D01*
X169663006Y-120077928D01*
X169663009Y-120077929D01*
X169937010Y-120134867D01*
X169937014Y-120134868D01*
X169941222Y-120135742D01*
X169945516Y-120136036D01*
X169945518Y-120136036D01*
X170154832Y-120150354D01*
X170154841Y-120150354D01*
X170156971Y-120150500D01*
X170301029Y-120150500D01*
X170303159Y-120150354D01*
X170303168Y-120150354D01*
X170512482Y-120136036D01*
X170512484Y-120136036D01*
X170516778Y-120135742D01*
X170520986Y-120134868D01*
X170520990Y-120134867D01*
X170794991Y-120077929D01*
X170794994Y-120077928D01*
X170799196Y-120077055D01*
X171070992Y-119980459D01*
X171327103Y-119847753D01*
X171562758Y-119681409D01*
X171773568Y-119484526D01*
X171955606Y-119260772D01*
X172105481Y-119014314D01*
X172220400Y-118749744D01*
X172298223Y-118471989D01*
X172337500Y-118186225D01*
X172337500Y-117897775D01*
X172298223Y-117612011D01*
X172220400Y-117334256D01*
X172105481Y-117069686D01*
X171955606Y-116823228D01*
X171773568Y-116599474D01*
X171562758Y-116402591D01*
X171327103Y-116236247D01*
X171070992Y-116103541D01*
X170799196Y-116006945D01*
X170794994Y-116006072D01*
X170794991Y-116006071D01*
X170520990Y-115949133D01*
X170520986Y-115949132D01*
X170516778Y-115948258D01*
X170512484Y-115947964D01*
X170512482Y-115947964D01*
X170303168Y-115933646D01*
X170303159Y-115933646D01*
X170301029Y-115933500D01*
X170156971Y-115933500D01*
X170154841Y-115933646D01*
X170154832Y-115933646D01*
X169945518Y-115947964D01*
X169945516Y-115947964D01*
X169941222Y-115948258D01*
X169937014Y-115949132D01*
X169937010Y-115949133D01*
X169663009Y-116006071D01*
X169663006Y-116006072D01*
X169658804Y-116006945D01*
X169387008Y-116103541D01*
X169130897Y-116236247D01*
X168895242Y-116402591D01*
X168684432Y-116599474D01*
X168502394Y-116823228D01*
X168352519Y-117069686D01*
X168237600Y-117334256D01*
X168159777Y-117612011D01*
X168120500Y-117897775D01*
X168120500Y-118186225D01*
X104547500Y-118186225D01*
X104547500Y-117897775D01*
X104508223Y-117612011D01*
X104430400Y-117334256D01*
X104315481Y-117069686D01*
X104165606Y-116823228D01*
X103983568Y-116599474D01*
X103772758Y-116402591D01*
X103537103Y-116236247D01*
X103280992Y-116103541D01*
X103009196Y-116006945D01*
X103004994Y-116006072D01*
X103004991Y-116006071D01*
X102730990Y-115949133D01*
X102730986Y-115949132D01*
X102726778Y-115948258D01*
X102722484Y-115947964D01*
X102722482Y-115947964D01*
X102513168Y-115933646D01*
X102513159Y-115933646D01*
X102511029Y-115933500D01*
X102366971Y-115933500D01*
X102364841Y-115933646D01*
X102364832Y-115933646D01*
X102155518Y-115947964D01*
X102155516Y-115947964D01*
X102151222Y-115948258D01*
X102147014Y-115949132D01*
X102147010Y-115949133D01*
X101873009Y-116006071D01*
X101873006Y-116006072D01*
X101868804Y-116006945D01*
X101597008Y-116103541D01*
X101340897Y-116236247D01*
X101105242Y-116402591D01*
X100894432Y-116599474D01*
X100712394Y-116823228D01*
X100562519Y-117069686D01*
X100447600Y-117334256D01*
X100369777Y-117612011D01*
X100330500Y-117897775D01*
X100330500Y-118186225D01*
X98806500Y-118186225D01*
X98806500Y-107537223D01*
X164631000Y-107537223D01*
X164631360Y-107543938D01*
X164636662Y-107593257D01*
X164640259Y-107608478D01*
X164685405Y-107729520D01*
X164693954Y-107745176D01*
X164770698Y-107847693D01*
X164783307Y-107860302D01*
X164885824Y-107937046D01*
X164901480Y-107945595D01*
X165022522Y-107990741D01*
X165037743Y-107994338D01*
X165087062Y-107999640D01*
X165093777Y-108000000D01*
X165716885Y-108000000D01*
X165732124Y-107995525D01*
X165733329Y-107994135D01*
X165735000Y-107986452D01*
X165735000Y-107981885D01*
X166243000Y-107981885D01*
X166247475Y-107997124D01*
X166248865Y-107998329D01*
X166256548Y-108000000D01*
X166884223Y-108000000D01*
X166890938Y-107999640D01*
X166940257Y-107994338D01*
X166955478Y-107990741D01*
X167076520Y-107945595D01*
X167092176Y-107937046D01*
X167194693Y-107860302D01*
X167207302Y-107847693D01*
X167284046Y-107745176D01*
X167292595Y-107729520D01*
X167337741Y-107608478D01*
X167341338Y-107593257D01*
X167346640Y-107543938D01*
X167347000Y-107537223D01*
X168481000Y-107537223D01*
X168481360Y-107543938D01*
X168486662Y-107593257D01*
X168490259Y-107608478D01*
X168535405Y-107729520D01*
X168543954Y-107745176D01*
X168620698Y-107847693D01*
X168633307Y-107860302D01*
X168735824Y-107937046D01*
X168751480Y-107945595D01*
X168872522Y-107990741D01*
X168887743Y-107994338D01*
X168937062Y-107999640D01*
X168943777Y-108000000D01*
X169566885Y-108000000D01*
X169582124Y-107995525D01*
X169583329Y-107994135D01*
X169585000Y-107986452D01*
X169585000Y-107981885D01*
X170093000Y-107981885D01*
X170097475Y-107997124D01*
X170098865Y-107998329D01*
X170106548Y-108000000D01*
X170734223Y-108000000D01*
X170740938Y-107999640D01*
X170790257Y-107994338D01*
X170805478Y-107990741D01*
X170926520Y-107945595D01*
X170942176Y-107937046D01*
X171044693Y-107860302D01*
X171057302Y-107847693D01*
X171134046Y-107745176D01*
X171142595Y-107729520D01*
X171187741Y-107608478D01*
X171191338Y-107593257D01*
X171196640Y-107543938D01*
X171197000Y-107537223D01*
X171197000Y-106914115D01*
X171192525Y-106898876D01*
X171191135Y-106897671D01*
X171183452Y-106896000D01*
X170111115Y-106896000D01*
X170095876Y-106900475D01*
X170094671Y-106901865D01*
X170093000Y-106909548D01*
X170093000Y-107981885D01*
X169585000Y-107981885D01*
X169585000Y-106914115D01*
X169580525Y-106898876D01*
X169579135Y-106897671D01*
X169571452Y-106896000D01*
X168499115Y-106896000D01*
X168483876Y-106900475D01*
X168482671Y-106901865D01*
X168481000Y-106909548D01*
X168481000Y-107537223D01*
X167347000Y-107537223D01*
X167347000Y-106914115D01*
X167342525Y-106898876D01*
X167341135Y-106897671D01*
X167333452Y-106896000D01*
X166261115Y-106896000D01*
X166245876Y-106900475D01*
X166244671Y-106901865D01*
X166243000Y-106909548D01*
X166243000Y-107981885D01*
X165735000Y-107981885D01*
X165735000Y-106914115D01*
X165730525Y-106898876D01*
X165729135Y-106897671D01*
X165721452Y-106896000D01*
X164649115Y-106896000D01*
X164633876Y-106900475D01*
X164632671Y-106901865D01*
X164631000Y-106909548D01*
X164631000Y-107537223D01*
X98806500Y-107537223D01*
X98806500Y-90729000D01*
X137961241Y-90729000D01*
X137981201Y-90969884D01*
X137982482Y-90974942D01*
X137982482Y-90974943D01*
X138035126Y-91182828D01*
X138040537Y-91204197D01*
X138042629Y-91208967D01*
X138042630Y-91208969D01*
X138060220Y-91249069D01*
X138137631Y-91425549D01*
X138269834Y-91627900D01*
X138433539Y-91805731D01*
X138437648Y-91808929D01*
X138437650Y-91808931D01*
X138610919Y-91943792D01*
X138652390Y-92001418D01*
X138655673Y-92074152D01*
X138653419Y-92083056D01*
X138652138Y-92088116D01*
X138632178Y-92329000D01*
X138632608Y-92334189D01*
X138650229Y-92546842D01*
X138652138Y-92569884D01*
X138653419Y-92574942D01*
X138653419Y-92574943D01*
X138709989Y-92798332D01*
X138711474Y-92804197D01*
X138808568Y-93025549D01*
X138940771Y-93227900D01*
X139104476Y-93405731D01*
X139108585Y-93408929D01*
X139108587Y-93408931D01*
X139231305Y-93504446D01*
X139295219Y-93554192D01*
X139299798Y-93556670D01*
X139299801Y-93556672D01*
X139503211Y-93666752D01*
X139503214Y-93666753D01*
X139507796Y-93669233D01*
X139736409Y-93747716D01*
X139741543Y-93748573D01*
X139741548Y-93748574D01*
X139969685Y-93786643D01*
X139969688Y-93786643D01*
X139974822Y-93787500D01*
X140216532Y-93787500D01*
X140221666Y-93786643D01*
X140221669Y-93786643D01*
X140449806Y-93748574D01*
X140449811Y-93748573D01*
X140454945Y-93747716D01*
X140683558Y-93669233D01*
X140688140Y-93666753D01*
X140688143Y-93666752D01*
X140891553Y-93556672D01*
X140891556Y-93556670D01*
X140896135Y-93554192D01*
X140960049Y-93504446D01*
X141082767Y-93408931D01*
X141082769Y-93408929D01*
X141086878Y-93405731D01*
X141090406Y-93401898D01*
X141091016Y-93401337D01*
X141154681Y-93369917D01*
X141225227Y-93377904D01*
X141277220Y-93418529D01*
X141332416Y-93492261D01*
X141339627Y-93497659D01*
X141418459Y-93556672D01*
X141449473Y-93579889D01*
X141586476Y-93630989D01*
X141623382Y-93634957D01*
X141643689Y-93637140D01*
X141643692Y-93637140D01*
X141647039Y-93637500D01*
X141732114Y-93637500D01*
X141800235Y-93657502D01*
X141846728Y-93711158D01*
X141858114Y-93763500D01*
X141858114Y-94777638D01*
X141864625Y-94838201D01*
X141915725Y-94975204D01*
X142003353Y-95092261D01*
X142010564Y-95097659D01*
X142082085Y-95151199D01*
X142120410Y-95179889D01*
X142257413Y-95230989D01*
X142294319Y-95234957D01*
X142314626Y-95237140D01*
X142314629Y-95237140D01*
X142317976Y-95237500D01*
X144215252Y-95237500D01*
X144218599Y-95237140D01*
X144218602Y-95237140D01*
X144238909Y-95234957D01*
X144275815Y-95230989D01*
X144412818Y-95179889D01*
X144451144Y-95151199D01*
X144522664Y-95097659D01*
X144529875Y-95092261D01*
X144617503Y-94975204D01*
X144668603Y-94838201D01*
X144675114Y-94777638D01*
X144675114Y-94688500D01*
X144695116Y-94620379D01*
X144748772Y-94573886D01*
X144801114Y-94562500D01*
X146829583Y-94562500D01*
X146897704Y-94582502D01*
X146937519Y-94628085D01*
X146939401Y-94626998D01*
X146942151Y-94631760D01*
X146944477Y-94636749D01*
X146980714Y-94688500D01*
X147045475Y-94780988D01*
X147075802Y-94824300D01*
X147237700Y-94986198D01*
X147242208Y-94989355D01*
X147242211Y-94989357D01*
X147320389Y-95044098D01*
X147425251Y-95117523D01*
X147430233Y-95119846D01*
X147430238Y-95119849D01*
X147609596Y-95203484D01*
X147632757Y-95214284D01*
X147638065Y-95215706D01*
X147638067Y-95215707D01*
X147848598Y-95272119D01*
X147848600Y-95272119D01*
X147853913Y-95273543D01*
X148082000Y-95293498D01*
X148310087Y-95273543D01*
X148315400Y-95272119D01*
X148315402Y-95272119D01*
X148401426Y-95249069D01*
X148472403Y-95250759D01*
X148523132Y-95281681D01*
X150119685Y-96878234D01*
X150130552Y-96890625D01*
X150150013Y-96915987D01*
X150181925Y-96940474D01*
X150181928Y-96940477D01*
X150214458Y-96965438D01*
X150277125Y-97013524D01*
X150425150Y-97074838D01*
X150544115Y-97090500D01*
X150544120Y-97090500D01*
X150544129Y-97090501D01*
X150575812Y-97094672D01*
X150584000Y-97095750D01*
X150615693Y-97091578D01*
X150632136Y-97090500D01*
X168545629Y-97090500D01*
X168613750Y-97110502D01*
X168651112Y-97147585D01*
X168763278Y-97319268D01*
X168766803Y-97323097D01*
X168766806Y-97323101D01*
X168868360Y-97433417D01*
X168915760Y-97484906D01*
X169093424Y-97623189D01*
X169098005Y-97625668D01*
X169126680Y-97641186D01*
X169177071Y-97691199D01*
X169192423Y-97760516D01*
X169167863Y-97827129D01*
X169126681Y-97862813D01*
X169093424Y-97880811D01*
X168915760Y-98019094D01*
X168912228Y-98022931D01*
X168766806Y-98180899D01*
X168766803Y-98180903D01*
X168763278Y-98184732D01*
X168760427Y-98189096D01*
X168651112Y-98356415D01*
X168597108Y-98402504D01*
X168545629Y-98413500D01*
X167282371Y-98413500D01*
X167214250Y-98393498D01*
X167176888Y-98356415D01*
X167067573Y-98189096D01*
X167064722Y-98184732D01*
X167061197Y-98180903D01*
X167061194Y-98180899D01*
X166915772Y-98022931D01*
X166912240Y-98019094D01*
X166734576Y-97880811D01*
X166536574Y-97773658D01*
X166323635Y-97700556D01*
X166318501Y-97699699D01*
X166318496Y-97699698D01*
X166106706Y-97664357D01*
X166106704Y-97664357D01*
X166101569Y-97663500D01*
X165876431Y-97663500D01*
X165871296Y-97664357D01*
X165871294Y-97664357D01*
X165659504Y-97699698D01*
X165659499Y-97699699D01*
X165654365Y-97700556D01*
X165441426Y-97773658D01*
X165243424Y-97880811D01*
X165065760Y-98019094D01*
X165062228Y-98022931D01*
X164916806Y-98180899D01*
X164916803Y-98180903D01*
X164913278Y-98184732D01*
X164790140Y-98373209D01*
X164699704Y-98579384D01*
X164644436Y-98797632D01*
X164625844Y-99022000D01*
X164644436Y-99246368D01*
X164699704Y-99464616D01*
X164790140Y-99670791D01*
X164913278Y-99859268D01*
X164916803Y-99863097D01*
X164916806Y-99863101D01*
X165018360Y-99973417D01*
X165065760Y-100024906D01*
X165243424Y-100163189D01*
X165248005Y-100165668D01*
X165276680Y-100181186D01*
X165327071Y-100231199D01*
X165342423Y-100300516D01*
X165317863Y-100367129D01*
X165276681Y-100402813D01*
X165243424Y-100420811D01*
X165065760Y-100559094D01*
X165062228Y-100562931D01*
X164916806Y-100720899D01*
X164916803Y-100720903D01*
X164913278Y-100724732D01*
X164790140Y-100913209D01*
X164699704Y-101119384D01*
X164644436Y-101337632D01*
X164625844Y-101562000D01*
X164644436Y-101786368D01*
X164699704Y-102004616D01*
X164790140Y-102210791D01*
X164913278Y-102399268D01*
X164916803Y-102403097D01*
X164916806Y-102403101D01*
X165018360Y-102513417D01*
X165065760Y-102564906D01*
X165243424Y-102703189D01*
X165248005Y-102705668D01*
X165276680Y-102721186D01*
X165327071Y-102771199D01*
X165342423Y-102840516D01*
X165317863Y-102907129D01*
X165276681Y-102942813D01*
X165243424Y-102960811D01*
X165065760Y-103099094D01*
X165062228Y-103102931D01*
X164916806Y-103260899D01*
X164916803Y-103260903D01*
X164913278Y-103264732D01*
X164790140Y-103453209D01*
X164699704Y-103659384D01*
X164644436Y-103877632D01*
X164625844Y-104102000D01*
X164644436Y-104326368D01*
X164699704Y-104544616D01*
X164790140Y-104750791D01*
X164913278Y-104939268D01*
X164916803Y-104943097D01*
X164916806Y-104943101D01*
X165056841Y-105095217D01*
X165088262Y-105158882D01*
X165080275Y-105229428D01*
X165035417Y-105284457D01*
X165008173Y-105298611D01*
X164901478Y-105338406D01*
X164885824Y-105346954D01*
X164783307Y-105423698D01*
X164770698Y-105436307D01*
X164693954Y-105538824D01*
X164685405Y-105554480D01*
X164640259Y-105675522D01*
X164636662Y-105690743D01*
X164631360Y-105740062D01*
X164631000Y-105746777D01*
X164631000Y-106369885D01*
X164635475Y-106385124D01*
X164636865Y-106386329D01*
X164644548Y-106388000D01*
X167328885Y-106388000D01*
X167344124Y-106383525D01*
X167345329Y-106382135D01*
X167347000Y-106374452D01*
X167347000Y-105746777D01*
X167346640Y-105740062D01*
X167341338Y-105690743D01*
X167337741Y-105675522D01*
X167292595Y-105554480D01*
X167284046Y-105538824D01*
X167207302Y-105436307D01*
X167194693Y-105423698D01*
X167092176Y-105346954D01*
X167076522Y-105338406D01*
X166969827Y-105298611D01*
X166912992Y-105256064D01*
X166888181Y-105189544D01*
X166903273Y-105120169D01*
X166921159Y-105095217D01*
X167061194Y-104943101D01*
X167061197Y-104943097D01*
X167064722Y-104939268D01*
X167176888Y-104767585D01*
X167230892Y-104721496D01*
X167282371Y-104710500D01*
X168545629Y-104710500D01*
X168613750Y-104730502D01*
X168651112Y-104767585D01*
X168763278Y-104939268D01*
X168766803Y-104943097D01*
X168766806Y-104943101D01*
X168906841Y-105095217D01*
X168938262Y-105158882D01*
X168930275Y-105229428D01*
X168885417Y-105284457D01*
X168858173Y-105298611D01*
X168751478Y-105338406D01*
X168735824Y-105346954D01*
X168633307Y-105423698D01*
X168620698Y-105436307D01*
X168543954Y-105538824D01*
X168535405Y-105554480D01*
X168490259Y-105675522D01*
X168486662Y-105690743D01*
X168481360Y-105740062D01*
X168481000Y-105746777D01*
X168481000Y-106369885D01*
X168485475Y-106385124D01*
X168486865Y-106386329D01*
X168494548Y-106388000D01*
X171178885Y-106388000D01*
X171194124Y-106383525D01*
X171195329Y-106382135D01*
X171197000Y-106374452D01*
X171197000Y-105746777D01*
X171196640Y-105740062D01*
X171191338Y-105690743D01*
X171187741Y-105675522D01*
X171142595Y-105554480D01*
X171134046Y-105538824D01*
X171057302Y-105436307D01*
X171044693Y-105423698D01*
X170942176Y-105346954D01*
X170926522Y-105338406D01*
X170819827Y-105298611D01*
X170762992Y-105256064D01*
X170738181Y-105189544D01*
X170753273Y-105120169D01*
X170771159Y-105095217D01*
X170911194Y-104943101D01*
X170911197Y-104943097D01*
X170914722Y-104939268D01*
X171037860Y-104750791D01*
X171128296Y-104544616D01*
X171183564Y-104326368D01*
X171202156Y-104102000D01*
X171183564Y-103877632D01*
X171128296Y-103659384D01*
X171037860Y-103453209D01*
X170914722Y-103264732D01*
X170911197Y-103260903D01*
X170911194Y-103260899D01*
X170765772Y-103102931D01*
X170762240Y-103099094D01*
X170584576Y-102960811D01*
X170551320Y-102942814D01*
X170500929Y-102892801D01*
X170485577Y-102823484D01*
X170510137Y-102756871D01*
X170551320Y-102721186D01*
X170579995Y-102705668D01*
X170584576Y-102703189D01*
X170762240Y-102564906D01*
X170809640Y-102513417D01*
X170911194Y-102403101D01*
X170911197Y-102403097D01*
X170914722Y-102399268D01*
X171037860Y-102210791D01*
X171128296Y-102004616D01*
X171183564Y-101786368D01*
X171202156Y-101562000D01*
X171183564Y-101337632D01*
X171128296Y-101119384D01*
X171037860Y-100913209D01*
X170914722Y-100724732D01*
X170911197Y-100720903D01*
X170911194Y-100720899D01*
X170765772Y-100562931D01*
X170762240Y-100559094D01*
X170584576Y-100420811D01*
X170551320Y-100402814D01*
X170500929Y-100352801D01*
X170485577Y-100283484D01*
X170510137Y-100216871D01*
X170551320Y-100181186D01*
X170579995Y-100165668D01*
X170584576Y-100163189D01*
X170762240Y-100024906D01*
X170809640Y-99973417D01*
X170911194Y-99863101D01*
X170911197Y-99863097D01*
X170914722Y-99859268D01*
X171037860Y-99670791D01*
X171128296Y-99464616D01*
X171183564Y-99246368D01*
X171202156Y-99022000D01*
X171183564Y-98797632D01*
X171128296Y-98579384D01*
X171037860Y-98373209D01*
X170914722Y-98184732D01*
X170911197Y-98180903D01*
X170911194Y-98180899D01*
X170765772Y-98022931D01*
X170762240Y-98019094D01*
X170584576Y-97880811D01*
X170551320Y-97862814D01*
X170500929Y-97812801D01*
X170485577Y-97743484D01*
X170510137Y-97676871D01*
X170551320Y-97641186D01*
X170579995Y-97625668D01*
X170584576Y-97623189D01*
X170762240Y-97484906D01*
X170809640Y-97433417D01*
X170911194Y-97323101D01*
X170911197Y-97323097D01*
X170914722Y-97319268D01*
X171037860Y-97130791D01*
X171053231Y-97095750D01*
X171126200Y-96929394D01*
X171128296Y-96924616D01*
X171138563Y-96884075D01*
X171182283Y-96711427D01*
X171182283Y-96711426D01*
X171183564Y-96706368D01*
X171202156Y-96482000D01*
X171183564Y-96257632D01*
X171128296Y-96039384D01*
X171037860Y-95833209D01*
X170914722Y-95644732D01*
X170911197Y-95640903D01*
X170911194Y-95640899D01*
X170765772Y-95482931D01*
X170762240Y-95479094D01*
X170584576Y-95340811D01*
X170551320Y-95322814D01*
X170500929Y-95272801D01*
X170485577Y-95203484D01*
X170510137Y-95136871D01*
X170551320Y-95101186D01*
X170557838Y-95097659D01*
X170584576Y-95083189D01*
X170714196Y-94982301D01*
X170758121Y-94948112D01*
X170762240Y-94944906D01*
X170867682Y-94830367D01*
X170911194Y-94783101D01*
X170911197Y-94783097D01*
X170914722Y-94779268D01*
X171009956Y-94633502D01*
X171035008Y-94595157D01*
X171035010Y-94595153D01*
X171037860Y-94590791D01*
X171045276Y-94573886D01*
X171126200Y-94389394D01*
X171128296Y-94384616D01*
X171134829Y-94358820D01*
X171182283Y-94171427D01*
X171182283Y-94171426D01*
X171183564Y-94166368D01*
X171198554Y-93985475D01*
X171201726Y-93947189D01*
X171202156Y-93942000D01*
X171186057Y-93747716D01*
X171183995Y-93722828D01*
X171183994Y-93722823D01*
X171183564Y-93717632D01*
X171181925Y-93711158D01*
X171129578Y-93504446D01*
X171129578Y-93504445D01*
X171128296Y-93499384D01*
X171085289Y-93401337D01*
X171039954Y-93297982D01*
X171039952Y-93297978D01*
X171037860Y-93293209D01*
X170997701Y-93231740D01*
X170917573Y-93109096D01*
X170914722Y-93104732D01*
X170911197Y-93100903D01*
X170911194Y-93100899D01*
X170765772Y-92942931D01*
X170762240Y-92939094D01*
X170638108Y-92842477D01*
X170588689Y-92804012D01*
X170588687Y-92804010D01*
X170584576Y-92800811D01*
X170551320Y-92782814D01*
X170500929Y-92732801D01*
X170485577Y-92663484D01*
X170510137Y-92596871D01*
X170551320Y-92561186D01*
X170579995Y-92545668D01*
X170584576Y-92543189D01*
X170762240Y-92404906D01*
X170836894Y-92323811D01*
X170911194Y-92243101D01*
X170911197Y-92243097D01*
X170914722Y-92239268D01*
X171010082Y-92093309D01*
X171035008Y-92055157D01*
X171035010Y-92055153D01*
X171037860Y-92050791D01*
X171067337Y-91983591D01*
X171126200Y-91849394D01*
X171128296Y-91844616D01*
X171183564Y-91626368D01*
X171195384Y-91483731D01*
X171201726Y-91407189D01*
X171202156Y-91402000D01*
X171192978Y-91291237D01*
X171183995Y-91182828D01*
X171183994Y-91182823D01*
X171183564Y-91177632D01*
X171128296Y-90959384D01*
X171037860Y-90753209D01*
X171022044Y-90729000D01*
X170917573Y-90569096D01*
X170914722Y-90564732D01*
X170911197Y-90560903D01*
X170911194Y-90560899D01*
X170765772Y-90402931D01*
X170762240Y-90399094D01*
X170584576Y-90260811D01*
X170386574Y-90153658D01*
X170173635Y-90080556D01*
X170168501Y-90079699D01*
X170168496Y-90079698D01*
X169956706Y-90044357D01*
X169956704Y-90044357D01*
X169951569Y-90043500D01*
X169726431Y-90043500D01*
X169721296Y-90044357D01*
X169721294Y-90044357D01*
X169509504Y-90079698D01*
X169509499Y-90079699D01*
X169504365Y-90080556D01*
X169291426Y-90153658D01*
X169093424Y-90260811D01*
X168915760Y-90399094D01*
X168912228Y-90402931D01*
X168766806Y-90560899D01*
X168766803Y-90560903D01*
X168763278Y-90564732D01*
X168760427Y-90569096D01*
X168655957Y-90729000D01*
X168640140Y-90753209D01*
X168549704Y-90959384D01*
X168494436Y-91177632D01*
X168494006Y-91182823D01*
X168494005Y-91182828D01*
X168485022Y-91291237D01*
X168475844Y-91402000D01*
X168476274Y-91407189D01*
X168482617Y-91483731D01*
X168494436Y-91626368D01*
X168549704Y-91844616D01*
X168551800Y-91849394D01*
X168610664Y-91983591D01*
X168640140Y-92050791D01*
X168642990Y-92055153D01*
X168642992Y-92055157D01*
X168667918Y-92093309D01*
X168763278Y-92239268D01*
X168766803Y-92243097D01*
X168766806Y-92243101D01*
X168841106Y-92323811D01*
X168915760Y-92404906D01*
X169093424Y-92543189D01*
X169098005Y-92545668D01*
X169126680Y-92561186D01*
X169177071Y-92611199D01*
X169192423Y-92680516D01*
X169167863Y-92747129D01*
X169126681Y-92782813D01*
X169093424Y-92800811D01*
X169089313Y-92804010D01*
X169089311Y-92804012D01*
X169039892Y-92842477D01*
X168915760Y-92939094D01*
X168912228Y-92942931D01*
X168766806Y-93100899D01*
X168766803Y-93100903D01*
X168763278Y-93104732D01*
X168642993Y-93288843D01*
X168642619Y-93289415D01*
X168588616Y-93335504D01*
X168537136Y-93346500D01*
X159461394Y-93346500D01*
X159393273Y-93326498D01*
X159358181Y-93292771D01*
X159251357Y-93140211D01*
X159251355Y-93140208D01*
X159248198Y-93135700D01*
X159086300Y-92973802D01*
X159081792Y-92970645D01*
X159081789Y-92970643D01*
X158956330Y-92882796D01*
X158898749Y-92842477D01*
X158893767Y-92840154D01*
X158893762Y-92840151D01*
X158696225Y-92748039D01*
X158696224Y-92748039D01*
X158691243Y-92745716D01*
X158685935Y-92744294D01*
X158685933Y-92744293D01*
X158475402Y-92687881D01*
X158475400Y-92687881D01*
X158470087Y-92686457D01*
X158242000Y-92666502D01*
X158013913Y-92686457D01*
X158008600Y-92687881D01*
X158008598Y-92687881D01*
X157798067Y-92744293D01*
X157798065Y-92744294D01*
X157792757Y-92745716D01*
X157787776Y-92748039D01*
X157787775Y-92748039D01*
X157590238Y-92840151D01*
X157590233Y-92840154D01*
X157585251Y-92842477D01*
X157527670Y-92882796D01*
X157402211Y-92970643D01*
X157402208Y-92970645D01*
X157397700Y-92973802D01*
X157235802Y-93135700D01*
X157104477Y-93323251D01*
X157102154Y-93328233D01*
X157102151Y-93328238D01*
X157082716Y-93369917D01*
X157007716Y-93530757D01*
X157006294Y-93536065D01*
X157006293Y-93536067D01*
X156956250Y-93722828D01*
X156948457Y-93751913D01*
X156928502Y-93980000D01*
X156948457Y-94208087D01*
X156949881Y-94213400D01*
X156949881Y-94213402D01*
X157005543Y-94421132D01*
X157007716Y-94429243D01*
X157010039Y-94434224D01*
X157010039Y-94434225D01*
X157102151Y-94631762D01*
X157102154Y-94631767D01*
X157104477Y-94636749D01*
X157140714Y-94688500D01*
X157205475Y-94780988D01*
X157235802Y-94824300D01*
X157397700Y-94986198D01*
X157402208Y-94989355D01*
X157402211Y-94989357D01*
X157480389Y-95044098D01*
X157585251Y-95117523D01*
X157590233Y-95119846D01*
X157590238Y-95119849D01*
X157769596Y-95203484D01*
X157792757Y-95214284D01*
X157798065Y-95215706D01*
X157798067Y-95215707D01*
X158008598Y-95272119D01*
X158008600Y-95272119D01*
X158013913Y-95273543D01*
X158242000Y-95293498D01*
X158470087Y-95273543D01*
X158475400Y-95272119D01*
X158475402Y-95272119D01*
X158685933Y-95215707D01*
X158685935Y-95215706D01*
X158691243Y-95214284D01*
X158714404Y-95203484D01*
X158893762Y-95119849D01*
X158893767Y-95119846D01*
X158898749Y-95117523D01*
X159003611Y-95044098D01*
X159081789Y-94989357D01*
X159081792Y-94989355D01*
X159086300Y-94986198D01*
X159248198Y-94824300D01*
X159277046Y-94783101D01*
X159358181Y-94667229D01*
X159413638Y-94622901D01*
X159461394Y-94613500D01*
X168586789Y-94613500D01*
X168654910Y-94633502D01*
X168692272Y-94670585D01*
X168738752Y-94741728D01*
X168763278Y-94779268D01*
X168766803Y-94783097D01*
X168766806Y-94783101D01*
X168810318Y-94830367D01*
X168915760Y-94944906D01*
X168919879Y-94948112D01*
X168963805Y-94982301D01*
X169093424Y-95083189D01*
X169120163Y-95097659D01*
X169126680Y-95101186D01*
X169177071Y-95151199D01*
X169192423Y-95220516D01*
X169167863Y-95287129D01*
X169126681Y-95322813D01*
X169093424Y-95340811D01*
X168915760Y-95479094D01*
X168912228Y-95482931D01*
X168766806Y-95640899D01*
X168766803Y-95640903D01*
X168763278Y-95644732D01*
X168760427Y-95649096D01*
X168651112Y-95816415D01*
X168597108Y-95862504D01*
X168545629Y-95873500D01*
X150888239Y-95873500D01*
X150820118Y-95853498D01*
X150799144Y-95836595D01*
X149383681Y-94421132D01*
X149349655Y-94358820D01*
X149351069Y-94299426D01*
X149374119Y-94213402D01*
X149374119Y-94213400D01*
X149375543Y-94208087D01*
X149395498Y-93980000D01*
X149375543Y-93751913D01*
X149367750Y-93722828D01*
X149317707Y-93536067D01*
X149317706Y-93536065D01*
X149316284Y-93530757D01*
X149241284Y-93369917D01*
X149221849Y-93328238D01*
X149221846Y-93328233D01*
X149219523Y-93323251D01*
X149088198Y-93135700D01*
X148926300Y-92973802D01*
X148921792Y-92970645D01*
X148921789Y-92970643D01*
X148796330Y-92882796D01*
X148738749Y-92842477D01*
X148733767Y-92840154D01*
X148733762Y-92840151D01*
X148536225Y-92748039D01*
X148536224Y-92748039D01*
X148531243Y-92745716D01*
X148525935Y-92744294D01*
X148525933Y-92744293D01*
X148315402Y-92687881D01*
X148315400Y-92687881D01*
X148310087Y-92686457D01*
X148082000Y-92666502D01*
X147853913Y-92686457D01*
X147848600Y-92687881D01*
X147848598Y-92687881D01*
X147638067Y-92744293D01*
X147638065Y-92744294D01*
X147632757Y-92745716D01*
X147627776Y-92748039D01*
X147627775Y-92748039D01*
X147430238Y-92840151D01*
X147430233Y-92840154D01*
X147425251Y-92842477D01*
X147367670Y-92882796D01*
X147242211Y-92970643D01*
X147242208Y-92970645D01*
X147237700Y-92973802D01*
X147075802Y-93135700D01*
X147072645Y-93140208D01*
X147072643Y-93140211D01*
X147001530Y-93241771D01*
X146946073Y-93286099D01*
X146898317Y-93295500D01*
X144801114Y-93295500D01*
X144732993Y-93275498D01*
X144686500Y-93221842D01*
X144675114Y-93169500D01*
X144675114Y-93080362D01*
X144668603Y-93019799D01*
X144617503Y-92882796D01*
X144587321Y-92842477D01*
X144535273Y-92772950D01*
X144529875Y-92765739D01*
X144485875Y-92732801D01*
X144420032Y-92683511D01*
X144420030Y-92683510D01*
X144412818Y-92678111D01*
X144275815Y-92627011D01*
X144238909Y-92623043D01*
X144218602Y-92620860D01*
X144218599Y-92620860D01*
X144215252Y-92620500D01*
X144130177Y-92620500D01*
X144062056Y-92600498D01*
X144015563Y-92546842D01*
X144004177Y-92494500D01*
X144004177Y-91480362D01*
X143997666Y-91419799D01*
X143946566Y-91282796D01*
X143858938Y-91165739D01*
X143741881Y-91078111D01*
X143604878Y-91027011D01*
X143567972Y-91023043D01*
X143547665Y-91020860D01*
X143547662Y-91020860D01*
X143544315Y-91020500D01*
X141647039Y-91020500D01*
X141643692Y-91020860D01*
X141643689Y-91020860D01*
X141623382Y-91023043D01*
X141586476Y-91027011D01*
X141449473Y-91078111D01*
X141332416Y-91165739D01*
X141277221Y-91239471D01*
X141220385Y-91282017D01*
X141149569Y-91287081D01*
X141091016Y-91256663D01*
X141090406Y-91256102D01*
X141086878Y-91252269D01*
X141082767Y-91249069D01*
X140909498Y-91114208D01*
X140868027Y-91056582D01*
X140864744Y-90983848D01*
X140866998Y-90974944D01*
X140866999Y-90974940D01*
X140868279Y-90969884D01*
X140888239Y-90729000D01*
X140868279Y-90488116D01*
X140844924Y-90395888D01*
X140810223Y-90258856D01*
X140810221Y-90258851D01*
X140808943Y-90253803D01*
X140711849Y-90032451D01*
X140579646Y-89830100D01*
X140415941Y-89652269D01*
X140225198Y-89503808D01*
X140220619Y-89501330D01*
X140220616Y-89501328D01*
X140017206Y-89391248D01*
X140017203Y-89391247D01*
X140012621Y-89388767D01*
X139784008Y-89310284D01*
X139778874Y-89309427D01*
X139778869Y-89309426D01*
X139550732Y-89271357D01*
X139550729Y-89271357D01*
X139545595Y-89270500D01*
X139303885Y-89270500D01*
X139298751Y-89271357D01*
X139298748Y-89271357D01*
X139070611Y-89309426D01*
X139070606Y-89309427D01*
X139065472Y-89310284D01*
X138836859Y-89388767D01*
X138832277Y-89391247D01*
X138832274Y-89391248D01*
X138628864Y-89501328D01*
X138628861Y-89501330D01*
X138624282Y-89503808D01*
X138433539Y-89652269D01*
X138269834Y-89830100D01*
X138137631Y-90032451D01*
X138040537Y-90253803D01*
X138039259Y-90258851D01*
X138039257Y-90258856D01*
X138004556Y-90395888D01*
X137981201Y-90488116D01*
X137961241Y-90729000D01*
X98806500Y-90729000D01*
X98806500Y-79389645D01*
X100280500Y-79389645D01*
X100320708Y-79682186D01*
X100400377Y-79966527D01*
X100518021Y-80237371D01*
X100520254Y-80241043D01*
X100655905Y-80464110D01*
X100671450Y-80489673D01*
X100857804Y-80718734D01*
X100860943Y-80721666D01*
X100860948Y-80721671D01*
X101070466Y-80917347D01*
X101073613Y-80920286D01*
X101314857Y-81090574D01*
X101577042Y-81226427D01*
X101855283Y-81325314D01*
X101859491Y-81326188D01*
X101859493Y-81326189D01*
X102140190Y-81384519D01*
X102140193Y-81384519D01*
X102144397Y-81385393D01*
X102148683Y-81385686D01*
X102148689Y-81385687D01*
X102363117Y-81400354D01*
X102363130Y-81400354D01*
X102365258Y-81400500D01*
X102512742Y-81400500D01*
X102514870Y-81400354D01*
X102514883Y-81400354D01*
X102729311Y-81385687D01*
X102729317Y-81385686D01*
X102733603Y-81385393D01*
X102737807Y-81384519D01*
X102737810Y-81384519D01*
X103018507Y-81326189D01*
X103018509Y-81326188D01*
X103022717Y-81325314D01*
X103300958Y-81226427D01*
X103563143Y-81090574D01*
X103804387Y-80920286D01*
X103807534Y-80917347D01*
X104017052Y-80721671D01*
X104017057Y-80721666D01*
X104020196Y-80718734D01*
X104206550Y-80489673D01*
X104222096Y-80464110D01*
X104357746Y-80241043D01*
X104359979Y-80237371D01*
X104477623Y-79966527D01*
X104557292Y-79682186D01*
X104597500Y-79389645D01*
X104597500Y-79386225D01*
X168190500Y-79386225D01*
X168229777Y-79671989D01*
X168307600Y-79949744D01*
X168422519Y-80214314D01*
X168572394Y-80460772D01*
X168754432Y-80684526D01*
X168965242Y-80881409D01*
X169200897Y-81047753D01*
X169457008Y-81180459D01*
X169728804Y-81277055D01*
X169733006Y-81277928D01*
X169733009Y-81277929D01*
X170007010Y-81334867D01*
X170007014Y-81334868D01*
X170011222Y-81335742D01*
X170015516Y-81336036D01*
X170015518Y-81336036D01*
X170224832Y-81350354D01*
X170224841Y-81350354D01*
X170226971Y-81350500D01*
X170371029Y-81350500D01*
X170373159Y-81350354D01*
X170373168Y-81350354D01*
X170582482Y-81336036D01*
X170582484Y-81336036D01*
X170586778Y-81335742D01*
X170590986Y-81334868D01*
X170590990Y-81334867D01*
X170864991Y-81277929D01*
X170864994Y-81277928D01*
X170869196Y-81277055D01*
X171140992Y-81180459D01*
X171397103Y-81047753D01*
X171632758Y-80881409D01*
X171843568Y-80684526D01*
X172025606Y-80460772D01*
X172175481Y-80214314D01*
X172290400Y-79949744D01*
X172368223Y-79671989D01*
X172407500Y-79386225D01*
X172407500Y-79097775D01*
X172368223Y-78812011D01*
X172290400Y-78534256D01*
X172175481Y-78269686D01*
X172025606Y-78023228D01*
X171843568Y-77799474D01*
X171632758Y-77602591D01*
X171397103Y-77436247D01*
X171140992Y-77303541D01*
X170869196Y-77206945D01*
X170864994Y-77206072D01*
X170864991Y-77206071D01*
X170590990Y-77149133D01*
X170590986Y-77149132D01*
X170586778Y-77148258D01*
X170582484Y-77147964D01*
X170582482Y-77147964D01*
X170373168Y-77133646D01*
X170373159Y-77133646D01*
X170371029Y-77133500D01*
X170226971Y-77133500D01*
X170224841Y-77133646D01*
X170224832Y-77133646D01*
X170015518Y-77147964D01*
X170015516Y-77147964D01*
X170011222Y-77148258D01*
X170007014Y-77149132D01*
X170007010Y-77149133D01*
X169733009Y-77206071D01*
X169733006Y-77206072D01*
X169728804Y-77206945D01*
X169457008Y-77303541D01*
X169200897Y-77436247D01*
X168965242Y-77602591D01*
X168754432Y-77799474D01*
X168572394Y-78023228D01*
X168422519Y-78269686D01*
X168307600Y-78534256D01*
X168229777Y-78812011D01*
X168190500Y-79097775D01*
X168190500Y-79386225D01*
X104597500Y-79386225D01*
X104597500Y-79094355D01*
X104557292Y-78801814D01*
X104477623Y-78517473D01*
X104359979Y-78246629D01*
X104226358Y-78026899D01*
X104208784Y-77998000D01*
X104208781Y-77997996D01*
X104206550Y-77994327D01*
X104020196Y-77765266D01*
X104017057Y-77762334D01*
X104017052Y-77762329D01*
X103807534Y-77566653D01*
X103807533Y-77566652D01*
X103804387Y-77563714D01*
X103563143Y-77393426D01*
X103300958Y-77257573D01*
X103022717Y-77158686D01*
X103018509Y-77157812D01*
X103018507Y-77157811D01*
X102737810Y-77099481D01*
X102737807Y-77099481D01*
X102733603Y-77098607D01*
X102729317Y-77098314D01*
X102729311Y-77098313D01*
X102514883Y-77083646D01*
X102514870Y-77083646D01*
X102512742Y-77083500D01*
X102365258Y-77083500D01*
X102363130Y-77083646D01*
X102363117Y-77083646D01*
X102148689Y-77098313D01*
X102148683Y-77098314D01*
X102144397Y-77098607D01*
X102140193Y-77099481D01*
X102140190Y-77099481D01*
X101859493Y-77157811D01*
X101859491Y-77157812D01*
X101855283Y-77158686D01*
X101577042Y-77257573D01*
X101314857Y-77393426D01*
X101073613Y-77563714D01*
X101070467Y-77566652D01*
X101070466Y-77566653D01*
X100860948Y-77762329D01*
X100860943Y-77762334D01*
X100857804Y-77765266D01*
X100671450Y-77994327D01*
X100669219Y-77997996D01*
X100669216Y-77998000D01*
X100651642Y-78026899D01*
X100518021Y-78246629D01*
X100400377Y-78517473D01*
X100320708Y-78801814D01*
X100280500Y-79094355D01*
X100280500Y-79389645D01*
X98806500Y-79389645D01*
X98806500Y-75691500D01*
X98826502Y-75623379D01*
X98880158Y-75576886D01*
X98932500Y-75565500D01*
X173720500Y-75565500D01*
X173788621Y-75585502D01*
G37*
%TD.AperFunction*%
%TD*%
M02*
