%TF.GenerationSoftware,KiCad,Pcbnew,(6.99.0-1533-gf0f33ef1d3)*%
%TF.CreationDate,2022-04-06T09:11:22+02:00*%
%TF.ProjectId,freeDSP-aurora-extension-i2C-mod-display,66726565-4453-4502-9d61-75726f72612d,v1.2*%
%TF.SameCoordinates,Original*%
%TF.FileFunction,Legend,Bot*%
%TF.FilePolarity,Positive*%
%FSLAX46Y46*%
G04 Gerber Fmt 4.6, Leading zero omitted, Abs format (unit mm)*
G04 Created by KiCad (PCBNEW (6.99.0-1533-gf0f33ef1d3)) date 2022-04-06 09:11:22*
%MOMM*%
%LPD*%
G01*
G04 APERTURE LIST*
%ADD10C,0.100000*%
%ADD11C,0.150000*%
%ADD12C,0.120000*%
G04 APERTURE END LIST*
D10*
X140949048Y-78615380D02*
X140949048Y-79329666D01*
X140949048Y-79329666D02*
X140996667Y-79472523D01*
X140996667Y-79472523D02*
X141091905Y-79567761D01*
X141091905Y-79567761D02*
X141234762Y-79615380D01*
X141234762Y-79615380D02*
X141330000Y-79615380D01*
X139996667Y-79615380D02*
X140472857Y-79615380D01*
X140472857Y-79615380D02*
X140472857Y-78615380D01*
X139091905Y-79520142D02*
X139139524Y-79567761D01*
X139139524Y-79567761D02*
X139282381Y-79615380D01*
X139282381Y-79615380D02*
X139377619Y-79615380D01*
X139377619Y-79615380D02*
X139520476Y-79567761D01*
X139520476Y-79567761D02*
X139615714Y-79472523D01*
X139615714Y-79472523D02*
X139663333Y-79377285D01*
X139663333Y-79377285D02*
X139710952Y-79186809D01*
X139710952Y-79186809D02*
X139710952Y-79043952D01*
X139710952Y-79043952D02*
X139663333Y-78853476D01*
X139663333Y-78853476D02*
X139615714Y-78758238D01*
X139615714Y-78758238D02*
X139520476Y-78663000D01*
X139520476Y-78663000D02*
X139377619Y-78615380D01*
X139377619Y-78615380D02*
X139282381Y-78615380D01*
X139282381Y-78615380D02*
X139139524Y-78663000D01*
X139139524Y-78663000D02*
X139091905Y-78710619D01*
X138377619Y-78615380D02*
X138377619Y-79329666D01*
X138377619Y-79329666D02*
X138425238Y-79472523D01*
X138425238Y-79472523D02*
X138520476Y-79567761D01*
X138520476Y-79567761D02*
X138663333Y-79615380D01*
X138663333Y-79615380D02*
X138758571Y-79615380D01*
X137425238Y-79615380D02*
X137901428Y-79615380D01*
X137901428Y-79615380D02*
X137901428Y-78615380D01*
X136520476Y-79520142D02*
X136568095Y-79567761D01*
X136568095Y-79567761D02*
X136710952Y-79615380D01*
X136710952Y-79615380D02*
X136806190Y-79615380D01*
X136806190Y-79615380D02*
X136949047Y-79567761D01*
X136949047Y-79567761D02*
X137044285Y-79472523D01*
X137044285Y-79472523D02*
X137091904Y-79377285D01*
X137091904Y-79377285D02*
X137139523Y-79186809D01*
X137139523Y-79186809D02*
X137139523Y-79043952D01*
X137139523Y-79043952D02*
X137091904Y-78853476D01*
X137091904Y-78853476D02*
X137044285Y-78758238D01*
X137044285Y-78758238D02*
X136949047Y-78663000D01*
X136949047Y-78663000D02*
X136806190Y-78615380D01*
X136806190Y-78615380D02*
X136710952Y-78615380D01*
X136710952Y-78615380D02*
X136568095Y-78663000D01*
X136568095Y-78663000D02*
X136520476Y-78710619D01*
X135806190Y-78615380D02*
X135806190Y-79329666D01*
X135806190Y-79329666D02*
X135853809Y-79472523D01*
X135853809Y-79472523D02*
X135949047Y-79567761D01*
X135949047Y-79567761D02*
X136091904Y-79615380D01*
X136091904Y-79615380D02*
X136187142Y-79615380D01*
X134853809Y-79615380D02*
X135329999Y-79615380D01*
X135329999Y-79615380D02*
X135329999Y-78615380D01*
X133949047Y-79520142D02*
X133996666Y-79567761D01*
X133996666Y-79567761D02*
X134139523Y-79615380D01*
X134139523Y-79615380D02*
X134234761Y-79615380D01*
X134234761Y-79615380D02*
X134377618Y-79567761D01*
X134377618Y-79567761D02*
X134472856Y-79472523D01*
X134472856Y-79472523D02*
X134520475Y-79377285D01*
X134520475Y-79377285D02*
X134568094Y-79186809D01*
X134568094Y-79186809D02*
X134568094Y-79043952D01*
X134568094Y-79043952D02*
X134520475Y-78853476D01*
X134520475Y-78853476D02*
X134472856Y-78758238D01*
X134472856Y-78758238D02*
X134377618Y-78663000D01*
X134377618Y-78663000D02*
X134234761Y-78615380D01*
X134234761Y-78615380D02*
X134139523Y-78615380D01*
X134139523Y-78615380D02*
X133996666Y-78663000D01*
X133996666Y-78663000D02*
X133949047Y-78710619D01*
X133234761Y-78615380D02*
X133234761Y-79329666D01*
X133234761Y-79329666D02*
X133282380Y-79472523D01*
X133282380Y-79472523D02*
X133377618Y-79567761D01*
X133377618Y-79567761D02*
X133520475Y-79615380D01*
X133520475Y-79615380D02*
X133615713Y-79615380D01*
X132282380Y-79615380D02*
X132758570Y-79615380D01*
X132758570Y-79615380D02*
X132758570Y-78615380D01*
X131377618Y-79520142D02*
X131425237Y-79567761D01*
X131425237Y-79567761D02*
X131568094Y-79615380D01*
X131568094Y-79615380D02*
X131663332Y-79615380D01*
X131663332Y-79615380D02*
X131806189Y-79567761D01*
X131806189Y-79567761D02*
X131901427Y-79472523D01*
X131901427Y-79472523D02*
X131949046Y-79377285D01*
X131949046Y-79377285D02*
X131996665Y-79186809D01*
X131996665Y-79186809D02*
X131996665Y-79043952D01*
X131996665Y-79043952D02*
X131949046Y-78853476D01*
X131949046Y-78853476D02*
X131901427Y-78758238D01*
X131901427Y-78758238D02*
X131806189Y-78663000D01*
X131806189Y-78663000D02*
X131663332Y-78615380D01*
X131663332Y-78615380D02*
X131568094Y-78615380D01*
X131568094Y-78615380D02*
X131425237Y-78663000D01*
X131425237Y-78663000D02*
X131377618Y-78710619D01*
X122876188Y-85695142D02*
X122923807Y-85742761D01*
X122923807Y-85742761D02*
X123066664Y-85790380D01*
X123066664Y-85790380D02*
X123161902Y-85790380D01*
X123161902Y-85790380D02*
X123304759Y-85742761D01*
X123304759Y-85742761D02*
X123399997Y-85647523D01*
X123399997Y-85647523D02*
X123447616Y-85552285D01*
X123447616Y-85552285D02*
X123495235Y-85361809D01*
X123495235Y-85361809D02*
X123495235Y-85218952D01*
X123495235Y-85218952D02*
X123447616Y-85028476D01*
X123447616Y-85028476D02*
X123399997Y-84933238D01*
X123399997Y-84933238D02*
X123304759Y-84838000D01*
X123304759Y-84838000D02*
X123161902Y-84790380D01*
X123161902Y-84790380D02*
X123066664Y-84790380D01*
X123066664Y-84790380D02*
X122923807Y-84838000D01*
X122923807Y-84838000D02*
X122876188Y-84885619D01*
X121847616Y-85266571D02*
X121085712Y-85266571D01*
X121085712Y-85552285D02*
X121847616Y-85552285D01*
X119485712Y-85790380D02*
X120057140Y-85790380D01*
X119771426Y-85790380D02*
X119771426Y-84790380D01*
X119771426Y-84790380D02*
X119866664Y-84933238D01*
X119866664Y-84933238D02*
X119961902Y-85028476D01*
X119961902Y-85028476D02*
X120057140Y-85076095D01*
X118866664Y-84790380D02*
X118771426Y-84790380D01*
X118771426Y-84790380D02*
X118676188Y-84838000D01*
X118676188Y-84838000D02*
X118628569Y-84885619D01*
X118628569Y-84885619D02*
X118580950Y-84980857D01*
X118580950Y-84980857D02*
X118533331Y-85171333D01*
X118533331Y-85171333D02*
X118533331Y-85409428D01*
X118533331Y-85409428D02*
X118580950Y-85599904D01*
X118580950Y-85599904D02*
X118628569Y-85695142D01*
X118628569Y-85695142D02*
X118676188Y-85742761D01*
X118676188Y-85742761D02*
X118771426Y-85790380D01*
X118771426Y-85790380D02*
X118866664Y-85790380D01*
X118866664Y-85790380D02*
X118961902Y-85742761D01*
X118961902Y-85742761D02*
X119009521Y-85695142D01*
X119009521Y-85695142D02*
X119057140Y-85599904D01*
X119057140Y-85599904D02*
X119104759Y-85409428D01*
X119104759Y-85409428D02*
X119104759Y-85171333D01*
X119104759Y-85171333D02*
X119057140Y-84980857D01*
X119057140Y-84980857D02*
X119009521Y-84885619D01*
X119009521Y-84885619D02*
X118961902Y-84838000D01*
X118961902Y-84838000D02*
X118866664Y-84790380D01*
X118104759Y-85790380D02*
X118104759Y-85123714D01*
X118104759Y-85218952D02*
X118057140Y-85171333D01*
X118057140Y-85171333D02*
X117961902Y-85123714D01*
X117961902Y-85123714D02*
X117819045Y-85123714D01*
X117819045Y-85123714D02*
X117723807Y-85171333D01*
X117723807Y-85171333D02*
X117676188Y-85266571D01*
X117676188Y-85266571D02*
X117676188Y-85790380D01*
X117676188Y-85266571D02*
X117628569Y-85171333D01*
X117628569Y-85171333D02*
X117533331Y-85123714D01*
X117533331Y-85123714D02*
X117390474Y-85123714D01*
X117390474Y-85123714D02*
X117295235Y-85171333D01*
X117295235Y-85171333D02*
X117247616Y-85266571D01*
X117247616Y-85266571D02*
X117247616Y-85790380D01*
X116771426Y-85790380D02*
X116771426Y-85123714D01*
X116771426Y-85218952D02*
X116723807Y-85171333D01*
X116723807Y-85171333D02*
X116628569Y-85123714D01*
X116628569Y-85123714D02*
X116485712Y-85123714D01*
X116485712Y-85123714D02*
X116390474Y-85171333D01*
X116390474Y-85171333D02*
X116342855Y-85266571D01*
X116342855Y-85266571D02*
X116342855Y-85790380D01*
X116342855Y-85266571D02*
X116295236Y-85171333D01*
X116295236Y-85171333D02*
X116199998Y-85123714D01*
X116199998Y-85123714D02*
X116057141Y-85123714D01*
X116057141Y-85123714D02*
X115961902Y-85171333D01*
X115961902Y-85171333D02*
X115914283Y-85266571D01*
X115914283Y-85266571D02*
X115914283Y-85790380D01*
X115390474Y-85742761D02*
X115390474Y-85790380D01*
X115390474Y-85790380D02*
X115438093Y-85885619D01*
X115438093Y-85885619D02*
X115485712Y-85933238D01*
X114961903Y-85790380D02*
X114961903Y-84790380D01*
X114961903Y-84790380D02*
X114580951Y-84790380D01*
X114580951Y-84790380D02*
X114485713Y-84838000D01*
X114485713Y-84838000D02*
X114438094Y-84885619D01*
X114438094Y-84885619D02*
X114390475Y-84980857D01*
X114390475Y-84980857D02*
X114390475Y-85123714D01*
X114390475Y-85123714D02*
X114438094Y-85218952D01*
X114438094Y-85218952D02*
X114485713Y-85266571D01*
X114485713Y-85266571D02*
X114580951Y-85314190D01*
X114580951Y-85314190D02*
X114961903Y-85314190D01*
X114009522Y-84885619D02*
X113961903Y-84838000D01*
X113961903Y-84838000D02*
X113866665Y-84790380D01*
X113866665Y-84790380D02*
X113628570Y-84790380D01*
X113628570Y-84790380D02*
X113533332Y-84838000D01*
X113533332Y-84838000D02*
X113485713Y-84885619D01*
X113485713Y-84885619D02*
X113438094Y-84980857D01*
X113438094Y-84980857D02*
X113438094Y-85076095D01*
X113438094Y-85076095D02*
X113485713Y-85218952D01*
X113485713Y-85218952D02*
X114057141Y-85790380D01*
X114057141Y-85790380D02*
X113438094Y-85790380D01*
X112199998Y-85790380D02*
X112247618Y-85790380D01*
X112247618Y-85790380D02*
X112342856Y-85742761D01*
X112342856Y-85742761D02*
X112485713Y-85599904D01*
X112485713Y-85599904D02*
X112723808Y-85314190D01*
X112723808Y-85314190D02*
X112819046Y-85171333D01*
X112819046Y-85171333D02*
X112866665Y-85028476D01*
X112866665Y-85028476D02*
X112866665Y-84933238D01*
X112866665Y-84933238D02*
X112819046Y-84838000D01*
X112819046Y-84838000D02*
X112723808Y-84790380D01*
X112723808Y-84790380D02*
X112676189Y-84790380D01*
X112676189Y-84790380D02*
X112580951Y-84838000D01*
X112580951Y-84838000D02*
X112533332Y-84933238D01*
X112533332Y-84933238D02*
X112533332Y-84980857D01*
X112533332Y-84980857D02*
X112580951Y-85076095D01*
X112580951Y-85076095D02*
X112628570Y-85123714D01*
X112628570Y-85123714D02*
X112914284Y-85314190D01*
X112914284Y-85314190D02*
X112961903Y-85361809D01*
X112961903Y-85361809D02*
X113009522Y-85457047D01*
X113009522Y-85457047D02*
X113009522Y-85599904D01*
X113009522Y-85599904D02*
X112961903Y-85695142D01*
X112961903Y-85695142D02*
X112914284Y-85742761D01*
X112914284Y-85742761D02*
X112819046Y-85790380D01*
X112819046Y-85790380D02*
X112676189Y-85790380D01*
X112676189Y-85790380D02*
X112580951Y-85742761D01*
X112580951Y-85742761D02*
X112533332Y-85695142D01*
X112533332Y-85695142D02*
X112390475Y-85504666D01*
X112390475Y-85504666D02*
X112342856Y-85361809D01*
X112342856Y-85361809D02*
X112342856Y-85266571D01*
X111295237Y-84790380D02*
X111771427Y-84790380D01*
X111771427Y-84790380D02*
X111819046Y-85266571D01*
X111819046Y-85266571D02*
X111771427Y-85218952D01*
X111771427Y-85218952D02*
X111676189Y-85171333D01*
X111676189Y-85171333D02*
X111438094Y-85171333D01*
X111438094Y-85171333D02*
X111342856Y-85218952D01*
X111342856Y-85218952D02*
X111295237Y-85266571D01*
X111295237Y-85266571D02*
X111247618Y-85361809D01*
X111247618Y-85361809D02*
X111247618Y-85599904D01*
X111247618Y-85599904D02*
X111295237Y-85695142D01*
X111295237Y-85695142D02*
X111342856Y-85742761D01*
X111342856Y-85742761D02*
X111438094Y-85790380D01*
X111438094Y-85790380D02*
X111676189Y-85790380D01*
X111676189Y-85790380D02*
X111771427Y-85742761D01*
X111771427Y-85742761D02*
X111819046Y-85695142D01*
X110819046Y-85790380D02*
X110819046Y-85123714D01*
X110819046Y-85218952D02*
X110771427Y-85171333D01*
X110771427Y-85171333D02*
X110676189Y-85123714D01*
X110676189Y-85123714D02*
X110533332Y-85123714D01*
X110533332Y-85123714D02*
X110438094Y-85171333D01*
X110438094Y-85171333D02*
X110390475Y-85266571D01*
X110390475Y-85266571D02*
X110390475Y-85790380D01*
X110390475Y-85266571D02*
X110342856Y-85171333D01*
X110342856Y-85171333D02*
X110247618Y-85123714D01*
X110247618Y-85123714D02*
X110104761Y-85123714D01*
X110104761Y-85123714D02*
X110009522Y-85171333D01*
X110009522Y-85171333D02*
X109961903Y-85266571D01*
X109961903Y-85266571D02*
X109961903Y-85790380D01*
X109485713Y-85790380D02*
X109485713Y-85123714D01*
X109485713Y-85218952D02*
X109438094Y-85171333D01*
X109438094Y-85171333D02*
X109342856Y-85123714D01*
X109342856Y-85123714D02*
X109199999Y-85123714D01*
X109199999Y-85123714D02*
X109104761Y-85171333D01*
X109104761Y-85171333D02*
X109057142Y-85266571D01*
X109057142Y-85266571D02*
X109057142Y-85790380D01*
X109057142Y-85266571D02*
X109009523Y-85171333D01*
X109009523Y-85171333D02*
X108914285Y-85123714D01*
X108914285Y-85123714D02*
X108771428Y-85123714D01*
X108771428Y-85123714D02*
X108676189Y-85171333D01*
X108676189Y-85171333D02*
X108628570Y-85266571D01*
X108628570Y-85266571D02*
X108628570Y-85790380D01*
X106838095Y-84742761D02*
X107695237Y-86028476D01*
X105428571Y-84790380D02*
X105904761Y-84790380D01*
X105904761Y-84790380D02*
X105952380Y-85266571D01*
X105952380Y-85266571D02*
X105904761Y-85218952D01*
X105904761Y-85218952D02*
X105809523Y-85171333D01*
X105809523Y-85171333D02*
X105571428Y-85171333D01*
X105571428Y-85171333D02*
X105476190Y-85218952D01*
X105476190Y-85218952D02*
X105428571Y-85266571D01*
X105428571Y-85266571D02*
X105380952Y-85361809D01*
X105380952Y-85361809D02*
X105380952Y-85599904D01*
X105380952Y-85599904D02*
X105428571Y-85695142D01*
X105428571Y-85695142D02*
X105476190Y-85742761D01*
X105476190Y-85742761D02*
X105571428Y-85790380D01*
X105571428Y-85790380D02*
X105809523Y-85790380D01*
X105809523Y-85790380D02*
X105904761Y-85742761D01*
X105904761Y-85742761D02*
X105952380Y-85695142D01*
X105047618Y-85790380D02*
X104523809Y-85123714D01*
X105047618Y-85123714D02*
X104523809Y-85790380D01*
X103714285Y-85123714D02*
X103714285Y-85790380D01*
X103952380Y-84742761D02*
X104190475Y-85457047D01*
X104190475Y-85457047D02*
X103571428Y-85457047D01*
X103190475Y-85695142D02*
X103142856Y-85742761D01*
X103142856Y-85742761D02*
X103190475Y-85790380D01*
X103190475Y-85790380D02*
X103238094Y-85742761D01*
X103238094Y-85742761D02*
X103190475Y-85695142D01*
X103190475Y-85695142D02*
X103190475Y-85790380D01*
X102285714Y-85123714D02*
X102285714Y-85790380D01*
X102523809Y-84742761D02*
X102761904Y-85457047D01*
X102761904Y-85457047D02*
X102142857Y-85457047D01*
X112133333Y-87410380D02*
X112466666Y-86934190D01*
X112704761Y-87410380D02*
X112704761Y-86410380D01*
X112704761Y-86410380D02*
X112323809Y-86410380D01*
X112323809Y-86410380D02*
X112228571Y-86458000D01*
X112228571Y-86458000D02*
X112180952Y-86505619D01*
X112180952Y-86505619D02*
X112133333Y-86600857D01*
X112133333Y-86600857D02*
X112133333Y-86743714D01*
X112133333Y-86743714D02*
X112180952Y-86838952D01*
X112180952Y-86838952D02*
X112228571Y-86886571D01*
X112228571Y-86886571D02*
X112323809Y-86934190D01*
X112323809Y-86934190D02*
X112704761Y-86934190D01*
X111104761Y-86886571D02*
X110342857Y-86886571D01*
X110342857Y-87172285D02*
X111104761Y-87172285D01*
X109314285Y-87362761D02*
X109171428Y-87410380D01*
X109171428Y-87410380D02*
X108933333Y-87410380D01*
X108933333Y-87410380D02*
X108838095Y-87362761D01*
X108838095Y-87362761D02*
X108790476Y-87315142D01*
X108790476Y-87315142D02*
X108742857Y-87219904D01*
X108742857Y-87219904D02*
X108742857Y-87124666D01*
X108742857Y-87124666D02*
X108790476Y-87029428D01*
X108790476Y-87029428D02*
X108838095Y-86981809D01*
X108838095Y-86981809D02*
X108933333Y-86934190D01*
X108933333Y-86934190D02*
X109123809Y-86886571D01*
X109123809Y-86886571D02*
X109219047Y-86838952D01*
X109219047Y-86838952D02*
X109266666Y-86791333D01*
X109266666Y-86791333D02*
X109314285Y-86696095D01*
X109314285Y-86696095D02*
X109314285Y-86600857D01*
X109314285Y-86600857D02*
X109266666Y-86505619D01*
X109266666Y-86505619D02*
X109219047Y-86458000D01*
X109219047Y-86458000D02*
X109123809Y-86410380D01*
X109123809Y-86410380D02*
X108885714Y-86410380D01*
X108885714Y-86410380D02*
X108742857Y-86458000D01*
X108314285Y-87410380D02*
X108314285Y-86410380D01*
X108314285Y-86410380D02*
X107980952Y-87124666D01*
X107980952Y-87124666D02*
X107647619Y-86410380D01*
X107647619Y-86410380D02*
X107647619Y-87410380D01*
X107171428Y-87410380D02*
X107171428Y-86410380D01*
X107171428Y-86410380D02*
X106933333Y-86410380D01*
X106933333Y-86410380D02*
X106790476Y-86458000D01*
X106790476Y-86458000D02*
X106695238Y-86553238D01*
X106695238Y-86553238D02*
X106647619Y-86648476D01*
X106647619Y-86648476D02*
X106600000Y-86838952D01*
X106600000Y-86838952D02*
X106600000Y-86981809D01*
X106600000Y-86981809D02*
X106647619Y-87172285D01*
X106647619Y-87172285D02*
X106695238Y-87267523D01*
X106695238Y-87267523D02*
X106790476Y-87362761D01*
X106790476Y-87362761D02*
X106933333Y-87410380D01*
X106933333Y-87410380D02*
X107171428Y-87410380D01*
X105380952Y-86410380D02*
X105285714Y-86410380D01*
X105285714Y-86410380D02*
X105190476Y-86458000D01*
X105190476Y-86458000D02*
X105142857Y-86505619D01*
X105142857Y-86505619D02*
X105095238Y-86600857D01*
X105095238Y-86600857D02*
X105047619Y-86791333D01*
X105047619Y-86791333D02*
X105047619Y-87029428D01*
X105047619Y-87029428D02*
X105095238Y-87219904D01*
X105095238Y-87219904D02*
X105142857Y-87315142D01*
X105142857Y-87315142D02*
X105190476Y-87362761D01*
X105190476Y-87362761D02*
X105285714Y-87410380D01*
X105285714Y-87410380D02*
X105380952Y-87410380D01*
X105380952Y-87410380D02*
X105476190Y-87362761D01*
X105476190Y-87362761D02*
X105523809Y-87315142D01*
X105523809Y-87315142D02*
X105571428Y-87219904D01*
X105571428Y-87219904D02*
X105619047Y-87029428D01*
X105619047Y-87029428D02*
X105619047Y-86791333D01*
X105619047Y-86791333D02*
X105571428Y-86600857D01*
X105571428Y-86600857D02*
X105523809Y-86505619D01*
X105523809Y-86505619D02*
X105476190Y-86458000D01*
X105476190Y-86458000D02*
X105380952Y-86410380D01*
X104476190Y-86838952D02*
X104571428Y-86791333D01*
X104571428Y-86791333D02*
X104619047Y-86743714D01*
X104619047Y-86743714D02*
X104666666Y-86648476D01*
X104666666Y-86648476D02*
X104666666Y-86600857D01*
X104666666Y-86600857D02*
X104619047Y-86505619D01*
X104619047Y-86505619D02*
X104571428Y-86458000D01*
X104571428Y-86458000D02*
X104476190Y-86410380D01*
X104476190Y-86410380D02*
X104285714Y-86410380D01*
X104285714Y-86410380D02*
X104190476Y-86458000D01*
X104190476Y-86458000D02*
X104142857Y-86505619D01*
X104142857Y-86505619D02*
X104095238Y-86600857D01*
X104095238Y-86600857D02*
X104095238Y-86648476D01*
X104095238Y-86648476D02*
X104142857Y-86743714D01*
X104142857Y-86743714D02*
X104190476Y-86791333D01*
X104190476Y-86791333D02*
X104285714Y-86838952D01*
X104285714Y-86838952D02*
X104476190Y-86838952D01*
X104476190Y-86838952D02*
X104571428Y-86886571D01*
X104571428Y-86886571D02*
X104619047Y-86934190D01*
X104619047Y-86934190D02*
X104666666Y-87029428D01*
X104666666Y-87029428D02*
X104666666Y-87219904D01*
X104666666Y-87219904D02*
X104619047Y-87315142D01*
X104619047Y-87315142D02*
X104571428Y-87362761D01*
X104571428Y-87362761D02*
X104476190Y-87410380D01*
X104476190Y-87410380D02*
X104285714Y-87410380D01*
X104285714Y-87410380D02*
X104190476Y-87362761D01*
X104190476Y-87362761D02*
X104142857Y-87315142D01*
X104142857Y-87315142D02*
X104095238Y-87219904D01*
X104095238Y-87219904D02*
X104095238Y-87029428D01*
X104095238Y-87029428D02*
X104142857Y-86934190D01*
X104142857Y-86934190D02*
X104190476Y-86886571D01*
X104190476Y-86886571D02*
X104285714Y-86838952D01*
X103476190Y-86410380D02*
X103380952Y-86410380D01*
X103380952Y-86410380D02*
X103285714Y-86458000D01*
X103285714Y-86458000D02*
X103238095Y-86505619D01*
X103238095Y-86505619D02*
X103190476Y-86600857D01*
X103190476Y-86600857D02*
X103142857Y-86791333D01*
X103142857Y-86791333D02*
X103142857Y-87029428D01*
X103142857Y-87029428D02*
X103190476Y-87219904D01*
X103190476Y-87219904D02*
X103238095Y-87315142D01*
X103238095Y-87315142D02*
X103285714Y-87362761D01*
X103285714Y-87362761D02*
X103380952Y-87410380D01*
X103380952Y-87410380D02*
X103476190Y-87410380D01*
X103476190Y-87410380D02*
X103571428Y-87362761D01*
X103571428Y-87362761D02*
X103619047Y-87315142D01*
X103619047Y-87315142D02*
X103666666Y-87219904D01*
X103666666Y-87219904D02*
X103714285Y-87029428D01*
X103714285Y-87029428D02*
X103714285Y-86791333D01*
X103714285Y-86791333D02*
X103666666Y-86600857D01*
X103666666Y-86600857D02*
X103619047Y-86505619D01*
X103619047Y-86505619D02*
X103571428Y-86458000D01*
X103571428Y-86458000D02*
X103476190Y-86410380D01*
X102238095Y-86410380D02*
X102714285Y-86410380D01*
X102714285Y-86410380D02*
X102761904Y-86886571D01*
X102761904Y-86886571D02*
X102714285Y-86838952D01*
X102714285Y-86838952D02*
X102619047Y-86791333D01*
X102619047Y-86791333D02*
X102380952Y-86791333D01*
X102380952Y-86791333D02*
X102285714Y-86838952D01*
X102285714Y-86838952D02*
X102238095Y-86886571D01*
X102238095Y-86886571D02*
X102190476Y-86981809D01*
X102190476Y-86981809D02*
X102190476Y-87219904D01*
X102190476Y-87219904D02*
X102238095Y-87315142D01*
X102238095Y-87315142D02*
X102285714Y-87362761D01*
X102285714Y-87362761D02*
X102380952Y-87410380D01*
X102380952Y-87410380D02*
X102619047Y-87410380D01*
X102619047Y-87410380D02*
X102714285Y-87362761D01*
X102714285Y-87362761D02*
X102761904Y-87315142D01*
D11*
%TO.C,J2*%
X170172333Y-108779380D02*
X170172333Y-109493666D01*
X170172333Y-109493666D02*
X170219952Y-109636523D01*
X170219952Y-109636523D02*
X170315190Y-109731761D01*
X170315190Y-109731761D02*
X170458047Y-109779380D01*
X170458047Y-109779380D02*
X170553285Y-109779380D01*
X169743761Y-108874619D02*
X169696142Y-108827000D01*
X169696142Y-108827000D02*
X169600904Y-108779380D01*
X169600904Y-108779380D02*
X169362809Y-108779380D01*
X169362809Y-108779380D02*
X169267571Y-108827000D01*
X169267571Y-108827000D02*
X169219952Y-108874619D01*
X169219952Y-108874619D02*
X169172333Y-108969857D01*
X169172333Y-108969857D02*
X169172333Y-109065095D01*
X169172333Y-109065095D02*
X169219952Y-109207952D01*
X169219952Y-109207952D02*
X169791380Y-109779380D01*
X169791380Y-109779380D02*
X169172333Y-109779380D01*
D12*
X168509000Y-90072000D02*
X171169000Y-90072000D01*
X168509000Y-105372000D02*
X168509000Y-90072000D01*
X168509000Y-105372000D02*
X171169000Y-105372000D01*
X169839000Y-107972000D02*
X171169000Y-107972000D01*
X171169000Y-105372000D02*
X171169000Y-90072000D01*
X171169000Y-107972000D02*
X171169000Y-106642000D01*
%TD*%
M02*
