%TF.GenerationSoftware,KiCad,Pcbnew,(6.99.0-1006-g2560c8f31b)*%
%TF.CreationDate,2022-03-06T12:20:51+01:00*%
%TF.ProjectId,freeDSP-aurora-extension-i2C-mod-display,66726565-4453-4502-9d61-75726f72612d,v1.1*%
%TF.SameCoordinates,Original*%
%TF.FileFunction,Legend,Top*%
%TF.FilePolarity,Positive*%
%FSLAX46Y46*%
G04 Gerber Fmt 4.6, Leading zero omitted, Abs format (unit mm)*
G04 Created by KiCad (PCBNEW (6.99.0-1006-g2560c8f31b)) date 2022-03-06 12:20:51*
%MOMM*%
%LPD*%
G01*
G04 APERTURE LIST*
%ADD10C,0.150000*%
%ADD11C,0.300000*%
%ADD12C,0.075000*%
%ADD13C,0.100000*%
%ADD14C,0.120000*%
G04 APERTURE END LIST*
D10*
X165728380Y-96808380D02*
X165395047Y-96332190D01*
X165156952Y-96808380D02*
X165156952Y-95808380D01*
X165156952Y-95808380D02*
X165537904Y-95808380D01*
X165537904Y-95808380D02*
X165633142Y-95856000D01*
X165633142Y-95856000D02*
X165680761Y-95903619D01*
X165680761Y-95903619D02*
X165728380Y-95998857D01*
X165728380Y-95998857D02*
X165728380Y-96141714D01*
X165728380Y-96141714D02*
X165680761Y-96236952D01*
X165680761Y-96236952D02*
X165633142Y-96284571D01*
X165633142Y-96284571D02*
X165537904Y-96332190D01*
X165537904Y-96332190D02*
X165156952Y-96332190D01*
X166156952Y-96284571D02*
X166490285Y-96284571D01*
X166633142Y-96808380D02*
X166156952Y-96808380D01*
X166156952Y-96808380D02*
X166156952Y-95808380D01*
X166156952Y-95808380D02*
X166633142Y-95808380D01*
X167014095Y-96760761D02*
X167156952Y-96808380D01*
X167156952Y-96808380D02*
X167395047Y-96808380D01*
X167395047Y-96808380D02*
X167490285Y-96760761D01*
X167490285Y-96760761D02*
X167537904Y-96713142D01*
X167537904Y-96713142D02*
X167585523Y-96617904D01*
X167585523Y-96617904D02*
X167585523Y-96522666D01*
X167585523Y-96522666D02*
X167537904Y-96427428D01*
X167537904Y-96427428D02*
X167490285Y-96379809D01*
X167490285Y-96379809D02*
X167395047Y-96332190D01*
X167395047Y-96332190D02*
X167204571Y-96284571D01*
X167204571Y-96284571D02*
X167109333Y-96236952D01*
X167109333Y-96236952D02*
X167061714Y-96189333D01*
X167061714Y-96189333D02*
X167014095Y-96094095D01*
X167014095Y-96094095D02*
X167014095Y-95998857D01*
X167014095Y-95998857D02*
X167061714Y-95903619D01*
X167061714Y-95903619D02*
X167109333Y-95856000D01*
X167109333Y-95856000D02*
X167204571Y-95808380D01*
X167204571Y-95808380D02*
X167442666Y-95808380D01*
X167442666Y-95808380D02*
X167585523Y-95856000D01*
D11*
X102380952Y-95973809D02*
X102380952Y-94373809D01*
X102975238Y-94423333D02*
X103028571Y-94370000D01*
X103028571Y-94370000D02*
X103135238Y-94316666D01*
X103135238Y-94316666D02*
X103401905Y-94316666D01*
X103401905Y-94316666D02*
X103508571Y-94370000D01*
X103508571Y-94370000D02*
X103561905Y-94423333D01*
X103561905Y-94423333D02*
X103615238Y-94530000D01*
X103615238Y-94530000D02*
X103615238Y-94636666D01*
X103615238Y-94636666D02*
X103561905Y-94796666D01*
X103561905Y-94796666D02*
X102921905Y-95436666D01*
X102921905Y-95436666D02*
X103615238Y-95436666D01*
X105123810Y-95821428D02*
X105047619Y-95897619D01*
X105047619Y-95897619D02*
X104819048Y-95973809D01*
X104819048Y-95973809D02*
X104666667Y-95973809D01*
X104666667Y-95973809D02*
X104438095Y-95897619D01*
X104438095Y-95897619D02*
X104285714Y-95745238D01*
X104285714Y-95745238D02*
X104209524Y-95592857D01*
X104209524Y-95592857D02*
X104133333Y-95288095D01*
X104133333Y-95288095D02*
X104133333Y-95059523D01*
X104133333Y-95059523D02*
X104209524Y-94754761D01*
X104209524Y-94754761D02*
X104285714Y-94602380D01*
X104285714Y-94602380D02*
X104438095Y-94450000D01*
X104438095Y-94450000D02*
X104666667Y-94373809D01*
X104666667Y-94373809D02*
X104819048Y-94373809D01*
X104819048Y-94373809D02*
X105047619Y-94450000D01*
X105047619Y-94450000D02*
X105123810Y-94526190D01*
X106769524Y-95973809D02*
X106769524Y-94907142D01*
X106769524Y-95059523D02*
X106845714Y-94983333D01*
X106845714Y-94983333D02*
X106998095Y-94907142D01*
X106998095Y-94907142D02*
X107226667Y-94907142D01*
X107226667Y-94907142D02*
X107379048Y-94983333D01*
X107379048Y-94983333D02*
X107455238Y-95135714D01*
X107455238Y-95135714D02*
X107455238Y-95973809D01*
X107455238Y-95135714D02*
X107531429Y-94983333D01*
X107531429Y-94983333D02*
X107683810Y-94907142D01*
X107683810Y-94907142D02*
X107912381Y-94907142D01*
X107912381Y-94907142D02*
X108064762Y-94983333D01*
X108064762Y-94983333D02*
X108140952Y-95135714D01*
X108140952Y-95135714D02*
X108140952Y-95973809D01*
X109131428Y-95973809D02*
X108979047Y-95897619D01*
X108979047Y-95897619D02*
X108902857Y-95821428D01*
X108902857Y-95821428D02*
X108826666Y-95669047D01*
X108826666Y-95669047D02*
X108826666Y-95211904D01*
X108826666Y-95211904D02*
X108902857Y-95059523D01*
X108902857Y-95059523D02*
X108979047Y-94983333D01*
X108979047Y-94983333D02*
X109131428Y-94907142D01*
X109131428Y-94907142D02*
X109360000Y-94907142D01*
X109360000Y-94907142D02*
X109512381Y-94983333D01*
X109512381Y-94983333D02*
X109588571Y-95059523D01*
X109588571Y-95059523D02*
X109664762Y-95211904D01*
X109664762Y-95211904D02*
X109664762Y-95669047D01*
X109664762Y-95669047D02*
X109588571Y-95821428D01*
X109588571Y-95821428D02*
X109512381Y-95897619D01*
X109512381Y-95897619D02*
X109360000Y-95973809D01*
X109360000Y-95973809D02*
X109131428Y-95973809D01*
X111036190Y-95973809D02*
X111036190Y-94373809D01*
X111036190Y-95897619D02*
X110883809Y-95973809D01*
X110883809Y-95973809D02*
X110579047Y-95973809D01*
X110579047Y-95973809D02*
X110426666Y-95897619D01*
X110426666Y-95897619D02*
X110350476Y-95821428D01*
X110350476Y-95821428D02*
X110274285Y-95669047D01*
X110274285Y-95669047D02*
X110274285Y-95211904D01*
X110274285Y-95211904D02*
X110350476Y-95059523D01*
X110350476Y-95059523D02*
X110426666Y-94983333D01*
X110426666Y-94983333D02*
X110579047Y-94907142D01*
X110579047Y-94907142D02*
X110883809Y-94907142D01*
X110883809Y-94907142D02*
X111036190Y-94983333D01*
X112529523Y-94907142D02*
X113139047Y-94907142D01*
X112758095Y-95973809D02*
X112758095Y-94602380D01*
X112758095Y-94602380D02*
X112834285Y-94450000D01*
X112834285Y-94450000D02*
X112986666Y-94373809D01*
X112986666Y-94373809D02*
X113139047Y-94373809D01*
X113900952Y-95973809D02*
X113748571Y-95897619D01*
X113748571Y-95897619D02*
X113672381Y-95821428D01*
X113672381Y-95821428D02*
X113596190Y-95669047D01*
X113596190Y-95669047D02*
X113596190Y-95211904D01*
X113596190Y-95211904D02*
X113672381Y-95059523D01*
X113672381Y-95059523D02*
X113748571Y-94983333D01*
X113748571Y-94983333D02*
X113900952Y-94907142D01*
X113900952Y-94907142D02*
X114129524Y-94907142D01*
X114129524Y-94907142D02*
X114281905Y-94983333D01*
X114281905Y-94983333D02*
X114358095Y-95059523D01*
X114358095Y-95059523D02*
X114434286Y-95211904D01*
X114434286Y-95211904D02*
X114434286Y-95669047D01*
X114434286Y-95669047D02*
X114358095Y-95821428D01*
X114358095Y-95821428D02*
X114281905Y-95897619D01*
X114281905Y-95897619D02*
X114129524Y-95973809D01*
X114129524Y-95973809D02*
X113900952Y-95973809D01*
X115120000Y-95973809D02*
X115120000Y-94907142D01*
X115120000Y-95211904D02*
X115196190Y-95059523D01*
X115196190Y-95059523D02*
X115272381Y-94983333D01*
X115272381Y-94983333D02*
X115424762Y-94907142D01*
X115424762Y-94907142D02*
X115577143Y-94907142D01*
X117070476Y-95973809D02*
X117070476Y-94373809D01*
X117070476Y-94373809D02*
X117451428Y-94373809D01*
X117451428Y-94373809D02*
X117680000Y-94450000D01*
X117680000Y-94450000D02*
X117832381Y-94602380D01*
X117832381Y-94602380D02*
X117908571Y-94754761D01*
X117908571Y-94754761D02*
X117984762Y-95059523D01*
X117984762Y-95059523D02*
X117984762Y-95288095D01*
X117984762Y-95288095D02*
X117908571Y-95592857D01*
X117908571Y-95592857D02*
X117832381Y-95745238D01*
X117832381Y-95745238D02*
X117680000Y-95897619D01*
X117680000Y-95897619D02*
X117451428Y-95973809D01*
X117451428Y-95973809D02*
X117070476Y-95973809D01*
X118670476Y-95973809D02*
X118670476Y-94373809D01*
X118670476Y-94373809D02*
X119203809Y-95516666D01*
X119203809Y-95516666D02*
X119737143Y-94373809D01*
X119737143Y-94373809D02*
X119737143Y-95973809D01*
X121382856Y-94526190D02*
X121459047Y-94450000D01*
X121459047Y-94450000D02*
X121611428Y-94373809D01*
X121611428Y-94373809D02*
X121992380Y-94373809D01*
X121992380Y-94373809D02*
X122144761Y-94450000D01*
X122144761Y-94450000D02*
X122220952Y-94526190D01*
X122220952Y-94526190D02*
X122297142Y-94678571D01*
X122297142Y-94678571D02*
X122297142Y-94830952D01*
X122297142Y-94830952D02*
X122220952Y-95059523D01*
X122220952Y-95059523D02*
X121306666Y-95973809D01*
X121306666Y-95973809D02*
X122297142Y-95973809D01*
X122982857Y-95821428D02*
X123059047Y-95897619D01*
X123059047Y-95897619D02*
X122982857Y-95973809D01*
X122982857Y-95973809D02*
X122906666Y-95897619D01*
X122906666Y-95897619D02*
X122982857Y-95821428D01*
X122982857Y-95821428D02*
X122982857Y-95973809D01*
X124430476Y-94907142D02*
X124430476Y-95973809D01*
X124049524Y-94297619D02*
X123668571Y-95440476D01*
X123668571Y-95440476D02*
X124659048Y-95440476D01*
X125192381Y-94373809D02*
X125192381Y-94678571D01*
X125801905Y-94373809D02*
X125801905Y-94678571D01*
X127752382Y-94373809D02*
X128057144Y-94373809D01*
X128057144Y-94373809D02*
X128209525Y-94450000D01*
X128209525Y-94450000D02*
X128361906Y-94602380D01*
X128361906Y-94602380D02*
X128438096Y-94907142D01*
X128438096Y-94907142D02*
X128438096Y-95440476D01*
X128438096Y-95440476D02*
X128361906Y-95745238D01*
X128361906Y-95745238D02*
X128209525Y-95897619D01*
X128209525Y-95897619D02*
X128057144Y-95973809D01*
X128057144Y-95973809D02*
X127752382Y-95973809D01*
X127752382Y-95973809D02*
X127600001Y-95897619D01*
X127600001Y-95897619D02*
X127447620Y-95745238D01*
X127447620Y-95745238D02*
X127371429Y-95440476D01*
X127371429Y-95440476D02*
X127371429Y-94907142D01*
X127371429Y-94907142D02*
X127447620Y-94602380D01*
X127447620Y-94602380D02*
X127600001Y-94450000D01*
X127600001Y-94450000D02*
X127752382Y-94373809D01*
X129885715Y-95973809D02*
X129123810Y-95973809D01*
X129123810Y-95973809D02*
X129123810Y-94373809D01*
X130419048Y-95135714D02*
X130952381Y-95135714D01*
X131180953Y-95973809D02*
X130419048Y-95973809D01*
X130419048Y-95973809D02*
X130419048Y-94373809D01*
X130419048Y-94373809D02*
X131180953Y-94373809D01*
X131866667Y-95973809D02*
X131866667Y-94373809D01*
X131866667Y-94373809D02*
X132247619Y-94373809D01*
X132247619Y-94373809D02*
X132476191Y-94450000D01*
X132476191Y-94450000D02*
X132628572Y-94602380D01*
X132628572Y-94602380D02*
X132704762Y-94754761D01*
X132704762Y-94754761D02*
X132780953Y-95059523D01*
X132780953Y-95059523D02*
X132780953Y-95288095D01*
X132780953Y-95288095D02*
X132704762Y-95592857D01*
X132704762Y-95592857D02*
X132628572Y-95745238D01*
X132628572Y-95745238D02*
X132476191Y-95897619D01*
X132476191Y-95897619D02*
X132247619Y-95973809D01*
X132247619Y-95973809D02*
X131866667Y-95973809D01*
D10*
X158118904Y-103592380D02*
X158452237Y-104592380D01*
X158452237Y-104592380D02*
X158785570Y-103592380D01*
X159547475Y-104544761D02*
X159452237Y-104592380D01*
X159452237Y-104592380D02*
X159261761Y-104592380D01*
X159261761Y-104592380D02*
X159166523Y-104544761D01*
X159166523Y-104544761D02*
X159118904Y-104497142D01*
X159118904Y-104497142D02*
X159071285Y-104401904D01*
X159071285Y-104401904D02*
X159071285Y-104116190D01*
X159071285Y-104116190D02*
X159118904Y-104020952D01*
X159118904Y-104020952D02*
X159166523Y-103973333D01*
X159166523Y-103973333D02*
X159261761Y-103925714D01*
X159261761Y-103925714D02*
X159452237Y-103925714D01*
X159452237Y-103925714D02*
X159547475Y-103973333D01*
X160404618Y-104544761D02*
X160309380Y-104592380D01*
X160309380Y-104592380D02*
X160118904Y-104592380D01*
X160118904Y-104592380D02*
X160023666Y-104544761D01*
X160023666Y-104544761D02*
X159976047Y-104497142D01*
X159976047Y-104497142D02*
X159928428Y-104401904D01*
X159928428Y-104401904D02*
X159928428Y-104116190D01*
X159928428Y-104116190D02*
X159976047Y-104020952D01*
X159976047Y-104020952D02*
X160023666Y-103973333D01*
X160023666Y-103973333D02*
X160118904Y-103925714D01*
X160118904Y-103925714D02*
X160309380Y-103925714D01*
X160309380Y-103925714D02*
X160404618Y-103973333D01*
X161337952Y-103592380D02*
X161956999Y-103592380D01*
X161956999Y-103592380D02*
X161623666Y-103973333D01*
X161623666Y-103973333D02*
X161766523Y-103973333D01*
X161766523Y-103973333D02*
X161861761Y-104020952D01*
X161861761Y-104020952D02*
X161909380Y-104068571D01*
X161909380Y-104068571D02*
X161956999Y-104163809D01*
X161956999Y-104163809D02*
X161956999Y-104401904D01*
X161956999Y-104401904D02*
X161909380Y-104497142D01*
X161909380Y-104497142D02*
X161861761Y-104544761D01*
X161861761Y-104544761D02*
X161766523Y-104592380D01*
X161766523Y-104592380D02*
X161480809Y-104592380D01*
X161480809Y-104592380D02*
X161385571Y-104544761D01*
X161385571Y-104544761D02*
X161337952Y-104497142D01*
X162242714Y-103592380D02*
X162576047Y-104592380D01*
X162576047Y-104592380D02*
X162909380Y-103592380D01*
X163147476Y-103592380D02*
X163766523Y-103592380D01*
X163766523Y-103592380D02*
X163433190Y-103973333D01*
X163433190Y-103973333D02*
X163576047Y-103973333D01*
X163576047Y-103973333D02*
X163671285Y-104020952D01*
X163671285Y-104020952D02*
X163718904Y-104068571D01*
X163718904Y-104068571D02*
X163766523Y-104163809D01*
X163766523Y-104163809D02*
X163766523Y-104401904D01*
X163766523Y-104401904D02*
X163718904Y-104497142D01*
X163718904Y-104497142D02*
X163671285Y-104544761D01*
X163671285Y-104544761D02*
X163576047Y-104592380D01*
X163576047Y-104592380D02*
X163290333Y-104592380D01*
X163290333Y-104592380D02*
X163195095Y-104544761D01*
X163195095Y-104544761D02*
X163147476Y-104497142D01*
D12*
X102166666Y-104713666D02*
X102166666Y-105280333D01*
X102166666Y-105280333D02*
X102200000Y-105347000D01*
X102200000Y-105347000D02*
X102233333Y-105380333D01*
X102233333Y-105380333D02*
X102300000Y-105413666D01*
X102300000Y-105413666D02*
X102433333Y-105413666D01*
X102433333Y-105413666D02*
X102500000Y-105380333D01*
X102500000Y-105380333D02*
X102533333Y-105347000D01*
X102533333Y-105347000D02*
X102566666Y-105280333D01*
X102566666Y-105280333D02*
X102566666Y-104713666D01*
X102866666Y-105380333D02*
X102933333Y-105413666D01*
X102933333Y-105413666D02*
X103066666Y-105413666D01*
X103066666Y-105413666D02*
X103133333Y-105380333D01*
X103133333Y-105380333D02*
X103166666Y-105313666D01*
X103166666Y-105313666D02*
X103166666Y-105280333D01*
X103166666Y-105280333D02*
X103133333Y-105213666D01*
X103133333Y-105213666D02*
X103066666Y-105180333D01*
X103066666Y-105180333D02*
X102966666Y-105180333D01*
X102966666Y-105180333D02*
X102899999Y-105147000D01*
X102899999Y-105147000D02*
X102866666Y-105080333D01*
X102866666Y-105080333D02*
X102866666Y-105047000D01*
X102866666Y-105047000D02*
X102899999Y-104980333D01*
X102899999Y-104980333D02*
X102966666Y-104947000D01*
X102966666Y-104947000D02*
X103066666Y-104947000D01*
X103066666Y-104947000D02*
X103133333Y-104980333D01*
X103733333Y-105380333D02*
X103666666Y-105413666D01*
X103666666Y-105413666D02*
X103533333Y-105413666D01*
X103533333Y-105413666D02*
X103466666Y-105380333D01*
X103466666Y-105380333D02*
X103433333Y-105313666D01*
X103433333Y-105313666D02*
X103433333Y-105047000D01*
X103433333Y-105047000D02*
X103466666Y-104980333D01*
X103466666Y-104980333D02*
X103533333Y-104947000D01*
X103533333Y-104947000D02*
X103666666Y-104947000D01*
X103666666Y-104947000D02*
X103733333Y-104980333D01*
X103733333Y-104980333D02*
X103766666Y-105047000D01*
X103766666Y-105047000D02*
X103766666Y-105113666D01*
X103766666Y-105113666D02*
X103433333Y-105180333D01*
X104586666Y-105413666D02*
X104520000Y-105380333D01*
X104520000Y-105380333D02*
X104486666Y-105347000D01*
X104486666Y-105347000D02*
X104453333Y-105280333D01*
X104453333Y-105280333D02*
X104453333Y-105080333D01*
X104453333Y-105080333D02*
X104486666Y-105013666D01*
X104486666Y-105013666D02*
X104520000Y-104980333D01*
X104520000Y-104980333D02*
X104586666Y-104947000D01*
X104586666Y-104947000D02*
X104686666Y-104947000D01*
X104686666Y-104947000D02*
X104753333Y-104980333D01*
X104753333Y-104980333D02*
X104786666Y-105013666D01*
X104786666Y-105013666D02*
X104820000Y-105080333D01*
X104820000Y-105080333D02*
X104820000Y-105280333D01*
X104820000Y-105280333D02*
X104786666Y-105347000D01*
X104786666Y-105347000D02*
X104753333Y-105380333D01*
X104753333Y-105380333D02*
X104686666Y-105413666D01*
X104686666Y-105413666D02*
X104586666Y-105413666D01*
X105119999Y-104947000D02*
X105119999Y-105413666D01*
X105119999Y-105013666D02*
X105153333Y-104980333D01*
X105153333Y-104980333D02*
X105219999Y-104947000D01*
X105219999Y-104947000D02*
X105319999Y-104947000D01*
X105319999Y-104947000D02*
X105386666Y-104980333D01*
X105386666Y-104980333D02*
X105419999Y-105047000D01*
X105419999Y-105047000D02*
X105419999Y-105413666D01*
X105853332Y-105413666D02*
X105786666Y-105380333D01*
X105786666Y-105380333D02*
X105753332Y-105313666D01*
X105753332Y-105313666D02*
X105753332Y-104713666D01*
X106053333Y-104947000D02*
X106219999Y-105413666D01*
X106386666Y-104947000D02*
X106219999Y-105413666D01*
X106219999Y-105413666D02*
X106153333Y-105580333D01*
X106153333Y-105580333D02*
X106119999Y-105613666D01*
X106119999Y-105613666D02*
X106053333Y-105647000D01*
X107073332Y-104947000D02*
X107073332Y-105647000D01*
X107073332Y-104980333D02*
X107139999Y-104947000D01*
X107139999Y-104947000D02*
X107273332Y-104947000D01*
X107273332Y-104947000D02*
X107339999Y-104980333D01*
X107339999Y-104980333D02*
X107373332Y-105013666D01*
X107373332Y-105013666D02*
X107406666Y-105080333D01*
X107406666Y-105080333D02*
X107406666Y-105280333D01*
X107406666Y-105280333D02*
X107373332Y-105347000D01*
X107373332Y-105347000D02*
X107339999Y-105380333D01*
X107339999Y-105380333D02*
X107273332Y-105413666D01*
X107273332Y-105413666D02*
X107139999Y-105413666D01*
X107139999Y-105413666D02*
X107073332Y-105380333D01*
X107806665Y-105413666D02*
X107739999Y-105380333D01*
X107739999Y-105380333D02*
X107706665Y-105313666D01*
X107706665Y-105313666D02*
X107706665Y-104713666D01*
X108373332Y-105413666D02*
X108373332Y-105047000D01*
X108373332Y-105047000D02*
X108339999Y-104980333D01*
X108339999Y-104980333D02*
X108273332Y-104947000D01*
X108273332Y-104947000D02*
X108139999Y-104947000D01*
X108139999Y-104947000D02*
X108073332Y-104980333D01*
X108373332Y-105380333D02*
X108306666Y-105413666D01*
X108306666Y-105413666D02*
X108139999Y-105413666D01*
X108139999Y-105413666D02*
X108073332Y-105380333D01*
X108073332Y-105380333D02*
X108039999Y-105313666D01*
X108039999Y-105313666D02*
X108039999Y-105247000D01*
X108039999Y-105247000D02*
X108073332Y-105180333D01*
X108073332Y-105180333D02*
X108139999Y-105147000D01*
X108139999Y-105147000D02*
X108306666Y-105147000D01*
X108306666Y-105147000D02*
X108373332Y-105113666D01*
X108673332Y-105380333D02*
X108739999Y-105413666D01*
X108739999Y-105413666D02*
X108873332Y-105413666D01*
X108873332Y-105413666D02*
X108939999Y-105380333D01*
X108939999Y-105380333D02*
X108973332Y-105313666D01*
X108973332Y-105313666D02*
X108973332Y-105280333D01*
X108973332Y-105280333D02*
X108939999Y-105213666D01*
X108939999Y-105213666D02*
X108873332Y-105180333D01*
X108873332Y-105180333D02*
X108773332Y-105180333D01*
X108773332Y-105180333D02*
X108706665Y-105147000D01*
X108706665Y-105147000D02*
X108673332Y-105080333D01*
X108673332Y-105080333D02*
X108673332Y-105047000D01*
X108673332Y-105047000D02*
X108706665Y-104980333D01*
X108706665Y-104980333D02*
X108773332Y-104947000D01*
X108773332Y-104947000D02*
X108873332Y-104947000D01*
X108873332Y-104947000D02*
X108939999Y-104980333D01*
X109173332Y-104947000D02*
X109439999Y-104947000D01*
X109273332Y-104713666D02*
X109273332Y-105313666D01*
X109273332Y-105313666D02*
X109306666Y-105380333D01*
X109306666Y-105380333D02*
X109373332Y-105413666D01*
X109373332Y-105413666D02*
X109439999Y-105413666D01*
X109673332Y-105413666D02*
X109673332Y-104947000D01*
X109673332Y-104713666D02*
X109639999Y-104747000D01*
X109639999Y-104747000D02*
X109673332Y-104780333D01*
X109673332Y-104780333D02*
X109706666Y-104747000D01*
X109706666Y-104747000D02*
X109673332Y-104713666D01*
X109673332Y-104713666D02*
X109673332Y-104780333D01*
X110306665Y-105380333D02*
X110239999Y-105413666D01*
X110239999Y-105413666D02*
X110106665Y-105413666D01*
X110106665Y-105413666D02*
X110039999Y-105380333D01*
X110039999Y-105380333D02*
X110006665Y-105347000D01*
X110006665Y-105347000D02*
X109973332Y-105280333D01*
X109973332Y-105280333D02*
X109973332Y-105080333D01*
X109973332Y-105080333D02*
X110006665Y-105013666D01*
X110006665Y-105013666D02*
X110039999Y-104980333D01*
X110039999Y-104980333D02*
X110106665Y-104947000D01*
X110106665Y-104947000D02*
X110239999Y-104947000D01*
X110239999Y-104947000D02*
X110306665Y-104980333D01*
X110993332Y-105380333D02*
X111059999Y-105413666D01*
X111059999Y-105413666D02*
X111193332Y-105413666D01*
X111193332Y-105413666D02*
X111259999Y-105380333D01*
X111259999Y-105380333D02*
X111293332Y-105313666D01*
X111293332Y-105313666D02*
X111293332Y-105280333D01*
X111293332Y-105280333D02*
X111259999Y-105213666D01*
X111259999Y-105213666D02*
X111193332Y-105180333D01*
X111193332Y-105180333D02*
X111093332Y-105180333D01*
X111093332Y-105180333D02*
X111026665Y-105147000D01*
X111026665Y-105147000D02*
X110993332Y-105080333D01*
X110993332Y-105080333D02*
X110993332Y-105047000D01*
X110993332Y-105047000D02*
X111026665Y-104980333D01*
X111026665Y-104980333D02*
X111093332Y-104947000D01*
X111093332Y-104947000D02*
X111193332Y-104947000D01*
X111193332Y-104947000D02*
X111259999Y-104980333D01*
X111893332Y-105380333D02*
X111826666Y-105413666D01*
X111826666Y-105413666D02*
X111693332Y-105413666D01*
X111693332Y-105413666D02*
X111626666Y-105380333D01*
X111626666Y-105380333D02*
X111593332Y-105347000D01*
X111593332Y-105347000D02*
X111559999Y-105280333D01*
X111559999Y-105280333D02*
X111559999Y-105080333D01*
X111559999Y-105080333D02*
X111593332Y-105013666D01*
X111593332Y-105013666D02*
X111626666Y-104980333D01*
X111626666Y-104980333D02*
X111693332Y-104947000D01*
X111693332Y-104947000D02*
X111826666Y-104947000D01*
X111826666Y-104947000D02*
X111893332Y-104980333D01*
X112193332Y-105413666D02*
X112193332Y-104947000D01*
X112193332Y-105080333D02*
X112226666Y-105013666D01*
X112226666Y-105013666D02*
X112259999Y-104980333D01*
X112259999Y-104980333D02*
X112326666Y-104947000D01*
X112326666Y-104947000D02*
X112393332Y-104947000D01*
X112893332Y-105380333D02*
X112826665Y-105413666D01*
X112826665Y-105413666D02*
X112693332Y-105413666D01*
X112693332Y-105413666D02*
X112626665Y-105380333D01*
X112626665Y-105380333D02*
X112593332Y-105313666D01*
X112593332Y-105313666D02*
X112593332Y-105047000D01*
X112593332Y-105047000D02*
X112626665Y-104980333D01*
X112626665Y-104980333D02*
X112693332Y-104947000D01*
X112693332Y-104947000D02*
X112826665Y-104947000D01*
X112826665Y-104947000D02*
X112893332Y-104980333D01*
X112893332Y-104980333D02*
X112926665Y-105047000D01*
X112926665Y-105047000D02*
X112926665Y-105113666D01*
X112926665Y-105113666D02*
X112593332Y-105180333D01*
X113159999Y-104947000D02*
X113293332Y-105413666D01*
X113293332Y-105413666D02*
X113426665Y-105080333D01*
X113426665Y-105080333D02*
X113559999Y-105413666D01*
X113559999Y-105413666D02*
X113693332Y-104947000D01*
X113926665Y-105380333D02*
X113993332Y-105413666D01*
X113993332Y-105413666D02*
X114126665Y-105413666D01*
X114126665Y-105413666D02*
X114193332Y-105380333D01*
X114193332Y-105380333D02*
X114226665Y-105313666D01*
X114226665Y-105313666D02*
X114226665Y-105280333D01*
X114226665Y-105280333D02*
X114193332Y-105213666D01*
X114193332Y-105213666D02*
X114126665Y-105180333D01*
X114126665Y-105180333D02*
X114026665Y-105180333D01*
X114026665Y-105180333D02*
X113959998Y-105147000D01*
X113959998Y-105147000D02*
X113926665Y-105080333D01*
X113926665Y-105080333D02*
X113926665Y-105047000D01*
X113926665Y-105047000D02*
X113959998Y-104980333D01*
X113959998Y-104980333D02*
X114026665Y-104947000D01*
X114026665Y-104947000D02*
X114126665Y-104947000D01*
X114126665Y-104947000D02*
X114193332Y-104980333D01*
X115246665Y-105413666D02*
X115246665Y-105047000D01*
X115246665Y-105047000D02*
X115213332Y-104980333D01*
X115213332Y-104980333D02*
X115146665Y-104947000D01*
X115146665Y-104947000D02*
X115013332Y-104947000D01*
X115013332Y-104947000D02*
X114946665Y-104980333D01*
X115246665Y-105380333D02*
X115179999Y-105413666D01*
X115179999Y-105413666D02*
X115013332Y-105413666D01*
X115013332Y-105413666D02*
X114946665Y-105380333D01*
X114946665Y-105380333D02*
X114913332Y-105313666D01*
X114913332Y-105313666D02*
X114913332Y-105247000D01*
X114913332Y-105247000D02*
X114946665Y-105180333D01*
X114946665Y-105180333D02*
X115013332Y-105147000D01*
X115013332Y-105147000D02*
X115179999Y-105147000D01*
X115179999Y-105147000D02*
X115246665Y-105113666D01*
X115579998Y-104947000D02*
X115579998Y-105413666D01*
X115579998Y-105013666D02*
X115613332Y-104980333D01*
X115613332Y-104980333D02*
X115679998Y-104947000D01*
X115679998Y-104947000D02*
X115779998Y-104947000D01*
X115779998Y-104947000D02*
X115846665Y-104980333D01*
X115846665Y-104980333D02*
X115879998Y-105047000D01*
X115879998Y-105047000D02*
X115879998Y-105413666D01*
X116513331Y-105413666D02*
X116513331Y-104713666D01*
X116513331Y-105380333D02*
X116446665Y-105413666D01*
X116446665Y-105413666D02*
X116313331Y-105413666D01*
X116313331Y-105413666D02*
X116246665Y-105380333D01*
X116246665Y-105380333D02*
X116213331Y-105347000D01*
X116213331Y-105347000D02*
X116179998Y-105280333D01*
X116179998Y-105280333D02*
X116179998Y-105080333D01*
X116179998Y-105080333D02*
X116213331Y-105013666D01*
X116213331Y-105013666D02*
X116246665Y-104980333D01*
X116246665Y-104980333D02*
X116313331Y-104947000D01*
X116313331Y-104947000D02*
X116446665Y-104947000D01*
X116446665Y-104947000D02*
X116513331Y-104980333D01*
X117233331Y-105380333D02*
X117299998Y-105413666D01*
X117299998Y-105413666D02*
X117433331Y-105413666D01*
X117433331Y-105413666D02*
X117499998Y-105380333D01*
X117499998Y-105380333D02*
X117533331Y-105313666D01*
X117533331Y-105313666D02*
X117533331Y-105280333D01*
X117533331Y-105280333D02*
X117499998Y-105213666D01*
X117499998Y-105213666D02*
X117433331Y-105180333D01*
X117433331Y-105180333D02*
X117333331Y-105180333D01*
X117333331Y-105180333D02*
X117266664Y-105147000D01*
X117266664Y-105147000D02*
X117233331Y-105080333D01*
X117233331Y-105080333D02*
X117233331Y-105047000D01*
X117233331Y-105047000D02*
X117266664Y-104980333D01*
X117266664Y-104980333D02*
X117333331Y-104947000D01*
X117333331Y-104947000D02*
X117433331Y-104947000D01*
X117433331Y-104947000D02*
X117499998Y-104980333D01*
X117733331Y-104947000D02*
X117999998Y-104947000D01*
X117833331Y-104713666D02*
X117833331Y-105313666D01*
X117833331Y-105313666D02*
X117866665Y-105380333D01*
X117866665Y-105380333D02*
X117933331Y-105413666D01*
X117933331Y-105413666D02*
X117999998Y-105413666D01*
X118533331Y-105413666D02*
X118533331Y-105047000D01*
X118533331Y-105047000D02*
X118499998Y-104980333D01*
X118499998Y-104980333D02*
X118433331Y-104947000D01*
X118433331Y-104947000D02*
X118299998Y-104947000D01*
X118299998Y-104947000D02*
X118233331Y-104980333D01*
X118533331Y-105380333D02*
X118466665Y-105413666D01*
X118466665Y-105413666D02*
X118299998Y-105413666D01*
X118299998Y-105413666D02*
X118233331Y-105380333D01*
X118233331Y-105380333D02*
X118199998Y-105313666D01*
X118199998Y-105313666D02*
X118199998Y-105247000D01*
X118199998Y-105247000D02*
X118233331Y-105180333D01*
X118233331Y-105180333D02*
X118299998Y-105147000D01*
X118299998Y-105147000D02*
X118466665Y-105147000D01*
X118466665Y-105147000D02*
X118533331Y-105113666D01*
X118866664Y-104947000D02*
X118866664Y-105413666D01*
X118866664Y-105013666D02*
X118899998Y-104980333D01*
X118899998Y-104980333D02*
X118966664Y-104947000D01*
X118966664Y-104947000D02*
X119066664Y-104947000D01*
X119066664Y-104947000D02*
X119133331Y-104980333D01*
X119133331Y-104980333D02*
X119166664Y-105047000D01*
X119166664Y-105047000D02*
X119166664Y-105413666D01*
X119799997Y-105413666D02*
X119799997Y-104713666D01*
X119799997Y-105380333D02*
X119733331Y-105413666D01*
X119733331Y-105413666D02*
X119599997Y-105413666D01*
X119599997Y-105413666D02*
X119533331Y-105380333D01*
X119533331Y-105380333D02*
X119499997Y-105347000D01*
X119499997Y-105347000D02*
X119466664Y-105280333D01*
X119466664Y-105280333D02*
X119466664Y-105080333D01*
X119466664Y-105080333D02*
X119499997Y-105013666D01*
X119499997Y-105013666D02*
X119533331Y-104980333D01*
X119533331Y-104980333D02*
X119599997Y-104947000D01*
X119599997Y-104947000D02*
X119733331Y-104947000D01*
X119733331Y-104947000D02*
X119799997Y-104980333D01*
X120099997Y-105380333D02*
X120166664Y-105413666D01*
X120166664Y-105413666D02*
X120299997Y-105413666D01*
X120299997Y-105413666D02*
X120366664Y-105380333D01*
X120366664Y-105380333D02*
X120399997Y-105313666D01*
X120399997Y-105313666D02*
X120399997Y-105280333D01*
X120399997Y-105280333D02*
X120366664Y-105213666D01*
X120366664Y-105213666D02*
X120299997Y-105180333D01*
X120299997Y-105180333D02*
X120199997Y-105180333D01*
X120199997Y-105180333D02*
X120133330Y-105147000D01*
X120133330Y-105147000D02*
X120099997Y-105080333D01*
X120099997Y-105080333D02*
X120099997Y-105047000D01*
X120099997Y-105047000D02*
X120133330Y-104980333D01*
X120133330Y-104980333D02*
X120199997Y-104947000D01*
X120199997Y-104947000D02*
X120299997Y-104947000D01*
X120299997Y-104947000D02*
X120366664Y-104980333D01*
X120699997Y-105347000D02*
X120733331Y-105380333D01*
X120733331Y-105380333D02*
X120699997Y-105413666D01*
X120699997Y-105413666D02*
X120666664Y-105380333D01*
X120666664Y-105380333D02*
X120699997Y-105347000D01*
X120699997Y-105347000D02*
X120699997Y-105413666D01*
X120699997Y-105147000D02*
X120666664Y-104747000D01*
X120666664Y-104747000D02*
X120699997Y-104713666D01*
X120699997Y-104713666D02*
X120733331Y-104747000D01*
X120733331Y-104747000D02*
X120699997Y-105147000D01*
X120699997Y-105147000D02*
X120699997Y-104713666D01*
X102366666Y-106814333D02*
X102333333Y-106781000D01*
X102333333Y-106781000D02*
X102266666Y-106681000D01*
X102266666Y-106681000D02*
X102233333Y-106614333D01*
X102233333Y-106614333D02*
X102200000Y-106514333D01*
X102200000Y-106514333D02*
X102166666Y-106347666D01*
X102166666Y-106347666D02*
X102166666Y-106214333D01*
X102166666Y-106214333D02*
X102200000Y-106047666D01*
X102200000Y-106047666D02*
X102233333Y-105947666D01*
X102233333Y-105947666D02*
X102266666Y-105881000D01*
X102266666Y-105881000D02*
X102333333Y-105781000D01*
X102333333Y-105781000D02*
X102366666Y-105747666D01*
X103000000Y-105881000D02*
X102933333Y-105847666D01*
X102933333Y-105847666D02*
X102833333Y-105847666D01*
X102833333Y-105847666D02*
X102733333Y-105881000D01*
X102733333Y-105881000D02*
X102666667Y-105947666D01*
X102666667Y-105947666D02*
X102633333Y-106014333D01*
X102633333Y-106014333D02*
X102600000Y-106147666D01*
X102600000Y-106147666D02*
X102600000Y-106247666D01*
X102600000Y-106247666D02*
X102633333Y-106381000D01*
X102633333Y-106381000D02*
X102666667Y-106447666D01*
X102666667Y-106447666D02*
X102733333Y-106514333D01*
X102733333Y-106514333D02*
X102833333Y-106547666D01*
X102833333Y-106547666D02*
X102900000Y-106547666D01*
X102900000Y-106547666D02*
X103000000Y-106514333D01*
X103000000Y-106514333D02*
X103033333Y-106481000D01*
X103033333Y-106481000D02*
X103033333Y-106247666D01*
X103033333Y-106247666D02*
X102900000Y-106247666D01*
X103333333Y-106547666D02*
X103333333Y-105847666D01*
X103333333Y-105847666D02*
X103733333Y-106547666D01*
X103733333Y-106547666D02*
X103733333Y-105847666D01*
X104066666Y-106547666D02*
X104066666Y-105847666D01*
X104066666Y-105847666D02*
X104233333Y-105847666D01*
X104233333Y-105847666D02*
X104333333Y-105881000D01*
X104333333Y-105881000D02*
X104400000Y-105947666D01*
X104400000Y-105947666D02*
X104433333Y-106014333D01*
X104433333Y-106014333D02*
X104466666Y-106147666D01*
X104466666Y-106147666D02*
X104466666Y-106247666D01*
X104466666Y-106247666D02*
X104433333Y-106381000D01*
X104433333Y-106381000D02*
X104400000Y-106447666D01*
X104400000Y-106447666D02*
X104333333Y-106514333D01*
X104333333Y-106514333D02*
X104233333Y-106547666D01*
X104233333Y-106547666D02*
X104066666Y-106547666D01*
X105186666Y-106081000D02*
X105186666Y-106781000D01*
X105186666Y-106114333D02*
X105253333Y-106081000D01*
X105253333Y-106081000D02*
X105386666Y-106081000D01*
X105386666Y-106081000D02*
X105453333Y-106114333D01*
X105453333Y-106114333D02*
X105486666Y-106147666D01*
X105486666Y-106147666D02*
X105520000Y-106214333D01*
X105520000Y-106214333D02*
X105520000Y-106414333D01*
X105520000Y-106414333D02*
X105486666Y-106481000D01*
X105486666Y-106481000D02*
X105453333Y-106514333D01*
X105453333Y-106514333D02*
X105386666Y-106547666D01*
X105386666Y-106547666D02*
X105253333Y-106547666D01*
X105253333Y-106547666D02*
X105186666Y-106514333D01*
X105919999Y-106547666D02*
X105853333Y-106514333D01*
X105853333Y-106514333D02*
X105819999Y-106447666D01*
X105819999Y-106447666D02*
X105819999Y-105847666D01*
X106486666Y-106547666D02*
X106486666Y-106181000D01*
X106486666Y-106181000D02*
X106453333Y-106114333D01*
X106453333Y-106114333D02*
X106386666Y-106081000D01*
X106386666Y-106081000D02*
X106253333Y-106081000D01*
X106253333Y-106081000D02*
X106186666Y-106114333D01*
X106486666Y-106514333D02*
X106420000Y-106547666D01*
X106420000Y-106547666D02*
X106253333Y-106547666D01*
X106253333Y-106547666D02*
X106186666Y-106514333D01*
X106186666Y-106514333D02*
X106153333Y-106447666D01*
X106153333Y-106447666D02*
X106153333Y-106381000D01*
X106153333Y-106381000D02*
X106186666Y-106314333D01*
X106186666Y-106314333D02*
X106253333Y-106281000D01*
X106253333Y-106281000D02*
X106420000Y-106281000D01*
X106420000Y-106281000D02*
X106486666Y-106247666D01*
X106819999Y-106081000D02*
X106819999Y-106547666D01*
X106819999Y-106147666D02*
X106853333Y-106114333D01*
X106853333Y-106114333D02*
X106919999Y-106081000D01*
X106919999Y-106081000D02*
X107019999Y-106081000D01*
X107019999Y-106081000D02*
X107086666Y-106114333D01*
X107086666Y-106114333D02*
X107119999Y-106181000D01*
X107119999Y-106181000D02*
X107119999Y-106547666D01*
X107719999Y-106514333D02*
X107653332Y-106547666D01*
X107653332Y-106547666D02*
X107519999Y-106547666D01*
X107519999Y-106547666D02*
X107453332Y-106514333D01*
X107453332Y-106514333D02*
X107419999Y-106447666D01*
X107419999Y-106447666D02*
X107419999Y-106181000D01*
X107419999Y-106181000D02*
X107453332Y-106114333D01*
X107453332Y-106114333D02*
X107519999Y-106081000D01*
X107519999Y-106081000D02*
X107653332Y-106081000D01*
X107653332Y-106081000D02*
X107719999Y-106114333D01*
X107719999Y-106114333D02*
X107753332Y-106181000D01*
X107753332Y-106181000D02*
X107753332Y-106247666D01*
X107753332Y-106247666D02*
X107419999Y-106314333D01*
X108573332Y-106547666D02*
X108506666Y-106514333D01*
X108506666Y-106514333D02*
X108473332Y-106481000D01*
X108473332Y-106481000D02*
X108439999Y-106414333D01*
X108439999Y-106414333D02*
X108439999Y-106214333D01*
X108439999Y-106214333D02*
X108473332Y-106147666D01*
X108473332Y-106147666D02*
X108506666Y-106114333D01*
X108506666Y-106114333D02*
X108573332Y-106081000D01*
X108573332Y-106081000D02*
X108673332Y-106081000D01*
X108673332Y-106081000D02*
X108739999Y-106114333D01*
X108739999Y-106114333D02*
X108773332Y-106147666D01*
X108773332Y-106147666D02*
X108806666Y-106214333D01*
X108806666Y-106214333D02*
X108806666Y-106414333D01*
X108806666Y-106414333D02*
X108773332Y-106481000D01*
X108773332Y-106481000D02*
X108739999Y-106514333D01*
X108739999Y-106514333D02*
X108673332Y-106547666D01*
X108673332Y-106547666D02*
X108573332Y-106547666D01*
X109106665Y-106081000D02*
X109106665Y-106547666D01*
X109106665Y-106147666D02*
X109139999Y-106114333D01*
X109139999Y-106114333D02*
X109206665Y-106081000D01*
X109206665Y-106081000D02*
X109306665Y-106081000D01*
X109306665Y-106081000D02*
X109373332Y-106114333D01*
X109373332Y-106114333D02*
X109406665Y-106181000D01*
X109406665Y-106181000D02*
X109406665Y-106547666D01*
X110159998Y-106547666D02*
X110159998Y-105847666D01*
X110159998Y-106114333D02*
X110226665Y-106081000D01*
X110226665Y-106081000D02*
X110359998Y-106081000D01*
X110359998Y-106081000D02*
X110426665Y-106114333D01*
X110426665Y-106114333D02*
X110459998Y-106147666D01*
X110459998Y-106147666D02*
X110493332Y-106214333D01*
X110493332Y-106214333D02*
X110493332Y-106414333D01*
X110493332Y-106414333D02*
X110459998Y-106481000D01*
X110459998Y-106481000D02*
X110426665Y-106514333D01*
X110426665Y-106514333D02*
X110359998Y-106547666D01*
X110359998Y-106547666D02*
X110226665Y-106547666D01*
X110226665Y-106547666D02*
X110159998Y-106514333D01*
X110893331Y-106547666D02*
X110826665Y-106514333D01*
X110826665Y-106514333D02*
X110793331Y-106481000D01*
X110793331Y-106481000D02*
X110759998Y-106414333D01*
X110759998Y-106414333D02*
X110759998Y-106214333D01*
X110759998Y-106214333D02*
X110793331Y-106147666D01*
X110793331Y-106147666D02*
X110826665Y-106114333D01*
X110826665Y-106114333D02*
X110893331Y-106081000D01*
X110893331Y-106081000D02*
X110993331Y-106081000D01*
X110993331Y-106081000D02*
X111059998Y-106114333D01*
X111059998Y-106114333D02*
X111093331Y-106147666D01*
X111093331Y-106147666D02*
X111126665Y-106214333D01*
X111126665Y-106214333D02*
X111126665Y-106414333D01*
X111126665Y-106414333D02*
X111093331Y-106481000D01*
X111093331Y-106481000D02*
X111059998Y-106514333D01*
X111059998Y-106514333D02*
X110993331Y-106547666D01*
X110993331Y-106547666D02*
X110893331Y-106547666D01*
X111326664Y-106081000D02*
X111593331Y-106081000D01*
X111426664Y-105847666D02*
X111426664Y-106447666D01*
X111426664Y-106447666D02*
X111459998Y-106514333D01*
X111459998Y-106514333D02*
X111526664Y-106547666D01*
X111526664Y-106547666D02*
X111593331Y-106547666D01*
X111826664Y-106547666D02*
X111826664Y-105847666D01*
X112126664Y-106547666D02*
X112126664Y-106181000D01*
X112126664Y-106181000D02*
X112093331Y-106114333D01*
X112093331Y-106114333D02*
X112026664Y-106081000D01*
X112026664Y-106081000D02*
X111926664Y-106081000D01*
X111926664Y-106081000D02*
X111859998Y-106114333D01*
X111859998Y-106114333D02*
X111826664Y-106147666D01*
X112846664Y-106514333D02*
X112913331Y-106547666D01*
X112913331Y-106547666D02*
X113046664Y-106547666D01*
X113046664Y-106547666D02*
X113113331Y-106514333D01*
X113113331Y-106514333D02*
X113146664Y-106447666D01*
X113146664Y-106447666D02*
X113146664Y-106414333D01*
X113146664Y-106414333D02*
X113113331Y-106347666D01*
X113113331Y-106347666D02*
X113046664Y-106314333D01*
X113046664Y-106314333D02*
X112946664Y-106314333D01*
X112946664Y-106314333D02*
X112879997Y-106281000D01*
X112879997Y-106281000D02*
X112846664Y-106214333D01*
X112846664Y-106214333D02*
X112846664Y-106181000D01*
X112846664Y-106181000D02*
X112879997Y-106114333D01*
X112879997Y-106114333D02*
X112946664Y-106081000D01*
X112946664Y-106081000D02*
X113046664Y-106081000D01*
X113046664Y-106081000D02*
X113113331Y-106114333D01*
X113446664Y-106547666D02*
X113446664Y-106081000D01*
X113446664Y-105847666D02*
X113413331Y-105881000D01*
X113413331Y-105881000D02*
X113446664Y-105914333D01*
X113446664Y-105914333D02*
X113479998Y-105881000D01*
X113479998Y-105881000D02*
X113446664Y-105847666D01*
X113446664Y-105847666D02*
X113446664Y-105914333D01*
X114079997Y-106547666D02*
X114079997Y-105847666D01*
X114079997Y-106514333D02*
X114013331Y-106547666D01*
X114013331Y-106547666D02*
X113879997Y-106547666D01*
X113879997Y-106547666D02*
X113813331Y-106514333D01*
X113813331Y-106514333D02*
X113779997Y-106481000D01*
X113779997Y-106481000D02*
X113746664Y-106414333D01*
X113746664Y-106414333D02*
X113746664Y-106214333D01*
X113746664Y-106214333D02*
X113779997Y-106147666D01*
X113779997Y-106147666D02*
X113813331Y-106114333D01*
X113813331Y-106114333D02*
X113879997Y-106081000D01*
X113879997Y-106081000D02*
X114013331Y-106081000D01*
X114013331Y-106081000D02*
X114079997Y-106114333D01*
X114679997Y-106514333D02*
X114613330Y-106547666D01*
X114613330Y-106547666D02*
X114479997Y-106547666D01*
X114479997Y-106547666D02*
X114413330Y-106514333D01*
X114413330Y-106514333D02*
X114379997Y-106447666D01*
X114379997Y-106447666D02*
X114379997Y-106181000D01*
X114379997Y-106181000D02*
X114413330Y-106114333D01*
X114413330Y-106114333D02*
X114479997Y-106081000D01*
X114479997Y-106081000D02*
X114613330Y-106081000D01*
X114613330Y-106081000D02*
X114679997Y-106114333D01*
X114679997Y-106114333D02*
X114713330Y-106181000D01*
X114713330Y-106181000D02*
X114713330Y-106247666D01*
X114713330Y-106247666D02*
X114379997Y-106314333D01*
X114979997Y-106514333D02*
X115046664Y-106547666D01*
X115046664Y-106547666D02*
X115179997Y-106547666D01*
X115179997Y-106547666D02*
X115246664Y-106514333D01*
X115246664Y-106514333D02*
X115279997Y-106447666D01*
X115279997Y-106447666D02*
X115279997Y-106414333D01*
X115279997Y-106414333D02*
X115246664Y-106347666D01*
X115246664Y-106347666D02*
X115179997Y-106314333D01*
X115179997Y-106314333D02*
X115079997Y-106314333D01*
X115079997Y-106314333D02*
X115013330Y-106281000D01*
X115013330Y-106281000D02*
X114979997Y-106214333D01*
X114979997Y-106214333D02*
X114979997Y-106181000D01*
X114979997Y-106181000D02*
X115013330Y-106114333D01*
X115013330Y-106114333D02*
X115079997Y-106081000D01*
X115079997Y-106081000D02*
X115179997Y-106081000D01*
X115179997Y-106081000D02*
X115246664Y-106114333D01*
X115513331Y-106814333D02*
X115546664Y-106781000D01*
X115546664Y-106781000D02*
X115613331Y-106681000D01*
X115613331Y-106681000D02*
X115646664Y-106614333D01*
X115646664Y-106614333D02*
X115679997Y-106514333D01*
X115679997Y-106514333D02*
X115713331Y-106347666D01*
X115713331Y-106347666D02*
X115713331Y-106214333D01*
X115713331Y-106214333D02*
X115679997Y-106047666D01*
X115679997Y-106047666D02*
X115646664Y-105947666D01*
X115646664Y-105947666D02*
X115613331Y-105881000D01*
X115613331Y-105881000D02*
X115546664Y-105781000D01*
X115546664Y-105781000D02*
X115513331Y-105747666D01*
D10*
X161671285Y-106180000D02*
X161576047Y-106132380D01*
X161576047Y-106132380D02*
X161433190Y-106132380D01*
X161433190Y-106132380D02*
X161290333Y-106180000D01*
X161290333Y-106180000D02*
X161195095Y-106275238D01*
X161195095Y-106275238D02*
X161147476Y-106370476D01*
X161147476Y-106370476D02*
X161099857Y-106560952D01*
X161099857Y-106560952D02*
X161099857Y-106703809D01*
X161099857Y-106703809D02*
X161147476Y-106894285D01*
X161147476Y-106894285D02*
X161195095Y-106989523D01*
X161195095Y-106989523D02*
X161290333Y-107084761D01*
X161290333Y-107084761D02*
X161433190Y-107132380D01*
X161433190Y-107132380D02*
X161528428Y-107132380D01*
X161528428Y-107132380D02*
X161671285Y-107084761D01*
X161671285Y-107084761D02*
X161718904Y-107037142D01*
X161718904Y-107037142D02*
X161718904Y-106703809D01*
X161718904Y-106703809D02*
X161528428Y-106703809D01*
X162147476Y-107132380D02*
X162147476Y-106132380D01*
X162147476Y-106132380D02*
X162718904Y-107132380D01*
X162718904Y-107132380D02*
X162718904Y-106132380D01*
X163195095Y-107132380D02*
X163195095Y-106132380D01*
X163195095Y-106132380D02*
X163433190Y-106132380D01*
X163433190Y-106132380D02*
X163576047Y-106180000D01*
X163576047Y-106180000D02*
X163671285Y-106275238D01*
X163671285Y-106275238D02*
X163718904Y-106370476D01*
X163718904Y-106370476D02*
X163766523Y-106560952D01*
X163766523Y-106560952D02*
X163766523Y-106703809D01*
X163766523Y-106703809D02*
X163718904Y-106894285D01*
X163718904Y-106894285D02*
X163671285Y-106989523D01*
X163671285Y-106989523D02*
X163576047Y-107084761D01*
X163576047Y-107084761D02*
X163433190Y-107132380D01*
X163433190Y-107132380D02*
X163195095Y-107132380D01*
X161337952Y-99464761D02*
X161480809Y-99512380D01*
X161480809Y-99512380D02*
X161718904Y-99512380D01*
X161718904Y-99512380D02*
X161814142Y-99464761D01*
X161814142Y-99464761D02*
X161861761Y-99417142D01*
X161861761Y-99417142D02*
X161909380Y-99321904D01*
X161909380Y-99321904D02*
X161909380Y-99226666D01*
X161909380Y-99226666D02*
X161861761Y-99131428D01*
X161861761Y-99131428D02*
X161814142Y-99083809D01*
X161814142Y-99083809D02*
X161718904Y-99036190D01*
X161718904Y-99036190D02*
X161528428Y-98988571D01*
X161528428Y-98988571D02*
X161433190Y-98940952D01*
X161433190Y-98940952D02*
X161385571Y-98893333D01*
X161385571Y-98893333D02*
X161337952Y-98798095D01*
X161337952Y-98798095D02*
X161337952Y-98702857D01*
X161337952Y-98702857D02*
X161385571Y-98607619D01*
X161385571Y-98607619D02*
X161433190Y-98560000D01*
X161433190Y-98560000D02*
X161528428Y-98512380D01*
X161528428Y-98512380D02*
X161766523Y-98512380D01*
X161766523Y-98512380D02*
X161909380Y-98560000D01*
X162337952Y-99512380D02*
X162337952Y-98512380D01*
X162337952Y-98512380D02*
X162576047Y-98512380D01*
X162576047Y-98512380D02*
X162718904Y-98560000D01*
X162718904Y-98560000D02*
X162814142Y-98655238D01*
X162814142Y-98655238D02*
X162861761Y-98750476D01*
X162861761Y-98750476D02*
X162909380Y-98940952D01*
X162909380Y-98940952D02*
X162909380Y-99083809D01*
X162909380Y-99083809D02*
X162861761Y-99274285D01*
X162861761Y-99274285D02*
X162814142Y-99369523D01*
X162814142Y-99369523D02*
X162718904Y-99464761D01*
X162718904Y-99464761D02*
X162576047Y-99512380D01*
X162576047Y-99512380D02*
X162337952Y-99512380D01*
X163290333Y-99226666D02*
X163766523Y-99226666D01*
X163195095Y-99512380D02*
X163528428Y-98512380D01*
X163528428Y-98512380D02*
X163861761Y-99512380D01*
X166633142Y-91633142D02*
X166585523Y-91680761D01*
X166585523Y-91680761D02*
X166442666Y-91728380D01*
X166442666Y-91728380D02*
X166347428Y-91728380D01*
X166347428Y-91728380D02*
X166204571Y-91680761D01*
X166204571Y-91680761D02*
X166109333Y-91585523D01*
X166109333Y-91585523D02*
X166061714Y-91490285D01*
X166061714Y-91490285D02*
X166014095Y-91299809D01*
X166014095Y-91299809D02*
X166014095Y-91156952D01*
X166014095Y-91156952D02*
X166061714Y-90966476D01*
X166061714Y-90966476D02*
X166109333Y-90871238D01*
X166109333Y-90871238D02*
X166204571Y-90776000D01*
X166204571Y-90776000D02*
X166347428Y-90728380D01*
X166347428Y-90728380D02*
X166442666Y-90728380D01*
X166442666Y-90728380D02*
X166585523Y-90776000D01*
X166585523Y-90776000D02*
X166633142Y-90823619D01*
X167014095Y-91680761D02*
X167156952Y-91728380D01*
X167156952Y-91728380D02*
X167395047Y-91728380D01*
X167395047Y-91728380D02*
X167490285Y-91680761D01*
X167490285Y-91680761D02*
X167537904Y-91633142D01*
X167537904Y-91633142D02*
X167585523Y-91537904D01*
X167585523Y-91537904D02*
X167585523Y-91442666D01*
X167585523Y-91442666D02*
X167537904Y-91347428D01*
X167537904Y-91347428D02*
X167490285Y-91299809D01*
X167490285Y-91299809D02*
X167395047Y-91252190D01*
X167395047Y-91252190D02*
X167204571Y-91204571D01*
X167204571Y-91204571D02*
X167109333Y-91156952D01*
X167109333Y-91156952D02*
X167061714Y-91109333D01*
X167061714Y-91109333D02*
X167014095Y-91014095D01*
X167014095Y-91014095D02*
X167014095Y-90918857D01*
X167014095Y-90918857D02*
X167061714Y-90823619D01*
X167061714Y-90823619D02*
X167109333Y-90776000D01*
X167109333Y-90776000D02*
X167204571Y-90728380D01*
X167204571Y-90728380D02*
X167442666Y-90728380D01*
X167442666Y-90728380D02*
X167585523Y-90776000D01*
D13*
X102238095Y-98479380D02*
X102238095Y-97479380D01*
X102238095Y-97479380D02*
X102571428Y-98193666D01*
X102571428Y-98193666D02*
X102904761Y-97479380D01*
X102904761Y-97479380D02*
X102904761Y-98479380D01*
X103523809Y-98479380D02*
X103428571Y-98431761D01*
X103428571Y-98431761D02*
X103380952Y-98384142D01*
X103380952Y-98384142D02*
X103333333Y-98288904D01*
X103333333Y-98288904D02*
X103333333Y-98003190D01*
X103333333Y-98003190D02*
X103380952Y-97907952D01*
X103380952Y-97907952D02*
X103428571Y-97860333D01*
X103428571Y-97860333D02*
X103523809Y-97812714D01*
X103523809Y-97812714D02*
X103666666Y-97812714D01*
X103666666Y-97812714D02*
X103761904Y-97860333D01*
X103761904Y-97860333D02*
X103809523Y-97907952D01*
X103809523Y-97907952D02*
X103857142Y-98003190D01*
X103857142Y-98003190D02*
X103857142Y-98288904D01*
X103857142Y-98288904D02*
X103809523Y-98384142D01*
X103809523Y-98384142D02*
X103761904Y-98431761D01*
X103761904Y-98431761D02*
X103666666Y-98479380D01*
X103666666Y-98479380D02*
X103523809Y-98479380D01*
X104190476Y-97812714D02*
X104428571Y-98479380D01*
X104428571Y-98479380D02*
X104666666Y-97812714D01*
X105428571Y-98431761D02*
X105333333Y-98479380D01*
X105333333Y-98479380D02*
X105142857Y-98479380D01*
X105142857Y-98479380D02*
X105047619Y-98431761D01*
X105047619Y-98431761D02*
X105000000Y-98336523D01*
X105000000Y-98336523D02*
X105000000Y-97955571D01*
X105000000Y-97955571D02*
X105047619Y-97860333D01*
X105047619Y-97860333D02*
X105142857Y-97812714D01*
X105142857Y-97812714D02*
X105333333Y-97812714D01*
X105333333Y-97812714D02*
X105428571Y-97860333D01*
X105428571Y-97860333D02*
X105476190Y-97955571D01*
X105476190Y-97955571D02*
X105476190Y-98050809D01*
X105476190Y-98050809D02*
X105000000Y-98146047D01*
X107076190Y-98479380D02*
X106742857Y-98003190D01*
X106504762Y-98479380D02*
X106504762Y-97479380D01*
X106504762Y-97479380D02*
X106885714Y-97479380D01*
X106885714Y-97479380D02*
X106980952Y-97527000D01*
X106980952Y-97527000D02*
X107028571Y-97574619D01*
X107028571Y-97574619D02*
X107076190Y-97669857D01*
X107076190Y-97669857D02*
X107076190Y-97812714D01*
X107076190Y-97812714D02*
X107028571Y-97907952D01*
X107028571Y-97907952D02*
X106980952Y-97955571D01*
X106980952Y-97955571D02*
X106885714Y-98003190D01*
X106885714Y-98003190D02*
X106504762Y-98003190D01*
X107933333Y-97812714D02*
X107933333Y-98479380D01*
X107695238Y-97431761D02*
X107457143Y-98146047D01*
X107457143Y-98146047D02*
X108076190Y-98146047D01*
X108914286Y-97812714D02*
X109295238Y-97812714D01*
X109057143Y-97479380D02*
X109057143Y-98336523D01*
X109057143Y-98336523D02*
X109104762Y-98431761D01*
X109104762Y-98431761D02*
X109200000Y-98479380D01*
X109200000Y-98479380D02*
X109295238Y-98479380D01*
X109771429Y-98479380D02*
X109676191Y-98431761D01*
X109676191Y-98431761D02*
X109628572Y-98384142D01*
X109628572Y-98384142D02*
X109580953Y-98288904D01*
X109580953Y-98288904D02*
X109580953Y-98003190D01*
X109580953Y-98003190D02*
X109628572Y-97907952D01*
X109628572Y-97907952D02*
X109676191Y-97860333D01*
X109676191Y-97860333D02*
X109771429Y-97812714D01*
X109771429Y-97812714D02*
X109914286Y-97812714D01*
X109914286Y-97812714D02*
X110009524Y-97860333D01*
X110009524Y-97860333D02*
X110057143Y-97907952D01*
X110057143Y-97907952D02*
X110104762Y-98003190D01*
X110104762Y-98003190D02*
X110104762Y-98288904D01*
X110104762Y-98288904D02*
X110057143Y-98384142D01*
X110057143Y-98384142D02*
X110009524Y-98431761D01*
X110009524Y-98431761D02*
X109914286Y-98479380D01*
X109914286Y-98479380D02*
X109771429Y-98479380D01*
X111704762Y-98479380D02*
X111371429Y-98003190D01*
X111133334Y-98479380D02*
X111133334Y-97479380D01*
X111133334Y-97479380D02*
X111514286Y-97479380D01*
X111514286Y-97479380D02*
X111609524Y-97527000D01*
X111609524Y-97527000D02*
X111657143Y-97574619D01*
X111657143Y-97574619D02*
X111704762Y-97669857D01*
X111704762Y-97669857D02*
X111704762Y-97812714D01*
X111704762Y-97812714D02*
X111657143Y-97907952D01*
X111657143Y-97907952D02*
X111609524Y-97955571D01*
X111609524Y-97955571D02*
X111514286Y-98003190D01*
X111514286Y-98003190D02*
X111133334Y-98003190D01*
X112038096Y-97479380D02*
X112657143Y-97479380D01*
X112657143Y-97479380D02*
X112323810Y-97860333D01*
X112323810Y-97860333D02*
X112466667Y-97860333D01*
X112466667Y-97860333D02*
X112561905Y-97907952D01*
X112561905Y-97907952D02*
X112609524Y-97955571D01*
X112609524Y-97955571D02*
X112657143Y-98050809D01*
X112657143Y-98050809D02*
X112657143Y-98288904D01*
X112657143Y-98288904D02*
X112609524Y-98384142D01*
X112609524Y-98384142D02*
X112561905Y-98431761D01*
X112561905Y-98431761D02*
X112466667Y-98479380D01*
X112466667Y-98479380D02*
X112180953Y-98479380D01*
X112180953Y-98479380D02*
X112085715Y-98431761D01*
X112085715Y-98431761D02*
X112038096Y-98384142D01*
X113685715Y-97812714D02*
X113685715Y-98812714D01*
X113685715Y-97860333D02*
X113780953Y-97812714D01*
X113780953Y-97812714D02*
X113971429Y-97812714D01*
X113971429Y-97812714D02*
X114066667Y-97860333D01*
X114066667Y-97860333D02*
X114114286Y-97907952D01*
X114114286Y-97907952D02*
X114161905Y-98003190D01*
X114161905Y-98003190D02*
X114161905Y-98288904D01*
X114161905Y-98288904D02*
X114114286Y-98384142D01*
X114114286Y-98384142D02*
X114066667Y-98431761D01*
X114066667Y-98431761D02*
X113971429Y-98479380D01*
X113971429Y-98479380D02*
X113780953Y-98479380D01*
X113780953Y-98479380D02*
X113685715Y-98431761D01*
X114733334Y-98479380D02*
X114638096Y-98431761D01*
X114638096Y-98431761D02*
X114590477Y-98384142D01*
X114590477Y-98384142D02*
X114542858Y-98288904D01*
X114542858Y-98288904D02*
X114542858Y-98003190D01*
X114542858Y-98003190D02*
X114590477Y-97907952D01*
X114590477Y-97907952D02*
X114638096Y-97860333D01*
X114638096Y-97860333D02*
X114733334Y-97812714D01*
X114733334Y-97812714D02*
X114876191Y-97812714D01*
X114876191Y-97812714D02*
X114971429Y-97860333D01*
X114971429Y-97860333D02*
X115019048Y-97907952D01*
X115019048Y-97907952D02*
X115066667Y-98003190D01*
X115066667Y-98003190D02*
X115066667Y-98288904D01*
X115066667Y-98288904D02*
X115019048Y-98384142D01*
X115019048Y-98384142D02*
X114971429Y-98431761D01*
X114971429Y-98431761D02*
X114876191Y-98479380D01*
X114876191Y-98479380D02*
X114733334Y-98479380D01*
X115447620Y-98431761D02*
X115542858Y-98479380D01*
X115542858Y-98479380D02*
X115733334Y-98479380D01*
X115733334Y-98479380D02*
X115828572Y-98431761D01*
X115828572Y-98431761D02*
X115876191Y-98336523D01*
X115876191Y-98336523D02*
X115876191Y-98288904D01*
X115876191Y-98288904D02*
X115828572Y-98193666D01*
X115828572Y-98193666D02*
X115733334Y-98146047D01*
X115733334Y-98146047D02*
X115590477Y-98146047D01*
X115590477Y-98146047D02*
X115495239Y-98098428D01*
X115495239Y-98098428D02*
X115447620Y-98003190D01*
X115447620Y-98003190D02*
X115447620Y-97955571D01*
X115447620Y-97955571D02*
X115495239Y-97860333D01*
X115495239Y-97860333D02*
X115590477Y-97812714D01*
X115590477Y-97812714D02*
X115733334Y-97812714D01*
X115733334Y-97812714D02*
X115828572Y-97860333D01*
X116304763Y-98479380D02*
X116304763Y-97812714D01*
X116304763Y-97479380D02*
X116257144Y-97527000D01*
X116257144Y-97527000D02*
X116304763Y-97574619D01*
X116304763Y-97574619D02*
X116352382Y-97527000D01*
X116352382Y-97527000D02*
X116304763Y-97479380D01*
X116304763Y-97479380D02*
X116304763Y-97574619D01*
X116638096Y-97812714D02*
X117019048Y-97812714D01*
X116780953Y-97479380D02*
X116780953Y-98336523D01*
X116780953Y-98336523D02*
X116828572Y-98431761D01*
X116828572Y-98431761D02*
X116923810Y-98479380D01*
X116923810Y-98479380D02*
X117019048Y-98479380D01*
X117352382Y-98479380D02*
X117352382Y-97812714D01*
X117352382Y-97479380D02*
X117304763Y-97527000D01*
X117304763Y-97527000D02*
X117352382Y-97574619D01*
X117352382Y-97574619D02*
X117400001Y-97527000D01*
X117400001Y-97527000D02*
X117352382Y-97479380D01*
X117352382Y-97479380D02*
X117352382Y-97574619D01*
X117971429Y-98479380D02*
X117876191Y-98431761D01*
X117876191Y-98431761D02*
X117828572Y-98384142D01*
X117828572Y-98384142D02*
X117780953Y-98288904D01*
X117780953Y-98288904D02*
X117780953Y-98003190D01*
X117780953Y-98003190D02*
X117828572Y-97907952D01*
X117828572Y-97907952D02*
X117876191Y-97860333D01*
X117876191Y-97860333D02*
X117971429Y-97812714D01*
X117971429Y-97812714D02*
X118114286Y-97812714D01*
X118114286Y-97812714D02*
X118209524Y-97860333D01*
X118209524Y-97860333D02*
X118257143Y-97907952D01*
X118257143Y-97907952D02*
X118304762Y-98003190D01*
X118304762Y-98003190D02*
X118304762Y-98288904D01*
X118304762Y-98288904D02*
X118257143Y-98384142D01*
X118257143Y-98384142D02*
X118209524Y-98431761D01*
X118209524Y-98431761D02*
X118114286Y-98479380D01*
X118114286Y-98479380D02*
X117971429Y-98479380D01*
X118733334Y-97812714D02*
X118733334Y-98479380D01*
X118733334Y-97907952D02*
X118780953Y-97860333D01*
X118780953Y-97860333D02*
X118876191Y-97812714D01*
X118876191Y-97812714D02*
X119019048Y-97812714D01*
X119019048Y-97812714D02*
X119114286Y-97860333D01*
X119114286Y-97860333D02*
X119161905Y-97955571D01*
X119161905Y-97955571D02*
X119161905Y-98479380D01*
X102190476Y-100051761D02*
X102333333Y-100099380D01*
X102333333Y-100099380D02*
X102571428Y-100099380D01*
X102571428Y-100099380D02*
X102666666Y-100051761D01*
X102666666Y-100051761D02*
X102714285Y-100004142D01*
X102714285Y-100004142D02*
X102761904Y-99908904D01*
X102761904Y-99908904D02*
X102761904Y-99813666D01*
X102761904Y-99813666D02*
X102714285Y-99718428D01*
X102714285Y-99718428D02*
X102666666Y-99670809D01*
X102666666Y-99670809D02*
X102571428Y-99623190D01*
X102571428Y-99623190D02*
X102380952Y-99575571D01*
X102380952Y-99575571D02*
X102285714Y-99527952D01*
X102285714Y-99527952D02*
X102238095Y-99480333D01*
X102238095Y-99480333D02*
X102190476Y-99385095D01*
X102190476Y-99385095D02*
X102190476Y-99289857D01*
X102190476Y-99289857D02*
X102238095Y-99194619D01*
X102238095Y-99194619D02*
X102285714Y-99147000D01*
X102285714Y-99147000D02*
X102380952Y-99099380D01*
X102380952Y-99099380D02*
X102619047Y-99099380D01*
X102619047Y-99099380D02*
X102761904Y-99147000D01*
X103571428Y-100051761D02*
X103476190Y-100099380D01*
X103476190Y-100099380D02*
X103285714Y-100099380D01*
X103285714Y-100099380D02*
X103190476Y-100051761D01*
X103190476Y-100051761D02*
X103142857Y-99956523D01*
X103142857Y-99956523D02*
X103142857Y-99575571D01*
X103142857Y-99575571D02*
X103190476Y-99480333D01*
X103190476Y-99480333D02*
X103285714Y-99432714D01*
X103285714Y-99432714D02*
X103476190Y-99432714D01*
X103476190Y-99432714D02*
X103571428Y-99480333D01*
X103571428Y-99480333D02*
X103619047Y-99575571D01*
X103619047Y-99575571D02*
X103619047Y-99670809D01*
X103619047Y-99670809D02*
X103142857Y-99766047D01*
X103904762Y-99432714D02*
X104285714Y-99432714D01*
X104047619Y-99099380D02*
X104047619Y-99956523D01*
X104047619Y-99956523D02*
X104095238Y-100051761D01*
X104095238Y-100051761D02*
X104190476Y-100099380D01*
X104190476Y-100099380D02*
X104285714Y-100099380D01*
X105504762Y-99099380D02*
X105504762Y-99813666D01*
X105504762Y-99813666D02*
X105457143Y-99956523D01*
X105457143Y-99956523D02*
X105361905Y-100051761D01*
X105361905Y-100051761D02*
X105219048Y-100099380D01*
X105219048Y-100099380D02*
X105123810Y-100099380D01*
X106409524Y-99432714D02*
X106409524Y-100099380D01*
X105980953Y-99432714D02*
X105980953Y-99956523D01*
X105980953Y-99956523D02*
X106028572Y-100051761D01*
X106028572Y-100051761D02*
X106123810Y-100099380D01*
X106123810Y-100099380D02*
X106266667Y-100099380D01*
X106266667Y-100099380D02*
X106361905Y-100051761D01*
X106361905Y-100051761D02*
X106409524Y-100004142D01*
X106885715Y-100099380D02*
X106885715Y-99432714D01*
X106885715Y-99527952D02*
X106933334Y-99480333D01*
X106933334Y-99480333D02*
X107028572Y-99432714D01*
X107028572Y-99432714D02*
X107171429Y-99432714D01*
X107171429Y-99432714D02*
X107266667Y-99480333D01*
X107266667Y-99480333D02*
X107314286Y-99575571D01*
X107314286Y-99575571D02*
X107314286Y-100099380D01*
X107314286Y-99575571D02*
X107361905Y-99480333D01*
X107361905Y-99480333D02*
X107457143Y-99432714D01*
X107457143Y-99432714D02*
X107600000Y-99432714D01*
X107600000Y-99432714D02*
X107695239Y-99480333D01*
X107695239Y-99480333D02*
X107742858Y-99575571D01*
X107742858Y-99575571D02*
X107742858Y-100099380D01*
X108219048Y-99432714D02*
X108219048Y-100432714D01*
X108219048Y-99480333D02*
X108314286Y-99432714D01*
X108314286Y-99432714D02*
X108504762Y-99432714D01*
X108504762Y-99432714D02*
X108600000Y-99480333D01*
X108600000Y-99480333D02*
X108647619Y-99527952D01*
X108647619Y-99527952D02*
X108695238Y-99623190D01*
X108695238Y-99623190D02*
X108695238Y-99908904D01*
X108695238Y-99908904D02*
X108647619Y-100004142D01*
X108647619Y-100004142D02*
X108600000Y-100051761D01*
X108600000Y-100051761D02*
X108504762Y-100099380D01*
X108504762Y-100099380D02*
X108314286Y-100099380D01*
X108314286Y-100099380D02*
X108219048Y-100051761D01*
X109504762Y-100051761D02*
X109409524Y-100099380D01*
X109409524Y-100099380D02*
X109219048Y-100099380D01*
X109219048Y-100099380D02*
X109123810Y-100051761D01*
X109123810Y-100051761D02*
X109076191Y-99956523D01*
X109076191Y-99956523D02*
X109076191Y-99575571D01*
X109076191Y-99575571D02*
X109123810Y-99480333D01*
X109123810Y-99480333D02*
X109219048Y-99432714D01*
X109219048Y-99432714D02*
X109409524Y-99432714D01*
X109409524Y-99432714D02*
X109504762Y-99480333D01*
X109504762Y-99480333D02*
X109552381Y-99575571D01*
X109552381Y-99575571D02*
X109552381Y-99670809D01*
X109552381Y-99670809D02*
X109076191Y-99766047D01*
X109980953Y-100099380D02*
X109980953Y-99432714D01*
X109980953Y-99623190D02*
X110028572Y-99527952D01*
X110028572Y-99527952D02*
X110076191Y-99480333D01*
X110076191Y-99480333D02*
X110171429Y-99432714D01*
X110171429Y-99432714D02*
X110266667Y-99432714D01*
X111057144Y-99432714D02*
X111438096Y-99432714D01*
X111200001Y-99099380D02*
X111200001Y-99956523D01*
X111200001Y-99956523D02*
X111247620Y-100051761D01*
X111247620Y-100051761D02*
X111342858Y-100099380D01*
X111342858Y-100099380D02*
X111438096Y-100099380D01*
X111914287Y-100099380D02*
X111819049Y-100051761D01*
X111819049Y-100051761D02*
X111771430Y-100004142D01*
X111771430Y-100004142D02*
X111723811Y-99908904D01*
X111723811Y-99908904D02*
X111723811Y-99623190D01*
X111723811Y-99623190D02*
X111771430Y-99527952D01*
X111771430Y-99527952D02*
X111819049Y-99480333D01*
X111819049Y-99480333D02*
X111914287Y-99432714D01*
X111914287Y-99432714D02*
X112057144Y-99432714D01*
X112057144Y-99432714D02*
X112152382Y-99480333D01*
X112152382Y-99480333D02*
X112200001Y-99527952D01*
X112200001Y-99527952D02*
X112247620Y-99623190D01*
X112247620Y-99623190D02*
X112247620Y-99908904D01*
X112247620Y-99908904D02*
X112200001Y-100004142D01*
X112200001Y-100004142D02*
X112152382Y-100051761D01*
X112152382Y-100051761D02*
X112057144Y-100099380D01*
X112057144Y-100099380D02*
X111914287Y-100099380D01*
X113847620Y-100099380D02*
X113514287Y-99623190D01*
X113276192Y-100099380D02*
X113276192Y-99099380D01*
X113276192Y-99099380D02*
X113657144Y-99099380D01*
X113657144Y-99099380D02*
X113752382Y-99147000D01*
X113752382Y-99147000D02*
X113800001Y-99194619D01*
X113800001Y-99194619D02*
X113847620Y-99289857D01*
X113847620Y-99289857D02*
X113847620Y-99432714D01*
X113847620Y-99432714D02*
X113800001Y-99527952D01*
X113800001Y-99527952D02*
X113752382Y-99575571D01*
X113752382Y-99575571D02*
X113657144Y-99623190D01*
X113657144Y-99623190D02*
X113276192Y-99623190D01*
X114752382Y-99099380D02*
X114276192Y-99099380D01*
X114276192Y-99099380D02*
X114228573Y-99575571D01*
X114228573Y-99575571D02*
X114276192Y-99527952D01*
X114276192Y-99527952D02*
X114371430Y-99480333D01*
X114371430Y-99480333D02*
X114609525Y-99480333D01*
X114609525Y-99480333D02*
X114704763Y-99527952D01*
X114704763Y-99527952D02*
X114752382Y-99575571D01*
X114752382Y-99575571D02*
X114800001Y-99670809D01*
X114800001Y-99670809D02*
X114800001Y-99908904D01*
X114800001Y-99908904D02*
X114752382Y-100004142D01*
X114752382Y-100004142D02*
X114704763Y-100051761D01*
X114704763Y-100051761D02*
X114609525Y-100099380D01*
X114609525Y-100099380D02*
X114371430Y-100099380D01*
X114371430Y-100099380D02*
X114276192Y-100051761D01*
X114276192Y-100051761D02*
X114228573Y-100004142D01*
X115828573Y-99432714D02*
X115828573Y-100432714D01*
X115828573Y-99480333D02*
X115923811Y-99432714D01*
X115923811Y-99432714D02*
X116114287Y-99432714D01*
X116114287Y-99432714D02*
X116209525Y-99480333D01*
X116209525Y-99480333D02*
X116257144Y-99527952D01*
X116257144Y-99527952D02*
X116304763Y-99623190D01*
X116304763Y-99623190D02*
X116304763Y-99908904D01*
X116304763Y-99908904D02*
X116257144Y-100004142D01*
X116257144Y-100004142D02*
X116209525Y-100051761D01*
X116209525Y-100051761D02*
X116114287Y-100099380D01*
X116114287Y-100099380D02*
X115923811Y-100099380D01*
X115923811Y-100099380D02*
X115828573Y-100051761D01*
X116876192Y-100099380D02*
X116780954Y-100051761D01*
X116780954Y-100051761D02*
X116733335Y-100004142D01*
X116733335Y-100004142D02*
X116685716Y-99908904D01*
X116685716Y-99908904D02*
X116685716Y-99623190D01*
X116685716Y-99623190D02*
X116733335Y-99527952D01*
X116733335Y-99527952D02*
X116780954Y-99480333D01*
X116780954Y-99480333D02*
X116876192Y-99432714D01*
X116876192Y-99432714D02*
X117019049Y-99432714D01*
X117019049Y-99432714D02*
X117114287Y-99480333D01*
X117114287Y-99480333D02*
X117161906Y-99527952D01*
X117161906Y-99527952D02*
X117209525Y-99623190D01*
X117209525Y-99623190D02*
X117209525Y-99908904D01*
X117209525Y-99908904D02*
X117161906Y-100004142D01*
X117161906Y-100004142D02*
X117114287Y-100051761D01*
X117114287Y-100051761D02*
X117019049Y-100099380D01*
X117019049Y-100099380D02*
X116876192Y-100099380D01*
X117590478Y-100051761D02*
X117685716Y-100099380D01*
X117685716Y-100099380D02*
X117876192Y-100099380D01*
X117876192Y-100099380D02*
X117971430Y-100051761D01*
X117971430Y-100051761D02*
X118019049Y-99956523D01*
X118019049Y-99956523D02*
X118019049Y-99908904D01*
X118019049Y-99908904D02*
X117971430Y-99813666D01*
X117971430Y-99813666D02*
X117876192Y-99766047D01*
X117876192Y-99766047D02*
X117733335Y-99766047D01*
X117733335Y-99766047D02*
X117638097Y-99718428D01*
X117638097Y-99718428D02*
X117590478Y-99623190D01*
X117590478Y-99623190D02*
X117590478Y-99575571D01*
X117590478Y-99575571D02*
X117638097Y-99480333D01*
X117638097Y-99480333D02*
X117733335Y-99432714D01*
X117733335Y-99432714D02*
X117876192Y-99432714D01*
X117876192Y-99432714D02*
X117971430Y-99480333D01*
X118447621Y-100099380D02*
X118447621Y-99432714D01*
X118447621Y-99099380D02*
X118400002Y-99147000D01*
X118400002Y-99147000D02*
X118447621Y-99194619D01*
X118447621Y-99194619D02*
X118495240Y-99147000D01*
X118495240Y-99147000D02*
X118447621Y-99099380D01*
X118447621Y-99099380D02*
X118447621Y-99194619D01*
X118780954Y-99432714D02*
X119161906Y-99432714D01*
X118923811Y-99099380D02*
X118923811Y-99956523D01*
X118923811Y-99956523D02*
X118971430Y-100051761D01*
X118971430Y-100051761D02*
X119066668Y-100099380D01*
X119066668Y-100099380D02*
X119161906Y-100099380D01*
X119495240Y-100099380D02*
X119495240Y-99432714D01*
X119495240Y-99099380D02*
X119447621Y-99147000D01*
X119447621Y-99147000D02*
X119495240Y-99194619D01*
X119495240Y-99194619D02*
X119542859Y-99147000D01*
X119542859Y-99147000D02*
X119495240Y-99099380D01*
X119495240Y-99099380D02*
X119495240Y-99194619D01*
X120114287Y-100099380D02*
X120019049Y-100051761D01*
X120019049Y-100051761D02*
X119971430Y-100004142D01*
X119971430Y-100004142D02*
X119923811Y-99908904D01*
X119923811Y-99908904D02*
X119923811Y-99623190D01*
X119923811Y-99623190D02*
X119971430Y-99527952D01*
X119971430Y-99527952D02*
X120019049Y-99480333D01*
X120019049Y-99480333D02*
X120114287Y-99432714D01*
X120114287Y-99432714D02*
X120257144Y-99432714D01*
X120257144Y-99432714D02*
X120352382Y-99480333D01*
X120352382Y-99480333D02*
X120400001Y-99527952D01*
X120400001Y-99527952D02*
X120447620Y-99623190D01*
X120447620Y-99623190D02*
X120447620Y-99908904D01*
X120447620Y-99908904D02*
X120400001Y-100004142D01*
X120400001Y-100004142D02*
X120352382Y-100051761D01*
X120352382Y-100051761D02*
X120257144Y-100099380D01*
X120257144Y-100099380D02*
X120114287Y-100099380D01*
X120876192Y-99432714D02*
X120876192Y-100099380D01*
X120876192Y-99527952D02*
X120923811Y-99480333D01*
X120923811Y-99480333D02*
X121019049Y-99432714D01*
X121019049Y-99432714D02*
X121161906Y-99432714D01*
X121161906Y-99432714D02*
X121257144Y-99480333D01*
X121257144Y-99480333D02*
X121304763Y-99575571D01*
X121304763Y-99575571D02*
X121304763Y-100099380D01*
X102190476Y-101671761D02*
X102333333Y-101719380D01*
X102333333Y-101719380D02*
X102571428Y-101719380D01*
X102571428Y-101719380D02*
X102666666Y-101671761D01*
X102666666Y-101671761D02*
X102714285Y-101624142D01*
X102714285Y-101624142D02*
X102761904Y-101528904D01*
X102761904Y-101528904D02*
X102761904Y-101433666D01*
X102761904Y-101433666D02*
X102714285Y-101338428D01*
X102714285Y-101338428D02*
X102666666Y-101290809D01*
X102666666Y-101290809D02*
X102571428Y-101243190D01*
X102571428Y-101243190D02*
X102380952Y-101195571D01*
X102380952Y-101195571D02*
X102285714Y-101147952D01*
X102285714Y-101147952D02*
X102238095Y-101100333D01*
X102238095Y-101100333D02*
X102190476Y-101005095D01*
X102190476Y-101005095D02*
X102190476Y-100909857D01*
X102190476Y-100909857D02*
X102238095Y-100814619D01*
X102238095Y-100814619D02*
X102285714Y-100767000D01*
X102285714Y-100767000D02*
X102380952Y-100719380D01*
X102380952Y-100719380D02*
X102619047Y-100719380D01*
X102619047Y-100719380D02*
X102761904Y-100767000D01*
X103571428Y-101671761D02*
X103476190Y-101719380D01*
X103476190Y-101719380D02*
X103285714Y-101719380D01*
X103285714Y-101719380D02*
X103190476Y-101671761D01*
X103190476Y-101671761D02*
X103142857Y-101576523D01*
X103142857Y-101576523D02*
X103142857Y-101195571D01*
X103142857Y-101195571D02*
X103190476Y-101100333D01*
X103190476Y-101100333D02*
X103285714Y-101052714D01*
X103285714Y-101052714D02*
X103476190Y-101052714D01*
X103476190Y-101052714D02*
X103571428Y-101100333D01*
X103571428Y-101100333D02*
X103619047Y-101195571D01*
X103619047Y-101195571D02*
X103619047Y-101290809D01*
X103619047Y-101290809D02*
X103142857Y-101386047D01*
X103904762Y-101052714D02*
X104285714Y-101052714D01*
X104047619Y-100719380D02*
X104047619Y-101576523D01*
X104047619Y-101576523D02*
X104095238Y-101671761D01*
X104095238Y-101671761D02*
X104190476Y-101719380D01*
X104190476Y-101719380D02*
X104285714Y-101719380D01*
X105504762Y-100719380D02*
X105504762Y-101433666D01*
X105504762Y-101433666D02*
X105457143Y-101576523D01*
X105457143Y-101576523D02*
X105361905Y-101671761D01*
X105361905Y-101671761D02*
X105219048Y-101719380D01*
X105219048Y-101719380D02*
X105123810Y-101719380D01*
X106409524Y-101052714D02*
X106409524Y-101719380D01*
X105980953Y-101052714D02*
X105980953Y-101576523D01*
X105980953Y-101576523D02*
X106028572Y-101671761D01*
X106028572Y-101671761D02*
X106123810Y-101719380D01*
X106123810Y-101719380D02*
X106266667Y-101719380D01*
X106266667Y-101719380D02*
X106361905Y-101671761D01*
X106361905Y-101671761D02*
X106409524Y-101624142D01*
X106885715Y-101719380D02*
X106885715Y-101052714D01*
X106885715Y-101147952D02*
X106933334Y-101100333D01*
X106933334Y-101100333D02*
X107028572Y-101052714D01*
X107028572Y-101052714D02*
X107171429Y-101052714D01*
X107171429Y-101052714D02*
X107266667Y-101100333D01*
X107266667Y-101100333D02*
X107314286Y-101195571D01*
X107314286Y-101195571D02*
X107314286Y-101719380D01*
X107314286Y-101195571D02*
X107361905Y-101100333D01*
X107361905Y-101100333D02*
X107457143Y-101052714D01*
X107457143Y-101052714D02*
X107600000Y-101052714D01*
X107600000Y-101052714D02*
X107695239Y-101100333D01*
X107695239Y-101100333D02*
X107742858Y-101195571D01*
X107742858Y-101195571D02*
X107742858Y-101719380D01*
X108219048Y-101052714D02*
X108219048Y-102052714D01*
X108219048Y-101100333D02*
X108314286Y-101052714D01*
X108314286Y-101052714D02*
X108504762Y-101052714D01*
X108504762Y-101052714D02*
X108600000Y-101100333D01*
X108600000Y-101100333D02*
X108647619Y-101147952D01*
X108647619Y-101147952D02*
X108695238Y-101243190D01*
X108695238Y-101243190D02*
X108695238Y-101528904D01*
X108695238Y-101528904D02*
X108647619Y-101624142D01*
X108647619Y-101624142D02*
X108600000Y-101671761D01*
X108600000Y-101671761D02*
X108504762Y-101719380D01*
X108504762Y-101719380D02*
X108314286Y-101719380D01*
X108314286Y-101719380D02*
X108219048Y-101671761D01*
X109504762Y-101671761D02*
X109409524Y-101719380D01*
X109409524Y-101719380D02*
X109219048Y-101719380D01*
X109219048Y-101719380D02*
X109123810Y-101671761D01*
X109123810Y-101671761D02*
X109076191Y-101576523D01*
X109076191Y-101576523D02*
X109076191Y-101195571D01*
X109076191Y-101195571D02*
X109123810Y-101100333D01*
X109123810Y-101100333D02*
X109219048Y-101052714D01*
X109219048Y-101052714D02*
X109409524Y-101052714D01*
X109409524Y-101052714D02*
X109504762Y-101100333D01*
X109504762Y-101100333D02*
X109552381Y-101195571D01*
X109552381Y-101195571D02*
X109552381Y-101290809D01*
X109552381Y-101290809D02*
X109076191Y-101386047D01*
X109980953Y-101719380D02*
X109980953Y-101052714D01*
X109980953Y-101243190D02*
X110028572Y-101147952D01*
X110028572Y-101147952D02*
X110076191Y-101100333D01*
X110076191Y-101100333D02*
X110171429Y-101052714D01*
X110171429Y-101052714D02*
X110266667Y-101052714D01*
X111057144Y-101052714D02*
X111438096Y-101052714D01*
X111200001Y-100719380D02*
X111200001Y-101576523D01*
X111200001Y-101576523D02*
X111247620Y-101671761D01*
X111247620Y-101671761D02*
X111342858Y-101719380D01*
X111342858Y-101719380D02*
X111438096Y-101719380D01*
X111914287Y-101719380D02*
X111819049Y-101671761D01*
X111819049Y-101671761D02*
X111771430Y-101624142D01*
X111771430Y-101624142D02*
X111723811Y-101528904D01*
X111723811Y-101528904D02*
X111723811Y-101243190D01*
X111723811Y-101243190D02*
X111771430Y-101147952D01*
X111771430Y-101147952D02*
X111819049Y-101100333D01*
X111819049Y-101100333D02*
X111914287Y-101052714D01*
X111914287Y-101052714D02*
X112057144Y-101052714D01*
X112057144Y-101052714D02*
X112152382Y-101100333D01*
X112152382Y-101100333D02*
X112200001Y-101147952D01*
X112200001Y-101147952D02*
X112247620Y-101243190D01*
X112247620Y-101243190D02*
X112247620Y-101528904D01*
X112247620Y-101528904D02*
X112200001Y-101624142D01*
X112200001Y-101624142D02*
X112152382Y-101671761D01*
X112152382Y-101671761D02*
X112057144Y-101719380D01*
X112057144Y-101719380D02*
X111914287Y-101719380D01*
X113847620Y-101719380D02*
X113514287Y-101243190D01*
X113276192Y-101719380D02*
X113276192Y-100719380D01*
X113276192Y-100719380D02*
X113657144Y-100719380D01*
X113657144Y-100719380D02*
X113752382Y-100767000D01*
X113752382Y-100767000D02*
X113800001Y-100814619D01*
X113800001Y-100814619D02*
X113847620Y-100909857D01*
X113847620Y-100909857D02*
X113847620Y-101052714D01*
X113847620Y-101052714D02*
X113800001Y-101147952D01*
X113800001Y-101147952D02*
X113752382Y-101195571D01*
X113752382Y-101195571D02*
X113657144Y-101243190D01*
X113657144Y-101243190D02*
X113276192Y-101243190D01*
X114180954Y-100719380D02*
X114847620Y-100719380D01*
X114847620Y-100719380D02*
X114419049Y-101719380D01*
X115828573Y-101052714D02*
X115828573Y-102052714D01*
X115828573Y-101100333D02*
X115923811Y-101052714D01*
X115923811Y-101052714D02*
X116114287Y-101052714D01*
X116114287Y-101052714D02*
X116209525Y-101100333D01*
X116209525Y-101100333D02*
X116257144Y-101147952D01*
X116257144Y-101147952D02*
X116304763Y-101243190D01*
X116304763Y-101243190D02*
X116304763Y-101528904D01*
X116304763Y-101528904D02*
X116257144Y-101624142D01*
X116257144Y-101624142D02*
X116209525Y-101671761D01*
X116209525Y-101671761D02*
X116114287Y-101719380D01*
X116114287Y-101719380D02*
X115923811Y-101719380D01*
X115923811Y-101719380D02*
X115828573Y-101671761D01*
X116876192Y-101719380D02*
X116780954Y-101671761D01*
X116780954Y-101671761D02*
X116733335Y-101624142D01*
X116733335Y-101624142D02*
X116685716Y-101528904D01*
X116685716Y-101528904D02*
X116685716Y-101243190D01*
X116685716Y-101243190D02*
X116733335Y-101147952D01*
X116733335Y-101147952D02*
X116780954Y-101100333D01*
X116780954Y-101100333D02*
X116876192Y-101052714D01*
X116876192Y-101052714D02*
X117019049Y-101052714D01*
X117019049Y-101052714D02*
X117114287Y-101100333D01*
X117114287Y-101100333D02*
X117161906Y-101147952D01*
X117161906Y-101147952D02*
X117209525Y-101243190D01*
X117209525Y-101243190D02*
X117209525Y-101528904D01*
X117209525Y-101528904D02*
X117161906Y-101624142D01*
X117161906Y-101624142D02*
X117114287Y-101671761D01*
X117114287Y-101671761D02*
X117019049Y-101719380D01*
X117019049Y-101719380D02*
X116876192Y-101719380D01*
X117590478Y-101671761D02*
X117685716Y-101719380D01*
X117685716Y-101719380D02*
X117876192Y-101719380D01*
X117876192Y-101719380D02*
X117971430Y-101671761D01*
X117971430Y-101671761D02*
X118019049Y-101576523D01*
X118019049Y-101576523D02*
X118019049Y-101528904D01*
X118019049Y-101528904D02*
X117971430Y-101433666D01*
X117971430Y-101433666D02*
X117876192Y-101386047D01*
X117876192Y-101386047D02*
X117733335Y-101386047D01*
X117733335Y-101386047D02*
X117638097Y-101338428D01*
X117638097Y-101338428D02*
X117590478Y-101243190D01*
X117590478Y-101243190D02*
X117590478Y-101195571D01*
X117590478Y-101195571D02*
X117638097Y-101100333D01*
X117638097Y-101100333D02*
X117733335Y-101052714D01*
X117733335Y-101052714D02*
X117876192Y-101052714D01*
X117876192Y-101052714D02*
X117971430Y-101100333D01*
X118447621Y-101719380D02*
X118447621Y-101052714D01*
X118447621Y-100719380D02*
X118400002Y-100767000D01*
X118400002Y-100767000D02*
X118447621Y-100814619D01*
X118447621Y-100814619D02*
X118495240Y-100767000D01*
X118495240Y-100767000D02*
X118447621Y-100719380D01*
X118447621Y-100719380D02*
X118447621Y-100814619D01*
X118780954Y-101052714D02*
X119161906Y-101052714D01*
X118923811Y-100719380D02*
X118923811Y-101576523D01*
X118923811Y-101576523D02*
X118971430Y-101671761D01*
X118971430Y-101671761D02*
X119066668Y-101719380D01*
X119066668Y-101719380D02*
X119161906Y-101719380D01*
X119495240Y-101719380D02*
X119495240Y-101052714D01*
X119495240Y-100719380D02*
X119447621Y-100767000D01*
X119447621Y-100767000D02*
X119495240Y-100814619D01*
X119495240Y-100814619D02*
X119542859Y-100767000D01*
X119542859Y-100767000D02*
X119495240Y-100719380D01*
X119495240Y-100719380D02*
X119495240Y-100814619D01*
X120114287Y-101719380D02*
X120019049Y-101671761D01*
X120019049Y-101671761D02*
X119971430Y-101624142D01*
X119971430Y-101624142D02*
X119923811Y-101528904D01*
X119923811Y-101528904D02*
X119923811Y-101243190D01*
X119923811Y-101243190D02*
X119971430Y-101147952D01*
X119971430Y-101147952D02*
X120019049Y-101100333D01*
X120019049Y-101100333D02*
X120114287Y-101052714D01*
X120114287Y-101052714D02*
X120257144Y-101052714D01*
X120257144Y-101052714D02*
X120352382Y-101100333D01*
X120352382Y-101100333D02*
X120400001Y-101147952D01*
X120400001Y-101147952D02*
X120447620Y-101243190D01*
X120447620Y-101243190D02*
X120447620Y-101528904D01*
X120447620Y-101528904D02*
X120400001Y-101624142D01*
X120400001Y-101624142D02*
X120352382Y-101671761D01*
X120352382Y-101671761D02*
X120257144Y-101719380D01*
X120257144Y-101719380D02*
X120114287Y-101719380D01*
X120876192Y-101052714D02*
X120876192Y-101719380D01*
X120876192Y-101147952D02*
X120923811Y-101100333D01*
X120923811Y-101100333D02*
X121019049Y-101052714D01*
X121019049Y-101052714D02*
X121161906Y-101052714D01*
X121161906Y-101052714D02*
X121257144Y-101100333D01*
X121257144Y-101100333D02*
X121304763Y-101195571D01*
X121304763Y-101195571D02*
X121304763Y-101719380D01*
X102190476Y-103291761D02*
X102333333Y-103339380D01*
X102333333Y-103339380D02*
X102571428Y-103339380D01*
X102571428Y-103339380D02*
X102666666Y-103291761D01*
X102666666Y-103291761D02*
X102714285Y-103244142D01*
X102714285Y-103244142D02*
X102761904Y-103148904D01*
X102761904Y-103148904D02*
X102761904Y-103053666D01*
X102761904Y-103053666D02*
X102714285Y-102958428D01*
X102714285Y-102958428D02*
X102666666Y-102910809D01*
X102666666Y-102910809D02*
X102571428Y-102863190D01*
X102571428Y-102863190D02*
X102380952Y-102815571D01*
X102380952Y-102815571D02*
X102285714Y-102767952D01*
X102285714Y-102767952D02*
X102238095Y-102720333D01*
X102238095Y-102720333D02*
X102190476Y-102625095D01*
X102190476Y-102625095D02*
X102190476Y-102529857D01*
X102190476Y-102529857D02*
X102238095Y-102434619D01*
X102238095Y-102434619D02*
X102285714Y-102387000D01*
X102285714Y-102387000D02*
X102380952Y-102339380D01*
X102380952Y-102339380D02*
X102619047Y-102339380D01*
X102619047Y-102339380D02*
X102761904Y-102387000D01*
X103333333Y-103339380D02*
X103238095Y-103291761D01*
X103238095Y-103291761D02*
X103190476Y-103244142D01*
X103190476Y-103244142D02*
X103142857Y-103148904D01*
X103142857Y-103148904D02*
X103142857Y-102863190D01*
X103142857Y-102863190D02*
X103190476Y-102767952D01*
X103190476Y-102767952D02*
X103238095Y-102720333D01*
X103238095Y-102720333D02*
X103333333Y-102672714D01*
X103333333Y-102672714D02*
X103476190Y-102672714D01*
X103476190Y-102672714D02*
X103571428Y-102720333D01*
X103571428Y-102720333D02*
X103619047Y-102767952D01*
X103619047Y-102767952D02*
X103666666Y-102863190D01*
X103666666Y-102863190D02*
X103666666Y-103148904D01*
X103666666Y-103148904D02*
X103619047Y-103244142D01*
X103619047Y-103244142D02*
X103571428Y-103291761D01*
X103571428Y-103291761D02*
X103476190Y-103339380D01*
X103476190Y-103339380D02*
X103333333Y-103339380D01*
X104238095Y-103339380D02*
X104142857Y-103291761D01*
X104142857Y-103291761D02*
X104095238Y-103196523D01*
X104095238Y-103196523D02*
X104095238Y-102339380D01*
X105047619Y-103339380D02*
X105047619Y-102339380D01*
X105047619Y-103291761D02*
X104952381Y-103339380D01*
X104952381Y-103339380D02*
X104761905Y-103339380D01*
X104761905Y-103339380D02*
X104666667Y-103291761D01*
X104666667Y-103291761D02*
X104619048Y-103244142D01*
X104619048Y-103244142D02*
X104571429Y-103148904D01*
X104571429Y-103148904D02*
X104571429Y-102863190D01*
X104571429Y-102863190D02*
X104619048Y-102767952D01*
X104619048Y-102767952D02*
X104666667Y-102720333D01*
X104666667Y-102720333D02*
X104761905Y-102672714D01*
X104761905Y-102672714D02*
X104952381Y-102672714D01*
X104952381Y-102672714D02*
X105047619Y-102720333D01*
X105904762Y-103291761D02*
X105809524Y-103339380D01*
X105809524Y-103339380D02*
X105619048Y-103339380D01*
X105619048Y-103339380D02*
X105523810Y-103291761D01*
X105523810Y-103291761D02*
X105476191Y-103196523D01*
X105476191Y-103196523D02*
X105476191Y-102815571D01*
X105476191Y-102815571D02*
X105523810Y-102720333D01*
X105523810Y-102720333D02*
X105619048Y-102672714D01*
X105619048Y-102672714D02*
X105809524Y-102672714D01*
X105809524Y-102672714D02*
X105904762Y-102720333D01*
X105904762Y-102720333D02*
X105952381Y-102815571D01*
X105952381Y-102815571D02*
X105952381Y-102910809D01*
X105952381Y-102910809D02*
X105476191Y-103006047D01*
X106380953Y-103339380D02*
X106380953Y-102672714D01*
X106380953Y-102863190D02*
X106428572Y-102767952D01*
X106428572Y-102767952D02*
X106476191Y-102720333D01*
X106476191Y-102720333D02*
X106571429Y-102672714D01*
X106571429Y-102672714D02*
X106666667Y-102672714D01*
X107742858Y-103339380D02*
X107647620Y-103291761D01*
X107647620Y-103291761D02*
X107600001Y-103244142D01*
X107600001Y-103244142D02*
X107552382Y-103148904D01*
X107552382Y-103148904D02*
X107552382Y-102863190D01*
X107552382Y-102863190D02*
X107600001Y-102767952D01*
X107600001Y-102767952D02*
X107647620Y-102720333D01*
X107647620Y-102720333D02*
X107742858Y-102672714D01*
X107742858Y-102672714D02*
X107885715Y-102672714D01*
X107885715Y-102672714D02*
X107980953Y-102720333D01*
X107980953Y-102720333D02*
X108028572Y-102767952D01*
X108028572Y-102767952D02*
X108076191Y-102863190D01*
X108076191Y-102863190D02*
X108076191Y-103148904D01*
X108076191Y-103148904D02*
X108028572Y-103244142D01*
X108028572Y-103244142D02*
X107980953Y-103291761D01*
X107980953Y-103291761D02*
X107885715Y-103339380D01*
X107885715Y-103339380D02*
X107742858Y-103339380D01*
X108504763Y-102672714D02*
X108504763Y-103339380D01*
X108504763Y-102767952D02*
X108552382Y-102720333D01*
X108552382Y-102720333D02*
X108647620Y-102672714D01*
X108647620Y-102672714D02*
X108790477Y-102672714D01*
X108790477Y-102672714D02*
X108885715Y-102720333D01*
X108885715Y-102720333D02*
X108933334Y-102815571D01*
X108933334Y-102815571D02*
X108933334Y-103339380D01*
X109552382Y-103339380D02*
X109457144Y-103291761D01*
X109457144Y-103291761D02*
X109409525Y-103196523D01*
X109409525Y-103196523D02*
X109409525Y-102339380D01*
X109838097Y-102672714D02*
X110076192Y-103339380D01*
X110314287Y-102672714D02*
X110076192Y-103339380D01*
X110076192Y-103339380D02*
X109980954Y-103577476D01*
X109980954Y-103577476D02*
X109933335Y-103625095D01*
X109933335Y-103625095D02*
X109838097Y-103672714D01*
X111438097Y-103339380D02*
X111342859Y-103291761D01*
X111342859Y-103291761D02*
X111295240Y-103244142D01*
X111295240Y-103244142D02*
X111247621Y-103148904D01*
X111247621Y-103148904D02*
X111247621Y-102863190D01*
X111247621Y-102863190D02*
X111295240Y-102767952D01*
X111295240Y-102767952D02*
X111342859Y-102720333D01*
X111342859Y-102720333D02*
X111438097Y-102672714D01*
X111438097Y-102672714D02*
X111580954Y-102672714D01*
X111580954Y-102672714D02*
X111676192Y-102720333D01*
X111676192Y-102720333D02*
X111723811Y-102767952D01*
X111723811Y-102767952D02*
X111771430Y-102863190D01*
X111771430Y-102863190D02*
X111771430Y-103148904D01*
X111771430Y-103148904D02*
X111723811Y-103244142D01*
X111723811Y-103244142D02*
X111676192Y-103291761D01*
X111676192Y-103291761D02*
X111580954Y-103339380D01*
X111580954Y-103339380D02*
X111438097Y-103339380D01*
X112200002Y-102672714D02*
X112200002Y-103339380D01*
X112200002Y-102767952D02*
X112247621Y-102720333D01*
X112247621Y-102720333D02*
X112342859Y-102672714D01*
X112342859Y-102672714D02*
X112485716Y-102672714D01*
X112485716Y-102672714D02*
X112580954Y-102720333D01*
X112580954Y-102720333D02*
X112628573Y-102815571D01*
X112628573Y-102815571D02*
X112628573Y-103339380D01*
X113485716Y-103291761D02*
X113390478Y-103339380D01*
X113390478Y-103339380D02*
X113200002Y-103339380D01*
X113200002Y-103339380D02*
X113104764Y-103291761D01*
X113104764Y-103291761D02*
X113057145Y-103196523D01*
X113057145Y-103196523D02*
X113057145Y-102815571D01*
X113057145Y-102815571D02*
X113104764Y-102720333D01*
X113104764Y-102720333D02*
X113200002Y-102672714D01*
X113200002Y-102672714D02*
X113390478Y-102672714D01*
X113390478Y-102672714D02*
X113485716Y-102720333D01*
X113485716Y-102720333D02*
X113533335Y-102815571D01*
X113533335Y-102815571D02*
X113533335Y-102910809D01*
X113533335Y-102910809D02*
X113057145Y-103006047D01*
X115133335Y-103244142D02*
X115085716Y-103291761D01*
X115085716Y-103291761D02*
X114942859Y-103339380D01*
X114942859Y-103339380D02*
X114847621Y-103339380D01*
X114847621Y-103339380D02*
X114704764Y-103291761D01*
X114704764Y-103291761D02*
X114609526Y-103196523D01*
X114609526Y-103196523D02*
X114561907Y-103101285D01*
X114561907Y-103101285D02*
X114514288Y-102910809D01*
X114514288Y-102910809D02*
X114514288Y-102767952D01*
X114514288Y-102767952D02*
X114561907Y-102577476D01*
X114561907Y-102577476D02*
X114609526Y-102482238D01*
X114609526Y-102482238D02*
X114704764Y-102387000D01*
X114704764Y-102387000D02*
X114847621Y-102339380D01*
X114847621Y-102339380D02*
X114942859Y-102339380D01*
X114942859Y-102339380D02*
X115085716Y-102387000D01*
X115085716Y-102387000D02*
X115133335Y-102434619D01*
X116590478Y-103339380D02*
X116590478Y-102815571D01*
X116590478Y-102815571D02*
X116542859Y-102720333D01*
X116542859Y-102720333D02*
X116447621Y-102672714D01*
X116447621Y-102672714D02*
X116257145Y-102672714D01*
X116257145Y-102672714D02*
X116161907Y-102720333D01*
X116590478Y-103291761D02*
X116495240Y-103339380D01*
X116495240Y-103339380D02*
X116257145Y-103339380D01*
X116257145Y-103339380D02*
X116161907Y-103291761D01*
X116161907Y-103291761D02*
X116114288Y-103196523D01*
X116114288Y-103196523D02*
X116114288Y-103101285D01*
X116114288Y-103101285D02*
X116161907Y-103006047D01*
X116161907Y-103006047D02*
X116257145Y-102958428D01*
X116257145Y-102958428D02*
X116495240Y-102958428D01*
X116495240Y-102958428D02*
X116590478Y-102910809D01*
X117066669Y-102672714D02*
X117066669Y-103339380D01*
X117066669Y-102767952D02*
X117114288Y-102720333D01*
X117114288Y-102720333D02*
X117209526Y-102672714D01*
X117209526Y-102672714D02*
X117352383Y-102672714D01*
X117352383Y-102672714D02*
X117447621Y-102720333D01*
X117447621Y-102720333D02*
X117495240Y-102815571D01*
X117495240Y-102815571D02*
X117495240Y-103339380D01*
X118400002Y-103339380D02*
X118400002Y-102339380D01*
X118400002Y-103291761D02*
X118304764Y-103339380D01*
X118304764Y-103339380D02*
X118114288Y-103339380D01*
X118114288Y-103339380D02*
X118019050Y-103291761D01*
X118019050Y-103291761D02*
X117971431Y-103244142D01*
X117971431Y-103244142D02*
X117923812Y-103148904D01*
X117923812Y-103148904D02*
X117923812Y-102863190D01*
X117923812Y-102863190D02*
X117971431Y-102767952D01*
X117971431Y-102767952D02*
X118019050Y-102720333D01*
X118019050Y-102720333D02*
X118114288Y-102672714D01*
X118114288Y-102672714D02*
X118304764Y-102672714D01*
X118304764Y-102672714D02*
X118400002Y-102720333D01*
X119619050Y-103339380D02*
X119523812Y-103291761D01*
X119523812Y-103291761D02*
X119476193Y-103244142D01*
X119476193Y-103244142D02*
X119428574Y-103148904D01*
X119428574Y-103148904D02*
X119428574Y-102863190D01*
X119428574Y-102863190D02*
X119476193Y-102767952D01*
X119476193Y-102767952D02*
X119523812Y-102720333D01*
X119523812Y-102720333D02*
X119619050Y-102672714D01*
X119619050Y-102672714D02*
X119761907Y-102672714D01*
X119761907Y-102672714D02*
X119857145Y-102720333D01*
X119857145Y-102720333D02*
X119904764Y-102767952D01*
X119904764Y-102767952D02*
X119952383Y-102863190D01*
X119952383Y-102863190D02*
X119952383Y-103148904D01*
X119952383Y-103148904D02*
X119904764Y-103244142D01*
X119904764Y-103244142D02*
X119857145Y-103291761D01*
X119857145Y-103291761D02*
X119761907Y-103339380D01*
X119761907Y-103339380D02*
X119619050Y-103339380D01*
X120380955Y-102672714D02*
X120380955Y-103339380D01*
X120380955Y-102767952D02*
X120428574Y-102720333D01*
X120428574Y-102720333D02*
X120523812Y-102672714D01*
X120523812Y-102672714D02*
X120666669Y-102672714D01*
X120666669Y-102672714D02*
X120761907Y-102720333D01*
X120761907Y-102720333D02*
X120809526Y-102815571D01*
X120809526Y-102815571D02*
X120809526Y-103339380D01*
X121666669Y-103291761D02*
X121571431Y-103339380D01*
X121571431Y-103339380D02*
X121380955Y-103339380D01*
X121380955Y-103339380D02*
X121285717Y-103291761D01*
X121285717Y-103291761D02*
X121238098Y-103196523D01*
X121238098Y-103196523D02*
X121238098Y-102815571D01*
X121238098Y-102815571D02*
X121285717Y-102720333D01*
X121285717Y-102720333D02*
X121380955Y-102672714D01*
X121380955Y-102672714D02*
X121571431Y-102672714D01*
X121571431Y-102672714D02*
X121666669Y-102720333D01*
X121666669Y-102720333D02*
X121714288Y-102815571D01*
X121714288Y-102815571D02*
X121714288Y-102910809D01*
X121714288Y-102910809D02*
X121238098Y-103006047D01*
X123314288Y-103339380D02*
X122980955Y-102863190D01*
X122742860Y-103339380D02*
X122742860Y-102339380D01*
X122742860Y-102339380D02*
X123123812Y-102339380D01*
X123123812Y-102339380D02*
X123219050Y-102387000D01*
X123219050Y-102387000D02*
X123266669Y-102434619D01*
X123266669Y-102434619D02*
X123314288Y-102529857D01*
X123314288Y-102529857D02*
X123314288Y-102672714D01*
X123314288Y-102672714D02*
X123266669Y-102767952D01*
X123266669Y-102767952D02*
X123219050Y-102815571D01*
X123219050Y-102815571D02*
X123123812Y-102863190D01*
X123123812Y-102863190D02*
X122742860Y-102863190D01*
X123742860Y-103244142D02*
X123790479Y-103291761D01*
X123790479Y-103291761D02*
X123742860Y-103339380D01*
X123742860Y-103339380D02*
X123695241Y-103291761D01*
X123695241Y-103291761D02*
X123742860Y-103244142D01*
X123742860Y-103244142D02*
X123742860Y-103339380D01*
X123742860Y-102958428D02*
X123695241Y-102387000D01*
X123695241Y-102387000D02*
X123742860Y-102339380D01*
X123742860Y-102339380D02*
X123790479Y-102387000D01*
X123790479Y-102387000D02*
X123742860Y-102958428D01*
X123742860Y-102958428D02*
X123742860Y-102339380D01*
D10*
X161385571Y-102004761D02*
X161528428Y-102052380D01*
X161528428Y-102052380D02*
X161766523Y-102052380D01*
X161766523Y-102052380D02*
X161861761Y-102004761D01*
X161861761Y-102004761D02*
X161909380Y-101957142D01*
X161909380Y-101957142D02*
X161956999Y-101861904D01*
X161956999Y-101861904D02*
X161956999Y-101766666D01*
X161956999Y-101766666D02*
X161909380Y-101671428D01*
X161909380Y-101671428D02*
X161861761Y-101623809D01*
X161861761Y-101623809D02*
X161766523Y-101576190D01*
X161766523Y-101576190D02*
X161576047Y-101528571D01*
X161576047Y-101528571D02*
X161480809Y-101480952D01*
X161480809Y-101480952D02*
X161433190Y-101433333D01*
X161433190Y-101433333D02*
X161385571Y-101338095D01*
X161385571Y-101338095D02*
X161385571Y-101242857D01*
X161385571Y-101242857D02*
X161433190Y-101147619D01*
X161433190Y-101147619D02*
X161480809Y-101100000D01*
X161480809Y-101100000D02*
X161576047Y-101052380D01*
X161576047Y-101052380D02*
X161814142Y-101052380D01*
X161814142Y-101052380D02*
X161956999Y-101100000D01*
X162956999Y-101957142D02*
X162909380Y-102004761D01*
X162909380Y-102004761D02*
X162766523Y-102052380D01*
X162766523Y-102052380D02*
X162671285Y-102052380D01*
X162671285Y-102052380D02*
X162528428Y-102004761D01*
X162528428Y-102004761D02*
X162433190Y-101909523D01*
X162433190Y-101909523D02*
X162385571Y-101814285D01*
X162385571Y-101814285D02*
X162337952Y-101623809D01*
X162337952Y-101623809D02*
X162337952Y-101480952D01*
X162337952Y-101480952D02*
X162385571Y-101290476D01*
X162385571Y-101290476D02*
X162433190Y-101195238D01*
X162433190Y-101195238D02*
X162528428Y-101100000D01*
X162528428Y-101100000D02*
X162671285Y-101052380D01*
X162671285Y-101052380D02*
X162766523Y-101052380D01*
X162766523Y-101052380D02*
X162909380Y-101100000D01*
X162909380Y-101100000D02*
X162956999Y-101147619D01*
X163861761Y-102052380D02*
X163385571Y-102052380D01*
X163385571Y-102052380D02*
X163385571Y-101052380D01*
X166014095Y-94268380D02*
X166014095Y-93268380D01*
X166014095Y-93268380D02*
X166252190Y-93268380D01*
X166252190Y-93268380D02*
X166395047Y-93316000D01*
X166395047Y-93316000D02*
X166490285Y-93411238D01*
X166490285Y-93411238D02*
X166537904Y-93506476D01*
X166537904Y-93506476D02*
X166585523Y-93696952D01*
X166585523Y-93696952D02*
X166585523Y-93839809D01*
X166585523Y-93839809D02*
X166537904Y-94030285D01*
X166537904Y-94030285D02*
X166490285Y-94125523D01*
X166490285Y-94125523D02*
X166395047Y-94220761D01*
X166395047Y-94220761D02*
X166252190Y-94268380D01*
X166252190Y-94268380D02*
X166014095Y-94268380D01*
X167585523Y-94173142D02*
X167537904Y-94220761D01*
X167537904Y-94220761D02*
X167395047Y-94268380D01*
X167395047Y-94268380D02*
X167299809Y-94268380D01*
X167299809Y-94268380D02*
X167156952Y-94220761D01*
X167156952Y-94220761D02*
X167061714Y-94125523D01*
X167061714Y-94125523D02*
X167014095Y-94030285D01*
X167014095Y-94030285D02*
X166966476Y-93839809D01*
X166966476Y-93839809D02*
X166966476Y-93696952D01*
X166966476Y-93696952D02*
X167014095Y-93506476D01*
X167014095Y-93506476D02*
X167061714Y-93411238D01*
X167061714Y-93411238D02*
X167156952Y-93316000D01*
X167156952Y-93316000D02*
X167299809Y-93268380D01*
X167299809Y-93268380D02*
X167395047Y-93268380D01*
X167395047Y-93268380D02*
X167537904Y-93316000D01*
X167537904Y-93316000D02*
X167585523Y-93363619D01*
%TO.C,J1*%
X165655666Y-108864380D02*
X165655666Y-109578666D01*
X165655666Y-109578666D02*
X165608047Y-109721523D01*
X165608047Y-109721523D02*
X165512809Y-109816761D01*
X165512809Y-109816761D02*
X165369952Y-109864380D01*
X165369952Y-109864380D02*
X165274714Y-109864380D01*
X166655666Y-109864380D02*
X166084238Y-109864380D01*
X166369952Y-109864380D02*
X166369952Y-108864380D01*
X166369952Y-108864380D02*
X166274714Y-109007238D01*
X166274714Y-109007238D02*
X166179476Y-109102476D01*
X166179476Y-109102476D02*
X166084238Y-109150095D01*
%TO.C,C1*%
X141179010Y-98936142D02*
X141131391Y-98983761D01*
X141131391Y-98983761D02*
X140988534Y-99031380D01*
X140988534Y-99031380D02*
X140893296Y-99031380D01*
X140893296Y-99031380D02*
X140750439Y-98983761D01*
X140750439Y-98983761D02*
X140655201Y-98888523D01*
X140655201Y-98888523D02*
X140607582Y-98793285D01*
X140607582Y-98793285D02*
X140559963Y-98602809D01*
X140559963Y-98602809D02*
X140559963Y-98459952D01*
X140559963Y-98459952D02*
X140607582Y-98269476D01*
X140607582Y-98269476D02*
X140655201Y-98174238D01*
X140655201Y-98174238D02*
X140750439Y-98079000D01*
X140750439Y-98079000D02*
X140893296Y-98031380D01*
X140893296Y-98031380D02*
X140988534Y-98031380D01*
X140988534Y-98031380D02*
X141131391Y-98079000D01*
X141131391Y-98079000D02*
X141179010Y-98126619D01*
X142131391Y-99031380D02*
X141559963Y-99031380D01*
X141845677Y-99031380D02*
X141845677Y-98031380D01*
X141845677Y-98031380D02*
X141750439Y-98174238D01*
X141750439Y-98174238D02*
X141655201Y-98269476D01*
X141655201Y-98269476D02*
X141559963Y-98317095D01*
%TO.C,R1*%
X152995333Y-96802380D02*
X152662000Y-96326190D01*
X152423905Y-96802380D02*
X152423905Y-95802380D01*
X152423905Y-95802380D02*
X152804857Y-95802380D01*
X152804857Y-95802380D02*
X152900095Y-95850000D01*
X152900095Y-95850000D02*
X152947714Y-95897619D01*
X152947714Y-95897619D02*
X152995333Y-95992857D01*
X152995333Y-95992857D02*
X152995333Y-96135714D01*
X152995333Y-96135714D02*
X152947714Y-96230952D01*
X152947714Y-96230952D02*
X152900095Y-96278571D01*
X152900095Y-96278571D02*
X152804857Y-96326190D01*
X152804857Y-96326190D02*
X152423905Y-96326190D01*
X153947714Y-96802380D02*
X153376286Y-96802380D01*
X153662000Y-96802380D02*
X153662000Y-95802380D01*
X153662000Y-95802380D02*
X153566762Y-95945238D01*
X153566762Y-95945238D02*
X153471524Y-96040476D01*
X153471524Y-96040476D02*
X153376286Y-96088095D01*
X152471523Y-91395714D02*
X152471523Y-92062380D01*
X152233428Y-91014761D02*
X151995333Y-91729047D01*
X151995333Y-91729047D02*
X152614380Y-91729047D01*
X152995333Y-92062380D02*
X152995333Y-91062380D01*
X153090571Y-91681428D02*
X153376285Y-92062380D01*
X153376285Y-91395714D02*
X152995333Y-91776666D01*
X153709619Y-91062380D02*
X154376285Y-91062380D01*
X154376285Y-91062380D02*
X153947714Y-92062380D01*
D14*
%TO.C,J1*%
X167319000Y-107972000D02*
X165989000Y-107972000D01*
X167319000Y-106642000D02*
X167319000Y-107972000D01*
X167319000Y-105372000D02*
X167319000Y-97692000D01*
X167319000Y-105372000D02*
X164659000Y-105372000D01*
X167319000Y-97692000D02*
X164659000Y-97692000D01*
X164659000Y-105372000D02*
X164659000Y-97692000D01*
%TO.C,R1*%
X153389064Y-98779000D02*
X152934936Y-98779000D01*
X153389064Y-97309000D02*
X152934936Y-97309000D01*
%TO.C,C1*%
X146825323Y-95204000D02*
X145825323Y-95204000D01*
X146325323Y-95704000D02*
X146325323Y-94704000D01*
X141345677Y-97409000D02*
X141345677Y-87249000D01*
X141305677Y-97409000D02*
X141305677Y-87249000D01*
X141265677Y-97409000D02*
X141265677Y-87249000D01*
X141225677Y-97408000D02*
X141225677Y-87250000D01*
X141185677Y-97407000D02*
X141185677Y-87251000D01*
X141145677Y-97406000D02*
X141145677Y-87252000D01*
X141105677Y-97404000D02*
X141105677Y-93369000D01*
X141105677Y-91289000D02*
X141105677Y-87254000D01*
X141065677Y-97402000D02*
X141065677Y-93369000D01*
X141065677Y-91289000D02*
X141065677Y-87256000D01*
X141025677Y-97399000D02*
X141025677Y-93369000D01*
X141025677Y-91289000D02*
X141025677Y-87259000D01*
X140985677Y-97397000D02*
X140985677Y-93369000D01*
X140985677Y-91289000D02*
X140985677Y-87261000D01*
X140945677Y-97394000D02*
X140945677Y-93369000D01*
X140945677Y-91289000D02*
X140945677Y-87264000D01*
X140905677Y-97391000D02*
X140905677Y-93369000D01*
X140905677Y-91289000D02*
X140905677Y-87267000D01*
X140865677Y-97387000D02*
X140865677Y-93369000D01*
X140865677Y-91289000D02*
X140865677Y-87271000D01*
X140825677Y-97383000D02*
X140825677Y-93369000D01*
X140825677Y-91289000D02*
X140825677Y-87275000D01*
X140785677Y-97379000D02*
X140785677Y-93369000D01*
X140785677Y-91289000D02*
X140785677Y-87279000D01*
X140745677Y-97374000D02*
X140745677Y-93369000D01*
X140745677Y-91289000D02*
X140745677Y-87284000D01*
X140705677Y-97369000D02*
X140705677Y-93369000D01*
X140705677Y-91289000D02*
X140705677Y-87289000D01*
X140665677Y-97364000D02*
X140665677Y-93369000D01*
X140665677Y-91289000D02*
X140665677Y-87294000D01*
X140624677Y-97359000D02*
X140624677Y-93369000D01*
X140624677Y-91289000D02*
X140624677Y-87299000D01*
X140584677Y-97353000D02*
X140584677Y-93369000D01*
X140584677Y-91289000D02*
X140584677Y-87305000D01*
X140544677Y-97347000D02*
X140544677Y-93369000D01*
X140544677Y-91289000D02*
X140544677Y-87311000D01*
X140504677Y-97340000D02*
X140504677Y-93369000D01*
X140504677Y-91289000D02*
X140504677Y-87318000D01*
X140464677Y-97333000D02*
X140464677Y-93369000D01*
X140464677Y-91289000D02*
X140464677Y-87325000D01*
X140424677Y-97326000D02*
X140424677Y-93369000D01*
X140424677Y-89689000D02*
X140424677Y-87332000D01*
X140384677Y-97319000D02*
X140384677Y-93369000D01*
X140384677Y-89689000D02*
X140384677Y-87339000D01*
X140344677Y-97311000D02*
X140344677Y-93369000D01*
X140344677Y-89689000D02*
X140344677Y-87347000D01*
X140304677Y-97303000D02*
X140304677Y-93369000D01*
X140304677Y-89689000D02*
X140304677Y-87355000D01*
X140264677Y-97294000D02*
X140264677Y-93369000D01*
X140264677Y-89689000D02*
X140264677Y-87364000D01*
X140224677Y-97285000D02*
X140224677Y-93369000D01*
X140224677Y-89689000D02*
X140224677Y-87373000D01*
X140184677Y-97276000D02*
X140184677Y-93369000D01*
X140184677Y-89689000D02*
X140184677Y-87382000D01*
X140144677Y-97267000D02*
X140144677Y-93369000D01*
X140144677Y-89689000D02*
X140144677Y-87391000D01*
X140104677Y-97257000D02*
X140104677Y-93369000D01*
X140104677Y-89689000D02*
X140104677Y-87401000D01*
X140064677Y-97247000D02*
X140064677Y-93369000D01*
X140064677Y-89689000D02*
X140064677Y-87411000D01*
X140024677Y-97236000D02*
X140024677Y-93369000D01*
X140024677Y-89689000D02*
X140024677Y-87422000D01*
X139984677Y-97226000D02*
X139984677Y-93369000D01*
X139984677Y-89689000D02*
X139984677Y-87432000D01*
X139944677Y-97214000D02*
X139944677Y-93369000D01*
X139944677Y-89689000D02*
X139944677Y-87444000D01*
X139904677Y-97203000D02*
X139904677Y-93369000D01*
X139904677Y-89689000D02*
X139904677Y-87455000D01*
X139864677Y-97191000D02*
X139864677Y-93369000D01*
X139864677Y-89689000D02*
X139864677Y-87467000D01*
X139824677Y-97179000D02*
X139824677Y-93369000D01*
X139824677Y-89689000D02*
X139824677Y-87479000D01*
X139784677Y-97166000D02*
X139784677Y-93369000D01*
X139784677Y-89689000D02*
X139784677Y-87492000D01*
X139744677Y-97153000D02*
X139744677Y-93369000D01*
X139744677Y-89689000D02*
X139744677Y-87505000D01*
X139704677Y-97140000D02*
X139704677Y-93369000D01*
X139704677Y-89689000D02*
X139704677Y-87518000D01*
X139664677Y-97126000D02*
X139664677Y-93369000D01*
X139664677Y-89689000D02*
X139664677Y-87532000D01*
X139624677Y-97112000D02*
X139624677Y-93369000D01*
X139624677Y-89689000D02*
X139624677Y-87546000D01*
X139584677Y-97097000D02*
X139584677Y-93369000D01*
X139584677Y-89689000D02*
X139584677Y-87561000D01*
X139544677Y-97083000D02*
X139544677Y-93369000D01*
X139544677Y-89689000D02*
X139544677Y-87575000D01*
X139504677Y-97067000D02*
X139504677Y-93369000D01*
X139504677Y-89689000D02*
X139504677Y-87591000D01*
X139464677Y-97052000D02*
X139464677Y-93369000D01*
X139464677Y-89689000D02*
X139464677Y-87606000D01*
X139424677Y-97036000D02*
X139424677Y-93369000D01*
X139424677Y-89689000D02*
X139424677Y-87622000D01*
X139384677Y-97019000D02*
X139384677Y-93369000D01*
X139384677Y-89689000D02*
X139384677Y-87639000D01*
X139344677Y-97003000D02*
X139344677Y-93369000D01*
X139344677Y-89689000D02*
X139344677Y-87655000D01*
X139304677Y-96986000D02*
X139304677Y-93369000D01*
X139304677Y-89689000D02*
X139304677Y-87672000D01*
X139264677Y-96968000D02*
X139264677Y-93369000D01*
X139264677Y-89689000D02*
X139264677Y-87690000D01*
X139224677Y-96950000D02*
X139224677Y-93369000D01*
X139224677Y-89689000D02*
X139224677Y-87708000D01*
X139184677Y-96932000D02*
X139184677Y-93369000D01*
X139184677Y-89689000D02*
X139184677Y-87726000D01*
X139144677Y-96913000D02*
X139144677Y-93369000D01*
X139144677Y-89689000D02*
X139144677Y-87745000D01*
X139104677Y-96893000D02*
X139104677Y-93369000D01*
X139104677Y-89689000D02*
X139104677Y-87765000D01*
X139064677Y-96874000D02*
X139064677Y-93369000D01*
X139064677Y-89689000D02*
X139064677Y-87784000D01*
X139024677Y-96854000D02*
X139024677Y-91769000D01*
X139024677Y-89689000D02*
X139024677Y-87804000D01*
X138984677Y-96833000D02*
X138984677Y-91769000D01*
X138984677Y-89689000D02*
X138984677Y-87825000D01*
X138944677Y-96812000D02*
X138944677Y-91769000D01*
X138944677Y-89689000D02*
X138944677Y-87846000D01*
X138904677Y-96791000D02*
X138904677Y-91769000D01*
X138904677Y-89689000D02*
X138904677Y-87867000D01*
X138864677Y-96769000D02*
X138864677Y-91769000D01*
X138864677Y-89689000D02*
X138864677Y-87889000D01*
X138824677Y-96746000D02*
X138824677Y-91769000D01*
X138824677Y-89689000D02*
X138824677Y-87912000D01*
X138784677Y-96724000D02*
X138784677Y-91769000D01*
X138784677Y-89689000D02*
X138784677Y-87934000D01*
X138744677Y-96700000D02*
X138744677Y-91769000D01*
X138744677Y-89689000D02*
X138744677Y-87958000D01*
X138704677Y-96676000D02*
X138704677Y-91769000D01*
X138704677Y-89689000D02*
X138704677Y-87982000D01*
X138664677Y-96652000D02*
X138664677Y-91769000D01*
X138664677Y-89689000D02*
X138664677Y-88006000D01*
X138624677Y-96627000D02*
X138624677Y-91769000D01*
X138624677Y-89689000D02*
X138624677Y-88031000D01*
X138584677Y-96602000D02*
X138584677Y-91769000D01*
X138584677Y-89689000D02*
X138584677Y-88056000D01*
X138544677Y-96576000D02*
X138544677Y-91769000D01*
X138544677Y-89689000D02*
X138544677Y-88082000D01*
X138504677Y-96550000D02*
X138504677Y-91769000D01*
X138504677Y-89689000D02*
X138504677Y-88108000D01*
X138464677Y-96523000D02*
X138464677Y-91769000D01*
X138464677Y-89689000D02*
X138464677Y-88135000D01*
X138424677Y-96495000D02*
X138424677Y-91769000D01*
X138424677Y-89689000D02*
X138424677Y-88163000D01*
X138384677Y-96467000D02*
X138384677Y-91769000D01*
X138384677Y-89689000D02*
X138384677Y-88191000D01*
X138344677Y-96439000D02*
X138344677Y-88219000D01*
X138304677Y-96409000D02*
X138304677Y-88249000D01*
X138264677Y-96379000D02*
X138264677Y-88279000D01*
X138224677Y-96349000D02*
X138224677Y-88309000D01*
X138184677Y-96318000D02*
X138184677Y-88340000D01*
X138144677Y-96286000D02*
X138144677Y-88372000D01*
X138104677Y-96254000D02*
X138104677Y-88404000D01*
X138064677Y-96221000D02*
X138064677Y-88437000D01*
X138024677Y-96187000D02*
X138024677Y-88471000D01*
X137984677Y-96153000D02*
X137984677Y-88505000D01*
X137944677Y-96118000D02*
X137944677Y-88540000D01*
X137904677Y-96082000D02*
X137904677Y-88576000D01*
X137864677Y-96045000D02*
X137864677Y-88613000D01*
X137824677Y-96008000D02*
X137824677Y-88650000D01*
X137784677Y-95969000D02*
X137784677Y-88689000D01*
X137744677Y-95930000D02*
X137744677Y-88728000D01*
X137704677Y-95890000D02*
X137704677Y-88768000D01*
X137664677Y-95849000D02*
X137664677Y-88809000D01*
X137624677Y-95807000D02*
X137624677Y-88851000D01*
X137584677Y-95765000D02*
X137584677Y-88893000D01*
X137544677Y-95721000D02*
X137544677Y-88937000D01*
X137504677Y-95676000D02*
X137504677Y-88982000D01*
X137464677Y-95630000D02*
X137464677Y-89028000D01*
X137424677Y-95583000D02*
X137424677Y-89075000D01*
X137384677Y-95535000D02*
X137384677Y-89123000D01*
X137344677Y-95485000D02*
X137344677Y-89173000D01*
X137304677Y-95435000D02*
X137304677Y-89223000D01*
X137264677Y-95383000D02*
X137264677Y-89275000D01*
X137224677Y-95329000D02*
X137224677Y-89329000D01*
X137184677Y-95274000D02*
X137184677Y-89384000D01*
X137144677Y-95218000D02*
X137144677Y-89440000D01*
X137104677Y-95159000D02*
X137104677Y-89499000D01*
X137064677Y-95099000D02*
X137064677Y-89559000D01*
X137024677Y-95038000D02*
X137024677Y-89620000D01*
X136984677Y-94974000D02*
X136984677Y-89684000D01*
X136944677Y-94908000D02*
X136944677Y-89750000D01*
X136904677Y-94839000D02*
X136904677Y-89819000D01*
X136864677Y-94768000D02*
X136864677Y-89890000D01*
X136824677Y-94694000D02*
X136824677Y-89964000D01*
X136784677Y-94618000D02*
X136784677Y-90040000D01*
X136744677Y-94538000D02*
X136744677Y-90120000D01*
X136704677Y-94454000D02*
X136704677Y-90204000D01*
X136664677Y-94366000D02*
X136664677Y-90292000D01*
X136624677Y-94273000D02*
X136624677Y-90385000D01*
X136584677Y-94175000D02*
X136584677Y-90483000D01*
X136544677Y-94071000D02*
X136544677Y-90587000D01*
X136504677Y-93959000D02*
X136504677Y-90699000D01*
X136464677Y-93839000D02*
X136464677Y-90819000D01*
X136424677Y-93707000D02*
X136424677Y-90951000D01*
X136384677Y-93559000D02*
X136384677Y-91099000D01*
X136344677Y-93391000D02*
X136344677Y-91267000D01*
X136304677Y-93191000D02*
X136304677Y-91467000D01*
X136264677Y-92928000D02*
X136264677Y-91730000D01*
X146465677Y-92329000D02*
G75*
G03*
X146465677Y-92329000I-5120000J0D01*
G01*
%TO.C,R1*%
X157202000Y-93980000D02*
X156432000Y-93980000D01*
X156432000Y-95350000D02*
X156432000Y-92610000D01*
X156432000Y-92610000D02*
X149892000Y-92610000D01*
X149892000Y-95350000D02*
X156432000Y-95350000D01*
X149892000Y-92610000D02*
X149892000Y-95350000D01*
X149122000Y-93980000D02*
X149892000Y-93980000D01*
%TO.C,c1*%
X144976000Y-104174000D02*
X144351000Y-104174000D01*
X144663500Y-104486500D02*
X144663500Y-103861500D01*
X144111000Y-104184563D02*
X144111000Y-103549000D01*
X144111000Y-104184563D02*
X143046563Y-105249000D01*
X144111000Y-100793437D02*
X144111000Y-101429000D01*
X144111000Y-100793437D02*
X143046563Y-99729000D01*
X143046563Y-105249000D02*
X138591000Y-105249000D01*
X143046563Y-99729000D02*
X138591000Y-99729000D01*
X138591000Y-105249000D02*
X138591000Y-103549000D01*
X138591000Y-99729000D02*
X138591000Y-101429000D01*
%TD*%
M02*
