%TF.GenerationSoftware,KiCad,Pcbnew,(6.99.0-1533-gf0f33ef1d3)*%
%TF.CreationDate,2022-04-06T09:11:22+02:00*%
%TF.ProjectId,freeDSP-aurora-extension-i2C-mod-display,66726565-4453-4502-9d61-75726f72612d,v1.2*%
%TF.SameCoordinates,Original*%
%TF.FileFunction,Legend,Top*%
%TF.FilePolarity,Positive*%
%FSLAX46Y46*%
G04 Gerber Fmt 4.6, Leading zero omitted, Abs format (unit mm)*
G04 Created by KiCad (PCBNEW (6.99.0-1533-gf0f33ef1d3)) date 2022-04-06 09:11:22*
%MOMM*%
%LPD*%
G01*
G04 APERTURE LIST*
%ADD10C,0.150000*%
%ADD11C,0.300000*%
%ADD12C,0.075000*%
%ADD13C,0.100000*%
%ADD14C,0.120000*%
G04 APERTURE END LIST*
D10*
X165728380Y-96723380D02*
X165395047Y-96247190D01*
X165156952Y-96723380D02*
X165156952Y-95723380D01*
X165156952Y-95723380D02*
X165537904Y-95723380D01*
X165537904Y-95723380D02*
X165633142Y-95771000D01*
X165633142Y-95771000D02*
X165680761Y-95818619D01*
X165680761Y-95818619D02*
X165728380Y-95913857D01*
X165728380Y-95913857D02*
X165728380Y-96056714D01*
X165728380Y-96056714D02*
X165680761Y-96151952D01*
X165680761Y-96151952D02*
X165633142Y-96199571D01*
X165633142Y-96199571D02*
X165537904Y-96247190D01*
X165537904Y-96247190D02*
X165156952Y-96247190D01*
X166156952Y-96199571D02*
X166490285Y-96199571D01*
X166633142Y-96723380D02*
X166156952Y-96723380D01*
X166156952Y-96723380D02*
X166156952Y-95723380D01*
X166156952Y-95723380D02*
X166633142Y-95723380D01*
X167014095Y-96675761D02*
X167156952Y-96723380D01*
X167156952Y-96723380D02*
X167395047Y-96723380D01*
X167395047Y-96723380D02*
X167490285Y-96675761D01*
X167490285Y-96675761D02*
X167537904Y-96628142D01*
X167537904Y-96628142D02*
X167585523Y-96532904D01*
X167585523Y-96532904D02*
X167585523Y-96437666D01*
X167585523Y-96437666D02*
X167537904Y-96342428D01*
X167537904Y-96342428D02*
X167490285Y-96294809D01*
X167490285Y-96294809D02*
X167395047Y-96247190D01*
X167395047Y-96247190D02*
X167204571Y-96199571D01*
X167204571Y-96199571D02*
X167109333Y-96151952D01*
X167109333Y-96151952D02*
X167061714Y-96104333D01*
X167061714Y-96104333D02*
X167014095Y-96009095D01*
X167014095Y-96009095D02*
X167014095Y-95913857D01*
X167014095Y-95913857D02*
X167061714Y-95818619D01*
X167061714Y-95818619D02*
X167109333Y-95771000D01*
X167109333Y-95771000D02*
X167204571Y-95723380D01*
X167204571Y-95723380D02*
X167442666Y-95723380D01*
X167442666Y-95723380D02*
X167585523Y-95771000D01*
D11*
X102380952Y-95837809D02*
X102380952Y-94237809D01*
X102975238Y-94287333D02*
X103028571Y-94234000D01*
X103028571Y-94234000D02*
X103135238Y-94180666D01*
X103135238Y-94180666D02*
X103401905Y-94180666D01*
X103401905Y-94180666D02*
X103508571Y-94234000D01*
X103508571Y-94234000D02*
X103561905Y-94287333D01*
X103561905Y-94287333D02*
X103615238Y-94394000D01*
X103615238Y-94394000D02*
X103615238Y-94500666D01*
X103615238Y-94500666D02*
X103561905Y-94660666D01*
X103561905Y-94660666D02*
X102921905Y-95300666D01*
X102921905Y-95300666D02*
X103615238Y-95300666D01*
X105123810Y-95685428D02*
X105047619Y-95761619D01*
X105047619Y-95761619D02*
X104819048Y-95837809D01*
X104819048Y-95837809D02*
X104666667Y-95837809D01*
X104666667Y-95837809D02*
X104438095Y-95761619D01*
X104438095Y-95761619D02*
X104285714Y-95609238D01*
X104285714Y-95609238D02*
X104209524Y-95456857D01*
X104209524Y-95456857D02*
X104133333Y-95152095D01*
X104133333Y-95152095D02*
X104133333Y-94923523D01*
X104133333Y-94923523D02*
X104209524Y-94618761D01*
X104209524Y-94618761D02*
X104285714Y-94466380D01*
X104285714Y-94466380D02*
X104438095Y-94314000D01*
X104438095Y-94314000D02*
X104666667Y-94237809D01*
X104666667Y-94237809D02*
X104819048Y-94237809D01*
X104819048Y-94237809D02*
X105047619Y-94314000D01*
X105047619Y-94314000D02*
X105123810Y-94390190D01*
X106769524Y-95837809D02*
X106769524Y-94771142D01*
X106769524Y-94923523D02*
X106845714Y-94847333D01*
X106845714Y-94847333D02*
X106998095Y-94771142D01*
X106998095Y-94771142D02*
X107226667Y-94771142D01*
X107226667Y-94771142D02*
X107379048Y-94847333D01*
X107379048Y-94847333D02*
X107455238Y-94999714D01*
X107455238Y-94999714D02*
X107455238Y-95837809D01*
X107455238Y-94999714D02*
X107531429Y-94847333D01*
X107531429Y-94847333D02*
X107683810Y-94771142D01*
X107683810Y-94771142D02*
X107912381Y-94771142D01*
X107912381Y-94771142D02*
X108064762Y-94847333D01*
X108064762Y-94847333D02*
X108140952Y-94999714D01*
X108140952Y-94999714D02*
X108140952Y-95837809D01*
X109131428Y-95837809D02*
X108979047Y-95761619D01*
X108979047Y-95761619D02*
X108902857Y-95685428D01*
X108902857Y-95685428D02*
X108826666Y-95533047D01*
X108826666Y-95533047D02*
X108826666Y-95075904D01*
X108826666Y-95075904D02*
X108902857Y-94923523D01*
X108902857Y-94923523D02*
X108979047Y-94847333D01*
X108979047Y-94847333D02*
X109131428Y-94771142D01*
X109131428Y-94771142D02*
X109360000Y-94771142D01*
X109360000Y-94771142D02*
X109512381Y-94847333D01*
X109512381Y-94847333D02*
X109588571Y-94923523D01*
X109588571Y-94923523D02*
X109664762Y-95075904D01*
X109664762Y-95075904D02*
X109664762Y-95533047D01*
X109664762Y-95533047D02*
X109588571Y-95685428D01*
X109588571Y-95685428D02*
X109512381Y-95761619D01*
X109512381Y-95761619D02*
X109360000Y-95837809D01*
X109360000Y-95837809D02*
X109131428Y-95837809D01*
X111036190Y-95837809D02*
X111036190Y-94237809D01*
X111036190Y-95761619D02*
X110883809Y-95837809D01*
X110883809Y-95837809D02*
X110579047Y-95837809D01*
X110579047Y-95837809D02*
X110426666Y-95761619D01*
X110426666Y-95761619D02*
X110350476Y-95685428D01*
X110350476Y-95685428D02*
X110274285Y-95533047D01*
X110274285Y-95533047D02*
X110274285Y-95075904D01*
X110274285Y-95075904D02*
X110350476Y-94923523D01*
X110350476Y-94923523D02*
X110426666Y-94847333D01*
X110426666Y-94847333D02*
X110579047Y-94771142D01*
X110579047Y-94771142D02*
X110883809Y-94771142D01*
X110883809Y-94771142D02*
X111036190Y-94847333D01*
X112529523Y-94771142D02*
X113139047Y-94771142D01*
X112758095Y-95837809D02*
X112758095Y-94466380D01*
X112758095Y-94466380D02*
X112834285Y-94314000D01*
X112834285Y-94314000D02*
X112986666Y-94237809D01*
X112986666Y-94237809D02*
X113139047Y-94237809D01*
X113900952Y-95837809D02*
X113748571Y-95761619D01*
X113748571Y-95761619D02*
X113672381Y-95685428D01*
X113672381Y-95685428D02*
X113596190Y-95533047D01*
X113596190Y-95533047D02*
X113596190Y-95075904D01*
X113596190Y-95075904D02*
X113672381Y-94923523D01*
X113672381Y-94923523D02*
X113748571Y-94847333D01*
X113748571Y-94847333D02*
X113900952Y-94771142D01*
X113900952Y-94771142D02*
X114129524Y-94771142D01*
X114129524Y-94771142D02*
X114281905Y-94847333D01*
X114281905Y-94847333D02*
X114358095Y-94923523D01*
X114358095Y-94923523D02*
X114434286Y-95075904D01*
X114434286Y-95075904D02*
X114434286Y-95533047D01*
X114434286Y-95533047D02*
X114358095Y-95685428D01*
X114358095Y-95685428D02*
X114281905Y-95761619D01*
X114281905Y-95761619D02*
X114129524Y-95837809D01*
X114129524Y-95837809D02*
X113900952Y-95837809D01*
X115120000Y-95837809D02*
X115120000Y-94771142D01*
X115120000Y-95075904D02*
X115196190Y-94923523D01*
X115196190Y-94923523D02*
X115272381Y-94847333D01*
X115272381Y-94847333D02*
X115424762Y-94771142D01*
X115424762Y-94771142D02*
X115577143Y-94771142D01*
X117070476Y-95837809D02*
X117070476Y-94237809D01*
X117070476Y-94237809D02*
X117451428Y-94237809D01*
X117451428Y-94237809D02*
X117680000Y-94314000D01*
X117680000Y-94314000D02*
X117832381Y-94466380D01*
X117832381Y-94466380D02*
X117908571Y-94618761D01*
X117908571Y-94618761D02*
X117984762Y-94923523D01*
X117984762Y-94923523D02*
X117984762Y-95152095D01*
X117984762Y-95152095D02*
X117908571Y-95456857D01*
X117908571Y-95456857D02*
X117832381Y-95609238D01*
X117832381Y-95609238D02*
X117680000Y-95761619D01*
X117680000Y-95761619D02*
X117451428Y-95837809D01*
X117451428Y-95837809D02*
X117070476Y-95837809D01*
X118670476Y-95837809D02*
X118670476Y-94237809D01*
X118670476Y-94237809D02*
X119203809Y-95380666D01*
X119203809Y-95380666D02*
X119737143Y-94237809D01*
X119737143Y-94237809D02*
X119737143Y-95837809D01*
X121382856Y-94390190D02*
X121459047Y-94314000D01*
X121459047Y-94314000D02*
X121611428Y-94237809D01*
X121611428Y-94237809D02*
X121992380Y-94237809D01*
X121992380Y-94237809D02*
X122144761Y-94314000D01*
X122144761Y-94314000D02*
X122220952Y-94390190D01*
X122220952Y-94390190D02*
X122297142Y-94542571D01*
X122297142Y-94542571D02*
X122297142Y-94694952D01*
X122297142Y-94694952D02*
X122220952Y-94923523D01*
X122220952Y-94923523D02*
X121306666Y-95837809D01*
X121306666Y-95837809D02*
X122297142Y-95837809D01*
X122982857Y-95685428D02*
X123059047Y-95761619D01*
X123059047Y-95761619D02*
X122982857Y-95837809D01*
X122982857Y-95837809D02*
X122906666Y-95761619D01*
X122906666Y-95761619D02*
X122982857Y-95685428D01*
X122982857Y-95685428D02*
X122982857Y-95837809D01*
X124430476Y-94771142D02*
X124430476Y-95837809D01*
X124049524Y-94161619D02*
X123668571Y-95304476D01*
X123668571Y-95304476D02*
X124659048Y-95304476D01*
X125192381Y-94237809D02*
X125192381Y-94542571D01*
X125801905Y-94237809D02*
X125801905Y-94542571D01*
X127752382Y-94237809D02*
X128057144Y-94237809D01*
X128057144Y-94237809D02*
X128209525Y-94314000D01*
X128209525Y-94314000D02*
X128361906Y-94466380D01*
X128361906Y-94466380D02*
X128438096Y-94771142D01*
X128438096Y-94771142D02*
X128438096Y-95304476D01*
X128438096Y-95304476D02*
X128361906Y-95609238D01*
X128361906Y-95609238D02*
X128209525Y-95761619D01*
X128209525Y-95761619D02*
X128057144Y-95837809D01*
X128057144Y-95837809D02*
X127752382Y-95837809D01*
X127752382Y-95837809D02*
X127600001Y-95761619D01*
X127600001Y-95761619D02*
X127447620Y-95609238D01*
X127447620Y-95609238D02*
X127371429Y-95304476D01*
X127371429Y-95304476D02*
X127371429Y-94771142D01*
X127371429Y-94771142D02*
X127447620Y-94466380D01*
X127447620Y-94466380D02*
X127600001Y-94314000D01*
X127600001Y-94314000D02*
X127752382Y-94237809D01*
X129885715Y-95837809D02*
X129123810Y-95837809D01*
X129123810Y-95837809D02*
X129123810Y-94237809D01*
X130419048Y-94999714D02*
X130952381Y-94999714D01*
X131180953Y-95837809D02*
X130419048Y-95837809D01*
X130419048Y-95837809D02*
X130419048Y-94237809D01*
X130419048Y-94237809D02*
X131180953Y-94237809D01*
X131866667Y-95837809D02*
X131866667Y-94237809D01*
X131866667Y-94237809D02*
X132247619Y-94237809D01*
X132247619Y-94237809D02*
X132476191Y-94314000D01*
X132476191Y-94314000D02*
X132628572Y-94466380D01*
X132628572Y-94466380D02*
X132704762Y-94618761D01*
X132704762Y-94618761D02*
X132780953Y-94923523D01*
X132780953Y-94923523D02*
X132780953Y-95152095D01*
X132780953Y-95152095D02*
X132704762Y-95456857D01*
X132704762Y-95456857D02*
X132628572Y-95609238D01*
X132628572Y-95609238D02*
X132476191Y-95761619D01*
X132476191Y-95761619D02*
X132247619Y-95837809D01*
X132247619Y-95837809D02*
X131866667Y-95837809D01*
D10*
X156785570Y-103507380D02*
X157118903Y-104507380D01*
X157118903Y-104507380D02*
X157452236Y-103507380D01*
X158214141Y-104459761D02*
X158118903Y-104507380D01*
X158118903Y-104507380D02*
X157928427Y-104507380D01*
X157928427Y-104507380D02*
X157833189Y-104459761D01*
X157833189Y-104459761D02*
X157785570Y-104412142D01*
X157785570Y-104412142D02*
X157737951Y-104316904D01*
X157737951Y-104316904D02*
X157737951Y-104031190D01*
X157737951Y-104031190D02*
X157785570Y-103935952D01*
X157785570Y-103935952D02*
X157833189Y-103888333D01*
X157833189Y-103888333D02*
X157928427Y-103840714D01*
X157928427Y-103840714D02*
X158118903Y-103840714D01*
X158118903Y-103840714D02*
X158214141Y-103888333D01*
X159071284Y-104459761D02*
X158976046Y-104507380D01*
X158976046Y-104507380D02*
X158785570Y-104507380D01*
X158785570Y-104507380D02*
X158690332Y-104459761D01*
X158690332Y-104459761D02*
X158642713Y-104412142D01*
X158642713Y-104412142D02*
X158595094Y-104316904D01*
X158595094Y-104316904D02*
X158595094Y-104031190D01*
X158595094Y-104031190D02*
X158642713Y-103935952D01*
X158642713Y-103935952D02*
X158690332Y-103888333D01*
X158690332Y-103888333D02*
X158785570Y-103840714D01*
X158785570Y-103840714D02*
X158976046Y-103840714D01*
X158976046Y-103840714D02*
X159071284Y-103888333D01*
X160385570Y-104888333D02*
X160337951Y-104840714D01*
X160337951Y-104840714D02*
X160242713Y-104697857D01*
X160242713Y-104697857D02*
X160195094Y-104602619D01*
X160195094Y-104602619D02*
X160147475Y-104459761D01*
X160147475Y-104459761D02*
X160099856Y-104221666D01*
X160099856Y-104221666D02*
X160099856Y-104031190D01*
X160099856Y-104031190D02*
X160147475Y-103793095D01*
X160147475Y-103793095D02*
X160195094Y-103650238D01*
X160195094Y-103650238D02*
X160242713Y-103555000D01*
X160242713Y-103555000D02*
X160337951Y-103412142D01*
X160337951Y-103412142D02*
X160385570Y-103364523D01*
X160671285Y-103507380D02*
X161290332Y-103507380D01*
X161290332Y-103507380D02*
X160956999Y-103888333D01*
X160956999Y-103888333D02*
X161099856Y-103888333D01*
X161099856Y-103888333D02*
X161195094Y-103935952D01*
X161195094Y-103935952D02*
X161242713Y-103983571D01*
X161242713Y-103983571D02*
X161290332Y-104078809D01*
X161290332Y-104078809D02*
X161290332Y-104316904D01*
X161290332Y-104316904D02*
X161242713Y-104412142D01*
X161242713Y-104412142D02*
X161195094Y-104459761D01*
X161195094Y-104459761D02*
X161099856Y-104507380D01*
X161099856Y-104507380D02*
X160814142Y-104507380D01*
X160814142Y-104507380D02*
X160718904Y-104459761D01*
X160718904Y-104459761D02*
X160671285Y-104412142D01*
X161576047Y-103507380D02*
X161909380Y-104507380D01*
X161909380Y-104507380D02*
X162242713Y-103507380D01*
X162480809Y-103507380D02*
X163099856Y-103507380D01*
X163099856Y-103507380D02*
X162766523Y-103888333D01*
X162766523Y-103888333D02*
X162909380Y-103888333D01*
X162909380Y-103888333D02*
X163004618Y-103935952D01*
X163004618Y-103935952D02*
X163052237Y-103983571D01*
X163052237Y-103983571D02*
X163099856Y-104078809D01*
X163099856Y-104078809D02*
X163099856Y-104316904D01*
X163099856Y-104316904D02*
X163052237Y-104412142D01*
X163052237Y-104412142D02*
X163004618Y-104459761D01*
X163004618Y-104459761D02*
X162909380Y-104507380D01*
X162909380Y-104507380D02*
X162623666Y-104507380D01*
X162623666Y-104507380D02*
X162528428Y-104459761D01*
X162528428Y-104459761D02*
X162480809Y-104412142D01*
X163433190Y-104888333D02*
X163480809Y-104840714D01*
X163480809Y-104840714D02*
X163576047Y-104697857D01*
X163576047Y-104697857D02*
X163623666Y-104602619D01*
X163623666Y-104602619D02*
X163671285Y-104459761D01*
X163671285Y-104459761D02*
X163718904Y-104221666D01*
X163718904Y-104221666D02*
X163718904Y-104031190D01*
X163718904Y-104031190D02*
X163671285Y-103793095D01*
X163671285Y-103793095D02*
X163623666Y-103650238D01*
X163623666Y-103650238D02*
X163576047Y-103555000D01*
X163576047Y-103555000D02*
X163480809Y-103412142D01*
X163480809Y-103412142D02*
X163433190Y-103364523D01*
D12*
X102166666Y-104654166D02*
X102166666Y-105220833D01*
X102166666Y-105220833D02*
X102200000Y-105287500D01*
X102200000Y-105287500D02*
X102233333Y-105320833D01*
X102233333Y-105320833D02*
X102300000Y-105354166D01*
X102300000Y-105354166D02*
X102433333Y-105354166D01*
X102433333Y-105354166D02*
X102500000Y-105320833D01*
X102500000Y-105320833D02*
X102533333Y-105287500D01*
X102533333Y-105287500D02*
X102566666Y-105220833D01*
X102566666Y-105220833D02*
X102566666Y-104654166D01*
X102866666Y-105320833D02*
X102933333Y-105354166D01*
X102933333Y-105354166D02*
X103066666Y-105354166D01*
X103066666Y-105354166D02*
X103133333Y-105320833D01*
X103133333Y-105320833D02*
X103166666Y-105254166D01*
X103166666Y-105254166D02*
X103166666Y-105220833D01*
X103166666Y-105220833D02*
X103133333Y-105154166D01*
X103133333Y-105154166D02*
X103066666Y-105120833D01*
X103066666Y-105120833D02*
X102966666Y-105120833D01*
X102966666Y-105120833D02*
X102899999Y-105087500D01*
X102899999Y-105087500D02*
X102866666Y-105020833D01*
X102866666Y-105020833D02*
X102866666Y-104987500D01*
X102866666Y-104987500D02*
X102899999Y-104920833D01*
X102899999Y-104920833D02*
X102966666Y-104887500D01*
X102966666Y-104887500D02*
X103066666Y-104887500D01*
X103066666Y-104887500D02*
X103133333Y-104920833D01*
X103733333Y-105320833D02*
X103666666Y-105354166D01*
X103666666Y-105354166D02*
X103533333Y-105354166D01*
X103533333Y-105354166D02*
X103466666Y-105320833D01*
X103466666Y-105320833D02*
X103433333Y-105254166D01*
X103433333Y-105254166D02*
X103433333Y-104987500D01*
X103433333Y-104987500D02*
X103466666Y-104920833D01*
X103466666Y-104920833D02*
X103533333Y-104887500D01*
X103533333Y-104887500D02*
X103666666Y-104887500D01*
X103666666Y-104887500D02*
X103733333Y-104920833D01*
X103733333Y-104920833D02*
X103766666Y-104987500D01*
X103766666Y-104987500D02*
X103766666Y-105054166D01*
X103766666Y-105054166D02*
X103433333Y-105120833D01*
X104586666Y-105354166D02*
X104520000Y-105320833D01*
X104520000Y-105320833D02*
X104486666Y-105287500D01*
X104486666Y-105287500D02*
X104453333Y-105220833D01*
X104453333Y-105220833D02*
X104453333Y-105020833D01*
X104453333Y-105020833D02*
X104486666Y-104954166D01*
X104486666Y-104954166D02*
X104520000Y-104920833D01*
X104520000Y-104920833D02*
X104586666Y-104887500D01*
X104586666Y-104887500D02*
X104686666Y-104887500D01*
X104686666Y-104887500D02*
X104753333Y-104920833D01*
X104753333Y-104920833D02*
X104786666Y-104954166D01*
X104786666Y-104954166D02*
X104820000Y-105020833D01*
X104820000Y-105020833D02*
X104820000Y-105220833D01*
X104820000Y-105220833D02*
X104786666Y-105287500D01*
X104786666Y-105287500D02*
X104753333Y-105320833D01*
X104753333Y-105320833D02*
X104686666Y-105354166D01*
X104686666Y-105354166D02*
X104586666Y-105354166D01*
X105119999Y-104887500D02*
X105119999Y-105354166D01*
X105119999Y-104954166D02*
X105153333Y-104920833D01*
X105153333Y-104920833D02*
X105219999Y-104887500D01*
X105219999Y-104887500D02*
X105319999Y-104887500D01*
X105319999Y-104887500D02*
X105386666Y-104920833D01*
X105386666Y-104920833D02*
X105419999Y-104987500D01*
X105419999Y-104987500D02*
X105419999Y-105354166D01*
X105853332Y-105354166D02*
X105786666Y-105320833D01*
X105786666Y-105320833D02*
X105753332Y-105254166D01*
X105753332Y-105254166D02*
X105753332Y-104654166D01*
X106053333Y-104887500D02*
X106219999Y-105354166D01*
X106386666Y-104887500D02*
X106219999Y-105354166D01*
X106219999Y-105354166D02*
X106153333Y-105520833D01*
X106153333Y-105520833D02*
X106119999Y-105554166D01*
X106119999Y-105554166D02*
X106053333Y-105587500D01*
X107073332Y-104887500D02*
X107073332Y-105587500D01*
X107073332Y-104920833D02*
X107139999Y-104887500D01*
X107139999Y-104887500D02*
X107273332Y-104887500D01*
X107273332Y-104887500D02*
X107339999Y-104920833D01*
X107339999Y-104920833D02*
X107373332Y-104954166D01*
X107373332Y-104954166D02*
X107406666Y-105020833D01*
X107406666Y-105020833D02*
X107406666Y-105220833D01*
X107406666Y-105220833D02*
X107373332Y-105287500D01*
X107373332Y-105287500D02*
X107339999Y-105320833D01*
X107339999Y-105320833D02*
X107273332Y-105354166D01*
X107273332Y-105354166D02*
X107139999Y-105354166D01*
X107139999Y-105354166D02*
X107073332Y-105320833D01*
X107806665Y-105354166D02*
X107739999Y-105320833D01*
X107739999Y-105320833D02*
X107706665Y-105254166D01*
X107706665Y-105254166D02*
X107706665Y-104654166D01*
X108373332Y-105354166D02*
X108373332Y-104987500D01*
X108373332Y-104987500D02*
X108339999Y-104920833D01*
X108339999Y-104920833D02*
X108273332Y-104887500D01*
X108273332Y-104887500D02*
X108139999Y-104887500D01*
X108139999Y-104887500D02*
X108073332Y-104920833D01*
X108373332Y-105320833D02*
X108306666Y-105354166D01*
X108306666Y-105354166D02*
X108139999Y-105354166D01*
X108139999Y-105354166D02*
X108073332Y-105320833D01*
X108073332Y-105320833D02*
X108039999Y-105254166D01*
X108039999Y-105254166D02*
X108039999Y-105187500D01*
X108039999Y-105187500D02*
X108073332Y-105120833D01*
X108073332Y-105120833D02*
X108139999Y-105087500D01*
X108139999Y-105087500D02*
X108306666Y-105087500D01*
X108306666Y-105087500D02*
X108373332Y-105054166D01*
X108673332Y-105320833D02*
X108739999Y-105354166D01*
X108739999Y-105354166D02*
X108873332Y-105354166D01*
X108873332Y-105354166D02*
X108939999Y-105320833D01*
X108939999Y-105320833D02*
X108973332Y-105254166D01*
X108973332Y-105254166D02*
X108973332Y-105220833D01*
X108973332Y-105220833D02*
X108939999Y-105154166D01*
X108939999Y-105154166D02*
X108873332Y-105120833D01*
X108873332Y-105120833D02*
X108773332Y-105120833D01*
X108773332Y-105120833D02*
X108706665Y-105087500D01*
X108706665Y-105087500D02*
X108673332Y-105020833D01*
X108673332Y-105020833D02*
X108673332Y-104987500D01*
X108673332Y-104987500D02*
X108706665Y-104920833D01*
X108706665Y-104920833D02*
X108773332Y-104887500D01*
X108773332Y-104887500D02*
X108873332Y-104887500D01*
X108873332Y-104887500D02*
X108939999Y-104920833D01*
X109173332Y-104887500D02*
X109439999Y-104887500D01*
X109273332Y-104654166D02*
X109273332Y-105254166D01*
X109273332Y-105254166D02*
X109306666Y-105320833D01*
X109306666Y-105320833D02*
X109373332Y-105354166D01*
X109373332Y-105354166D02*
X109439999Y-105354166D01*
X109673332Y-105354166D02*
X109673332Y-104887500D01*
X109673332Y-104654166D02*
X109639999Y-104687500D01*
X109639999Y-104687500D02*
X109673332Y-104720833D01*
X109673332Y-104720833D02*
X109706666Y-104687500D01*
X109706666Y-104687500D02*
X109673332Y-104654166D01*
X109673332Y-104654166D02*
X109673332Y-104720833D01*
X110306665Y-105320833D02*
X110239999Y-105354166D01*
X110239999Y-105354166D02*
X110106665Y-105354166D01*
X110106665Y-105354166D02*
X110039999Y-105320833D01*
X110039999Y-105320833D02*
X110006665Y-105287500D01*
X110006665Y-105287500D02*
X109973332Y-105220833D01*
X109973332Y-105220833D02*
X109973332Y-105020833D01*
X109973332Y-105020833D02*
X110006665Y-104954166D01*
X110006665Y-104954166D02*
X110039999Y-104920833D01*
X110039999Y-104920833D02*
X110106665Y-104887500D01*
X110106665Y-104887500D02*
X110239999Y-104887500D01*
X110239999Y-104887500D02*
X110306665Y-104920833D01*
X110993332Y-105320833D02*
X111059999Y-105354166D01*
X111059999Y-105354166D02*
X111193332Y-105354166D01*
X111193332Y-105354166D02*
X111259999Y-105320833D01*
X111259999Y-105320833D02*
X111293332Y-105254166D01*
X111293332Y-105254166D02*
X111293332Y-105220833D01*
X111293332Y-105220833D02*
X111259999Y-105154166D01*
X111259999Y-105154166D02*
X111193332Y-105120833D01*
X111193332Y-105120833D02*
X111093332Y-105120833D01*
X111093332Y-105120833D02*
X111026665Y-105087500D01*
X111026665Y-105087500D02*
X110993332Y-105020833D01*
X110993332Y-105020833D02*
X110993332Y-104987500D01*
X110993332Y-104987500D02*
X111026665Y-104920833D01*
X111026665Y-104920833D02*
X111093332Y-104887500D01*
X111093332Y-104887500D02*
X111193332Y-104887500D01*
X111193332Y-104887500D02*
X111259999Y-104920833D01*
X111893332Y-105320833D02*
X111826666Y-105354166D01*
X111826666Y-105354166D02*
X111693332Y-105354166D01*
X111693332Y-105354166D02*
X111626666Y-105320833D01*
X111626666Y-105320833D02*
X111593332Y-105287500D01*
X111593332Y-105287500D02*
X111559999Y-105220833D01*
X111559999Y-105220833D02*
X111559999Y-105020833D01*
X111559999Y-105020833D02*
X111593332Y-104954166D01*
X111593332Y-104954166D02*
X111626666Y-104920833D01*
X111626666Y-104920833D02*
X111693332Y-104887500D01*
X111693332Y-104887500D02*
X111826666Y-104887500D01*
X111826666Y-104887500D02*
X111893332Y-104920833D01*
X112193332Y-105354166D02*
X112193332Y-104887500D01*
X112193332Y-105020833D02*
X112226666Y-104954166D01*
X112226666Y-104954166D02*
X112259999Y-104920833D01*
X112259999Y-104920833D02*
X112326666Y-104887500D01*
X112326666Y-104887500D02*
X112393332Y-104887500D01*
X112893332Y-105320833D02*
X112826665Y-105354166D01*
X112826665Y-105354166D02*
X112693332Y-105354166D01*
X112693332Y-105354166D02*
X112626665Y-105320833D01*
X112626665Y-105320833D02*
X112593332Y-105254166D01*
X112593332Y-105254166D02*
X112593332Y-104987500D01*
X112593332Y-104987500D02*
X112626665Y-104920833D01*
X112626665Y-104920833D02*
X112693332Y-104887500D01*
X112693332Y-104887500D02*
X112826665Y-104887500D01*
X112826665Y-104887500D02*
X112893332Y-104920833D01*
X112893332Y-104920833D02*
X112926665Y-104987500D01*
X112926665Y-104987500D02*
X112926665Y-105054166D01*
X112926665Y-105054166D02*
X112593332Y-105120833D01*
X113159999Y-104887500D02*
X113293332Y-105354166D01*
X113293332Y-105354166D02*
X113426665Y-105020833D01*
X113426665Y-105020833D02*
X113559999Y-105354166D01*
X113559999Y-105354166D02*
X113693332Y-104887500D01*
X113926665Y-105320833D02*
X113993332Y-105354166D01*
X113993332Y-105354166D02*
X114126665Y-105354166D01*
X114126665Y-105354166D02*
X114193332Y-105320833D01*
X114193332Y-105320833D02*
X114226665Y-105254166D01*
X114226665Y-105254166D02*
X114226665Y-105220833D01*
X114226665Y-105220833D02*
X114193332Y-105154166D01*
X114193332Y-105154166D02*
X114126665Y-105120833D01*
X114126665Y-105120833D02*
X114026665Y-105120833D01*
X114026665Y-105120833D02*
X113959998Y-105087500D01*
X113959998Y-105087500D02*
X113926665Y-105020833D01*
X113926665Y-105020833D02*
X113926665Y-104987500D01*
X113926665Y-104987500D02*
X113959998Y-104920833D01*
X113959998Y-104920833D02*
X114026665Y-104887500D01*
X114026665Y-104887500D02*
X114126665Y-104887500D01*
X114126665Y-104887500D02*
X114193332Y-104920833D01*
X115246665Y-105354166D02*
X115246665Y-104987500D01*
X115246665Y-104987500D02*
X115213332Y-104920833D01*
X115213332Y-104920833D02*
X115146665Y-104887500D01*
X115146665Y-104887500D02*
X115013332Y-104887500D01*
X115013332Y-104887500D02*
X114946665Y-104920833D01*
X115246665Y-105320833D02*
X115179999Y-105354166D01*
X115179999Y-105354166D02*
X115013332Y-105354166D01*
X115013332Y-105354166D02*
X114946665Y-105320833D01*
X114946665Y-105320833D02*
X114913332Y-105254166D01*
X114913332Y-105254166D02*
X114913332Y-105187500D01*
X114913332Y-105187500D02*
X114946665Y-105120833D01*
X114946665Y-105120833D02*
X115013332Y-105087500D01*
X115013332Y-105087500D02*
X115179999Y-105087500D01*
X115179999Y-105087500D02*
X115246665Y-105054166D01*
X115579998Y-104887500D02*
X115579998Y-105354166D01*
X115579998Y-104954166D02*
X115613332Y-104920833D01*
X115613332Y-104920833D02*
X115679998Y-104887500D01*
X115679998Y-104887500D02*
X115779998Y-104887500D01*
X115779998Y-104887500D02*
X115846665Y-104920833D01*
X115846665Y-104920833D02*
X115879998Y-104987500D01*
X115879998Y-104987500D02*
X115879998Y-105354166D01*
X116513331Y-105354166D02*
X116513331Y-104654166D01*
X116513331Y-105320833D02*
X116446665Y-105354166D01*
X116446665Y-105354166D02*
X116313331Y-105354166D01*
X116313331Y-105354166D02*
X116246665Y-105320833D01*
X116246665Y-105320833D02*
X116213331Y-105287500D01*
X116213331Y-105287500D02*
X116179998Y-105220833D01*
X116179998Y-105220833D02*
X116179998Y-105020833D01*
X116179998Y-105020833D02*
X116213331Y-104954166D01*
X116213331Y-104954166D02*
X116246665Y-104920833D01*
X116246665Y-104920833D02*
X116313331Y-104887500D01*
X116313331Y-104887500D02*
X116446665Y-104887500D01*
X116446665Y-104887500D02*
X116513331Y-104920833D01*
X117233331Y-105320833D02*
X117299998Y-105354166D01*
X117299998Y-105354166D02*
X117433331Y-105354166D01*
X117433331Y-105354166D02*
X117499998Y-105320833D01*
X117499998Y-105320833D02*
X117533331Y-105254166D01*
X117533331Y-105254166D02*
X117533331Y-105220833D01*
X117533331Y-105220833D02*
X117499998Y-105154166D01*
X117499998Y-105154166D02*
X117433331Y-105120833D01*
X117433331Y-105120833D02*
X117333331Y-105120833D01*
X117333331Y-105120833D02*
X117266664Y-105087500D01*
X117266664Y-105087500D02*
X117233331Y-105020833D01*
X117233331Y-105020833D02*
X117233331Y-104987500D01*
X117233331Y-104987500D02*
X117266664Y-104920833D01*
X117266664Y-104920833D02*
X117333331Y-104887500D01*
X117333331Y-104887500D02*
X117433331Y-104887500D01*
X117433331Y-104887500D02*
X117499998Y-104920833D01*
X117733331Y-104887500D02*
X117999998Y-104887500D01*
X117833331Y-104654166D02*
X117833331Y-105254166D01*
X117833331Y-105254166D02*
X117866665Y-105320833D01*
X117866665Y-105320833D02*
X117933331Y-105354166D01*
X117933331Y-105354166D02*
X117999998Y-105354166D01*
X118533331Y-105354166D02*
X118533331Y-104987500D01*
X118533331Y-104987500D02*
X118499998Y-104920833D01*
X118499998Y-104920833D02*
X118433331Y-104887500D01*
X118433331Y-104887500D02*
X118299998Y-104887500D01*
X118299998Y-104887500D02*
X118233331Y-104920833D01*
X118533331Y-105320833D02*
X118466665Y-105354166D01*
X118466665Y-105354166D02*
X118299998Y-105354166D01*
X118299998Y-105354166D02*
X118233331Y-105320833D01*
X118233331Y-105320833D02*
X118199998Y-105254166D01*
X118199998Y-105254166D02*
X118199998Y-105187500D01*
X118199998Y-105187500D02*
X118233331Y-105120833D01*
X118233331Y-105120833D02*
X118299998Y-105087500D01*
X118299998Y-105087500D02*
X118466665Y-105087500D01*
X118466665Y-105087500D02*
X118533331Y-105054166D01*
X118866664Y-104887500D02*
X118866664Y-105354166D01*
X118866664Y-104954166D02*
X118899998Y-104920833D01*
X118899998Y-104920833D02*
X118966664Y-104887500D01*
X118966664Y-104887500D02*
X119066664Y-104887500D01*
X119066664Y-104887500D02*
X119133331Y-104920833D01*
X119133331Y-104920833D02*
X119166664Y-104987500D01*
X119166664Y-104987500D02*
X119166664Y-105354166D01*
X119799997Y-105354166D02*
X119799997Y-104654166D01*
X119799997Y-105320833D02*
X119733331Y-105354166D01*
X119733331Y-105354166D02*
X119599997Y-105354166D01*
X119599997Y-105354166D02*
X119533331Y-105320833D01*
X119533331Y-105320833D02*
X119499997Y-105287500D01*
X119499997Y-105287500D02*
X119466664Y-105220833D01*
X119466664Y-105220833D02*
X119466664Y-105020833D01*
X119466664Y-105020833D02*
X119499997Y-104954166D01*
X119499997Y-104954166D02*
X119533331Y-104920833D01*
X119533331Y-104920833D02*
X119599997Y-104887500D01*
X119599997Y-104887500D02*
X119733331Y-104887500D01*
X119733331Y-104887500D02*
X119799997Y-104920833D01*
X120099997Y-105320833D02*
X120166664Y-105354166D01*
X120166664Y-105354166D02*
X120299997Y-105354166D01*
X120299997Y-105354166D02*
X120366664Y-105320833D01*
X120366664Y-105320833D02*
X120399997Y-105254166D01*
X120399997Y-105254166D02*
X120399997Y-105220833D01*
X120399997Y-105220833D02*
X120366664Y-105154166D01*
X120366664Y-105154166D02*
X120299997Y-105120833D01*
X120299997Y-105120833D02*
X120199997Y-105120833D01*
X120199997Y-105120833D02*
X120133330Y-105087500D01*
X120133330Y-105087500D02*
X120099997Y-105020833D01*
X120099997Y-105020833D02*
X120099997Y-104987500D01*
X120099997Y-104987500D02*
X120133330Y-104920833D01*
X120133330Y-104920833D02*
X120199997Y-104887500D01*
X120199997Y-104887500D02*
X120299997Y-104887500D01*
X120299997Y-104887500D02*
X120366664Y-104920833D01*
X120699997Y-105287500D02*
X120733331Y-105320833D01*
X120733331Y-105320833D02*
X120699997Y-105354166D01*
X120699997Y-105354166D02*
X120666664Y-105320833D01*
X120666664Y-105320833D02*
X120699997Y-105287500D01*
X120699997Y-105287500D02*
X120699997Y-105354166D01*
X120699997Y-105087500D02*
X120666664Y-104687500D01*
X120666664Y-104687500D02*
X120699997Y-104654166D01*
X120699997Y-104654166D02*
X120733331Y-104687500D01*
X120733331Y-104687500D02*
X120699997Y-105087500D01*
X120699997Y-105087500D02*
X120699997Y-104654166D01*
X102366666Y-106754833D02*
X102333333Y-106721500D01*
X102333333Y-106721500D02*
X102266666Y-106621500D01*
X102266666Y-106621500D02*
X102233333Y-106554833D01*
X102233333Y-106554833D02*
X102200000Y-106454833D01*
X102200000Y-106454833D02*
X102166666Y-106288166D01*
X102166666Y-106288166D02*
X102166666Y-106154833D01*
X102166666Y-106154833D02*
X102200000Y-105988166D01*
X102200000Y-105988166D02*
X102233333Y-105888166D01*
X102233333Y-105888166D02*
X102266666Y-105821500D01*
X102266666Y-105821500D02*
X102333333Y-105721500D01*
X102333333Y-105721500D02*
X102366666Y-105688166D01*
X103000000Y-105821500D02*
X102933333Y-105788166D01*
X102933333Y-105788166D02*
X102833333Y-105788166D01*
X102833333Y-105788166D02*
X102733333Y-105821500D01*
X102733333Y-105821500D02*
X102666667Y-105888166D01*
X102666667Y-105888166D02*
X102633333Y-105954833D01*
X102633333Y-105954833D02*
X102600000Y-106088166D01*
X102600000Y-106088166D02*
X102600000Y-106188166D01*
X102600000Y-106188166D02*
X102633333Y-106321500D01*
X102633333Y-106321500D02*
X102666667Y-106388166D01*
X102666667Y-106388166D02*
X102733333Y-106454833D01*
X102733333Y-106454833D02*
X102833333Y-106488166D01*
X102833333Y-106488166D02*
X102900000Y-106488166D01*
X102900000Y-106488166D02*
X103000000Y-106454833D01*
X103000000Y-106454833D02*
X103033333Y-106421500D01*
X103033333Y-106421500D02*
X103033333Y-106188166D01*
X103033333Y-106188166D02*
X102900000Y-106188166D01*
X103333333Y-106488166D02*
X103333333Y-105788166D01*
X103333333Y-105788166D02*
X103733333Y-106488166D01*
X103733333Y-106488166D02*
X103733333Y-105788166D01*
X104066666Y-106488166D02*
X104066666Y-105788166D01*
X104066666Y-105788166D02*
X104233333Y-105788166D01*
X104233333Y-105788166D02*
X104333333Y-105821500D01*
X104333333Y-105821500D02*
X104400000Y-105888166D01*
X104400000Y-105888166D02*
X104433333Y-105954833D01*
X104433333Y-105954833D02*
X104466666Y-106088166D01*
X104466666Y-106088166D02*
X104466666Y-106188166D01*
X104466666Y-106188166D02*
X104433333Y-106321500D01*
X104433333Y-106321500D02*
X104400000Y-106388166D01*
X104400000Y-106388166D02*
X104333333Y-106454833D01*
X104333333Y-106454833D02*
X104233333Y-106488166D01*
X104233333Y-106488166D02*
X104066666Y-106488166D01*
X105186666Y-106021500D02*
X105186666Y-106721500D01*
X105186666Y-106054833D02*
X105253333Y-106021500D01*
X105253333Y-106021500D02*
X105386666Y-106021500D01*
X105386666Y-106021500D02*
X105453333Y-106054833D01*
X105453333Y-106054833D02*
X105486666Y-106088166D01*
X105486666Y-106088166D02*
X105520000Y-106154833D01*
X105520000Y-106154833D02*
X105520000Y-106354833D01*
X105520000Y-106354833D02*
X105486666Y-106421500D01*
X105486666Y-106421500D02*
X105453333Y-106454833D01*
X105453333Y-106454833D02*
X105386666Y-106488166D01*
X105386666Y-106488166D02*
X105253333Y-106488166D01*
X105253333Y-106488166D02*
X105186666Y-106454833D01*
X105919999Y-106488166D02*
X105853333Y-106454833D01*
X105853333Y-106454833D02*
X105819999Y-106388166D01*
X105819999Y-106388166D02*
X105819999Y-105788166D01*
X106486666Y-106488166D02*
X106486666Y-106121500D01*
X106486666Y-106121500D02*
X106453333Y-106054833D01*
X106453333Y-106054833D02*
X106386666Y-106021500D01*
X106386666Y-106021500D02*
X106253333Y-106021500D01*
X106253333Y-106021500D02*
X106186666Y-106054833D01*
X106486666Y-106454833D02*
X106420000Y-106488166D01*
X106420000Y-106488166D02*
X106253333Y-106488166D01*
X106253333Y-106488166D02*
X106186666Y-106454833D01*
X106186666Y-106454833D02*
X106153333Y-106388166D01*
X106153333Y-106388166D02*
X106153333Y-106321500D01*
X106153333Y-106321500D02*
X106186666Y-106254833D01*
X106186666Y-106254833D02*
X106253333Y-106221500D01*
X106253333Y-106221500D02*
X106420000Y-106221500D01*
X106420000Y-106221500D02*
X106486666Y-106188166D01*
X106819999Y-106021500D02*
X106819999Y-106488166D01*
X106819999Y-106088166D02*
X106853333Y-106054833D01*
X106853333Y-106054833D02*
X106919999Y-106021500D01*
X106919999Y-106021500D02*
X107019999Y-106021500D01*
X107019999Y-106021500D02*
X107086666Y-106054833D01*
X107086666Y-106054833D02*
X107119999Y-106121500D01*
X107119999Y-106121500D02*
X107119999Y-106488166D01*
X107719999Y-106454833D02*
X107653332Y-106488166D01*
X107653332Y-106488166D02*
X107519999Y-106488166D01*
X107519999Y-106488166D02*
X107453332Y-106454833D01*
X107453332Y-106454833D02*
X107419999Y-106388166D01*
X107419999Y-106388166D02*
X107419999Y-106121500D01*
X107419999Y-106121500D02*
X107453332Y-106054833D01*
X107453332Y-106054833D02*
X107519999Y-106021500D01*
X107519999Y-106021500D02*
X107653332Y-106021500D01*
X107653332Y-106021500D02*
X107719999Y-106054833D01*
X107719999Y-106054833D02*
X107753332Y-106121500D01*
X107753332Y-106121500D02*
X107753332Y-106188166D01*
X107753332Y-106188166D02*
X107419999Y-106254833D01*
X108573332Y-106488166D02*
X108506666Y-106454833D01*
X108506666Y-106454833D02*
X108473332Y-106421500D01*
X108473332Y-106421500D02*
X108439999Y-106354833D01*
X108439999Y-106354833D02*
X108439999Y-106154833D01*
X108439999Y-106154833D02*
X108473332Y-106088166D01*
X108473332Y-106088166D02*
X108506666Y-106054833D01*
X108506666Y-106054833D02*
X108573332Y-106021500D01*
X108573332Y-106021500D02*
X108673332Y-106021500D01*
X108673332Y-106021500D02*
X108739999Y-106054833D01*
X108739999Y-106054833D02*
X108773332Y-106088166D01*
X108773332Y-106088166D02*
X108806666Y-106154833D01*
X108806666Y-106154833D02*
X108806666Y-106354833D01*
X108806666Y-106354833D02*
X108773332Y-106421500D01*
X108773332Y-106421500D02*
X108739999Y-106454833D01*
X108739999Y-106454833D02*
X108673332Y-106488166D01*
X108673332Y-106488166D02*
X108573332Y-106488166D01*
X109106665Y-106021500D02*
X109106665Y-106488166D01*
X109106665Y-106088166D02*
X109139999Y-106054833D01*
X109139999Y-106054833D02*
X109206665Y-106021500D01*
X109206665Y-106021500D02*
X109306665Y-106021500D01*
X109306665Y-106021500D02*
X109373332Y-106054833D01*
X109373332Y-106054833D02*
X109406665Y-106121500D01*
X109406665Y-106121500D02*
X109406665Y-106488166D01*
X110159998Y-106488166D02*
X110159998Y-105788166D01*
X110159998Y-106054833D02*
X110226665Y-106021500D01*
X110226665Y-106021500D02*
X110359998Y-106021500D01*
X110359998Y-106021500D02*
X110426665Y-106054833D01*
X110426665Y-106054833D02*
X110459998Y-106088166D01*
X110459998Y-106088166D02*
X110493332Y-106154833D01*
X110493332Y-106154833D02*
X110493332Y-106354833D01*
X110493332Y-106354833D02*
X110459998Y-106421500D01*
X110459998Y-106421500D02*
X110426665Y-106454833D01*
X110426665Y-106454833D02*
X110359998Y-106488166D01*
X110359998Y-106488166D02*
X110226665Y-106488166D01*
X110226665Y-106488166D02*
X110159998Y-106454833D01*
X110893331Y-106488166D02*
X110826665Y-106454833D01*
X110826665Y-106454833D02*
X110793331Y-106421500D01*
X110793331Y-106421500D02*
X110759998Y-106354833D01*
X110759998Y-106354833D02*
X110759998Y-106154833D01*
X110759998Y-106154833D02*
X110793331Y-106088166D01*
X110793331Y-106088166D02*
X110826665Y-106054833D01*
X110826665Y-106054833D02*
X110893331Y-106021500D01*
X110893331Y-106021500D02*
X110993331Y-106021500D01*
X110993331Y-106021500D02*
X111059998Y-106054833D01*
X111059998Y-106054833D02*
X111093331Y-106088166D01*
X111093331Y-106088166D02*
X111126665Y-106154833D01*
X111126665Y-106154833D02*
X111126665Y-106354833D01*
X111126665Y-106354833D02*
X111093331Y-106421500D01*
X111093331Y-106421500D02*
X111059998Y-106454833D01*
X111059998Y-106454833D02*
X110993331Y-106488166D01*
X110993331Y-106488166D02*
X110893331Y-106488166D01*
X111326664Y-106021500D02*
X111593331Y-106021500D01*
X111426664Y-105788166D02*
X111426664Y-106388166D01*
X111426664Y-106388166D02*
X111459998Y-106454833D01*
X111459998Y-106454833D02*
X111526664Y-106488166D01*
X111526664Y-106488166D02*
X111593331Y-106488166D01*
X111826664Y-106488166D02*
X111826664Y-105788166D01*
X112126664Y-106488166D02*
X112126664Y-106121500D01*
X112126664Y-106121500D02*
X112093331Y-106054833D01*
X112093331Y-106054833D02*
X112026664Y-106021500D01*
X112026664Y-106021500D02*
X111926664Y-106021500D01*
X111926664Y-106021500D02*
X111859998Y-106054833D01*
X111859998Y-106054833D02*
X111826664Y-106088166D01*
X112846664Y-106454833D02*
X112913331Y-106488166D01*
X112913331Y-106488166D02*
X113046664Y-106488166D01*
X113046664Y-106488166D02*
X113113331Y-106454833D01*
X113113331Y-106454833D02*
X113146664Y-106388166D01*
X113146664Y-106388166D02*
X113146664Y-106354833D01*
X113146664Y-106354833D02*
X113113331Y-106288166D01*
X113113331Y-106288166D02*
X113046664Y-106254833D01*
X113046664Y-106254833D02*
X112946664Y-106254833D01*
X112946664Y-106254833D02*
X112879997Y-106221500D01*
X112879997Y-106221500D02*
X112846664Y-106154833D01*
X112846664Y-106154833D02*
X112846664Y-106121500D01*
X112846664Y-106121500D02*
X112879997Y-106054833D01*
X112879997Y-106054833D02*
X112946664Y-106021500D01*
X112946664Y-106021500D02*
X113046664Y-106021500D01*
X113046664Y-106021500D02*
X113113331Y-106054833D01*
X113446664Y-106488166D02*
X113446664Y-106021500D01*
X113446664Y-105788166D02*
X113413331Y-105821500D01*
X113413331Y-105821500D02*
X113446664Y-105854833D01*
X113446664Y-105854833D02*
X113479998Y-105821500D01*
X113479998Y-105821500D02*
X113446664Y-105788166D01*
X113446664Y-105788166D02*
X113446664Y-105854833D01*
X114079997Y-106488166D02*
X114079997Y-105788166D01*
X114079997Y-106454833D02*
X114013331Y-106488166D01*
X114013331Y-106488166D02*
X113879997Y-106488166D01*
X113879997Y-106488166D02*
X113813331Y-106454833D01*
X113813331Y-106454833D02*
X113779997Y-106421500D01*
X113779997Y-106421500D02*
X113746664Y-106354833D01*
X113746664Y-106354833D02*
X113746664Y-106154833D01*
X113746664Y-106154833D02*
X113779997Y-106088166D01*
X113779997Y-106088166D02*
X113813331Y-106054833D01*
X113813331Y-106054833D02*
X113879997Y-106021500D01*
X113879997Y-106021500D02*
X114013331Y-106021500D01*
X114013331Y-106021500D02*
X114079997Y-106054833D01*
X114679997Y-106454833D02*
X114613330Y-106488166D01*
X114613330Y-106488166D02*
X114479997Y-106488166D01*
X114479997Y-106488166D02*
X114413330Y-106454833D01*
X114413330Y-106454833D02*
X114379997Y-106388166D01*
X114379997Y-106388166D02*
X114379997Y-106121500D01*
X114379997Y-106121500D02*
X114413330Y-106054833D01*
X114413330Y-106054833D02*
X114479997Y-106021500D01*
X114479997Y-106021500D02*
X114613330Y-106021500D01*
X114613330Y-106021500D02*
X114679997Y-106054833D01*
X114679997Y-106054833D02*
X114713330Y-106121500D01*
X114713330Y-106121500D02*
X114713330Y-106188166D01*
X114713330Y-106188166D02*
X114379997Y-106254833D01*
X114979997Y-106454833D02*
X115046664Y-106488166D01*
X115046664Y-106488166D02*
X115179997Y-106488166D01*
X115179997Y-106488166D02*
X115246664Y-106454833D01*
X115246664Y-106454833D02*
X115279997Y-106388166D01*
X115279997Y-106388166D02*
X115279997Y-106354833D01*
X115279997Y-106354833D02*
X115246664Y-106288166D01*
X115246664Y-106288166D02*
X115179997Y-106254833D01*
X115179997Y-106254833D02*
X115079997Y-106254833D01*
X115079997Y-106254833D02*
X115013330Y-106221500D01*
X115013330Y-106221500D02*
X114979997Y-106154833D01*
X114979997Y-106154833D02*
X114979997Y-106121500D01*
X114979997Y-106121500D02*
X115013330Y-106054833D01*
X115013330Y-106054833D02*
X115079997Y-106021500D01*
X115079997Y-106021500D02*
X115179997Y-106021500D01*
X115179997Y-106021500D02*
X115246664Y-106054833D01*
X115513331Y-106754833D02*
X115546664Y-106721500D01*
X115546664Y-106721500D02*
X115613331Y-106621500D01*
X115613331Y-106621500D02*
X115646664Y-106554833D01*
X115646664Y-106554833D02*
X115679997Y-106454833D01*
X115679997Y-106454833D02*
X115713331Y-106288166D01*
X115713331Y-106288166D02*
X115713331Y-106154833D01*
X115713331Y-106154833D02*
X115679997Y-105988166D01*
X115679997Y-105988166D02*
X115646664Y-105888166D01*
X115646664Y-105888166D02*
X115613331Y-105821500D01*
X115613331Y-105821500D02*
X115546664Y-105721500D01*
X115546664Y-105721500D02*
X115513331Y-105688166D01*
D10*
X161671285Y-106095000D02*
X161576047Y-106047380D01*
X161576047Y-106047380D02*
X161433190Y-106047380D01*
X161433190Y-106047380D02*
X161290333Y-106095000D01*
X161290333Y-106095000D02*
X161195095Y-106190238D01*
X161195095Y-106190238D02*
X161147476Y-106285476D01*
X161147476Y-106285476D02*
X161099857Y-106475952D01*
X161099857Y-106475952D02*
X161099857Y-106618809D01*
X161099857Y-106618809D02*
X161147476Y-106809285D01*
X161147476Y-106809285D02*
X161195095Y-106904523D01*
X161195095Y-106904523D02*
X161290333Y-106999761D01*
X161290333Y-106999761D02*
X161433190Y-107047380D01*
X161433190Y-107047380D02*
X161528428Y-107047380D01*
X161528428Y-107047380D02*
X161671285Y-106999761D01*
X161671285Y-106999761D02*
X161718904Y-106952142D01*
X161718904Y-106952142D02*
X161718904Y-106618809D01*
X161718904Y-106618809D02*
X161528428Y-106618809D01*
X162147476Y-107047380D02*
X162147476Y-106047380D01*
X162147476Y-106047380D02*
X162718904Y-107047380D01*
X162718904Y-107047380D02*
X162718904Y-106047380D01*
X163195095Y-107047380D02*
X163195095Y-106047380D01*
X163195095Y-106047380D02*
X163433190Y-106047380D01*
X163433190Y-106047380D02*
X163576047Y-106095000D01*
X163576047Y-106095000D02*
X163671285Y-106190238D01*
X163671285Y-106190238D02*
X163718904Y-106285476D01*
X163718904Y-106285476D02*
X163766523Y-106475952D01*
X163766523Y-106475952D02*
X163766523Y-106618809D01*
X163766523Y-106618809D02*
X163718904Y-106809285D01*
X163718904Y-106809285D02*
X163671285Y-106904523D01*
X163671285Y-106904523D02*
X163576047Y-106999761D01*
X163576047Y-106999761D02*
X163433190Y-107047380D01*
X163433190Y-107047380D02*
X163195095Y-107047380D01*
X161337952Y-99379761D02*
X161480809Y-99427380D01*
X161480809Y-99427380D02*
X161718904Y-99427380D01*
X161718904Y-99427380D02*
X161814142Y-99379761D01*
X161814142Y-99379761D02*
X161861761Y-99332142D01*
X161861761Y-99332142D02*
X161909380Y-99236904D01*
X161909380Y-99236904D02*
X161909380Y-99141666D01*
X161909380Y-99141666D02*
X161861761Y-99046428D01*
X161861761Y-99046428D02*
X161814142Y-98998809D01*
X161814142Y-98998809D02*
X161718904Y-98951190D01*
X161718904Y-98951190D02*
X161528428Y-98903571D01*
X161528428Y-98903571D02*
X161433190Y-98855952D01*
X161433190Y-98855952D02*
X161385571Y-98808333D01*
X161385571Y-98808333D02*
X161337952Y-98713095D01*
X161337952Y-98713095D02*
X161337952Y-98617857D01*
X161337952Y-98617857D02*
X161385571Y-98522619D01*
X161385571Y-98522619D02*
X161433190Y-98475000D01*
X161433190Y-98475000D02*
X161528428Y-98427380D01*
X161528428Y-98427380D02*
X161766523Y-98427380D01*
X161766523Y-98427380D02*
X161909380Y-98475000D01*
X162337952Y-99427380D02*
X162337952Y-98427380D01*
X162337952Y-98427380D02*
X162576047Y-98427380D01*
X162576047Y-98427380D02*
X162718904Y-98475000D01*
X162718904Y-98475000D02*
X162814142Y-98570238D01*
X162814142Y-98570238D02*
X162861761Y-98665476D01*
X162861761Y-98665476D02*
X162909380Y-98855952D01*
X162909380Y-98855952D02*
X162909380Y-98998809D01*
X162909380Y-98998809D02*
X162861761Y-99189285D01*
X162861761Y-99189285D02*
X162814142Y-99284523D01*
X162814142Y-99284523D02*
X162718904Y-99379761D01*
X162718904Y-99379761D02*
X162576047Y-99427380D01*
X162576047Y-99427380D02*
X162337952Y-99427380D01*
X163290333Y-99141666D02*
X163766523Y-99141666D01*
X163195095Y-99427380D02*
X163528428Y-98427380D01*
X163528428Y-98427380D02*
X163861761Y-99427380D01*
X166633142Y-91548142D02*
X166585523Y-91595761D01*
X166585523Y-91595761D02*
X166442666Y-91643380D01*
X166442666Y-91643380D02*
X166347428Y-91643380D01*
X166347428Y-91643380D02*
X166204571Y-91595761D01*
X166204571Y-91595761D02*
X166109333Y-91500523D01*
X166109333Y-91500523D02*
X166061714Y-91405285D01*
X166061714Y-91405285D02*
X166014095Y-91214809D01*
X166014095Y-91214809D02*
X166014095Y-91071952D01*
X166014095Y-91071952D02*
X166061714Y-90881476D01*
X166061714Y-90881476D02*
X166109333Y-90786238D01*
X166109333Y-90786238D02*
X166204571Y-90691000D01*
X166204571Y-90691000D02*
X166347428Y-90643380D01*
X166347428Y-90643380D02*
X166442666Y-90643380D01*
X166442666Y-90643380D02*
X166585523Y-90691000D01*
X166585523Y-90691000D02*
X166633142Y-90738619D01*
X167014095Y-91595761D02*
X167156952Y-91643380D01*
X167156952Y-91643380D02*
X167395047Y-91643380D01*
X167395047Y-91643380D02*
X167490285Y-91595761D01*
X167490285Y-91595761D02*
X167537904Y-91548142D01*
X167537904Y-91548142D02*
X167585523Y-91452904D01*
X167585523Y-91452904D02*
X167585523Y-91357666D01*
X167585523Y-91357666D02*
X167537904Y-91262428D01*
X167537904Y-91262428D02*
X167490285Y-91214809D01*
X167490285Y-91214809D02*
X167395047Y-91167190D01*
X167395047Y-91167190D02*
X167204571Y-91119571D01*
X167204571Y-91119571D02*
X167109333Y-91071952D01*
X167109333Y-91071952D02*
X167061714Y-91024333D01*
X167061714Y-91024333D02*
X167014095Y-90929095D01*
X167014095Y-90929095D02*
X167014095Y-90833857D01*
X167014095Y-90833857D02*
X167061714Y-90738619D01*
X167061714Y-90738619D02*
X167109333Y-90691000D01*
X167109333Y-90691000D02*
X167204571Y-90643380D01*
X167204571Y-90643380D02*
X167442666Y-90643380D01*
X167442666Y-90643380D02*
X167585523Y-90691000D01*
D13*
X102238095Y-98394380D02*
X102238095Y-97394380D01*
X102238095Y-97394380D02*
X102571428Y-98108666D01*
X102571428Y-98108666D02*
X102904761Y-97394380D01*
X102904761Y-97394380D02*
X102904761Y-98394380D01*
X103523809Y-98394380D02*
X103428571Y-98346761D01*
X103428571Y-98346761D02*
X103380952Y-98299142D01*
X103380952Y-98299142D02*
X103333333Y-98203904D01*
X103333333Y-98203904D02*
X103333333Y-97918190D01*
X103333333Y-97918190D02*
X103380952Y-97822952D01*
X103380952Y-97822952D02*
X103428571Y-97775333D01*
X103428571Y-97775333D02*
X103523809Y-97727714D01*
X103523809Y-97727714D02*
X103666666Y-97727714D01*
X103666666Y-97727714D02*
X103761904Y-97775333D01*
X103761904Y-97775333D02*
X103809523Y-97822952D01*
X103809523Y-97822952D02*
X103857142Y-97918190D01*
X103857142Y-97918190D02*
X103857142Y-98203904D01*
X103857142Y-98203904D02*
X103809523Y-98299142D01*
X103809523Y-98299142D02*
X103761904Y-98346761D01*
X103761904Y-98346761D02*
X103666666Y-98394380D01*
X103666666Y-98394380D02*
X103523809Y-98394380D01*
X104190476Y-97727714D02*
X104428571Y-98394380D01*
X104428571Y-98394380D02*
X104666666Y-97727714D01*
X105428571Y-98346761D02*
X105333333Y-98394380D01*
X105333333Y-98394380D02*
X105142857Y-98394380D01*
X105142857Y-98394380D02*
X105047619Y-98346761D01*
X105047619Y-98346761D02*
X105000000Y-98251523D01*
X105000000Y-98251523D02*
X105000000Y-97870571D01*
X105000000Y-97870571D02*
X105047619Y-97775333D01*
X105047619Y-97775333D02*
X105142857Y-97727714D01*
X105142857Y-97727714D02*
X105333333Y-97727714D01*
X105333333Y-97727714D02*
X105428571Y-97775333D01*
X105428571Y-97775333D02*
X105476190Y-97870571D01*
X105476190Y-97870571D02*
X105476190Y-97965809D01*
X105476190Y-97965809D02*
X105000000Y-98061047D01*
X107076190Y-98394380D02*
X106742857Y-97918190D01*
X106504762Y-98394380D02*
X106504762Y-97394380D01*
X106504762Y-97394380D02*
X106885714Y-97394380D01*
X106885714Y-97394380D02*
X106980952Y-97442000D01*
X106980952Y-97442000D02*
X107028571Y-97489619D01*
X107028571Y-97489619D02*
X107076190Y-97584857D01*
X107076190Y-97584857D02*
X107076190Y-97727714D01*
X107076190Y-97727714D02*
X107028571Y-97822952D01*
X107028571Y-97822952D02*
X106980952Y-97870571D01*
X106980952Y-97870571D02*
X106885714Y-97918190D01*
X106885714Y-97918190D02*
X106504762Y-97918190D01*
X107933333Y-97727714D02*
X107933333Y-98394380D01*
X107695238Y-97346761D02*
X107457143Y-98061047D01*
X107457143Y-98061047D02*
X108076190Y-98061047D01*
X108914286Y-97727714D02*
X109295238Y-97727714D01*
X109057143Y-97394380D02*
X109057143Y-98251523D01*
X109057143Y-98251523D02*
X109104762Y-98346761D01*
X109104762Y-98346761D02*
X109200000Y-98394380D01*
X109200000Y-98394380D02*
X109295238Y-98394380D01*
X109771429Y-98394380D02*
X109676191Y-98346761D01*
X109676191Y-98346761D02*
X109628572Y-98299142D01*
X109628572Y-98299142D02*
X109580953Y-98203904D01*
X109580953Y-98203904D02*
X109580953Y-97918190D01*
X109580953Y-97918190D02*
X109628572Y-97822952D01*
X109628572Y-97822952D02*
X109676191Y-97775333D01*
X109676191Y-97775333D02*
X109771429Y-97727714D01*
X109771429Y-97727714D02*
X109914286Y-97727714D01*
X109914286Y-97727714D02*
X110009524Y-97775333D01*
X110009524Y-97775333D02*
X110057143Y-97822952D01*
X110057143Y-97822952D02*
X110104762Y-97918190D01*
X110104762Y-97918190D02*
X110104762Y-98203904D01*
X110104762Y-98203904D02*
X110057143Y-98299142D01*
X110057143Y-98299142D02*
X110009524Y-98346761D01*
X110009524Y-98346761D02*
X109914286Y-98394380D01*
X109914286Y-98394380D02*
X109771429Y-98394380D01*
X111704762Y-98394380D02*
X111371429Y-97918190D01*
X111133334Y-98394380D02*
X111133334Y-97394380D01*
X111133334Y-97394380D02*
X111514286Y-97394380D01*
X111514286Y-97394380D02*
X111609524Y-97442000D01*
X111609524Y-97442000D02*
X111657143Y-97489619D01*
X111657143Y-97489619D02*
X111704762Y-97584857D01*
X111704762Y-97584857D02*
X111704762Y-97727714D01*
X111704762Y-97727714D02*
X111657143Y-97822952D01*
X111657143Y-97822952D02*
X111609524Y-97870571D01*
X111609524Y-97870571D02*
X111514286Y-97918190D01*
X111514286Y-97918190D02*
X111133334Y-97918190D01*
X112038096Y-97394380D02*
X112657143Y-97394380D01*
X112657143Y-97394380D02*
X112323810Y-97775333D01*
X112323810Y-97775333D02*
X112466667Y-97775333D01*
X112466667Y-97775333D02*
X112561905Y-97822952D01*
X112561905Y-97822952D02*
X112609524Y-97870571D01*
X112609524Y-97870571D02*
X112657143Y-97965809D01*
X112657143Y-97965809D02*
X112657143Y-98203904D01*
X112657143Y-98203904D02*
X112609524Y-98299142D01*
X112609524Y-98299142D02*
X112561905Y-98346761D01*
X112561905Y-98346761D02*
X112466667Y-98394380D01*
X112466667Y-98394380D02*
X112180953Y-98394380D01*
X112180953Y-98394380D02*
X112085715Y-98346761D01*
X112085715Y-98346761D02*
X112038096Y-98299142D01*
X113685715Y-97727714D02*
X113685715Y-98727714D01*
X113685715Y-97775333D02*
X113780953Y-97727714D01*
X113780953Y-97727714D02*
X113971429Y-97727714D01*
X113971429Y-97727714D02*
X114066667Y-97775333D01*
X114066667Y-97775333D02*
X114114286Y-97822952D01*
X114114286Y-97822952D02*
X114161905Y-97918190D01*
X114161905Y-97918190D02*
X114161905Y-98203904D01*
X114161905Y-98203904D02*
X114114286Y-98299142D01*
X114114286Y-98299142D02*
X114066667Y-98346761D01*
X114066667Y-98346761D02*
X113971429Y-98394380D01*
X113971429Y-98394380D02*
X113780953Y-98394380D01*
X113780953Y-98394380D02*
X113685715Y-98346761D01*
X114733334Y-98394380D02*
X114638096Y-98346761D01*
X114638096Y-98346761D02*
X114590477Y-98299142D01*
X114590477Y-98299142D02*
X114542858Y-98203904D01*
X114542858Y-98203904D02*
X114542858Y-97918190D01*
X114542858Y-97918190D02*
X114590477Y-97822952D01*
X114590477Y-97822952D02*
X114638096Y-97775333D01*
X114638096Y-97775333D02*
X114733334Y-97727714D01*
X114733334Y-97727714D02*
X114876191Y-97727714D01*
X114876191Y-97727714D02*
X114971429Y-97775333D01*
X114971429Y-97775333D02*
X115019048Y-97822952D01*
X115019048Y-97822952D02*
X115066667Y-97918190D01*
X115066667Y-97918190D02*
X115066667Y-98203904D01*
X115066667Y-98203904D02*
X115019048Y-98299142D01*
X115019048Y-98299142D02*
X114971429Y-98346761D01*
X114971429Y-98346761D02*
X114876191Y-98394380D01*
X114876191Y-98394380D02*
X114733334Y-98394380D01*
X115447620Y-98346761D02*
X115542858Y-98394380D01*
X115542858Y-98394380D02*
X115733334Y-98394380D01*
X115733334Y-98394380D02*
X115828572Y-98346761D01*
X115828572Y-98346761D02*
X115876191Y-98251523D01*
X115876191Y-98251523D02*
X115876191Y-98203904D01*
X115876191Y-98203904D02*
X115828572Y-98108666D01*
X115828572Y-98108666D02*
X115733334Y-98061047D01*
X115733334Y-98061047D02*
X115590477Y-98061047D01*
X115590477Y-98061047D02*
X115495239Y-98013428D01*
X115495239Y-98013428D02*
X115447620Y-97918190D01*
X115447620Y-97918190D02*
X115447620Y-97870571D01*
X115447620Y-97870571D02*
X115495239Y-97775333D01*
X115495239Y-97775333D02*
X115590477Y-97727714D01*
X115590477Y-97727714D02*
X115733334Y-97727714D01*
X115733334Y-97727714D02*
X115828572Y-97775333D01*
X116304763Y-98394380D02*
X116304763Y-97727714D01*
X116304763Y-97394380D02*
X116257144Y-97442000D01*
X116257144Y-97442000D02*
X116304763Y-97489619D01*
X116304763Y-97489619D02*
X116352382Y-97442000D01*
X116352382Y-97442000D02*
X116304763Y-97394380D01*
X116304763Y-97394380D02*
X116304763Y-97489619D01*
X116638096Y-97727714D02*
X117019048Y-97727714D01*
X116780953Y-97394380D02*
X116780953Y-98251523D01*
X116780953Y-98251523D02*
X116828572Y-98346761D01*
X116828572Y-98346761D02*
X116923810Y-98394380D01*
X116923810Y-98394380D02*
X117019048Y-98394380D01*
X117352382Y-98394380D02*
X117352382Y-97727714D01*
X117352382Y-97394380D02*
X117304763Y-97442000D01*
X117304763Y-97442000D02*
X117352382Y-97489619D01*
X117352382Y-97489619D02*
X117400001Y-97442000D01*
X117400001Y-97442000D02*
X117352382Y-97394380D01*
X117352382Y-97394380D02*
X117352382Y-97489619D01*
X117971429Y-98394380D02*
X117876191Y-98346761D01*
X117876191Y-98346761D02*
X117828572Y-98299142D01*
X117828572Y-98299142D02*
X117780953Y-98203904D01*
X117780953Y-98203904D02*
X117780953Y-97918190D01*
X117780953Y-97918190D02*
X117828572Y-97822952D01*
X117828572Y-97822952D02*
X117876191Y-97775333D01*
X117876191Y-97775333D02*
X117971429Y-97727714D01*
X117971429Y-97727714D02*
X118114286Y-97727714D01*
X118114286Y-97727714D02*
X118209524Y-97775333D01*
X118209524Y-97775333D02*
X118257143Y-97822952D01*
X118257143Y-97822952D02*
X118304762Y-97918190D01*
X118304762Y-97918190D02*
X118304762Y-98203904D01*
X118304762Y-98203904D02*
X118257143Y-98299142D01*
X118257143Y-98299142D02*
X118209524Y-98346761D01*
X118209524Y-98346761D02*
X118114286Y-98394380D01*
X118114286Y-98394380D02*
X117971429Y-98394380D01*
X118733334Y-97727714D02*
X118733334Y-98394380D01*
X118733334Y-97822952D02*
X118780953Y-97775333D01*
X118780953Y-97775333D02*
X118876191Y-97727714D01*
X118876191Y-97727714D02*
X119019048Y-97727714D01*
X119019048Y-97727714D02*
X119114286Y-97775333D01*
X119114286Y-97775333D02*
X119161905Y-97870571D01*
X119161905Y-97870571D02*
X119161905Y-98394380D01*
X102190476Y-99966761D02*
X102333333Y-100014380D01*
X102333333Y-100014380D02*
X102571428Y-100014380D01*
X102571428Y-100014380D02*
X102666666Y-99966761D01*
X102666666Y-99966761D02*
X102714285Y-99919142D01*
X102714285Y-99919142D02*
X102761904Y-99823904D01*
X102761904Y-99823904D02*
X102761904Y-99728666D01*
X102761904Y-99728666D02*
X102714285Y-99633428D01*
X102714285Y-99633428D02*
X102666666Y-99585809D01*
X102666666Y-99585809D02*
X102571428Y-99538190D01*
X102571428Y-99538190D02*
X102380952Y-99490571D01*
X102380952Y-99490571D02*
X102285714Y-99442952D01*
X102285714Y-99442952D02*
X102238095Y-99395333D01*
X102238095Y-99395333D02*
X102190476Y-99300095D01*
X102190476Y-99300095D02*
X102190476Y-99204857D01*
X102190476Y-99204857D02*
X102238095Y-99109619D01*
X102238095Y-99109619D02*
X102285714Y-99062000D01*
X102285714Y-99062000D02*
X102380952Y-99014380D01*
X102380952Y-99014380D02*
X102619047Y-99014380D01*
X102619047Y-99014380D02*
X102761904Y-99062000D01*
X103571428Y-99966761D02*
X103476190Y-100014380D01*
X103476190Y-100014380D02*
X103285714Y-100014380D01*
X103285714Y-100014380D02*
X103190476Y-99966761D01*
X103190476Y-99966761D02*
X103142857Y-99871523D01*
X103142857Y-99871523D02*
X103142857Y-99490571D01*
X103142857Y-99490571D02*
X103190476Y-99395333D01*
X103190476Y-99395333D02*
X103285714Y-99347714D01*
X103285714Y-99347714D02*
X103476190Y-99347714D01*
X103476190Y-99347714D02*
X103571428Y-99395333D01*
X103571428Y-99395333D02*
X103619047Y-99490571D01*
X103619047Y-99490571D02*
X103619047Y-99585809D01*
X103619047Y-99585809D02*
X103142857Y-99681047D01*
X103904762Y-99347714D02*
X104285714Y-99347714D01*
X104047619Y-99014380D02*
X104047619Y-99871523D01*
X104047619Y-99871523D02*
X104095238Y-99966761D01*
X104095238Y-99966761D02*
X104190476Y-100014380D01*
X104190476Y-100014380D02*
X104285714Y-100014380D01*
X105504762Y-99014380D02*
X105504762Y-99728666D01*
X105504762Y-99728666D02*
X105457143Y-99871523D01*
X105457143Y-99871523D02*
X105361905Y-99966761D01*
X105361905Y-99966761D02*
X105219048Y-100014380D01*
X105219048Y-100014380D02*
X105123810Y-100014380D01*
X106409524Y-99347714D02*
X106409524Y-100014380D01*
X105980953Y-99347714D02*
X105980953Y-99871523D01*
X105980953Y-99871523D02*
X106028572Y-99966761D01*
X106028572Y-99966761D02*
X106123810Y-100014380D01*
X106123810Y-100014380D02*
X106266667Y-100014380D01*
X106266667Y-100014380D02*
X106361905Y-99966761D01*
X106361905Y-99966761D02*
X106409524Y-99919142D01*
X106885715Y-100014380D02*
X106885715Y-99347714D01*
X106885715Y-99442952D02*
X106933334Y-99395333D01*
X106933334Y-99395333D02*
X107028572Y-99347714D01*
X107028572Y-99347714D02*
X107171429Y-99347714D01*
X107171429Y-99347714D02*
X107266667Y-99395333D01*
X107266667Y-99395333D02*
X107314286Y-99490571D01*
X107314286Y-99490571D02*
X107314286Y-100014380D01*
X107314286Y-99490571D02*
X107361905Y-99395333D01*
X107361905Y-99395333D02*
X107457143Y-99347714D01*
X107457143Y-99347714D02*
X107600000Y-99347714D01*
X107600000Y-99347714D02*
X107695239Y-99395333D01*
X107695239Y-99395333D02*
X107742858Y-99490571D01*
X107742858Y-99490571D02*
X107742858Y-100014380D01*
X108219048Y-99347714D02*
X108219048Y-100347714D01*
X108219048Y-99395333D02*
X108314286Y-99347714D01*
X108314286Y-99347714D02*
X108504762Y-99347714D01*
X108504762Y-99347714D02*
X108600000Y-99395333D01*
X108600000Y-99395333D02*
X108647619Y-99442952D01*
X108647619Y-99442952D02*
X108695238Y-99538190D01*
X108695238Y-99538190D02*
X108695238Y-99823904D01*
X108695238Y-99823904D02*
X108647619Y-99919142D01*
X108647619Y-99919142D02*
X108600000Y-99966761D01*
X108600000Y-99966761D02*
X108504762Y-100014380D01*
X108504762Y-100014380D02*
X108314286Y-100014380D01*
X108314286Y-100014380D02*
X108219048Y-99966761D01*
X109504762Y-99966761D02*
X109409524Y-100014380D01*
X109409524Y-100014380D02*
X109219048Y-100014380D01*
X109219048Y-100014380D02*
X109123810Y-99966761D01*
X109123810Y-99966761D02*
X109076191Y-99871523D01*
X109076191Y-99871523D02*
X109076191Y-99490571D01*
X109076191Y-99490571D02*
X109123810Y-99395333D01*
X109123810Y-99395333D02*
X109219048Y-99347714D01*
X109219048Y-99347714D02*
X109409524Y-99347714D01*
X109409524Y-99347714D02*
X109504762Y-99395333D01*
X109504762Y-99395333D02*
X109552381Y-99490571D01*
X109552381Y-99490571D02*
X109552381Y-99585809D01*
X109552381Y-99585809D02*
X109076191Y-99681047D01*
X109980953Y-100014380D02*
X109980953Y-99347714D01*
X109980953Y-99538190D02*
X110028572Y-99442952D01*
X110028572Y-99442952D02*
X110076191Y-99395333D01*
X110076191Y-99395333D02*
X110171429Y-99347714D01*
X110171429Y-99347714D02*
X110266667Y-99347714D01*
X111057144Y-99347714D02*
X111438096Y-99347714D01*
X111200001Y-99014380D02*
X111200001Y-99871523D01*
X111200001Y-99871523D02*
X111247620Y-99966761D01*
X111247620Y-99966761D02*
X111342858Y-100014380D01*
X111342858Y-100014380D02*
X111438096Y-100014380D01*
X111914287Y-100014380D02*
X111819049Y-99966761D01*
X111819049Y-99966761D02*
X111771430Y-99919142D01*
X111771430Y-99919142D02*
X111723811Y-99823904D01*
X111723811Y-99823904D02*
X111723811Y-99538190D01*
X111723811Y-99538190D02*
X111771430Y-99442952D01*
X111771430Y-99442952D02*
X111819049Y-99395333D01*
X111819049Y-99395333D02*
X111914287Y-99347714D01*
X111914287Y-99347714D02*
X112057144Y-99347714D01*
X112057144Y-99347714D02*
X112152382Y-99395333D01*
X112152382Y-99395333D02*
X112200001Y-99442952D01*
X112200001Y-99442952D02*
X112247620Y-99538190D01*
X112247620Y-99538190D02*
X112247620Y-99823904D01*
X112247620Y-99823904D02*
X112200001Y-99919142D01*
X112200001Y-99919142D02*
X112152382Y-99966761D01*
X112152382Y-99966761D02*
X112057144Y-100014380D01*
X112057144Y-100014380D02*
X111914287Y-100014380D01*
X113847620Y-100014380D02*
X113514287Y-99538190D01*
X113276192Y-100014380D02*
X113276192Y-99014380D01*
X113276192Y-99014380D02*
X113657144Y-99014380D01*
X113657144Y-99014380D02*
X113752382Y-99062000D01*
X113752382Y-99062000D02*
X113800001Y-99109619D01*
X113800001Y-99109619D02*
X113847620Y-99204857D01*
X113847620Y-99204857D02*
X113847620Y-99347714D01*
X113847620Y-99347714D02*
X113800001Y-99442952D01*
X113800001Y-99442952D02*
X113752382Y-99490571D01*
X113752382Y-99490571D02*
X113657144Y-99538190D01*
X113657144Y-99538190D02*
X113276192Y-99538190D01*
X114752382Y-99014380D02*
X114276192Y-99014380D01*
X114276192Y-99014380D02*
X114228573Y-99490571D01*
X114228573Y-99490571D02*
X114276192Y-99442952D01*
X114276192Y-99442952D02*
X114371430Y-99395333D01*
X114371430Y-99395333D02*
X114609525Y-99395333D01*
X114609525Y-99395333D02*
X114704763Y-99442952D01*
X114704763Y-99442952D02*
X114752382Y-99490571D01*
X114752382Y-99490571D02*
X114800001Y-99585809D01*
X114800001Y-99585809D02*
X114800001Y-99823904D01*
X114800001Y-99823904D02*
X114752382Y-99919142D01*
X114752382Y-99919142D02*
X114704763Y-99966761D01*
X114704763Y-99966761D02*
X114609525Y-100014380D01*
X114609525Y-100014380D02*
X114371430Y-100014380D01*
X114371430Y-100014380D02*
X114276192Y-99966761D01*
X114276192Y-99966761D02*
X114228573Y-99919142D01*
X115828573Y-99347714D02*
X115828573Y-100347714D01*
X115828573Y-99395333D02*
X115923811Y-99347714D01*
X115923811Y-99347714D02*
X116114287Y-99347714D01*
X116114287Y-99347714D02*
X116209525Y-99395333D01*
X116209525Y-99395333D02*
X116257144Y-99442952D01*
X116257144Y-99442952D02*
X116304763Y-99538190D01*
X116304763Y-99538190D02*
X116304763Y-99823904D01*
X116304763Y-99823904D02*
X116257144Y-99919142D01*
X116257144Y-99919142D02*
X116209525Y-99966761D01*
X116209525Y-99966761D02*
X116114287Y-100014380D01*
X116114287Y-100014380D02*
X115923811Y-100014380D01*
X115923811Y-100014380D02*
X115828573Y-99966761D01*
X116876192Y-100014380D02*
X116780954Y-99966761D01*
X116780954Y-99966761D02*
X116733335Y-99919142D01*
X116733335Y-99919142D02*
X116685716Y-99823904D01*
X116685716Y-99823904D02*
X116685716Y-99538190D01*
X116685716Y-99538190D02*
X116733335Y-99442952D01*
X116733335Y-99442952D02*
X116780954Y-99395333D01*
X116780954Y-99395333D02*
X116876192Y-99347714D01*
X116876192Y-99347714D02*
X117019049Y-99347714D01*
X117019049Y-99347714D02*
X117114287Y-99395333D01*
X117114287Y-99395333D02*
X117161906Y-99442952D01*
X117161906Y-99442952D02*
X117209525Y-99538190D01*
X117209525Y-99538190D02*
X117209525Y-99823904D01*
X117209525Y-99823904D02*
X117161906Y-99919142D01*
X117161906Y-99919142D02*
X117114287Y-99966761D01*
X117114287Y-99966761D02*
X117019049Y-100014380D01*
X117019049Y-100014380D02*
X116876192Y-100014380D01*
X117590478Y-99966761D02*
X117685716Y-100014380D01*
X117685716Y-100014380D02*
X117876192Y-100014380D01*
X117876192Y-100014380D02*
X117971430Y-99966761D01*
X117971430Y-99966761D02*
X118019049Y-99871523D01*
X118019049Y-99871523D02*
X118019049Y-99823904D01*
X118019049Y-99823904D02*
X117971430Y-99728666D01*
X117971430Y-99728666D02*
X117876192Y-99681047D01*
X117876192Y-99681047D02*
X117733335Y-99681047D01*
X117733335Y-99681047D02*
X117638097Y-99633428D01*
X117638097Y-99633428D02*
X117590478Y-99538190D01*
X117590478Y-99538190D02*
X117590478Y-99490571D01*
X117590478Y-99490571D02*
X117638097Y-99395333D01*
X117638097Y-99395333D02*
X117733335Y-99347714D01*
X117733335Y-99347714D02*
X117876192Y-99347714D01*
X117876192Y-99347714D02*
X117971430Y-99395333D01*
X118447621Y-100014380D02*
X118447621Y-99347714D01*
X118447621Y-99014380D02*
X118400002Y-99062000D01*
X118400002Y-99062000D02*
X118447621Y-99109619D01*
X118447621Y-99109619D02*
X118495240Y-99062000D01*
X118495240Y-99062000D02*
X118447621Y-99014380D01*
X118447621Y-99014380D02*
X118447621Y-99109619D01*
X118780954Y-99347714D02*
X119161906Y-99347714D01*
X118923811Y-99014380D02*
X118923811Y-99871523D01*
X118923811Y-99871523D02*
X118971430Y-99966761D01*
X118971430Y-99966761D02*
X119066668Y-100014380D01*
X119066668Y-100014380D02*
X119161906Y-100014380D01*
X119495240Y-100014380D02*
X119495240Y-99347714D01*
X119495240Y-99014380D02*
X119447621Y-99062000D01*
X119447621Y-99062000D02*
X119495240Y-99109619D01*
X119495240Y-99109619D02*
X119542859Y-99062000D01*
X119542859Y-99062000D02*
X119495240Y-99014380D01*
X119495240Y-99014380D02*
X119495240Y-99109619D01*
X120114287Y-100014380D02*
X120019049Y-99966761D01*
X120019049Y-99966761D02*
X119971430Y-99919142D01*
X119971430Y-99919142D02*
X119923811Y-99823904D01*
X119923811Y-99823904D02*
X119923811Y-99538190D01*
X119923811Y-99538190D02*
X119971430Y-99442952D01*
X119971430Y-99442952D02*
X120019049Y-99395333D01*
X120019049Y-99395333D02*
X120114287Y-99347714D01*
X120114287Y-99347714D02*
X120257144Y-99347714D01*
X120257144Y-99347714D02*
X120352382Y-99395333D01*
X120352382Y-99395333D02*
X120400001Y-99442952D01*
X120400001Y-99442952D02*
X120447620Y-99538190D01*
X120447620Y-99538190D02*
X120447620Y-99823904D01*
X120447620Y-99823904D02*
X120400001Y-99919142D01*
X120400001Y-99919142D02*
X120352382Y-99966761D01*
X120352382Y-99966761D02*
X120257144Y-100014380D01*
X120257144Y-100014380D02*
X120114287Y-100014380D01*
X120876192Y-99347714D02*
X120876192Y-100014380D01*
X120876192Y-99442952D02*
X120923811Y-99395333D01*
X120923811Y-99395333D02*
X121019049Y-99347714D01*
X121019049Y-99347714D02*
X121161906Y-99347714D01*
X121161906Y-99347714D02*
X121257144Y-99395333D01*
X121257144Y-99395333D02*
X121304763Y-99490571D01*
X121304763Y-99490571D02*
X121304763Y-100014380D01*
X102190476Y-101586761D02*
X102333333Y-101634380D01*
X102333333Y-101634380D02*
X102571428Y-101634380D01*
X102571428Y-101634380D02*
X102666666Y-101586761D01*
X102666666Y-101586761D02*
X102714285Y-101539142D01*
X102714285Y-101539142D02*
X102761904Y-101443904D01*
X102761904Y-101443904D02*
X102761904Y-101348666D01*
X102761904Y-101348666D02*
X102714285Y-101253428D01*
X102714285Y-101253428D02*
X102666666Y-101205809D01*
X102666666Y-101205809D02*
X102571428Y-101158190D01*
X102571428Y-101158190D02*
X102380952Y-101110571D01*
X102380952Y-101110571D02*
X102285714Y-101062952D01*
X102285714Y-101062952D02*
X102238095Y-101015333D01*
X102238095Y-101015333D02*
X102190476Y-100920095D01*
X102190476Y-100920095D02*
X102190476Y-100824857D01*
X102190476Y-100824857D02*
X102238095Y-100729619D01*
X102238095Y-100729619D02*
X102285714Y-100682000D01*
X102285714Y-100682000D02*
X102380952Y-100634380D01*
X102380952Y-100634380D02*
X102619047Y-100634380D01*
X102619047Y-100634380D02*
X102761904Y-100682000D01*
X103571428Y-101586761D02*
X103476190Y-101634380D01*
X103476190Y-101634380D02*
X103285714Y-101634380D01*
X103285714Y-101634380D02*
X103190476Y-101586761D01*
X103190476Y-101586761D02*
X103142857Y-101491523D01*
X103142857Y-101491523D02*
X103142857Y-101110571D01*
X103142857Y-101110571D02*
X103190476Y-101015333D01*
X103190476Y-101015333D02*
X103285714Y-100967714D01*
X103285714Y-100967714D02*
X103476190Y-100967714D01*
X103476190Y-100967714D02*
X103571428Y-101015333D01*
X103571428Y-101015333D02*
X103619047Y-101110571D01*
X103619047Y-101110571D02*
X103619047Y-101205809D01*
X103619047Y-101205809D02*
X103142857Y-101301047D01*
X103904762Y-100967714D02*
X104285714Y-100967714D01*
X104047619Y-100634380D02*
X104047619Y-101491523D01*
X104047619Y-101491523D02*
X104095238Y-101586761D01*
X104095238Y-101586761D02*
X104190476Y-101634380D01*
X104190476Y-101634380D02*
X104285714Y-101634380D01*
X105504762Y-100634380D02*
X105504762Y-101348666D01*
X105504762Y-101348666D02*
X105457143Y-101491523D01*
X105457143Y-101491523D02*
X105361905Y-101586761D01*
X105361905Y-101586761D02*
X105219048Y-101634380D01*
X105219048Y-101634380D02*
X105123810Y-101634380D01*
X106409524Y-100967714D02*
X106409524Y-101634380D01*
X105980953Y-100967714D02*
X105980953Y-101491523D01*
X105980953Y-101491523D02*
X106028572Y-101586761D01*
X106028572Y-101586761D02*
X106123810Y-101634380D01*
X106123810Y-101634380D02*
X106266667Y-101634380D01*
X106266667Y-101634380D02*
X106361905Y-101586761D01*
X106361905Y-101586761D02*
X106409524Y-101539142D01*
X106885715Y-101634380D02*
X106885715Y-100967714D01*
X106885715Y-101062952D02*
X106933334Y-101015333D01*
X106933334Y-101015333D02*
X107028572Y-100967714D01*
X107028572Y-100967714D02*
X107171429Y-100967714D01*
X107171429Y-100967714D02*
X107266667Y-101015333D01*
X107266667Y-101015333D02*
X107314286Y-101110571D01*
X107314286Y-101110571D02*
X107314286Y-101634380D01*
X107314286Y-101110571D02*
X107361905Y-101015333D01*
X107361905Y-101015333D02*
X107457143Y-100967714D01*
X107457143Y-100967714D02*
X107600000Y-100967714D01*
X107600000Y-100967714D02*
X107695239Y-101015333D01*
X107695239Y-101015333D02*
X107742858Y-101110571D01*
X107742858Y-101110571D02*
X107742858Y-101634380D01*
X108219048Y-100967714D02*
X108219048Y-101967714D01*
X108219048Y-101015333D02*
X108314286Y-100967714D01*
X108314286Y-100967714D02*
X108504762Y-100967714D01*
X108504762Y-100967714D02*
X108600000Y-101015333D01*
X108600000Y-101015333D02*
X108647619Y-101062952D01*
X108647619Y-101062952D02*
X108695238Y-101158190D01*
X108695238Y-101158190D02*
X108695238Y-101443904D01*
X108695238Y-101443904D02*
X108647619Y-101539142D01*
X108647619Y-101539142D02*
X108600000Y-101586761D01*
X108600000Y-101586761D02*
X108504762Y-101634380D01*
X108504762Y-101634380D02*
X108314286Y-101634380D01*
X108314286Y-101634380D02*
X108219048Y-101586761D01*
X109504762Y-101586761D02*
X109409524Y-101634380D01*
X109409524Y-101634380D02*
X109219048Y-101634380D01*
X109219048Y-101634380D02*
X109123810Y-101586761D01*
X109123810Y-101586761D02*
X109076191Y-101491523D01*
X109076191Y-101491523D02*
X109076191Y-101110571D01*
X109076191Y-101110571D02*
X109123810Y-101015333D01*
X109123810Y-101015333D02*
X109219048Y-100967714D01*
X109219048Y-100967714D02*
X109409524Y-100967714D01*
X109409524Y-100967714D02*
X109504762Y-101015333D01*
X109504762Y-101015333D02*
X109552381Y-101110571D01*
X109552381Y-101110571D02*
X109552381Y-101205809D01*
X109552381Y-101205809D02*
X109076191Y-101301047D01*
X109980953Y-101634380D02*
X109980953Y-100967714D01*
X109980953Y-101158190D02*
X110028572Y-101062952D01*
X110028572Y-101062952D02*
X110076191Y-101015333D01*
X110076191Y-101015333D02*
X110171429Y-100967714D01*
X110171429Y-100967714D02*
X110266667Y-100967714D01*
X111057144Y-100967714D02*
X111438096Y-100967714D01*
X111200001Y-100634380D02*
X111200001Y-101491523D01*
X111200001Y-101491523D02*
X111247620Y-101586761D01*
X111247620Y-101586761D02*
X111342858Y-101634380D01*
X111342858Y-101634380D02*
X111438096Y-101634380D01*
X111914287Y-101634380D02*
X111819049Y-101586761D01*
X111819049Y-101586761D02*
X111771430Y-101539142D01*
X111771430Y-101539142D02*
X111723811Y-101443904D01*
X111723811Y-101443904D02*
X111723811Y-101158190D01*
X111723811Y-101158190D02*
X111771430Y-101062952D01*
X111771430Y-101062952D02*
X111819049Y-101015333D01*
X111819049Y-101015333D02*
X111914287Y-100967714D01*
X111914287Y-100967714D02*
X112057144Y-100967714D01*
X112057144Y-100967714D02*
X112152382Y-101015333D01*
X112152382Y-101015333D02*
X112200001Y-101062952D01*
X112200001Y-101062952D02*
X112247620Y-101158190D01*
X112247620Y-101158190D02*
X112247620Y-101443904D01*
X112247620Y-101443904D02*
X112200001Y-101539142D01*
X112200001Y-101539142D02*
X112152382Y-101586761D01*
X112152382Y-101586761D02*
X112057144Y-101634380D01*
X112057144Y-101634380D02*
X111914287Y-101634380D01*
X113847620Y-101634380D02*
X113514287Y-101158190D01*
X113276192Y-101634380D02*
X113276192Y-100634380D01*
X113276192Y-100634380D02*
X113657144Y-100634380D01*
X113657144Y-100634380D02*
X113752382Y-100682000D01*
X113752382Y-100682000D02*
X113800001Y-100729619D01*
X113800001Y-100729619D02*
X113847620Y-100824857D01*
X113847620Y-100824857D02*
X113847620Y-100967714D01*
X113847620Y-100967714D02*
X113800001Y-101062952D01*
X113800001Y-101062952D02*
X113752382Y-101110571D01*
X113752382Y-101110571D02*
X113657144Y-101158190D01*
X113657144Y-101158190D02*
X113276192Y-101158190D01*
X114180954Y-100634380D02*
X114847620Y-100634380D01*
X114847620Y-100634380D02*
X114419049Y-101634380D01*
X115828573Y-100967714D02*
X115828573Y-101967714D01*
X115828573Y-101015333D02*
X115923811Y-100967714D01*
X115923811Y-100967714D02*
X116114287Y-100967714D01*
X116114287Y-100967714D02*
X116209525Y-101015333D01*
X116209525Y-101015333D02*
X116257144Y-101062952D01*
X116257144Y-101062952D02*
X116304763Y-101158190D01*
X116304763Y-101158190D02*
X116304763Y-101443904D01*
X116304763Y-101443904D02*
X116257144Y-101539142D01*
X116257144Y-101539142D02*
X116209525Y-101586761D01*
X116209525Y-101586761D02*
X116114287Y-101634380D01*
X116114287Y-101634380D02*
X115923811Y-101634380D01*
X115923811Y-101634380D02*
X115828573Y-101586761D01*
X116876192Y-101634380D02*
X116780954Y-101586761D01*
X116780954Y-101586761D02*
X116733335Y-101539142D01*
X116733335Y-101539142D02*
X116685716Y-101443904D01*
X116685716Y-101443904D02*
X116685716Y-101158190D01*
X116685716Y-101158190D02*
X116733335Y-101062952D01*
X116733335Y-101062952D02*
X116780954Y-101015333D01*
X116780954Y-101015333D02*
X116876192Y-100967714D01*
X116876192Y-100967714D02*
X117019049Y-100967714D01*
X117019049Y-100967714D02*
X117114287Y-101015333D01*
X117114287Y-101015333D02*
X117161906Y-101062952D01*
X117161906Y-101062952D02*
X117209525Y-101158190D01*
X117209525Y-101158190D02*
X117209525Y-101443904D01*
X117209525Y-101443904D02*
X117161906Y-101539142D01*
X117161906Y-101539142D02*
X117114287Y-101586761D01*
X117114287Y-101586761D02*
X117019049Y-101634380D01*
X117019049Y-101634380D02*
X116876192Y-101634380D01*
X117590478Y-101586761D02*
X117685716Y-101634380D01*
X117685716Y-101634380D02*
X117876192Y-101634380D01*
X117876192Y-101634380D02*
X117971430Y-101586761D01*
X117971430Y-101586761D02*
X118019049Y-101491523D01*
X118019049Y-101491523D02*
X118019049Y-101443904D01*
X118019049Y-101443904D02*
X117971430Y-101348666D01*
X117971430Y-101348666D02*
X117876192Y-101301047D01*
X117876192Y-101301047D02*
X117733335Y-101301047D01*
X117733335Y-101301047D02*
X117638097Y-101253428D01*
X117638097Y-101253428D02*
X117590478Y-101158190D01*
X117590478Y-101158190D02*
X117590478Y-101110571D01*
X117590478Y-101110571D02*
X117638097Y-101015333D01*
X117638097Y-101015333D02*
X117733335Y-100967714D01*
X117733335Y-100967714D02*
X117876192Y-100967714D01*
X117876192Y-100967714D02*
X117971430Y-101015333D01*
X118447621Y-101634380D02*
X118447621Y-100967714D01*
X118447621Y-100634380D02*
X118400002Y-100682000D01*
X118400002Y-100682000D02*
X118447621Y-100729619D01*
X118447621Y-100729619D02*
X118495240Y-100682000D01*
X118495240Y-100682000D02*
X118447621Y-100634380D01*
X118447621Y-100634380D02*
X118447621Y-100729619D01*
X118780954Y-100967714D02*
X119161906Y-100967714D01*
X118923811Y-100634380D02*
X118923811Y-101491523D01*
X118923811Y-101491523D02*
X118971430Y-101586761D01*
X118971430Y-101586761D02*
X119066668Y-101634380D01*
X119066668Y-101634380D02*
X119161906Y-101634380D01*
X119495240Y-101634380D02*
X119495240Y-100967714D01*
X119495240Y-100634380D02*
X119447621Y-100682000D01*
X119447621Y-100682000D02*
X119495240Y-100729619D01*
X119495240Y-100729619D02*
X119542859Y-100682000D01*
X119542859Y-100682000D02*
X119495240Y-100634380D01*
X119495240Y-100634380D02*
X119495240Y-100729619D01*
X120114287Y-101634380D02*
X120019049Y-101586761D01*
X120019049Y-101586761D02*
X119971430Y-101539142D01*
X119971430Y-101539142D02*
X119923811Y-101443904D01*
X119923811Y-101443904D02*
X119923811Y-101158190D01*
X119923811Y-101158190D02*
X119971430Y-101062952D01*
X119971430Y-101062952D02*
X120019049Y-101015333D01*
X120019049Y-101015333D02*
X120114287Y-100967714D01*
X120114287Y-100967714D02*
X120257144Y-100967714D01*
X120257144Y-100967714D02*
X120352382Y-101015333D01*
X120352382Y-101015333D02*
X120400001Y-101062952D01*
X120400001Y-101062952D02*
X120447620Y-101158190D01*
X120447620Y-101158190D02*
X120447620Y-101443904D01*
X120447620Y-101443904D02*
X120400001Y-101539142D01*
X120400001Y-101539142D02*
X120352382Y-101586761D01*
X120352382Y-101586761D02*
X120257144Y-101634380D01*
X120257144Y-101634380D02*
X120114287Y-101634380D01*
X120876192Y-100967714D02*
X120876192Y-101634380D01*
X120876192Y-101062952D02*
X120923811Y-101015333D01*
X120923811Y-101015333D02*
X121019049Y-100967714D01*
X121019049Y-100967714D02*
X121161906Y-100967714D01*
X121161906Y-100967714D02*
X121257144Y-101015333D01*
X121257144Y-101015333D02*
X121304763Y-101110571D01*
X121304763Y-101110571D02*
X121304763Y-101634380D01*
X102190476Y-103206761D02*
X102333333Y-103254380D01*
X102333333Y-103254380D02*
X102571428Y-103254380D01*
X102571428Y-103254380D02*
X102666666Y-103206761D01*
X102666666Y-103206761D02*
X102714285Y-103159142D01*
X102714285Y-103159142D02*
X102761904Y-103063904D01*
X102761904Y-103063904D02*
X102761904Y-102968666D01*
X102761904Y-102968666D02*
X102714285Y-102873428D01*
X102714285Y-102873428D02*
X102666666Y-102825809D01*
X102666666Y-102825809D02*
X102571428Y-102778190D01*
X102571428Y-102778190D02*
X102380952Y-102730571D01*
X102380952Y-102730571D02*
X102285714Y-102682952D01*
X102285714Y-102682952D02*
X102238095Y-102635333D01*
X102238095Y-102635333D02*
X102190476Y-102540095D01*
X102190476Y-102540095D02*
X102190476Y-102444857D01*
X102190476Y-102444857D02*
X102238095Y-102349619D01*
X102238095Y-102349619D02*
X102285714Y-102302000D01*
X102285714Y-102302000D02*
X102380952Y-102254380D01*
X102380952Y-102254380D02*
X102619047Y-102254380D01*
X102619047Y-102254380D02*
X102761904Y-102302000D01*
X103333333Y-103254380D02*
X103238095Y-103206761D01*
X103238095Y-103206761D02*
X103190476Y-103159142D01*
X103190476Y-103159142D02*
X103142857Y-103063904D01*
X103142857Y-103063904D02*
X103142857Y-102778190D01*
X103142857Y-102778190D02*
X103190476Y-102682952D01*
X103190476Y-102682952D02*
X103238095Y-102635333D01*
X103238095Y-102635333D02*
X103333333Y-102587714D01*
X103333333Y-102587714D02*
X103476190Y-102587714D01*
X103476190Y-102587714D02*
X103571428Y-102635333D01*
X103571428Y-102635333D02*
X103619047Y-102682952D01*
X103619047Y-102682952D02*
X103666666Y-102778190D01*
X103666666Y-102778190D02*
X103666666Y-103063904D01*
X103666666Y-103063904D02*
X103619047Y-103159142D01*
X103619047Y-103159142D02*
X103571428Y-103206761D01*
X103571428Y-103206761D02*
X103476190Y-103254380D01*
X103476190Y-103254380D02*
X103333333Y-103254380D01*
X104238095Y-103254380D02*
X104142857Y-103206761D01*
X104142857Y-103206761D02*
X104095238Y-103111523D01*
X104095238Y-103111523D02*
X104095238Y-102254380D01*
X105047619Y-103254380D02*
X105047619Y-102254380D01*
X105047619Y-103206761D02*
X104952381Y-103254380D01*
X104952381Y-103254380D02*
X104761905Y-103254380D01*
X104761905Y-103254380D02*
X104666667Y-103206761D01*
X104666667Y-103206761D02*
X104619048Y-103159142D01*
X104619048Y-103159142D02*
X104571429Y-103063904D01*
X104571429Y-103063904D02*
X104571429Y-102778190D01*
X104571429Y-102778190D02*
X104619048Y-102682952D01*
X104619048Y-102682952D02*
X104666667Y-102635333D01*
X104666667Y-102635333D02*
X104761905Y-102587714D01*
X104761905Y-102587714D02*
X104952381Y-102587714D01*
X104952381Y-102587714D02*
X105047619Y-102635333D01*
X105904762Y-103206761D02*
X105809524Y-103254380D01*
X105809524Y-103254380D02*
X105619048Y-103254380D01*
X105619048Y-103254380D02*
X105523810Y-103206761D01*
X105523810Y-103206761D02*
X105476191Y-103111523D01*
X105476191Y-103111523D02*
X105476191Y-102730571D01*
X105476191Y-102730571D02*
X105523810Y-102635333D01*
X105523810Y-102635333D02*
X105619048Y-102587714D01*
X105619048Y-102587714D02*
X105809524Y-102587714D01*
X105809524Y-102587714D02*
X105904762Y-102635333D01*
X105904762Y-102635333D02*
X105952381Y-102730571D01*
X105952381Y-102730571D02*
X105952381Y-102825809D01*
X105952381Y-102825809D02*
X105476191Y-102921047D01*
X106380953Y-103254380D02*
X106380953Y-102587714D01*
X106380953Y-102778190D02*
X106428572Y-102682952D01*
X106428572Y-102682952D02*
X106476191Y-102635333D01*
X106476191Y-102635333D02*
X106571429Y-102587714D01*
X106571429Y-102587714D02*
X106666667Y-102587714D01*
X107742858Y-103254380D02*
X107647620Y-103206761D01*
X107647620Y-103206761D02*
X107600001Y-103159142D01*
X107600001Y-103159142D02*
X107552382Y-103063904D01*
X107552382Y-103063904D02*
X107552382Y-102778190D01*
X107552382Y-102778190D02*
X107600001Y-102682952D01*
X107600001Y-102682952D02*
X107647620Y-102635333D01*
X107647620Y-102635333D02*
X107742858Y-102587714D01*
X107742858Y-102587714D02*
X107885715Y-102587714D01*
X107885715Y-102587714D02*
X107980953Y-102635333D01*
X107980953Y-102635333D02*
X108028572Y-102682952D01*
X108028572Y-102682952D02*
X108076191Y-102778190D01*
X108076191Y-102778190D02*
X108076191Y-103063904D01*
X108076191Y-103063904D02*
X108028572Y-103159142D01*
X108028572Y-103159142D02*
X107980953Y-103206761D01*
X107980953Y-103206761D02*
X107885715Y-103254380D01*
X107885715Y-103254380D02*
X107742858Y-103254380D01*
X108504763Y-102587714D02*
X108504763Y-103254380D01*
X108504763Y-102682952D02*
X108552382Y-102635333D01*
X108552382Y-102635333D02*
X108647620Y-102587714D01*
X108647620Y-102587714D02*
X108790477Y-102587714D01*
X108790477Y-102587714D02*
X108885715Y-102635333D01*
X108885715Y-102635333D02*
X108933334Y-102730571D01*
X108933334Y-102730571D02*
X108933334Y-103254380D01*
X109552382Y-103254380D02*
X109457144Y-103206761D01*
X109457144Y-103206761D02*
X109409525Y-103111523D01*
X109409525Y-103111523D02*
X109409525Y-102254380D01*
X109838097Y-102587714D02*
X110076192Y-103254380D01*
X110314287Y-102587714D02*
X110076192Y-103254380D01*
X110076192Y-103254380D02*
X109980954Y-103492476D01*
X109980954Y-103492476D02*
X109933335Y-103540095D01*
X109933335Y-103540095D02*
X109838097Y-103587714D01*
X111438097Y-103254380D02*
X111342859Y-103206761D01*
X111342859Y-103206761D02*
X111295240Y-103159142D01*
X111295240Y-103159142D02*
X111247621Y-103063904D01*
X111247621Y-103063904D02*
X111247621Y-102778190D01*
X111247621Y-102778190D02*
X111295240Y-102682952D01*
X111295240Y-102682952D02*
X111342859Y-102635333D01*
X111342859Y-102635333D02*
X111438097Y-102587714D01*
X111438097Y-102587714D02*
X111580954Y-102587714D01*
X111580954Y-102587714D02*
X111676192Y-102635333D01*
X111676192Y-102635333D02*
X111723811Y-102682952D01*
X111723811Y-102682952D02*
X111771430Y-102778190D01*
X111771430Y-102778190D02*
X111771430Y-103063904D01*
X111771430Y-103063904D02*
X111723811Y-103159142D01*
X111723811Y-103159142D02*
X111676192Y-103206761D01*
X111676192Y-103206761D02*
X111580954Y-103254380D01*
X111580954Y-103254380D02*
X111438097Y-103254380D01*
X112200002Y-102587714D02*
X112200002Y-103254380D01*
X112200002Y-102682952D02*
X112247621Y-102635333D01*
X112247621Y-102635333D02*
X112342859Y-102587714D01*
X112342859Y-102587714D02*
X112485716Y-102587714D01*
X112485716Y-102587714D02*
X112580954Y-102635333D01*
X112580954Y-102635333D02*
X112628573Y-102730571D01*
X112628573Y-102730571D02*
X112628573Y-103254380D01*
X113485716Y-103206761D02*
X113390478Y-103254380D01*
X113390478Y-103254380D02*
X113200002Y-103254380D01*
X113200002Y-103254380D02*
X113104764Y-103206761D01*
X113104764Y-103206761D02*
X113057145Y-103111523D01*
X113057145Y-103111523D02*
X113057145Y-102730571D01*
X113057145Y-102730571D02*
X113104764Y-102635333D01*
X113104764Y-102635333D02*
X113200002Y-102587714D01*
X113200002Y-102587714D02*
X113390478Y-102587714D01*
X113390478Y-102587714D02*
X113485716Y-102635333D01*
X113485716Y-102635333D02*
X113533335Y-102730571D01*
X113533335Y-102730571D02*
X113533335Y-102825809D01*
X113533335Y-102825809D02*
X113057145Y-102921047D01*
X115133335Y-103159142D02*
X115085716Y-103206761D01*
X115085716Y-103206761D02*
X114942859Y-103254380D01*
X114942859Y-103254380D02*
X114847621Y-103254380D01*
X114847621Y-103254380D02*
X114704764Y-103206761D01*
X114704764Y-103206761D02*
X114609526Y-103111523D01*
X114609526Y-103111523D02*
X114561907Y-103016285D01*
X114561907Y-103016285D02*
X114514288Y-102825809D01*
X114514288Y-102825809D02*
X114514288Y-102682952D01*
X114514288Y-102682952D02*
X114561907Y-102492476D01*
X114561907Y-102492476D02*
X114609526Y-102397238D01*
X114609526Y-102397238D02*
X114704764Y-102302000D01*
X114704764Y-102302000D02*
X114847621Y-102254380D01*
X114847621Y-102254380D02*
X114942859Y-102254380D01*
X114942859Y-102254380D02*
X115085716Y-102302000D01*
X115085716Y-102302000D02*
X115133335Y-102349619D01*
X116590478Y-103254380D02*
X116590478Y-102730571D01*
X116590478Y-102730571D02*
X116542859Y-102635333D01*
X116542859Y-102635333D02*
X116447621Y-102587714D01*
X116447621Y-102587714D02*
X116257145Y-102587714D01*
X116257145Y-102587714D02*
X116161907Y-102635333D01*
X116590478Y-103206761D02*
X116495240Y-103254380D01*
X116495240Y-103254380D02*
X116257145Y-103254380D01*
X116257145Y-103254380D02*
X116161907Y-103206761D01*
X116161907Y-103206761D02*
X116114288Y-103111523D01*
X116114288Y-103111523D02*
X116114288Y-103016285D01*
X116114288Y-103016285D02*
X116161907Y-102921047D01*
X116161907Y-102921047D02*
X116257145Y-102873428D01*
X116257145Y-102873428D02*
X116495240Y-102873428D01*
X116495240Y-102873428D02*
X116590478Y-102825809D01*
X117066669Y-102587714D02*
X117066669Y-103254380D01*
X117066669Y-102682952D02*
X117114288Y-102635333D01*
X117114288Y-102635333D02*
X117209526Y-102587714D01*
X117209526Y-102587714D02*
X117352383Y-102587714D01*
X117352383Y-102587714D02*
X117447621Y-102635333D01*
X117447621Y-102635333D02*
X117495240Y-102730571D01*
X117495240Y-102730571D02*
X117495240Y-103254380D01*
X118400002Y-103254380D02*
X118400002Y-102254380D01*
X118400002Y-103206761D02*
X118304764Y-103254380D01*
X118304764Y-103254380D02*
X118114288Y-103254380D01*
X118114288Y-103254380D02*
X118019050Y-103206761D01*
X118019050Y-103206761D02*
X117971431Y-103159142D01*
X117971431Y-103159142D02*
X117923812Y-103063904D01*
X117923812Y-103063904D02*
X117923812Y-102778190D01*
X117923812Y-102778190D02*
X117971431Y-102682952D01*
X117971431Y-102682952D02*
X118019050Y-102635333D01*
X118019050Y-102635333D02*
X118114288Y-102587714D01*
X118114288Y-102587714D02*
X118304764Y-102587714D01*
X118304764Y-102587714D02*
X118400002Y-102635333D01*
X119619050Y-103254380D02*
X119523812Y-103206761D01*
X119523812Y-103206761D02*
X119476193Y-103159142D01*
X119476193Y-103159142D02*
X119428574Y-103063904D01*
X119428574Y-103063904D02*
X119428574Y-102778190D01*
X119428574Y-102778190D02*
X119476193Y-102682952D01*
X119476193Y-102682952D02*
X119523812Y-102635333D01*
X119523812Y-102635333D02*
X119619050Y-102587714D01*
X119619050Y-102587714D02*
X119761907Y-102587714D01*
X119761907Y-102587714D02*
X119857145Y-102635333D01*
X119857145Y-102635333D02*
X119904764Y-102682952D01*
X119904764Y-102682952D02*
X119952383Y-102778190D01*
X119952383Y-102778190D02*
X119952383Y-103063904D01*
X119952383Y-103063904D02*
X119904764Y-103159142D01*
X119904764Y-103159142D02*
X119857145Y-103206761D01*
X119857145Y-103206761D02*
X119761907Y-103254380D01*
X119761907Y-103254380D02*
X119619050Y-103254380D01*
X120380955Y-102587714D02*
X120380955Y-103254380D01*
X120380955Y-102682952D02*
X120428574Y-102635333D01*
X120428574Y-102635333D02*
X120523812Y-102587714D01*
X120523812Y-102587714D02*
X120666669Y-102587714D01*
X120666669Y-102587714D02*
X120761907Y-102635333D01*
X120761907Y-102635333D02*
X120809526Y-102730571D01*
X120809526Y-102730571D02*
X120809526Y-103254380D01*
X121666669Y-103206761D02*
X121571431Y-103254380D01*
X121571431Y-103254380D02*
X121380955Y-103254380D01*
X121380955Y-103254380D02*
X121285717Y-103206761D01*
X121285717Y-103206761D02*
X121238098Y-103111523D01*
X121238098Y-103111523D02*
X121238098Y-102730571D01*
X121238098Y-102730571D02*
X121285717Y-102635333D01*
X121285717Y-102635333D02*
X121380955Y-102587714D01*
X121380955Y-102587714D02*
X121571431Y-102587714D01*
X121571431Y-102587714D02*
X121666669Y-102635333D01*
X121666669Y-102635333D02*
X121714288Y-102730571D01*
X121714288Y-102730571D02*
X121714288Y-102825809D01*
X121714288Y-102825809D02*
X121238098Y-102921047D01*
X123314288Y-103254380D02*
X122980955Y-102778190D01*
X122742860Y-103254380D02*
X122742860Y-102254380D01*
X122742860Y-102254380D02*
X123123812Y-102254380D01*
X123123812Y-102254380D02*
X123219050Y-102302000D01*
X123219050Y-102302000D02*
X123266669Y-102349619D01*
X123266669Y-102349619D02*
X123314288Y-102444857D01*
X123314288Y-102444857D02*
X123314288Y-102587714D01*
X123314288Y-102587714D02*
X123266669Y-102682952D01*
X123266669Y-102682952D02*
X123219050Y-102730571D01*
X123219050Y-102730571D02*
X123123812Y-102778190D01*
X123123812Y-102778190D02*
X122742860Y-102778190D01*
X123742860Y-103159142D02*
X123790479Y-103206761D01*
X123790479Y-103206761D02*
X123742860Y-103254380D01*
X123742860Y-103254380D02*
X123695241Y-103206761D01*
X123695241Y-103206761D02*
X123742860Y-103159142D01*
X123742860Y-103159142D02*
X123742860Y-103254380D01*
X123742860Y-102873428D02*
X123695241Y-102302000D01*
X123695241Y-102302000D02*
X123742860Y-102254380D01*
X123742860Y-102254380D02*
X123790479Y-102302000D01*
X123790479Y-102302000D02*
X123742860Y-102873428D01*
X123742860Y-102873428D02*
X123742860Y-102254380D01*
D10*
X161385571Y-101919761D02*
X161528428Y-101967380D01*
X161528428Y-101967380D02*
X161766523Y-101967380D01*
X161766523Y-101967380D02*
X161861761Y-101919761D01*
X161861761Y-101919761D02*
X161909380Y-101872142D01*
X161909380Y-101872142D02*
X161956999Y-101776904D01*
X161956999Y-101776904D02*
X161956999Y-101681666D01*
X161956999Y-101681666D02*
X161909380Y-101586428D01*
X161909380Y-101586428D02*
X161861761Y-101538809D01*
X161861761Y-101538809D02*
X161766523Y-101491190D01*
X161766523Y-101491190D02*
X161576047Y-101443571D01*
X161576047Y-101443571D02*
X161480809Y-101395952D01*
X161480809Y-101395952D02*
X161433190Y-101348333D01*
X161433190Y-101348333D02*
X161385571Y-101253095D01*
X161385571Y-101253095D02*
X161385571Y-101157857D01*
X161385571Y-101157857D02*
X161433190Y-101062619D01*
X161433190Y-101062619D02*
X161480809Y-101015000D01*
X161480809Y-101015000D02*
X161576047Y-100967380D01*
X161576047Y-100967380D02*
X161814142Y-100967380D01*
X161814142Y-100967380D02*
X161956999Y-101015000D01*
X162956999Y-101872142D02*
X162909380Y-101919761D01*
X162909380Y-101919761D02*
X162766523Y-101967380D01*
X162766523Y-101967380D02*
X162671285Y-101967380D01*
X162671285Y-101967380D02*
X162528428Y-101919761D01*
X162528428Y-101919761D02*
X162433190Y-101824523D01*
X162433190Y-101824523D02*
X162385571Y-101729285D01*
X162385571Y-101729285D02*
X162337952Y-101538809D01*
X162337952Y-101538809D02*
X162337952Y-101395952D01*
X162337952Y-101395952D02*
X162385571Y-101205476D01*
X162385571Y-101205476D02*
X162433190Y-101110238D01*
X162433190Y-101110238D02*
X162528428Y-101015000D01*
X162528428Y-101015000D02*
X162671285Y-100967380D01*
X162671285Y-100967380D02*
X162766523Y-100967380D01*
X162766523Y-100967380D02*
X162909380Y-101015000D01*
X162909380Y-101015000D02*
X162956999Y-101062619D01*
X163861761Y-101967380D02*
X163385571Y-101967380D01*
X163385571Y-101967380D02*
X163385571Y-100967380D01*
X166014095Y-94183380D02*
X166014095Y-93183380D01*
X166014095Y-93183380D02*
X166252190Y-93183380D01*
X166252190Y-93183380D02*
X166395047Y-93231000D01*
X166395047Y-93231000D02*
X166490285Y-93326238D01*
X166490285Y-93326238D02*
X166537904Y-93421476D01*
X166537904Y-93421476D02*
X166585523Y-93611952D01*
X166585523Y-93611952D02*
X166585523Y-93754809D01*
X166585523Y-93754809D02*
X166537904Y-93945285D01*
X166537904Y-93945285D02*
X166490285Y-94040523D01*
X166490285Y-94040523D02*
X166395047Y-94135761D01*
X166395047Y-94135761D02*
X166252190Y-94183380D01*
X166252190Y-94183380D02*
X166014095Y-94183380D01*
X167585523Y-94088142D02*
X167537904Y-94135761D01*
X167537904Y-94135761D02*
X167395047Y-94183380D01*
X167395047Y-94183380D02*
X167299809Y-94183380D01*
X167299809Y-94183380D02*
X167156952Y-94135761D01*
X167156952Y-94135761D02*
X167061714Y-94040523D01*
X167061714Y-94040523D02*
X167014095Y-93945285D01*
X167014095Y-93945285D02*
X166966476Y-93754809D01*
X166966476Y-93754809D02*
X166966476Y-93611952D01*
X166966476Y-93611952D02*
X167014095Y-93421476D01*
X167014095Y-93421476D02*
X167061714Y-93326238D01*
X167061714Y-93326238D02*
X167156952Y-93231000D01*
X167156952Y-93231000D02*
X167299809Y-93183380D01*
X167299809Y-93183380D02*
X167395047Y-93183380D01*
X167395047Y-93183380D02*
X167537904Y-93231000D01*
X167537904Y-93231000D02*
X167585523Y-93278619D01*
%TO.C,J1*%
X165655666Y-108779380D02*
X165655666Y-109493666D01*
X165655666Y-109493666D02*
X165608047Y-109636523D01*
X165608047Y-109636523D02*
X165512809Y-109731761D01*
X165512809Y-109731761D02*
X165369952Y-109779380D01*
X165369952Y-109779380D02*
X165274714Y-109779380D01*
X166655666Y-109779380D02*
X166084238Y-109779380D01*
X166369952Y-109779380D02*
X166369952Y-108779380D01*
X166369952Y-108779380D02*
X166274714Y-108922238D01*
X166274714Y-108922238D02*
X166179476Y-109017476D01*
X166179476Y-109017476D02*
X166084238Y-109065095D01*
%TO.C,C1*%
X141179010Y-98851142D02*
X141131391Y-98898761D01*
X141131391Y-98898761D02*
X140988534Y-98946380D01*
X140988534Y-98946380D02*
X140893296Y-98946380D01*
X140893296Y-98946380D02*
X140750439Y-98898761D01*
X140750439Y-98898761D02*
X140655201Y-98803523D01*
X140655201Y-98803523D02*
X140607582Y-98708285D01*
X140607582Y-98708285D02*
X140559963Y-98517809D01*
X140559963Y-98517809D02*
X140559963Y-98374952D01*
X140559963Y-98374952D02*
X140607582Y-98184476D01*
X140607582Y-98184476D02*
X140655201Y-98089238D01*
X140655201Y-98089238D02*
X140750439Y-97994000D01*
X140750439Y-97994000D02*
X140893296Y-97946380D01*
X140893296Y-97946380D02*
X140988534Y-97946380D01*
X140988534Y-97946380D02*
X141131391Y-97994000D01*
X141131391Y-97994000D02*
X141179010Y-98041619D01*
X142131391Y-98946380D02*
X141559963Y-98946380D01*
X141845677Y-98946380D02*
X141845677Y-97946380D01*
X141845677Y-97946380D02*
X141750439Y-98089238D01*
X141750439Y-98089238D02*
X141655201Y-98184476D01*
X141655201Y-98184476D02*
X141559963Y-98232095D01*
X140607581Y-85779714D02*
X140607581Y-86446380D01*
X140369486Y-85398761D02*
X140131391Y-86113047D01*
X140131391Y-86113047D02*
X140750438Y-86113047D01*
X141559962Y-85779714D02*
X141559962Y-86446380D01*
X141131391Y-85779714D02*
X141131391Y-86303523D01*
X141131391Y-86303523D02*
X141179010Y-86398761D01*
X141179010Y-86398761D02*
X141274248Y-86446380D01*
X141274248Y-86446380D02*
X141417105Y-86446380D01*
X141417105Y-86446380D02*
X141512343Y-86398761D01*
X141512343Y-86398761D02*
X141559962Y-86351142D01*
X141940915Y-85446380D02*
X142607581Y-85446380D01*
X142607581Y-85446380D02*
X142179010Y-86446380D01*
%TO.C,R1*%
X152995333Y-96717380D02*
X152662000Y-96241190D01*
X152423905Y-96717380D02*
X152423905Y-95717380D01*
X152423905Y-95717380D02*
X152804857Y-95717380D01*
X152804857Y-95717380D02*
X152900095Y-95765000D01*
X152900095Y-95765000D02*
X152947714Y-95812619D01*
X152947714Y-95812619D02*
X152995333Y-95907857D01*
X152995333Y-95907857D02*
X152995333Y-96050714D01*
X152995333Y-96050714D02*
X152947714Y-96145952D01*
X152947714Y-96145952D02*
X152900095Y-96193571D01*
X152900095Y-96193571D02*
X152804857Y-96241190D01*
X152804857Y-96241190D02*
X152423905Y-96241190D01*
X153947714Y-96717380D02*
X153376286Y-96717380D01*
X153662000Y-96717380D02*
X153662000Y-95717380D01*
X153662000Y-95717380D02*
X153566762Y-95860238D01*
X153566762Y-95860238D02*
X153471524Y-95955476D01*
X153471524Y-95955476D02*
X153376286Y-96003095D01*
X152471523Y-91310714D02*
X152471523Y-91977380D01*
X152233428Y-90929761D02*
X151995333Y-91644047D01*
X151995333Y-91644047D02*
X152614380Y-91644047D01*
X152995333Y-91977380D02*
X152995333Y-90977380D01*
X153090571Y-91596428D02*
X153376285Y-91977380D01*
X153376285Y-91310714D02*
X152995333Y-91691666D01*
X153709619Y-90977380D02*
X154376285Y-90977380D01*
X154376285Y-90977380D02*
X153947714Y-91977380D01*
D14*
%TO.C,J1*%
X167319000Y-107972000D02*
X165989000Y-107972000D01*
X167319000Y-106642000D02*
X167319000Y-107972000D01*
X167319000Y-105372000D02*
X167319000Y-97692000D01*
X167319000Y-105372000D02*
X164659000Y-105372000D01*
X167319000Y-97692000D02*
X164659000Y-97692000D01*
X164659000Y-105372000D02*
X164659000Y-97692000D01*
%TO.C,R1*%
X153389064Y-98779000D02*
X152934936Y-98779000D01*
X153389064Y-97309000D02*
X152934936Y-97309000D01*
%TO.C,C1*%
X146825323Y-95204000D02*
X145825323Y-95204000D01*
X146325323Y-95704000D02*
X146325323Y-94704000D01*
X141345677Y-97409000D02*
X141345677Y-87249000D01*
X141305677Y-97409000D02*
X141305677Y-87249000D01*
X141265677Y-97409000D02*
X141265677Y-87249000D01*
X141225677Y-97408000D02*
X141225677Y-87250000D01*
X141185677Y-97407000D02*
X141185677Y-87251000D01*
X141145677Y-97406000D02*
X141145677Y-87252000D01*
X141105677Y-97404000D02*
X141105677Y-93369000D01*
X141105677Y-91289000D02*
X141105677Y-87254000D01*
X141065677Y-97402000D02*
X141065677Y-93369000D01*
X141065677Y-91289000D02*
X141065677Y-87256000D01*
X141025677Y-97399000D02*
X141025677Y-93369000D01*
X141025677Y-91289000D02*
X141025677Y-87259000D01*
X140985677Y-97397000D02*
X140985677Y-93369000D01*
X140985677Y-91289000D02*
X140985677Y-87261000D01*
X140945677Y-97394000D02*
X140945677Y-93369000D01*
X140945677Y-91289000D02*
X140945677Y-87264000D01*
X140905677Y-97391000D02*
X140905677Y-93369000D01*
X140905677Y-91289000D02*
X140905677Y-87267000D01*
X140865677Y-97387000D02*
X140865677Y-93369000D01*
X140865677Y-91289000D02*
X140865677Y-87271000D01*
X140825677Y-97383000D02*
X140825677Y-93369000D01*
X140825677Y-91289000D02*
X140825677Y-87275000D01*
X140785677Y-97379000D02*
X140785677Y-93369000D01*
X140785677Y-91289000D02*
X140785677Y-87279000D01*
X140745677Y-97374000D02*
X140745677Y-93369000D01*
X140745677Y-91289000D02*
X140745677Y-87284000D01*
X140705677Y-97369000D02*
X140705677Y-93369000D01*
X140705677Y-91289000D02*
X140705677Y-87289000D01*
X140665677Y-97364000D02*
X140665677Y-93369000D01*
X140665677Y-91289000D02*
X140665677Y-87294000D01*
X140624677Y-97359000D02*
X140624677Y-93369000D01*
X140624677Y-91289000D02*
X140624677Y-87299000D01*
X140584677Y-97353000D02*
X140584677Y-93369000D01*
X140584677Y-91289000D02*
X140584677Y-87305000D01*
X140544677Y-97347000D02*
X140544677Y-93369000D01*
X140544677Y-91289000D02*
X140544677Y-87311000D01*
X140504677Y-97340000D02*
X140504677Y-93369000D01*
X140504677Y-91289000D02*
X140504677Y-87318000D01*
X140464677Y-97333000D02*
X140464677Y-93369000D01*
X140464677Y-91289000D02*
X140464677Y-87325000D01*
X140424677Y-97326000D02*
X140424677Y-93369000D01*
X140424677Y-89689000D02*
X140424677Y-87332000D01*
X140384677Y-97319000D02*
X140384677Y-93369000D01*
X140384677Y-89689000D02*
X140384677Y-87339000D01*
X140344677Y-97311000D02*
X140344677Y-93369000D01*
X140344677Y-89689000D02*
X140344677Y-87347000D01*
X140304677Y-97303000D02*
X140304677Y-93369000D01*
X140304677Y-89689000D02*
X140304677Y-87355000D01*
X140264677Y-97294000D02*
X140264677Y-93369000D01*
X140264677Y-89689000D02*
X140264677Y-87364000D01*
X140224677Y-97285000D02*
X140224677Y-93369000D01*
X140224677Y-89689000D02*
X140224677Y-87373000D01*
X140184677Y-97276000D02*
X140184677Y-93369000D01*
X140184677Y-89689000D02*
X140184677Y-87382000D01*
X140144677Y-97267000D02*
X140144677Y-93369000D01*
X140144677Y-89689000D02*
X140144677Y-87391000D01*
X140104677Y-97257000D02*
X140104677Y-93369000D01*
X140104677Y-89689000D02*
X140104677Y-87401000D01*
X140064677Y-97247000D02*
X140064677Y-93369000D01*
X140064677Y-89689000D02*
X140064677Y-87411000D01*
X140024677Y-97236000D02*
X140024677Y-93369000D01*
X140024677Y-89689000D02*
X140024677Y-87422000D01*
X139984677Y-97226000D02*
X139984677Y-93369000D01*
X139984677Y-89689000D02*
X139984677Y-87432000D01*
X139944677Y-97214000D02*
X139944677Y-93369000D01*
X139944677Y-89689000D02*
X139944677Y-87444000D01*
X139904677Y-97203000D02*
X139904677Y-93369000D01*
X139904677Y-89689000D02*
X139904677Y-87455000D01*
X139864677Y-97191000D02*
X139864677Y-93369000D01*
X139864677Y-89689000D02*
X139864677Y-87467000D01*
X139824677Y-97179000D02*
X139824677Y-93369000D01*
X139824677Y-89689000D02*
X139824677Y-87479000D01*
X139784677Y-97166000D02*
X139784677Y-93369000D01*
X139784677Y-89689000D02*
X139784677Y-87492000D01*
X139744677Y-97153000D02*
X139744677Y-93369000D01*
X139744677Y-89689000D02*
X139744677Y-87505000D01*
X139704677Y-97140000D02*
X139704677Y-93369000D01*
X139704677Y-89689000D02*
X139704677Y-87518000D01*
X139664677Y-97126000D02*
X139664677Y-93369000D01*
X139664677Y-89689000D02*
X139664677Y-87532000D01*
X139624677Y-97112000D02*
X139624677Y-93369000D01*
X139624677Y-89689000D02*
X139624677Y-87546000D01*
X139584677Y-97097000D02*
X139584677Y-93369000D01*
X139584677Y-89689000D02*
X139584677Y-87561000D01*
X139544677Y-97083000D02*
X139544677Y-93369000D01*
X139544677Y-89689000D02*
X139544677Y-87575000D01*
X139504677Y-97067000D02*
X139504677Y-93369000D01*
X139504677Y-89689000D02*
X139504677Y-87591000D01*
X139464677Y-97052000D02*
X139464677Y-93369000D01*
X139464677Y-89689000D02*
X139464677Y-87606000D01*
X139424677Y-97036000D02*
X139424677Y-93369000D01*
X139424677Y-89689000D02*
X139424677Y-87622000D01*
X139384677Y-97019000D02*
X139384677Y-93369000D01*
X139384677Y-89689000D02*
X139384677Y-87639000D01*
X139344677Y-97003000D02*
X139344677Y-93369000D01*
X139344677Y-89689000D02*
X139344677Y-87655000D01*
X139304677Y-96986000D02*
X139304677Y-93369000D01*
X139304677Y-89689000D02*
X139304677Y-87672000D01*
X139264677Y-96968000D02*
X139264677Y-93369000D01*
X139264677Y-89689000D02*
X139264677Y-87690000D01*
X139224677Y-96950000D02*
X139224677Y-93369000D01*
X139224677Y-89689000D02*
X139224677Y-87708000D01*
X139184677Y-96932000D02*
X139184677Y-93369000D01*
X139184677Y-89689000D02*
X139184677Y-87726000D01*
X139144677Y-96913000D02*
X139144677Y-93369000D01*
X139144677Y-89689000D02*
X139144677Y-87745000D01*
X139104677Y-96893000D02*
X139104677Y-93369000D01*
X139104677Y-89689000D02*
X139104677Y-87765000D01*
X139064677Y-96874000D02*
X139064677Y-93369000D01*
X139064677Y-89689000D02*
X139064677Y-87784000D01*
X139024677Y-96854000D02*
X139024677Y-91769000D01*
X139024677Y-89689000D02*
X139024677Y-87804000D01*
X138984677Y-96833000D02*
X138984677Y-91769000D01*
X138984677Y-89689000D02*
X138984677Y-87825000D01*
X138944677Y-96812000D02*
X138944677Y-91769000D01*
X138944677Y-89689000D02*
X138944677Y-87846000D01*
X138904677Y-96791000D02*
X138904677Y-91769000D01*
X138904677Y-89689000D02*
X138904677Y-87867000D01*
X138864677Y-96769000D02*
X138864677Y-91769000D01*
X138864677Y-89689000D02*
X138864677Y-87889000D01*
X138824677Y-96746000D02*
X138824677Y-91769000D01*
X138824677Y-89689000D02*
X138824677Y-87912000D01*
X138784677Y-96724000D02*
X138784677Y-91769000D01*
X138784677Y-89689000D02*
X138784677Y-87934000D01*
X138744677Y-96700000D02*
X138744677Y-91769000D01*
X138744677Y-89689000D02*
X138744677Y-87958000D01*
X138704677Y-96676000D02*
X138704677Y-91769000D01*
X138704677Y-89689000D02*
X138704677Y-87982000D01*
X138664677Y-96652000D02*
X138664677Y-91769000D01*
X138664677Y-89689000D02*
X138664677Y-88006000D01*
X138624677Y-96627000D02*
X138624677Y-91769000D01*
X138624677Y-89689000D02*
X138624677Y-88031000D01*
X138584677Y-96602000D02*
X138584677Y-91769000D01*
X138584677Y-89689000D02*
X138584677Y-88056000D01*
X138544677Y-96576000D02*
X138544677Y-91769000D01*
X138544677Y-89689000D02*
X138544677Y-88082000D01*
X138504677Y-96550000D02*
X138504677Y-91769000D01*
X138504677Y-89689000D02*
X138504677Y-88108000D01*
X138464677Y-96523000D02*
X138464677Y-91769000D01*
X138464677Y-89689000D02*
X138464677Y-88135000D01*
X138424677Y-96495000D02*
X138424677Y-91769000D01*
X138424677Y-89689000D02*
X138424677Y-88163000D01*
X138384677Y-96467000D02*
X138384677Y-91769000D01*
X138384677Y-89689000D02*
X138384677Y-88191000D01*
X138344677Y-96439000D02*
X138344677Y-88219000D01*
X138304677Y-96409000D02*
X138304677Y-88249000D01*
X138264677Y-96379000D02*
X138264677Y-88279000D01*
X138224677Y-96349000D02*
X138224677Y-88309000D01*
X138184677Y-96318000D02*
X138184677Y-88340000D01*
X138144677Y-96286000D02*
X138144677Y-88372000D01*
X138104677Y-96254000D02*
X138104677Y-88404000D01*
X138064677Y-96221000D02*
X138064677Y-88437000D01*
X138024677Y-96187000D02*
X138024677Y-88471000D01*
X137984677Y-96153000D02*
X137984677Y-88505000D01*
X137944677Y-96118000D02*
X137944677Y-88540000D01*
X137904677Y-96082000D02*
X137904677Y-88576000D01*
X137864677Y-96045000D02*
X137864677Y-88613000D01*
X137824677Y-96008000D02*
X137824677Y-88650000D01*
X137784677Y-95969000D02*
X137784677Y-88689000D01*
X137744677Y-95930000D02*
X137744677Y-88728000D01*
X137704677Y-95890000D02*
X137704677Y-88768000D01*
X137664677Y-95849000D02*
X137664677Y-88809000D01*
X137624677Y-95807000D02*
X137624677Y-88851000D01*
X137584677Y-95765000D02*
X137584677Y-88893000D01*
X137544677Y-95721000D02*
X137544677Y-88937000D01*
X137504677Y-95676000D02*
X137504677Y-88982000D01*
X137464677Y-95630000D02*
X137464677Y-89028000D01*
X137424677Y-95583000D02*
X137424677Y-89075000D01*
X137384677Y-95535000D02*
X137384677Y-89123000D01*
X137344677Y-95485000D02*
X137344677Y-89173000D01*
X137304677Y-95435000D02*
X137304677Y-89223000D01*
X137264677Y-95383000D02*
X137264677Y-89275000D01*
X137224677Y-95329000D02*
X137224677Y-89329000D01*
X137184677Y-95274000D02*
X137184677Y-89384000D01*
X137144677Y-95218000D02*
X137144677Y-89440000D01*
X137104677Y-95159000D02*
X137104677Y-89499000D01*
X137064677Y-95099000D02*
X137064677Y-89559000D01*
X137024677Y-95038000D02*
X137024677Y-89620000D01*
X136984677Y-94974000D02*
X136984677Y-89684000D01*
X136944677Y-94908000D02*
X136944677Y-89750000D01*
X136904677Y-94839000D02*
X136904677Y-89819000D01*
X136864677Y-94768000D02*
X136864677Y-89890000D01*
X136824677Y-94694000D02*
X136824677Y-89964000D01*
X136784677Y-94618000D02*
X136784677Y-90040000D01*
X136744677Y-94538000D02*
X136744677Y-90120000D01*
X136704677Y-94454000D02*
X136704677Y-90204000D01*
X136664677Y-94366000D02*
X136664677Y-90292000D01*
X136624677Y-94273000D02*
X136624677Y-90385000D01*
X136584677Y-94175000D02*
X136584677Y-90483000D01*
X136544677Y-94071000D02*
X136544677Y-90587000D01*
X136504677Y-93959000D02*
X136504677Y-90699000D01*
X136464677Y-93839000D02*
X136464677Y-90819000D01*
X136424677Y-93707000D02*
X136424677Y-90951000D01*
X136384677Y-93559000D02*
X136384677Y-91099000D01*
X136344677Y-93391000D02*
X136344677Y-91267000D01*
X136304677Y-93191000D02*
X136304677Y-91467000D01*
X136264677Y-92928000D02*
X136264677Y-91730000D01*
X146465677Y-92329000D02*
G75*
G03*
X146465677Y-92329000I-5120000J0D01*
G01*
%TO.C,R1*%
X157202000Y-93980000D02*
X156432000Y-93980000D01*
X156432000Y-95350000D02*
X156432000Y-92610000D01*
X156432000Y-92610000D02*
X149892000Y-92610000D01*
X149892000Y-95350000D02*
X156432000Y-95350000D01*
X149892000Y-92610000D02*
X149892000Y-95350000D01*
X149122000Y-93980000D02*
X149892000Y-93980000D01*
%TO.C,c1*%
X144976000Y-104174000D02*
X144351000Y-104174000D01*
X144663500Y-104486500D02*
X144663500Y-103861500D01*
X144111000Y-104184563D02*
X144111000Y-103549000D01*
X144111000Y-104184563D02*
X143046563Y-105249000D01*
X144111000Y-100793437D02*
X144111000Y-101429000D01*
X144111000Y-100793437D02*
X143046563Y-99729000D01*
X143046563Y-105249000D02*
X138591000Y-105249000D01*
X143046563Y-99729000D02*
X138591000Y-99729000D01*
X138591000Y-105249000D02*
X138591000Y-103549000D01*
X138591000Y-99729000D02*
X138591000Y-101429000D01*
%TD*%
M02*
