%TF.GenerationSoftware,KiCad,Pcbnew,(6.99.0-1006-g2560c8f31b)*%
%TF.CreationDate,2022-03-06T12:20:51+01:00*%
%TF.ProjectId,freeDSP-aurora-extension-i2C-mod-display,66726565-4453-4502-9d61-75726f72612d,v1.1*%
%TF.SameCoordinates,Original*%
%TF.FileFunction,Legend,Bot*%
%TF.FilePolarity,Positive*%
%FSLAX46Y46*%
G04 Gerber Fmt 4.6, Leading zero omitted, Abs format (unit mm)*
G04 Created by KiCad (PCBNEW (6.99.0-1006-g2560c8f31b)) date 2022-03-06 12:20:51*
%MOMM*%
%LPD*%
G01*
G04 APERTURE LIST*
%ADD10C,0.100000*%
%ADD11C,0.150000*%
%ADD12C,0.120000*%
G04 APERTURE END LIST*
D10*
X140949048Y-78700380D02*
X140949048Y-79414666D01*
X140949048Y-79414666D02*
X140996667Y-79557523D01*
X140996667Y-79557523D02*
X141091905Y-79652761D01*
X141091905Y-79652761D02*
X141234762Y-79700380D01*
X141234762Y-79700380D02*
X141330000Y-79700380D01*
X139996667Y-79700380D02*
X140472857Y-79700380D01*
X140472857Y-79700380D02*
X140472857Y-78700380D01*
X139091905Y-79605142D02*
X139139524Y-79652761D01*
X139139524Y-79652761D02*
X139282381Y-79700380D01*
X139282381Y-79700380D02*
X139377619Y-79700380D01*
X139377619Y-79700380D02*
X139520476Y-79652761D01*
X139520476Y-79652761D02*
X139615714Y-79557523D01*
X139615714Y-79557523D02*
X139663333Y-79462285D01*
X139663333Y-79462285D02*
X139710952Y-79271809D01*
X139710952Y-79271809D02*
X139710952Y-79128952D01*
X139710952Y-79128952D02*
X139663333Y-78938476D01*
X139663333Y-78938476D02*
X139615714Y-78843238D01*
X139615714Y-78843238D02*
X139520476Y-78748000D01*
X139520476Y-78748000D02*
X139377619Y-78700380D01*
X139377619Y-78700380D02*
X139282381Y-78700380D01*
X139282381Y-78700380D02*
X139139524Y-78748000D01*
X139139524Y-78748000D02*
X139091905Y-78795619D01*
X138377619Y-78700380D02*
X138377619Y-79414666D01*
X138377619Y-79414666D02*
X138425238Y-79557523D01*
X138425238Y-79557523D02*
X138520476Y-79652761D01*
X138520476Y-79652761D02*
X138663333Y-79700380D01*
X138663333Y-79700380D02*
X138758571Y-79700380D01*
X137425238Y-79700380D02*
X137901428Y-79700380D01*
X137901428Y-79700380D02*
X137901428Y-78700380D01*
X136520476Y-79605142D02*
X136568095Y-79652761D01*
X136568095Y-79652761D02*
X136710952Y-79700380D01*
X136710952Y-79700380D02*
X136806190Y-79700380D01*
X136806190Y-79700380D02*
X136949047Y-79652761D01*
X136949047Y-79652761D02*
X137044285Y-79557523D01*
X137044285Y-79557523D02*
X137091904Y-79462285D01*
X137091904Y-79462285D02*
X137139523Y-79271809D01*
X137139523Y-79271809D02*
X137139523Y-79128952D01*
X137139523Y-79128952D02*
X137091904Y-78938476D01*
X137091904Y-78938476D02*
X137044285Y-78843238D01*
X137044285Y-78843238D02*
X136949047Y-78748000D01*
X136949047Y-78748000D02*
X136806190Y-78700380D01*
X136806190Y-78700380D02*
X136710952Y-78700380D01*
X136710952Y-78700380D02*
X136568095Y-78748000D01*
X136568095Y-78748000D02*
X136520476Y-78795619D01*
X135806190Y-78700380D02*
X135806190Y-79414666D01*
X135806190Y-79414666D02*
X135853809Y-79557523D01*
X135853809Y-79557523D02*
X135949047Y-79652761D01*
X135949047Y-79652761D02*
X136091904Y-79700380D01*
X136091904Y-79700380D02*
X136187142Y-79700380D01*
X134853809Y-79700380D02*
X135329999Y-79700380D01*
X135329999Y-79700380D02*
X135329999Y-78700380D01*
X133949047Y-79605142D02*
X133996666Y-79652761D01*
X133996666Y-79652761D02*
X134139523Y-79700380D01*
X134139523Y-79700380D02*
X134234761Y-79700380D01*
X134234761Y-79700380D02*
X134377618Y-79652761D01*
X134377618Y-79652761D02*
X134472856Y-79557523D01*
X134472856Y-79557523D02*
X134520475Y-79462285D01*
X134520475Y-79462285D02*
X134568094Y-79271809D01*
X134568094Y-79271809D02*
X134568094Y-79128952D01*
X134568094Y-79128952D02*
X134520475Y-78938476D01*
X134520475Y-78938476D02*
X134472856Y-78843238D01*
X134472856Y-78843238D02*
X134377618Y-78748000D01*
X134377618Y-78748000D02*
X134234761Y-78700380D01*
X134234761Y-78700380D02*
X134139523Y-78700380D01*
X134139523Y-78700380D02*
X133996666Y-78748000D01*
X133996666Y-78748000D02*
X133949047Y-78795619D01*
X133234761Y-78700380D02*
X133234761Y-79414666D01*
X133234761Y-79414666D02*
X133282380Y-79557523D01*
X133282380Y-79557523D02*
X133377618Y-79652761D01*
X133377618Y-79652761D02*
X133520475Y-79700380D01*
X133520475Y-79700380D02*
X133615713Y-79700380D01*
X132282380Y-79700380D02*
X132758570Y-79700380D01*
X132758570Y-79700380D02*
X132758570Y-78700380D01*
X131377618Y-79605142D02*
X131425237Y-79652761D01*
X131425237Y-79652761D02*
X131568094Y-79700380D01*
X131568094Y-79700380D02*
X131663332Y-79700380D01*
X131663332Y-79700380D02*
X131806189Y-79652761D01*
X131806189Y-79652761D02*
X131901427Y-79557523D01*
X131901427Y-79557523D02*
X131949046Y-79462285D01*
X131949046Y-79462285D02*
X131996665Y-79271809D01*
X131996665Y-79271809D02*
X131996665Y-79128952D01*
X131996665Y-79128952D02*
X131949046Y-78938476D01*
X131949046Y-78938476D02*
X131901427Y-78843238D01*
X131901427Y-78843238D02*
X131806189Y-78748000D01*
X131806189Y-78748000D02*
X131663332Y-78700380D01*
X131663332Y-78700380D02*
X131568094Y-78700380D01*
X131568094Y-78700380D02*
X131425237Y-78748000D01*
X131425237Y-78748000D02*
X131377618Y-78795619D01*
X122876188Y-85780142D02*
X122923807Y-85827761D01*
X122923807Y-85827761D02*
X123066664Y-85875380D01*
X123066664Y-85875380D02*
X123161902Y-85875380D01*
X123161902Y-85875380D02*
X123304759Y-85827761D01*
X123304759Y-85827761D02*
X123399997Y-85732523D01*
X123399997Y-85732523D02*
X123447616Y-85637285D01*
X123447616Y-85637285D02*
X123495235Y-85446809D01*
X123495235Y-85446809D02*
X123495235Y-85303952D01*
X123495235Y-85303952D02*
X123447616Y-85113476D01*
X123447616Y-85113476D02*
X123399997Y-85018238D01*
X123399997Y-85018238D02*
X123304759Y-84923000D01*
X123304759Y-84923000D02*
X123161902Y-84875380D01*
X123161902Y-84875380D02*
X123066664Y-84875380D01*
X123066664Y-84875380D02*
X122923807Y-84923000D01*
X122923807Y-84923000D02*
X122876188Y-84970619D01*
X121847616Y-85351571D02*
X121085712Y-85351571D01*
X121085712Y-85637285D02*
X121847616Y-85637285D01*
X119485712Y-85875380D02*
X120057140Y-85875380D01*
X119771426Y-85875380D02*
X119771426Y-84875380D01*
X119771426Y-84875380D02*
X119866664Y-85018238D01*
X119866664Y-85018238D02*
X119961902Y-85113476D01*
X119961902Y-85113476D02*
X120057140Y-85161095D01*
X118866664Y-84875380D02*
X118771426Y-84875380D01*
X118771426Y-84875380D02*
X118676188Y-84923000D01*
X118676188Y-84923000D02*
X118628569Y-84970619D01*
X118628569Y-84970619D02*
X118580950Y-85065857D01*
X118580950Y-85065857D02*
X118533331Y-85256333D01*
X118533331Y-85256333D02*
X118533331Y-85494428D01*
X118533331Y-85494428D02*
X118580950Y-85684904D01*
X118580950Y-85684904D02*
X118628569Y-85780142D01*
X118628569Y-85780142D02*
X118676188Y-85827761D01*
X118676188Y-85827761D02*
X118771426Y-85875380D01*
X118771426Y-85875380D02*
X118866664Y-85875380D01*
X118866664Y-85875380D02*
X118961902Y-85827761D01*
X118961902Y-85827761D02*
X119009521Y-85780142D01*
X119009521Y-85780142D02*
X119057140Y-85684904D01*
X119057140Y-85684904D02*
X119104759Y-85494428D01*
X119104759Y-85494428D02*
X119104759Y-85256333D01*
X119104759Y-85256333D02*
X119057140Y-85065857D01*
X119057140Y-85065857D02*
X119009521Y-84970619D01*
X119009521Y-84970619D02*
X118961902Y-84923000D01*
X118961902Y-84923000D02*
X118866664Y-84875380D01*
X118104759Y-85875380D02*
X118104759Y-85208714D01*
X118104759Y-85303952D02*
X118057140Y-85256333D01*
X118057140Y-85256333D02*
X117961902Y-85208714D01*
X117961902Y-85208714D02*
X117819045Y-85208714D01*
X117819045Y-85208714D02*
X117723807Y-85256333D01*
X117723807Y-85256333D02*
X117676188Y-85351571D01*
X117676188Y-85351571D02*
X117676188Y-85875380D01*
X117676188Y-85351571D02*
X117628569Y-85256333D01*
X117628569Y-85256333D02*
X117533331Y-85208714D01*
X117533331Y-85208714D02*
X117390474Y-85208714D01*
X117390474Y-85208714D02*
X117295235Y-85256333D01*
X117295235Y-85256333D02*
X117247616Y-85351571D01*
X117247616Y-85351571D02*
X117247616Y-85875380D01*
X116771426Y-85875380D02*
X116771426Y-85208714D01*
X116771426Y-85303952D02*
X116723807Y-85256333D01*
X116723807Y-85256333D02*
X116628569Y-85208714D01*
X116628569Y-85208714D02*
X116485712Y-85208714D01*
X116485712Y-85208714D02*
X116390474Y-85256333D01*
X116390474Y-85256333D02*
X116342855Y-85351571D01*
X116342855Y-85351571D02*
X116342855Y-85875380D01*
X116342855Y-85351571D02*
X116295236Y-85256333D01*
X116295236Y-85256333D02*
X116199998Y-85208714D01*
X116199998Y-85208714D02*
X116057141Y-85208714D01*
X116057141Y-85208714D02*
X115961902Y-85256333D01*
X115961902Y-85256333D02*
X115914283Y-85351571D01*
X115914283Y-85351571D02*
X115914283Y-85875380D01*
X115390474Y-85827761D02*
X115390474Y-85875380D01*
X115390474Y-85875380D02*
X115438093Y-85970619D01*
X115438093Y-85970619D02*
X115485712Y-86018238D01*
X114961903Y-85875380D02*
X114961903Y-84875380D01*
X114961903Y-84875380D02*
X114580951Y-84875380D01*
X114580951Y-84875380D02*
X114485713Y-84923000D01*
X114485713Y-84923000D02*
X114438094Y-84970619D01*
X114438094Y-84970619D02*
X114390475Y-85065857D01*
X114390475Y-85065857D02*
X114390475Y-85208714D01*
X114390475Y-85208714D02*
X114438094Y-85303952D01*
X114438094Y-85303952D02*
X114485713Y-85351571D01*
X114485713Y-85351571D02*
X114580951Y-85399190D01*
X114580951Y-85399190D02*
X114961903Y-85399190D01*
X114009522Y-84970619D02*
X113961903Y-84923000D01*
X113961903Y-84923000D02*
X113866665Y-84875380D01*
X113866665Y-84875380D02*
X113628570Y-84875380D01*
X113628570Y-84875380D02*
X113533332Y-84923000D01*
X113533332Y-84923000D02*
X113485713Y-84970619D01*
X113485713Y-84970619D02*
X113438094Y-85065857D01*
X113438094Y-85065857D02*
X113438094Y-85161095D01*
X113438094Y-85161095D02*
X113485713Y-85303952D01*
X113485713Y-85303952D02*
X114057141Y-85875380D01*
X114057141Y-85875380D02*
X113438094Y-85875380D01*
X112199998Y-85875380D02*
X112247618Y-85875380D01*
X112247618Y-85875380D02*
X112342856Y-85827761D01*
X112342856Y-85827761D02*
X112485713Y-85684904D01*
X112485713Y-85684904D02*
X112723808Y-85399190D01*
X112723808Y-85399190D02*
X112819046Y-85256333D01*
X112819046Y-85256333D02*
X112866665Y-85113476D01*
X112866665Y-85113476D02*
X112866665Y-85018238D01*
X112866665Y-85018238D02*
X112819046Y-84923000D01*
X112819046Y-84923000D02*
X112723808Y-84875380D01*
X112723808Y-84875380D02*
X112676189Y-84875380D01*
X112676189Y-84875380D02*
X112580951Y-84923000D01*
X112580951Y-84923000D02*
X112533332Y-85018238D01*
X112533332Y-85018238D02*
X112533332Y-85065857D01*
X112533332Y-85065857D02*
X112580951Y-85161095D01*
X112580951Y-85161095D02*
X112628570Y-85208714D01*
X112628570Y-85208714D02*
X112914284Y-85399190D01*
X112914284Y-85399190D02*
X112961903Y-85446809D01*
X112961903Y-85446809D02*
X113009522Y-85542047D01*
X113009522Y-85542047D02*
X113009522Y-85684904D01*
X113009522Y-85684904D02*
X112961903Y-85780142D01*
X112961903Y-85780142D02*
X112914284Y-85827761D01*
X112914284Y-85827761D02*
X112819046Y-85875380D01*
X112819046Y-85875380D02*
X112676189Y-85875380D01*
X112676189Y-85875380D02*
X112580951Y-85827761D01*
X112580951Y-85827761D02*
X112533332Y-85780142D01*
X112533332Y-85780142D02*
X112390475Y-85589666D01*
X112390475Y-85589666D02*
X112342856Y-85446809D01*
X112342856Y-85446809D02*
X112342856Y-85351571D01*
X111295237Y-84875380D02*
X111771427Y-84875380D01*
X111771427Y-84875380D02*
X111819046Y-85351571D01*
X111819046Y-85351571D02*
X111771427Y-85303952D01*
X111771427Y-85303952D02*
X111676189Y-85256333D01*
X111676189Y-85256333D02*
X111438094Y-85256333D01*
X111438094Y-85256333D02*
X111342856Y-85303952D01*
X111342856Y-85303952D02*
X111295237Y-85351571D01*
X111295237Y-85351571D02*
X111247618Y-85446809D01*
X111247618Y-85446809D02*
X111247618Y-85684904D01*
X111247618Y-85684904D02*
X111295237Y-85780142D01*
X111295237Y-85780142D02*
X111342856Y-85827761D01*
X111342856Y-85827761D02*
X111438094Y-85875380D01*
X111438094Y-85875380D02*
X111676189Y-85875380D01*
X111676189Y-85875380D02*
X111771427Y-85827761D01*
X111771427Y-85827761D02*
X111819046Y-85780142D01*
X110819046Y-85875380D02*
X110819046Y-85208714D01*
X110819046Y-85303952D02*
X110771427Y-85256333D01*
X110771427Y-85256333D02*
X110676189Y-85208714D01*
X110676189Y-85208714D02*
X110533332Y-85208714D01*
X110533332Y-85208714D02*
X110438094Y-85256333D01*
X110438094Y-85256333D02*
X110390475Y-85351571D01*
X110390475Y-85351571D02*
X110390475Y-85875380D01*
X110390475Y-85351571D02*
X110342856Y-85256333D01*
X110342856Y-85256333D02*
X110247618Y-85208714D01*
X110247618Y-85208714D02*
X110104761Y-85208714D01*
X110104761Y-85208714D02*
X110009522Y-85256333D01*
X110009522Y-85256333D02*
X109961903Y-85351571D01*
X109961903Y-85351571D02*
X109961903Y-85875380D01*
X109485713Y-85875380D02*
X109485713Y-85208714D01*
X109485713Y-85303952D02*
X109438094Y-85256333D01*
X109438094Y-85256333D02*
X109342856Y-85208714D01*
X109342856Y-85208714D02*
X109199999Y-85208714D01*
X109199999Y-85208714D02*
X109104761Y-85256333D01*
X109104761Y-85256333D02*
X109057142Y-85351571D01*
X109057142Y-85351571D02*
X109057142Y-85875380D01*
X109057142Y-85351571D02*
X109009523Y-85256333D01*
X109009523Y-85256333D02*
X108914285Y-85208714D01*
X108914285Y-85208714D02*
X108771428Y-85208714D01*
X108771428Y-85208714D02*
X108676189Y-85256333D01*
X108676189Y-85256333D02*
X108628570Y-85351571D01*
X108628570Y-85351571D02*
X108628570Y-85875380D01*
X106838095Y-84827761D02*
X107695237Y-86113476D01*
X105428571Y-84875380D02*
X105904761Y-84875380D01*
X105904761Y-84875380D02*
X105952380Y-85351571D01*
X105952380Y-85351571D02*
X105904761Y-85303952D01*
X105904761Y-85303952D02*
X105809523Y-85256333D01*
X105809523Y-85256333D02*
X105571428Y-85256333D01*
X105571428Y-85256333D02*
X105476190Y-85303952D01*
X105476190Y-85303952D02*
X105428571Y-85351571D01*
X105428571Y-85351571D02*
X105380952Y-85446809D01*
X105380952Y-85446809D02*
X105380952Y-85684904D01*
X105380952Y-85684904D02*
X105428571Y-85780142D01*
X105428571Y-85780142D02*
X105476190Y-85827761D01*
X105476190Y-85827761D02*
X105571428Y-85875380D01*
X105571428Y-85875380D02*
X105809523Y-85875380D01*
X105809523Y-85875380D02*
X105904761Y-85827761D01*
X105904761Y-85827761D02*
X105952380Y-85780142D01*
X105047618Y-85875380D02*
X104523809Y-85208714D01*
X105047618Y-85208714D02*
X104523809Y-85875380D01*
X103714285Y-85208714D02*
X103714285Y-85875380D01*
X103952380Y-84827761D02*
X104190475Y-85542047D01*
X104190475Y-85542047D02*
X103571428Y-85542047D01*
X103190475Y-85780142D02*
X103142856Y-85827761D01*
X103142856Y-85827761D02*
X103190475Y-85875380D01*
X103190475Y-85875380D02*
X103238094Y-85827761D01*
X103238094Y-85827761D02*
X103190475Y-85780142D01*
X103190475Y-85780142D02*
X103190475Y-85875380D01*
X102285714Y-85208714D02*
X102285714Y-85875380D01*
X102523809Y-84827761D02*
X102761904Y-85542047D01*
X102761904Y-85542047D02*
X102142857Y-85542047D01*
X112133333Y-87495380D02*
X112466666Y-87019190D01*
X112704761Y-87495380D02*
X112704761Y-86495380D01*
X112704761Y-86495380D02*
X112323809Y-86495380D01*
X112323809Y-86495380D02*
X112228571Y-86543000D01*
X112228571Y-86543000D02*
X112180952Y-86590619D01*
X112180952Y-86590619D02*
X112133333Y-86685857D01*
X112133333Y-86685857D02*
X112133333Y-86828714D01*
X112133333Y-86828714D02*
X112180952Y-86923952D01*
X112180952Y-86923952D02*
X112228571Y-86971571D01*
X112228571Y-86971571D02*
X112323809Y-87019190D01*
X112323809Y-87019190D02*
X112704761Y-87019190D01*
X111104761Y-86971571D02*
X110342857Y-86971571D01*
X110342857Y-87257285D02*
X111104761Y-87257285D01*
X109314285Y-87447761D02*
X109171428Y-87495380D01*
X109171428Y-87495380D02*
X108933333Y-87495380D01*
X108933333Y-87495380D02*
X108838095Y-87447761D01*
X108838095Y-87447761D02*
X108790476Y-87400142D01*
X108790476Y-87400142D02*
X108742857Y-87304904D01*
X108742857Y-87304904D02*
X108742857Y-87209666D01*
X108742857Y-87209666D02*
X108790476Y-87114428D01*
X108790476Y-87114428D02*
X108838095Y-87066809D01*
X108838095Y-87066809D02*
X108933333Y-87019190D01*
X108933333Y-87019190D02*
X109123809Y-86971571D01*
X109123809Y-86971571D02*
X109219047Y-86923952D01*
X109219047Y-86923952D02*
X109266666Y-86876333D01*
X109266666Y-86876333D02*
X109314285Y-86781095D01*
X109314285Y-86781095D02*
X109314285Y-86685857D01*
X109314285Y-86685857D02*
X109266666Y-86590619D01*
X109266666Y-86590619D02*
X109219047Y-86543000D01*
X109219047Y-86543000D02*
X109123809Y-86495380D01*
X109123809Y-86495380D02*
X108885714Y-86495380D01*
X108885714Y-86495380D02*
X108742857Y-86543000D01*
X108314285Y-87495380D02*
X108314285Y-86495380D01*
X108314285Y-86495380D02*
X107980952Y-87209666D01*
X107980952Y-87209666D02*
X107647619Y-86495380D01*
X107647619Y-86495380D02*
X107647619Y-87495380D01*
X107171428Y-87495380D02*
X107171428Y-86495380D01*
X107171428Y-86495380D02*
X106933333Y-86495380D01*
X106933333Y-86495380D02*
X106790476Y-86543000D01*
X106790476Y-86543000D02*
X106695238Y-86638238D01*
X106695238Y-86638238D02*
X106647619Y-86733476D01*
X106647619Y-86733476D02*
X106600000Y-86923952D01*
X106600000Y-86923952D02*
X106600000Y-87066809D01*
X106600000Y-87066809D02*
X106647619Y-87257285D01*
X106647619Y-87257285D02*
X106695238Y-87352523D01*
X106695238Y-87352523D02*
X106790476Y-87447761D01*
X106790476Y-87447761D02*
X106933333Y-87495380D01*
X106933333Y-87495380D02*
X107171428Y-87495380D01*
X105380952Y-86495380D02*
X105285714Y-86495380D01*
X105285714Y-86495380D02*
X105190476Y-86543000D01*
X105190476Y-86543000D02*
X105142857Y-86590619D01*
X105142857Y-86590619D02*
X105095238Y-86685857D01*
X105095238Y-86685857D02*
X105047619Y-86876333D01*
X105047619Y-86876333D02*
X105047619Y-87114428D01*
X105047619Y-87114428D02*
X105095238Y-87304904D01*
X105095238Y-87304904D02*
X105142857Y-87400142D01*
X105142857Y-87400142D02*
X105190476Y-87447761D01*
X105190476Y-87447761D02*
X105285714Y-87495380D01*
X105285714Y-87495380D02*
X105380952Y-87495380D01*
X105380952Y-87495380D02*
X105476190Y-87447761D01*
X105476190Y-87447761D02*
X105523809Y-87400142D01*
X105523809Y-87400142D02*
X105571428Y-87304904D01*
X105571428Y-87304904D02*
X105619047Y-87114428D01*
X105619047Y-87114428D02*
X105619047Y-86876333D01*
X105619047Y-86876333D02*
X105571428Y-86685857D01*
X105571428Y-86685857D02*
X105523809Y-86590619D01*
X105523809Y-86590619D02*
X105476190Y-86543000D01*
X105476190Y-86543000D02*
X105380952Y-86495380D01*
X104476190Y-86923952D02*
X104571428Y-86876333D01*
X104571428Y-86876333D02*
X104619047Y-86828714D01*
X104619047Y-86828714D02*
X104666666Y-86733476D01*
X104666666Y-86733476D02*
X104666666Y-86685857D01*
X104666666Y-86685857D02*
X104619047Y-86590619D01*
X104619047Y-86590619D02*
X104571428Y-86543000D01*
X104571428Y-86543000D02*
X104476190Y-86495380D01*
X104476190Y-86495380D02*
X104285714Y-86495380D01*
X104285714Y-86495380D02*
X104190476Y-86543000D01*
X104190476Y-86543000D02*
X104142857Y-86590619D01*
X104142857Y-86590619D02*
X104095238Y-86685857D01*
X104095238Y-86685857D02*
X104095238Y-86733476D01*
X104095238Y-86733476D02*
X104142857Y-86828714D01*
X104142857Y-86828714D02*
X104190476Y-86876333D01*
X104190476Y-86876333D02*
X104285714Y-86923952D01*
X104285714Y-86923952D02*
X104476190Y-86923952D01*
X104476190Y-86923952D02*
X104571428Y-86971571D01*
X104571428Y-86971571D02*
X104619047Y-87019190D01*
X104619047Y-87019190D02*
X104666666Y-87114428D01*
X104666666Y-87114428D02*
X104666666Y-87304904D01*
X104666666Y-87304904D02*
X104619047Y-87400142D01*
X104619047Y-87400142D02*
X104571428Y-87447761D01*
X104571428Y-87447761D02*
X104476190Y-87495380D01*
X104476190Y-87495380D02*
X104285714Y-87495380D01*
X104285714Y-87495380D02*
X104190476Y-87447761D01*
X104190476Y-87447761D02*
X104142857Y-87400142D01*
X104142857Y-87400142D02*
X104095238Y-87304904D01*
X104095238Y-87304904D02*
X104095238Y-87114428D01*
X104095238Y-87114428D02*
X104142857Y-87019190D01*
X104142857Y-87019190D02*
X104190476Y-86971571D01*
X104190476Y-86971571D02*
X104285714Y-86923952D01*
X103476190Y-86495380D02*
X103380952Y-86495380D01*
X103380952Y-86495380D02*
X103285714Y-86543000D01*
X103285714Y-86543000D02*
X103238095Y-86590619D01*
X103238095Y-86590619D02*
X103190476Y-86685857D01*
X103190476Y-86685857D02*
X103142857Y-86876333D01*
X103142857Y-86876333D02*
X103142857Y-87114428D01*
X103142857Y-87114428D02*
X103190476Y-87304904D01*
X103190476Y-87304904D02*
X103238095Y-87400142D01*
X103238095Y-87400142D02*
X103285714Y-87447761D01*
X103285714Y-87447761D02*
X103380952Y-87495380D01*
X103380952Y-87495380D02*
X103476190Y-87495380D01*
X103476190Y-87495380D02*
X103571428Y-87447761D01*
X103571428Y-87447761D02*
X103619047Y-87400142D01*
X103619047Y-87400142D02*
X103666666Y-87304904D01*
X103666666Y-87304904D02*
X103714285Y-87114428D01*
X103714285Y-87114428D02*
X103714285Y-86876333D01*
X103714285Y-86876333D02*
X103666666Y-86685857D01*
X103666666Y-86685857D02*
X103619047Y-86590619D01*
X103619047Y-86590619D02*
X103571428Y-86543000D01*
X103571428Y-86543000D02*
X103476190Y-86495380D01*
X102238095Y-86495380D02*
X102714285Y-86495380D01*
X102714285Y-86495380D02*
X102761904Y-86971571D01*
X102761904Y-86971571D02*
X102714285Y-86923952D01*
X102714285Y-86923952D02*
X102619047Y-86876333D01*
X102619047Y-86876333D02*
X102380952Y-86876333D01*
X102380952Y-86876333D02*
X102285714Y-86923952D01*
X102285714Y-86923952D02*
X102238095Y-86971571D01*
X102238095Y-86971571D02*
X102190476Y-87066809D01*
X102190476Y-87066809D02*
X102190476Y-87304904D01*
X102190476Y-87304904D02*
X102238095Y-87400142D01*
X102238095Y-87400142D02*
X102285714Y-87447761D01*
X102285714Y-87447761D02*
X102380952Y-87495380D01*
X102380952Y-87495380D02*
X102619047Y-87495380D01*
X102619047Y-87495380D02*
X102714285Y-87447761D01*
X102714285Y-87447761D02*
X102761904Y-87400142D01*
D11*
%TO.C,J2*%
X170172333Y-108864380D02*
X170172333Y-109578666D01*
X170172333Y-109578666D02*
X170219952Y-109721523D01*
X170219952Y-109721523D02*
X170315190Y-109816761D01*
X170315190Y-109816761D02*
X170458047Y-109864380D01*
X170458047Y-109864380D02*
X170553285Y-109864380D01*
X169743761Y-108959619D02*
X169696142Y-108912000D01*
X169696142Y-108912000D02*
X169600904Y-108864380D01*
X169600904Y-108864380D02*
X169362809Y-108864380D01*
X169362809Y-108864380D02*
X169267571Y-108912000D01*
X169267571Y-108912000D02*
X169219952Y-108959619D01*
X169219952Y-108959619D02*
X169172333Y-109054857D01*
X169172333Y-109054857D02*
X169172333Y-109150095D01*
X169172333Y-109150095D02*
X169219952Y-109292952D01*
X169219952Y-109292952D02*
X169791380Y-109864380D01*
X169791380Y-109864380D02*
X169172333Y-109864380D01*
D12*
X168509000Y-90072000D02*
X171169000Y-90072000D01*
X168509000Y-105372000D02*
X168509000Y-90072000D01*
X168509000Y-105372000D02*
X171169000Y-105372000D01*
X169839000Y-107972000D02*
X171169000Y-107972000D01*
X171169000Y-105372000D02*
X171169000Y-90072000D01*
X171169000Y-107972000D02*
X171169000Y-106642000D01*
%TD*%
M02*
